<svg width="164" height="49" viewBox="0 0 164 49" fill="none" xmlns="http://www.w3.org/2000/svg">
<path d="M36.4545 1.98611C37.2484 1.98611 38.0516 2.27585 38.9528 2.88337C45.5279 7.29019 52.1917 11.5615 58.8368 15.8608C60.2471 16.7721 61.3865 17.8283 61.9749 19.4826C64.7721 27.3195 67.56 35.1612 70.4786 42.9561C71.492 45.6619 70.7308 46.7273 68.0784 46.7273C68.0036 46.7273 67.9289 46.7273 67.8542 46.7227C66.3926 46.69 49.9782 46.6619 34.2784 46.6619C20.6332 46.6619 7.52509 46.6853 5.24155 46.746C5.13882 46.7507 5.03608 46.7507 4.93802 46.7507C2.38364 46.7507 1.37496 45.8114 2.34628 43.143C5.28825 35.0677 8.26291 27.0018 11.1909 18.9218C11.7513 17.375 13.0028 16.5899 14.2589 15.7674C20.778 11.5148 27.3297 7.32291 33.7787 2.97683C34.7407 2.33193 35.5906 1.98611 36.4545 1.98611ZM36.4545 0C35.217 0 34.0122 0.420588 32.6673 1.33186C27.9975 4.47693 23.1829 7.6033 18.5271 10.6222C16.7433 11.7811 14.9594 12.9401 13.1755 14.1037L13.0775 14.1691C11.7513 15.0337 10.0981 16.1132 9.32763 18.2442C7.52042 23.2258 5.67118 28.2869 3.87797 33.1797C2.74788 36.2734 1.61312 39.3624 0.4877 42.4607C0.230861 43.1664 -0.548996 45.3067 0.646473 47.0171C1.84661 48.7368 4.17684 48.7368 4.94269 48.7368C5.05943 48.7368 5.17618 48.7368 5.29759 48.7321C7.24957 48.6807 17.8127 48.648 34.283 48.648C50.081 48.648 66.3786 48.6761 67.8168 48.7088C67.9056 48.7088 67.9943 48.7135 68.083 48.7135C68.8302 48.7135 71.0951 48.7135 72.2718 47.0171C73.4766 45.2787 72.6267 43.0028 72.3465 42.2551C69.568 34.834 66.8549 27.2354 64.2351 19.8845L63.8522 18.8096C62.9976 16.417 61.3025 15.0851 59.9202 14.1878C58.7341 13.4214 57.548 12.655 56.3572 11.884C50.9962 8.42111 45.4485 4.83676 40.0642 1.22905C38.8267 0.401895 37.6453 0 36.4545 0Z" fill="#EDAD63"/>
<path d="M30.2577 31.6376C26.9235 32.0441 24.1122 30.8338 21.4598 29.0954C21.4365 30.5347 20.8761 31.7264 19.9655 32.7591C19.0082 33.8433 17.8267 34.6705 16.6826 35.5304C15.814 36.1846 15.2069 36.9604 14.9268 38.0259C14.6466 39.082 14.2917 40.1148 14.0768 41.1896C13.9368 41.8906 14.0815 42.4093 14.6933 42.8019C15.0388 43.0215 15.2863 43.3206 15.1789 43.8019C15.1042 43.9935 14.9268 44.0076 14.7353 44.0029C14.0955 43.9982 13.4558 44.0029 12.816 43.9982C12.1436 43.9982 11.9054 43.7365 11.9941 43.0776C12.1389 42.0214 12.2836 40.9606 12.4658 39.9092C12.6666 38.7549 12.8674 37.6006 12.9841 36.4276C13.0355 35.9042 13.2503 35.4556 13.5865 35.0537C14.8193 33.5676 15.6179 31.8806 15.9401 29.9739C16.0335 29.4318 16.0055 28.8757 15.9634 28.3336C15.9261 27.8056 15.8841 27.2775 15.8981 26.6373C15.5432 27.3055 15.4731 27.9364 15.361 28.5533C15.221 29.3524 15.0435 30.1375 14.6512 30.8572C14.3384 31.4273 13.9041 31.8572 13.2503 32.0161C13.0775 32.0582 12.9187 32.0675 12.7646 31.946C12.6899 31.7077 12.76 31.488 12.8674 31.2777C13.0308 30.9506 13.241 30.6515 13.4744 30.3665C14.1189 29.5814 14.4738 28.6654 14.4598 27.6654C14.4271 25.6746 15.3891 24.1838 16.734 22.866C17.3597 22.2538 18.0368 21.707 18.7933 21.2023C19.2837 21.721 19.9234 21.7958 20.5865 21.7958C23.7433 21.7958 26.9048 21.7911 30.0616 21.8005C30.8134 21.8005 31.4905 21.665 31.9528 20.978C32.714 21.0948 33.3258 21.478 33.9095 21.9173C34.5025 22.3566 34.9508 22.9361 35.4412 23.4782C36.0296 24.1277 36.716 24.6511 37.5799 24.8474C38.8268 25.1372 40.0409 24.5063 40.6387 23.2912C41.0076 22.5435 41.2551 21.7444 41.5119 20.95C41.8435 19.9078 42.0723 18.8377 42.5299 17.847C41.9742 16.6459 41.9555 16.3188 42.4179 15.9543C42.9595 15.9683 43.3985 16.3001 43.9075 16.5104C44.4212 16.2394 44.9816 16.2487 45.5139 16.4637C46.5973 16.9076 47.7414 17.0619 48.8855 17.2581C49.7728 17.4124 50.52 17.7675 50.7955 18.7442C51.085 19.7723 50.6554 20.4266 49.5953 20.3892C48.4699 20.3471 47.4379 20.6696 46.3918 20.992C46.0603 21.0948 45.9062 21.2864 45.8315 21.6089C45.5746 22.7538 45.3131 23.8941 44.8742 24.9876C44.2391 26.5765 43.3051 27.9504 41.9742 29.072C42.7728 30.3338 43.7534 31.3993 45.0143 32.1843C45.9062 32.7358 46.8728 32.9087 47.9142 32.6704C47.9656 32.5629 47.8115 32.5909 47.7975 32.5068C48.6193 30.5441 49.6747 28.6935 50.8982 26.941C51.0103 26.7821 51.1224 26.6186 51.2298 26.455C51.7668 25.6465 52.4673 25.0858 53.5413 25.0016C53.3218 24.8895 53.1537 24.8708 52.9856 24.8521C52.8175 24.8334 52.6494 24.8054 52.4859 24.768C52.0563 24.6698 51.9116 24.3427 52.2057 24.0717C52.8082 23.5156 53.2051 22.8426 53.4059 22.0061C54.5593 21.8986 55.6754 21.6136 56.8709 21.3192C56.7915 21.9641 56.8569 22.5482 57.1044 23.0436C57.0717 23.3099 56.8849 23.3099 56.7355 23.3754C56.6888 23.7352 56.7121 24.1371 56.3479 24.3754C56.021 24.4362 55.7221 24.3614 55.4139 24.2165C55.3439 24.4362 55.3298 24.6371 55.4326 24.8054C56.1564 26.011 56.3012 27.3476 56.3852 28.7122C56.4366 29.5113 56.7681 30.2216 57.2024 30.8805C57.604 31.488 58.015 32.0909 58.4119 32.6797C58.3605 32.8339 58.1971 32.7919 58.1364 32.8993C58.3232 33.0956 58.5427 33.2685 58.6641 33.5209C58.9069 34.0162 58.7108 34.5116 58.2064 34.6425C57.8375 34.7406 57.534 34.577 57.4032 34.2172C57.3332 34.0209 57.2725 33.8246 57.2118 33.6517C57.0296 33.5676 56.9222 33.7312 56.7681 33.7125C56.6561 33.6658 56.6654 33.5209 56.53 33.3994C56.9923 36.3014 57.5527 39.1334 58.0617 41.9326C57.8655 42.1523 57.618 42.0635 57.4313 42.1897C57.4079 42.456 57.6134 42.5402 57.8002 42.6103C58.1878 42.7645 58.5847 42.8907 58.9676 43.0495C59.4206 43.2365 59.4906 43.5075 59.2058 43.9655H55.9836C55.6334 43.5402 55.596 42.9841 55.4372 42.4093C53.4993 42.6991 51.5613 42.6944 49.6794 42.0401C49.558 42.4747 49.6654 42.7691 50.0063 43.0028C50.2724 43.1804 50.5947 43.2879 50.7441 43.601C50.7348 43.8814 50.5526 43.9608 50.3332 43.9935C49.8989 44.059 49.4786 43.9842 49.0676 43.8393C48.4419 43.6197 47.8488 43.3346 47.2978 42.9093C47.4519 42.4093 47.7181 41.9934 47.9189 41.5401C47.8955 41.3859 47.6901 41.4326 47.6293 41.2737C48.3111 40.1288 48.9602 38.9418 49.3992 37.6567C50.1977 35.3294 50.9636 32.9928 51.7481 30.6609C51.7948 30.516 51.8462 30.3711 51.8649 30.2076C50.9729 31.2871 50.2725 32.4974 49.5346 33.7078C49.4692 33.7826 49.3805 33.6704 49.2591 33.7031C49.1564 34.4368 48.8201 34.9322 47.9889 34.6238C47.5826 34.4742 47.648 34.0209 47.592 33.633C44.566 33.7265 42.7774 31.7778 41.1056 29.6094C39.672 30.4459 38.131 30.7824 36.4545 30.7263C36.5759 31.1562 36.6833 31.5535 36.8001 31.9507C37.2484 33.4975 37.636 35.0677 38.4065 36.5024C38.7801 37.194 38.7848 38.0118 39.0649 38.7455C39.3825 39.5727 39.672 40.4092 39.9662 41.241C40.195 41.8906 40.5826 42.3719 41.2738 42.5775C41.8061 42.7411 42.2964 43.2505 42.1844 43.7832C42.0816 43.9375 41.9229 43.9702 41.7454 43.9702C41.0263 43.9702 40.3118 43.9702 39.5926 43.9702C39.1677 43.9702 39.0229 43.6571 38.9062 43.3346C38.3598 41.8298 37.7901 40.3297 37.0943 38.8904C36.0249 36.6753 34.8808 34.5023 33.5125 32.39C32.7 33.633 31.8734 34.82 31.3224 36.1519C30.7854 37.451 30.0709 38.6754 29.7253 40.0493C29.6179 40.4793 29.4778 40.8999 29.3751 41.3298C29.1603 42.2224 29.179 42.2691 29.9448 42.7691C30.3277 43.0215 30.5612 43.3253 30.4538 43.8113C30.4492 43.8346 30.4305 43.858 30.4165 43.8814C30.2857 43.9982 30.1223 43.9748 29.9682 43.9795C29.3938 43.9842 28.8194 43.9842 28.245 43.9795C27.4745 43.9702 27.1009 43.4888 27.1943 42.7271C27.3858 41.1475 27.9835 39.6802 28.3524 38.152C28.8474 36.0865 29.5105 34.0723 30.1316 32.0442C30.1736 31.9647 30.197 31.8525 30.2577 31.6376Z" fill="#1D1D1B"/>
<path d="M25.2749 21.2116C23.5891 21.2116 21.908 21.2116 20.2222 21.2116C19.363 21.2116 18.966 20.8378 18.9567 19.9826C18.938 18.5993 18.9427 17.2114 18.952 15.8281C18.9567 15.1926 19.4237 14.7813 20.2082 14.6925C20.3389 14.6785 20.4697 14.6785 20.6005 14.6785C23.7572 14.6785 26.9187 14.6738 30.0801 14.6785C31.1589 14.6785 31.6212 15.1411 31.6259 16.2253C31.6305 17.4777 31.6305 18.7348 31.6259 19.9873C31.6259 20.8144 31.2336 21.2023 30.4024 21.2023C28.6932 21.207 26.9841 21.2023 25.2703 21.2023V21.2116H25.2749Z" fill="#1D1D1B"/>
<path d="M21.9828 30.1468C22.6459 30.5113 23.2903 30.8618 23.9628 31.2356C23.6593 32.0675 23.3604 32.8666 23.0709 33.6751C22.6646 34.8013 22.2256 35.9135 21.9081 37.0725C21.796 37.4884 21.8427 37.8622 22.0435 38.2408C22.6459 39.381 23.253 40.5166 23.8227 41.6756C24.0842 42.2036 24.4391 42.5869 24.9761 42.8345C25.5552 43.1009 25.6673 43.3346 25.5926 44.0028C24.7613 44.0636 23.9161 44.0169 23.0942 44.0169C22.842 43.7925 22.7393 43.5215 22.6039 43.2691C21.8287 41.8111 21.1703 40.2876 20.2503 38.9044C20.0262 38.5679 19.7927 38.2361 19.5265 37.9323C19.1669 37.5304 19.1903 37.0725 19.2743 36.6052C19.4144 35.8481 19.4798 35.0817 19.5685 34.3153C19.5919 34.1424 19.6246 33.9928 19.7647 33.862C20.8013 32.8853 21.5485 31.7263 21.9081 30.3337C21.9174 30.2823 21.9454 30.2356 21.9828 30.1468Z" fill="#1D1D1B"/>
<path d="M56.8659 20.7442C55.7731 21.1975 54.643 21.4733 53.4896 21.5854C53.1347 20.9405 53.6204 19.9919 54.3489 19.7816C54.6711 19.6881 54.9886 19.6974 55.3155 19.7722C55.7498 19.875 56.1701 19.9965 56.539 20.2629C56.6884 20.3704 56.8098 20.5059 56.8659 20.7442Z" fill="#1D1D1B"/>
<path d="M104.246 43.8115H104.385H107.283V46.0536H97.5996C96.728 46.0536 95.8618 45.9573 95.0169 45.7593C94.2095 45.5667 93.4288 45.2938 92.7016 44.9299C91.9904 44.5767 91.338 44.1433 90.7498 43.6403C90.167 43.1426 89.6644 42.5861 89.2419 41.9708C88.8195 41.3554 88.4987 40.6918 88.2741 40.0016C88.0442 39.2899 87.9319 38.5568 87.9319 37.813C87.9319 37.0692 88.0442 36.3414 88.2741 35.6297C88.4987 34.9394 88.8195 34.2759 89.2419 33.6605C89.659 33.0505 90.167 32.494 90.7498 31.9963C91.338 31.4933 91.9957 31.0653 92.7069 30.7121C93.4341 30.3482 94.2095 30.07 95.0169 29.8827C95.8618 29.6847 96.728 29.5937 97.5996 29.5937C98.4658 29.5937 99.3267 29.6847 100.172 29.8827C100.979 30.0753 101.76 30.3482 102.487 30.7121C103.198 31.0706 103.861 31.4987 104.455 31.9963C105.038 32.4886 105.551 33.0452 105.968 33.6605C106.39 34.2759 106.711 34.9394 106.936 35.6297C107.166 36.3414 107.278 37.0745 107.278 37.813C107.278 38.5568 107.166 39.2899 106.936 40.0016C106.711 40.6918 106.385 41.3554 105.968 41.9708C105.749 42.2972 105.497 42.6022 105.225 42.8965C104.984 43.1587 104.722 43.4048 104.449 43.6403C104.385 43.6992 104.316 43.7527 104.246 43.8115ZM102.257 42.0885C102.856 41.5373 103.321 40.9005 103.647 40.1942C104 39.4397 104.161 38.6424 104.161 37.8237C104.161 37.005 104 36.2076 103.647 35.4531C103.316 34.7468 102.856 34.1047 102.257 33.5589C101.658 33.0131 100.958 32.5957 100.172 32.296C99.3535 31.9856 98.4872 31.8358 97.5942 31.8358C96.712 31.8358 95.8564 31.9856 95.0436 32.296C94.2576 32.5957 93.5571 33.0131 92.9582 33.5589C92.354 34.11 91.8834 34.7468 91.5519 35.4585C91.199 36.213 91.0386 37.0103 91.0386 37.829C91.0386 38.6477 91.199 39.445 91.5519 40.1995C91.8834 40.9112 92.3487 41.548 92.9582 42.0992C93.5571 42.6396 94.2576 43.0624 95.0436 43.362C95.8564 43.6724 96.712 43.8222 97.5942 43.8222C98.4819 43.8222 99.3535 43.6777 100.172 43.362C100.958 43.0517 101.658 42.6343 102.257 42.0885Z" fill="#EDAD63"/>
<path d="M109.759 37.2939C110.112 36.5394 110.615 35.8812 111.267 35.3086C111.936 34.72 112.722 34.2812 113.593 33.9655C114.55 33.6177 115.566 33.4678 116.598 33.4678C117.63 33.4678 118.652 33.6177 119.609 33.9655C120.069 34.1314 120.513 34.3347 120.924 34.5755C121.288 34.7896 121.63 35.0303 121.946 35.3086C122.598 35.8812 123.101 36.5447 123.459 37.2939C123.828 38.0644 123.994 38.8831 123.994 39.7179V45.5613H120.924V44.8656C120.513 45.1064 120.069 45.3044 119.603 45.4703C118.636 45.8181 117.609 45.9626 116.566 45.9626C115.545 45.9626 114.534 45.8128 113.588 45.4649C112.722 45.1492 111.936 44.7104 111.267 44.1272C110.615 43.56 110.118 42.8964 109.765 42.1473C109.396 41.3714 109.225 40.558 109.225 39.7179C109.225 38.8831 109.39 38.0644 109.759 37.2939ZM120.641 41.3821C120.78 41.0771 120.871 40.756 120.919 40.4349C120.956 40.1995 120.978 39.9587 120.978 39.7179C120.978 39.4824 120.962 39.247 120.919 39.0115C120.865 38.6905 120.775 38.3748 120.635 38.0698C120.422 37.5882 120.117 37.1494 119.71 36.7748C119.315 36.4056 118.844 36.1273 118.315 35.9293C117.769 35.726 117.192 35.635 116.604 35.635C116.016 35.635 115.449 35.7313 114.903 35.9293C114.374 36.1273 113.914 36.4109 113.513 36.7748C113.107 37.1494 112.797 37.5828 112.583 38.0698C112.347 38.5942 112.251 39.1507 112.251 39.7179C112.251 40.2851 112.347 40.847 112.583 41.3767C112.802 41.8637 113.112 42.3025 113.518 42.677C113.919 43.0409 114.39 43.3299 114.919 43.5279C115.459 43.7312 116.032 43.8222 116.62 43.8222C117.208 43.8222 117.785 43.7312 118.331 43.5279C118.86 43.3299 119.325 43.0463 119.721 42.6824C120.128 42.3078 120.427 41.8637 120.641 41.3821Z" fill="#EDAD63"/>
<path d="M127.469 45.5613V36.8926H125.95V34.7682H127.469V34.0083C127.469 32.0391 129.068 30.3321 131.239 29.9736C131.517 29.9255 131.8 29.9041 132.078 29.9041H133.57V32.0284H132.731C131.522 32.0284 130.538 32.906 130.538 33.9816V34.7682H133.57V36.8926H130.538V45.5613H127.469Z" fill="#EDAD63"/>
<path d="M138.966 30.4285C138.966 31.274 138.196 31.9643 137.244 31.9643C136.292 31.9643 135.522 31.2793 135.522 30.4285C135.522 29.583 136.292 28.8927 137.244 28.8927C138.19 28.8981 138.966 29.583 138.966 30.4285ZM138.773 45.5613H135.704V33.8906H138.773V45.5613Z" fill="#EDAD63"/>
<path d="M144.002 29.9094V41.4892C144.002 42.5647 144.986 43.4423 146.195 43.4423H147.034V45.5667H145.542C145.259 45.5667 144.976 45.5453 144.703 45.4971C142.532 45.1386 140.933 43.4316 140.933 41.4624V29.9094H144.002Z" fill="#EDAD63"/>
<path d="M149.526 37.2939C149.879 36.5394 150.381 35.8812 151.034 35.3086C151.702 34.72 152.488 34.2812 153.36 33.9655C154.317 33.6177 155.333 33.4678 156.365 33.4678C157.397 33.4678 158.418 33.6177 159.375 33.9655C159.835 34.1314 160.279 34.3347 160.691 34.5755C161.054 34.7896 161.397 35.0303 161.712 35.3086C162.365 35.8812 162.867 36.5447 163.225 37.2939C163.594 38.0644 163.76 38.8831 163.76 39.7179V45.5613H160.691V44.8656C160.279 45.1064 159.835 45.3044 159.37 45.4703C158.402 45.8181 157.376 45.9626 156.333 45.9626C155.312 45.9626 154.301 45.8128 153.355 45.4649C152.488 45.1492 151.702 44.7104 151.034 44.1272C150.381 43.56 149.884 42.8964 149.531 42.1473C149.162 41.3714 148.991 40.558 148.991 39.7179C148.991 38.8831 149.162 38.0644 149.526 37.2939ZM160.413 41.3821C160.552 41.0771 160.643 40.756 160.691 40.4349C160.728 40.1995 160.75 39.9587 160.75 39.7179C160.75 39.4824 160.734 39.247 160.691 39.0115C160.637 38.6905 160.546 38.3748 160.407 38.0698C160.194 37.5882 159.889 37.1494 159.482 36.7748C159.087 36.4056 158.616 36.1273 158.087 35.9293C157.541 35.726 156.964 35.635 156.376 35.635C155.787 35.635 155.221 35.7313 154.675 35.9293C154.146 36.1273 153.686 36.4109 153.285 36.7748C152.879 37.1494 152.568 37.5828 152.355 38.0698C152.119 38.5942 152.023 39.1507 152.023 39.7179C152.023 40.2851 152.119 40.847 152.355 41.3767C152.574 41.8637 152.884 42.3025 153.29 42.677C153.691 43.0409 154.162 43.3299 154.691 43.5279C155.231 43.7312 155.804 43.8222 156.392 43.8222C156.98 43.8222 157.557 43.7312 158.103 43.5279C158.632 43.3299 159.097 43.0463 159.493 42.6824C159.894 42.3078 160.199 41.8637 160.413 41.3821Z" fill="#EDAD63"/>
<path d="M102.738 9.16336L102.786 21.8508H105.043L105.588 24.9865H98.9951V12.3151H96.1717C95.6584 12.3151 95.1397 12.4115 94.6104 12.5988C94.081 12.786 93.6051 13.075 93.188 13.4656C92.7656 13.8563 92.4234 14.3486 92.1614 14.9425C91.8993 15.5365 91.7657 16.2482 91.7657 17.0669C91.7657 17.8696 91.8887 18.5652 92.14 19.1699C92.3859 19.7692 92.7175 20.2668 93.1292 20.6628C93.5409 21.0588 94.0115 21.3531 94.5409 21.5565C95.0702 21.7544 95.6156 21.8561 96.1771 21.8561H98.1609L98.1342 24.9918H97.1182C96.4391 24.9918 95.744 24.9437 95.0221 24.8527C94.3002 24.7618 93.5998 24.6012 92.9153 24.3658C92.2309 24.1303 91.5839 23.8253 90.985 23.44C90.3807 23.0548 89.8514 22.5732 89.3862 21.9845C88.921 21.3959 88.5627 20.7003 88.2953 19.8923C88.0333 19.0843 87.8997 18.1478 87.8997 17.0723C87.8997 15.7933 88.1724 14.6215 88.7178 13.5566C89.2632 12.4917 89.9797 11.5874 90.8727 10.8329C91.2684 10.5225 91.6748 10.2657 92.0865 10.0623C92.4982 9.859 92.91 9.69312 93.327 9.56469C93.8083 9.42556 94.359 9.32925 94.9847 9.26503C95.6103 9.20082 96.3215 9.16871 97.1182 9.16871H102.738V9.16336ZM93.7922 3.1434C94.1398 3.1434 94.466 3.19156 94.7708 3.28253C95.0756 3.3735 95.3429 3.50192 95.5782 3.66246C95.8081 3.82299 95.9899 4.01028 96.1236 4.21897C96.2573 4.43301 96.3215 4.65241 96.3215 4.87715C96.3215 5.11795 96.2573 5.3427 96.1236 5.55674C95.9899 5.77078 95.8081 5.95272 95.5782 6.11325C95.3483 6.27378 95.0756 6.40221 94.7708 6.49853C94.466 6.59485 94.1398 6.64301 93.7922 6.64301C93.4607 6.64301 93.1452 6.59485 92.8405 6.49853C92.5357 6.40221 92.2683 6.27378 92.0491 6.11325C91.8245 5.95272 91.648 5.76543 91.5144 5.55674C91.3807 5.34805 91.3165 5.11795 91.3165 4.87715C91.3165 4.64706 91.3807 4.42766 91.5144 4.21897C91.648 4.01028 91.8245 3.82299 92.0491 3.66246C92.2737 3.50192 92.5357 3.37885 92.8405 3.28253C93.1452 3.19156 93.4607 3.1434 93.7922 3.1434ZM99.4175 3.1434C99.765 3.1434 100.097 3.19156 100.407 3.28253C100.722 3.3735 100.995 3.50192 101.225 3.66246C101.455 3.82299 101.637 4.01028 101.77 4.21897C101.904 4.43301 101.968 4.65241 101.968 4.87715C101.968 5.11795 101.904 5.3427 101.77 5.55674C101.637 5.77078 101.455 5.95272 101.225 6.11325C100.995 6.27378 100.722 6.40221 100.407 6.49853C100.091 6.59485 99.765 6.64301 99.4175 6.64301C99.086 6.64301 98.7705 6.59485 98.4657 6.49853C98.1609 6.40221 97.8935 6.27378 97.6743 6.11325C97.4497 5.95272 97.2733 5.76543 97.1396 5.55674C97.0059 5.34805 96.9417 5.11795 96.9417 4.87715C96.9417 4.64706 97.0059 4.42766 97.1396 4.21897C97.2733 4.01028 97.4497 3.82299 97.6743 3.66246C97.8989 3.50192 98.1609 3.37885 98.4657 3.28253C98.7705 3.19156 99.086 3.1434 99.4175 3.1434Z" fill="#1D1D1B"/>
<path d="M111.561 2.68317H115.325L115.277 17.2595C115.325 18.0354 115.486 18.715 115.748 19.2929C116.01 19.8708 116.357 20.3471 116.774 20.727C117.197 21.1016 117.673 21.3852 118.197 21.5778C118.726 21.7651 119.272 21.8614 119.833 21.8614H120.774L121.32 24.9972H120.747C120.122 24.9972 119.469 24.9597 118.801 24.8794C118.133 24.7992 117.475 24.66 116.833 24.4674C116.192 24.2748 115.571 24.0126 114.988 23.6808C114.4 23.349 113.876 22.9316 113.416 22.4286C112.935 22.9316 112.406 23.349 111.818 23.6808C111.229 24.0126 110.614 24.2748 109.973 24.4674C109.331 24.66 108.673 24.7992 108.005 24.8794C107.337 24.9597 106.69 24.9972 106.059 24.9972H105.588L105.043 21.8614H107C107.561 21.8614 108.107 21.7651 108.636 21.5778C109.165 21.3905 109.641 21.1069 110.058 20.727C110.481 20.3524 110.823 19.8708 111.085 19.2929C111.347 18.715 111.507 18.0408 111.556 17.2595V2.68317H111.561Z" fill="#1D1D1B"/>
<path d="M131.854 9.35065C132.233 9.47908 132.613 9.63426 132.993 9.83225C133.372 10.0249 133.752 10.271 134.132 10.5707C134.575 10.9506 134.987 11.3841 135.356 11.8764C135.73 12.3687 136.041 12.8984 136.297 13.471C136.554 14.0435 136.757 14.6429 136.907 15.2689C137.057 15.895 137.131 16.5371 137.131 17.19C137.131 18.7311 136.843 20.01 136.265 21.016C135.688 22.022 134.95 22.8247 134.062 23.4186C133.169 24.0126 132.18 24.43 131.089 24.6601C129.998 24.8955 128.94 25.0079 127.918 24.9972H121.32L120.774 21.8615H123.127C122.699 21.1872 122.363 20.4595 122.122 19.6729C121.881 18.8916 121.764 18.0622 121.764 17.1953C121.764 15.9967 121.919 14.9479 122.234 14.0489C122.55 13.1499 122.967 12.3847 123.496 11.7426C124.026 11.1005 124.635 10.5868 125.33 10.1908C126.025 9.79479 126.753 9.50048 127.512 9.30784C128.303 9.13661 129.052 9.0617 129.752 9.0831C130.464 9.09915 131.159 9.19547 131.854 9.35065ZM127.442 12.9894C126.999 13.3319 126.624 13.7706 126.325 14.3004C126.025 14.8302 125.822 15.4027 125.705 16.0127C125.587 16.6228 125.565 17.2488 125.63 17.891C125.694 18.5331 125.86 19.1271 126.127 19.6729C126.389 20.224 126.737 20.6682 127.154 21.0213C127.576 21.3692 128.025 21.6153 128.506 21.7491C128.988 21.8882 129.474 21.9096 129.982 21.8187C130.485 21.7277 130.961 21.5137 131.405 21.1819C131.864 20.8394 132.244 20.4006 132.533 19.8709C132.822 19.3411 133.025 18.7685 133.142 18.1585C133.26 17.5485 133.276 16.9224 133.207 16.2803C133.132 15.6382 132.961 15.0442 132.699 14.4984C132.415 13.9472 132.073 13.5031 131.672 13.1499C131.266 12.8021 130.827 12.5559 130.346 12.4222C129.865 12.283 129.373 12.2616 128.87 12.3473C128.362 12.4329 127.886 12.6469 127.442 12.9894ZM129.03 3.1434C129.378 3.1434 129.704 3.19156 130.009 3.28253C130.314 3.3735 130.586 3.50192 130.827 3.66246C131.068 3.82299 131.255 4.01028 131.383 4.21897C131.517 4.43301 131.581 4.65241 131.581 4.87715C131.581 5.11795 131.517 5.3427 131.383 5.55674C131.25 5.77078 131.068 5.95272 130.827 6.11325C130.586 6.27378 130.314 6.40221 130.009 6.49853C129.704 6.59485 129.378 6.64301 129.03 6.64301C128.699 6.64301 128.383 6.59485 128.079 6.49853C127.774 6.40221 127.507 6.27378 127.287 6.11325C127.063 5.95272 126.886 5.76543 126.753 5.55674C126.619 5.34805 126.555 5.11795 126.555 4.87715C126.555 4.64706 126.619 4.42766 126.753 4.21897C126.886 4.01028 127.063 3.82299 127.287 3.66246C127.512 3.50192 127.774 3.37885 128.079 3.28253C128.378 3.19156 128.699 3.1434 129.03 3.1434Z" fill="#1D1D1B"/>
<path d="M141.965 16.7939C141.965 17.6501 142.093 18.3939 142.35 19.0253C142.607 19.6568 142.949 20.1812 143.377 20.6039C143.805 21.0266 144.291 21.3424 144.837 21.5457C145.382 21.749 145.954 21.8561 146.548 21.8561H147.441L147.986 24.9918H147.489C146.81 24.9918 146.115 24.9436 145.393 24.8527C144.676 24.7617 143.976 24.6012 143.297 24.3657C142.617 24.1303 141.976 23.8253 141.366 23.44C140.757 23.0547 140.217 22.5731 139.757 21.9845C139.292 21.3959 138.933 20.7002 138.666 19.8922C138.404 19.0842 138.27 18.1478 138.27 17.0722C138.27 14.6589 138.265 12.2616 138.26 9.88035C138.254 7.49913 138.254 5.10184 138.27 2.68851H141.987L141.965 16.7939Z" fill="#1D1D1B"/>
<path d="M158.515 9.35065C158.895 9.47908 159.274 9.63426 159.654 9.83225C160.034 10.0249 160.413 10.271 160.793 10.5707C161.237 10.9506 161.648 11.3841 162.017 11.8764C162.392 12.3687 162.702 12.8984 162.958 13.471C163.215 14.0435 163.418 14.6429 163.568 15.2689C163.718 15.895 163.793 16.5371 163.793 17.19C163.793 18.7311 163.504 20.01 162.926 21.016C162.349 22.022 161.611 22.8247 160.723 23.4186C159.83 24.0126 158.841 24.43 157.75 24.6601C156.659 24.8955 155.601 25.0079 154.579 24.9972H147.986L147.441 21.8615H149.794C149.366 21.1872 149.029 20.4595 148.788 19.6729C148.548 18.8916 148.43 18.0622 148.43 17.1953C148.43 15.9967 148.585 14.9479 148.901 14.0489C149.216 13.1499 149.633 12.3847 150.163 11.7426C150.692 11.1005 151.302 10.5868 151.997 10.1908C152.692 9.79479 153.419 9.50048 154.178 9.30784C154.97 9.13661 155.718 9.0617 156.419 9.0831C157.125 9.09915 157.82 9.19547 158.515 9.35065ZM153.585 3.1434C153.932 3.1434 154.259 3.19156 154.563 3.28253C154.868 3.3735 155.141 3.50192 155.381 3.66246C155.622 3.82299 155.809 4.01028 155.938 4.21897C156.071 4.43301 156.135 4.65241 156.135 4.87715C156.135 5.11795 156.071 5.3427 155.938 5.55674C155.804 5.77078 155.622 5.95272 155.381 6.11325C155.141 6.27378 154.868 6.40221 154.563 6.49853C154.259 6.59485 153.932 6.64301 153.585 6.64301C153.253 6.64301 152.938 6.59485 152.633 6.49853C152.328 6.40221 152.061 6.27378 151.842 6.11325C151.617 5.95272 151.441 5.76543 151.307 5.55674C151.173 5.34805 151.109 5.11795 151.109 4.87715C151.109 4.64706 151.173 4.42766 151.307 4.21897C151.441 4.01028 151.617 3.82299 151.842 3.66246C152.066 3.50192 152.328 3.37885 152.633 3.28253C152.938 3.19156 153.253 3.1434 153.585 3.1434ZM154.103 12.9894C153.66 13.3319 153.285 13.7706 152.986 14.3004C152.686 14.8302 152.483 15.4027 152.366 16.0127C152.248 16.6228 152.227 17.2488 152.291 17.891C152.355 18.5331 152.521 19.1271 152.788 19.6729C153.05 20.224 153.398 20.6682 153.815 21.0213C154.237 21.3692 154.686 21.6153 155.168 21.7491C155.649 21.8882 156.135 21.9096 156.643 21.8187C157.146 21.7277 157.622 21.5137 158.066 21.1819C158.526 20.8394 158.905 20.4006 159.194 19.8709C159.483 19.3411 159.686 18.7685 159.804 18.1585C159.921 17.5485 159.937 16.9224 159.868 16.2803C159.793 15.6382 159.622 15.0442 159.36 14.4984C159.076 13.9472 158.734 13.5031 158.333 13.1499C157.927 12.8021 157.488 12.5559 157.007 12.4222C156.526 12.283 156.034 12.2616 155.531 12.3473C155.029 12.4329 154.553 12.6469 154.103 12.9894ZM159.237 3.1434C159.584 3.1434 159.911 3.19156 160.215 3.28253C160.52 3.3735 160.787 3.50192 161.023 3.66246C161.253 3.82299 161.434 4.01028 161.568 4.21897C161.702 4.43301 161.766 4.65241 161.766 4.87715C161.766 5.11795 161.702 5.3427 161.568 5.55674C161.434 5.77078 161.253 5.95272 161.023 6.11325C160.793 6.27378 160.525 6.40221 160.215 6.49853C159.911 6.59485 159.584 6.64301 159.237 6.64301C158.889 6.64301 158.568 6.59485 158.269 6.49853C157.97 6.40221 157.713 6.27378 157.488 6.11325C157.264 5.95272 157.087 5.76543 156.954 5.55674C156.82 5.34805 156.756 5.11795 156.756 4.87715C156.756 4.64706 156.82 4.42766 156.954 4.21897C157.087 4.01028 157.264 3.82299 157.488 3.66246C157.713 3.50192 157.97 3.37885 158.269 3.28253C158.563 3.19156 158.889 3.1434 159.237 3.1434Z" fill="#1D1D1B"/>
</svg>
