<svg width="164" height="49" viewBox="0 0 164 49" fill="none" xmlns="http://www.w3.org/2000/svg">
<path d="M36.4546 1.98611C37.2485 1.98611 38.0517 2.27585 38.9529 2.88337C45.528 7.29019 52.1918 11.5615 58.837 15.8608C60.2472 16.7721 61.3867 17.8283 61.9751 19.4826C64.7723 27.3195 67.5601 35.1612 70.4788 42.9561C71.4921 45.6619 70.7309 46.7273 68.0785 46.7273C68.0038 46.7273 67.929 46.7273 67.8543 46.7227C66.3927 46.69 49.9783 46.6619 34.2785 46.6619C20.6333 46.6619 7.52521 46.6853 5.24168 46.746C5.13894 46.7507 5.03621 46.7507 4.93814 46.7507C2.38376 46.7507 1.37508 45.8114 2.3464 43.143C5.28837 35.0677 8.26304 27.0018 11.191 18.9218C11.7514 17.375 13.0029 16.5899 14.2591 15.7674C20.7781 11.5148 27.3298 7.32291 33.7788 2.97683C34.7408 2.33193 35.5907 1.98611 36.4546 1.98611ZM36.4546 0C35.2171 0 34.0123 0.420588 32.6674 1.33186C27.9976 4.47693 23.183 7.6033 18.5273 10.6222C16.7434 11.7811 14.9595 12.9401 13.1757 14.1037L13.0776 14.1691C11.7514 15.0337 10.0983 16.1132 9.32775 18.2442C7.52054 23.2258 5.6713 28.2869 3.8781 33.1797C2.748 36.2734 1.61324 39.3624 0.487822 42.4607C0.230983 43.1664 -0.548873 45.3067 0.646595 47.0171C1.84673 48.7368 4.17696 48.7368 4.94281 48.7368C5.05955 48.7368 5.1763 48.7368 5.29771 48.7321C7.24969 48.6807 17.8128 48.648 34.2831 48.648C50.0811 48.648 66.3787 48.6761 67.817 48.7088C67.9057 48.7088 67.9944 48.7135 68.0832 48.7135C68.8303 48.7135 71.0952 48.7135 72.272 47.0171C73.4768 45.2787 72.6269 43.0028 72.3467 42.2551C69.5681 34.834 66.855 27.2354 64.2352 19.8845L63.8523 18.8096C62.9977 16.417 61.3026 15.0851 59.9203 14.1878C58.7342 13.4214 57.5481 12.655 56.3573 11.884C50.9964 8.42111 45.4486 4.83676 40.0644 1.22905C38.8269 0.401895 37.6454 0 36.4546 0Z" fill="#EDAD63"/>
<path d="M30.2577 31.6376C26.9235 32.0442 24.1122 30.8338 21.4598 29.0954C21.4365 30.5347 20.8761 31.7264 19.9655 32.7592C19.0082 33.8434 17.8267 34.6705 16.6826 35.5304C15.814 36.1846 15.2069 36.9604 14.9268 38.0259C14.6466 39.082 14.2917 40.1148 14.0768 41.1896C13.9368 41.8906 14.0815 42.4093 14.6933 42.8019C15.0388 43.0215 15.2863 43.3206 15.1789 43.802C15.1042 43.9936 14.9268 44.0076 14.7353 44.0029C14.0955 43.9982 13.4558 44.0029 12.816 43.9982C12.1436 43.9982 11.9054 43.7365 11.9941 43.0776C12.1389 42.0215 12.2836 40.9607 12.4658 39.9092C12.6666 38.7549 12.8674 37.6006 12.9841 36.4276C13.0355 35.9042 13.2503 35.4556 13.5865 35.0537C14.8193 33.5676 15.6179 31.8806 15.9401 29.974C16.0335 29.4319 16.0055 28.8758 15.9634 28.3337C15.9261 27.8056 15.8841 27.2775 15.8981 26.6373C15.5432 27.3056 15.4731 27.9364 15.361 28.5533C15.221 29.3524 15.0435 30.1375 14.6512 30.8572C14.3384 31.4273 13.9041 31.8573 13.2503 32.0161C13.0775 32.0582 12.9187 32.0675 12.7646 31.946C12.6899 31.7077 12.76 31.4881 12.8674 31.2778C13.0308 30.9507 13.241 30.6516 13.4744 30.3665C14.1189 29.5814 14.4738 28.6655 14.4598 27.6654C14.4271 25.6746 15.3891 24.1839 16.734 22.866C17.3597 22.2538 18.0368 21.7071 18.7933 21.2024C19.2837 21.7211 19.9234 21.7958 20.5865 21.7958C23.7433 21.7958 26.9048 21.7912 30.0616 21.8005C30.8134 21.8005 31.4905 21.665 31.9528 20.978C32.714 21.0949 33.3258 21.4781 33.9095 21.9174C34.5025 22.3566 34.9508 22.9361 35.4412 23.4782C36.0296 24.1278 36.716 24.6512 37.5799 24.8474C38.8268 25.1372 40.0409 24.5063 40.6387 23.2913C41.0076 22.5436 41.2551 21.7444 41.5119 20.95C41.8435 19.9079 42.0723 18.8377 42.5299 17.847C41.9742 16.646 41.9555 16.3189 42.4179 15.9543C42.9595 15.9684 43.3985 16.3002 43.9075 16.5105C44.4212 16.2394 44.9816 16.2488 45.5139 16.4637C46.5973 16.9077 47.7414 17.0619 48.8855 17.2582C49.7728 17.4124 50.52 17.7675 50.7955 18.7442C51.085 19.7724 50.6554 20.4266 49.5953 20.3892C48.4699 20.3472 47.4379 20.6696 46.3918 20.9921C46.0603 21.0949 45.9062 21.2865 45.8315 21.6089C45.5746 22.7539 45.3131 23.8941 44.8742 24.9876C44.2391 26.5765 43.3051 27.9505 41.9742 29.072C42.7728 30.3338 43.7534 31.3993 45.0143 32.1844C45.9062 32.7358 46.8728 32.9087 47.9142 32.6704C47.9656 32.5629 47.8115 32.5909 47.7975 32.5068C48.6193 30.5441 49.6747 28.6935 50.8982 26.941C51.0103 26.7822 51.1224 26.6186 51.2298 26.455C51.7668 25.6466 52.4673 25.0858 53.5413 25.0017C53.3218 24.8895 53.1537 24.8708 52.9856 24.8521C52.8175 24.8334 52.6494 24.8054 52.4859 24.768C52.0563 24.6699 51.9116 24.3427 52.2057 24.0717C52.8082 23.5156 53.2051 22.8426 53.4059 22.0061C54.5593 21.8987 55.6754 21.6136 56.8709 21.3192C56.7915 21.9641 56.8569 22.5482 57.1044 23.0436C57.0717 23.31 56.8849 23.31 56.7355 23.3754C56.6888 23.7352 56.7121 24.1371 56.3479 24.3755C56.021 24.4362 55.7221 24.3614 55.4139 24.2166C55.3439 24.4362 55.3298 24.6372 55.4326 24.8054C56.1564 26.0111 56.3012 27.3476 56.3852 28.7122C56.4366 29.5113 56.7681 30.2216 57.2024 30.8806C57.604 31.4881 58.015 32.0909 58.4119 32.6797C58.3605 32.834 58.1971 32.7919 58.1364 32.8994C58.3232 33.0957 58.5427 33.2686 58.6641 33.5209C58.9069 34.0163 58.7108 34.5116 58.2064 34.6425C57.8375 34.7406 57.534 34.5771 57.4032 34.2172C57.3332 34.0209 57.2725 33.8247 57.2118 33.6518C57.0296 33.5676 56.9222 33.7312 56.7681 33.7125C56.6561 33.6658 56.6654 33.5209 56.53 33.3994C56.9923 36.3015 57.5527 39.1334 58.0617 41.9327C57.8655 42.1523 57.618 42.0635 57.4313 42.1897C57.4079 42.4561 57.6134 42.5402 57.8002 42.6103C58.1878 42.7645 58.5847 42.8907 58.9676 43.0496C59.4206 43.2365 59.4906 43.5075 59.2058 43.9655H55.9836C55.6334 43.5403 55.596 42.9841 55.4372 42.4093C53.4993 42.6991 51.5613 42.6944 49.6794 42.0402C49.558 42.4748 49.6654 42.7692 50.0063 43.0028C50.2724 43.1804 50.5947 43.2879 50.7441 43.601C50.7348 43.8814 50.5526 43.9608 50.3332 43.9936C49.8989 44.059 49.4786 43.9842 49.0676 43.8393C48.4419 43.6197 47.8488 43.3346 47.2978 42.9094C47.4519 42.4093 47.7181 41.9934 47.9189 41.5401C47.8955 41.3859 47.6901 41.4326 47.6293 41.2738C48.3111 40.1288 48.9602 38.9418 49.3992 37.6567C50.1977 35.3294 50.9636 32.9928 51.7481 30.6609C51.7948 30.516 51.8462 30.3712 51.8649 30.2076C50.9729 31.2871 50.2725 32.4975 49.5346 33.7078C49.4692 33.7826 49.3805 33.6705 49.2591 33.7032C49.1564 34.4369 48.8201 34.9322 47.9889 34.6238C47.5826 34.4742 47.648 34.0209 47.592 33.6331C44.566 33.7265 42.7774 31.7778 41.1056 29.6094C39.672 30.4459 38.131 30.7824 36.4545 30.7263C36.5759 31.1563 36.6833 31.5535 36.8001 31.9507C37.2484 33.4975 37.636 35.0677 38.4065 36.5024C38.7801 37.1941 38.7848 38.0119 39.0649 38.7456C39.3825 39.5727 39.672 40.4092 39.9662 41.241C40.195 41.8906 40.5826 42.372 41.2738 42.5776C41.8061 42.7411 42.2964 43.2505 42.1844 43.7833C42.0816 43.9375 41.9229 43.9702 41.7454 43.9702C41.0263 43.9702 40.3118 43.9702 39.5926 43.9702C39.1677 43.9702 39.0229 43.6571 38.9062 43.3346C38.3598 41.8299 37.7901 40.3298 37.0943 38.8904C36.0249 36.6753 34.8808 34.5023 33.5125 32.39C32.7 33.6331 31.8734 34.8201 31.3224 36.1519C30.7854 37.4511 30.0709 38.6755 29.7253 40.0494C29.6179 40.4793 29.4778 40.8999 29.3751 41.3298C29.1603 42.2224 29.179 42.2691 29.9448 42.7692C30.3277 43.0215 30.5612 43.3253 30.4538 43.8113C30.4492 43.8347 30.4305 43.858 30.4165 43.8814C30.2857 43.9982 30.1223 43.9749 29.9682 43.9795C29.3938 43.9842 28.8194 43.9842 28.245 43.9795C27.4745 43.9702 27.1009 43.4889 27.1943 42.7271C27.3858 41.1476 27.9835 39.6802 28.3524 38.1521C28.8474 36.0865 29.5105 34.0724 30.1316 32.0442C30.1736 31.9647 30.197 31.8526 30.2577 31.6376Z" fill="white"/>
<path d="M25.275 21.2117C23.5892 21.2117 21.9081 21.2117 20.2223 21.2117C19.3631 21.2117 18.9661 20.8379 18.9568 19.9827C18.9381 18.5994 18.9428 17.2115 18.9521 15.8282C18.9568 15.1926 19.4238 14.7814 20.2083 14.6926C20.339 14.6786 20.4698 14.6786 20.6005 14.6786C23.7573 14.6786 26.9188 14.6739 30.0802 14.6786C31.159 14.6786 31.6213 15.1412 31.6259 16.2254C31.6306 17.4778 31.6306 18.7349 31.6259 19.9873C31.6259 20.8145 31.2337 21.2024 30.4025 21.2024C28.6933 21.2071 26.9842 21.2024 25.2703 21.2024V21.2117H25.275Z" fill="white"/>
<path d="M21.9827 30.1467C22.6458 30.5112 23.2903 30.8617 23.9627 31.2356C23.6592 32.0674 23.3603 32.8665 23.0708 33.675C22.6645 34.8012 22.2255 35.9135 21.908 37.0724C21.7959 37.4883 21.8426 37.8622 22.0434 38.2407C22.6458 39.381 23.2529 40.5166 23.8226 41.6755C24.0841 42.2036 24.439 42.5868 24.9761 42.8345C25.5551 43.1008 25.6672 43.3345 25.5925 44.0028C24.7612 44.0635 23.916 44.0168 23.0941 44.0168C22.842 43.7925 22.7392 43.5214 22.6038 43.2691C21.8286 41.811 21.1702 40.2876 20.2502 38.9043C20.0261 38.5678 19.7926 38.236 19.5264 37.9323C19.1668 37.5304 19.1902 37.0724 19.2742 36.6051C19.4143 35.848 19.4797 35.0816 19.5684 34.3152C19.5918 34.1423 19.6245 33.9928 19.7646 33.8619C20.8013 32.8852 21.5484 31.7263 21.908 30.3337C21.9173 30.2823 21.9454 30.2355 21.9827 30.1467Z" fill="white"/>
<path d="M56.8659 20.7443C55.7732 21.1976 54.6431 21.4733 53.4897 21.5855C53.1348 20.9406 53.6204 19.9919 54.3489 19.7816C54.6711 19.6882 54.9887 19.6975 55.3155 19.7723C55.7498 19.8751 56.1701 19.9966 56.539 20.263C56.6885 20.3705 56.8099 20.506 56.8659 20.7443Z" fill="white"/>
<path d="M104.246 43.8113H104.385H107.283V46.0534H97.5996C96.728 46.0534 95.8617 45.9571 95.0169 45.7591C94.2095 45.5665 93.4288 45.2936 92.7016 44.9297C91.9904 44.5765 91.338 44.1431 90.7498 43.6401C90.167 43.1424 89.6644 42.5859 89.2419 41.9705C88.8195 41.3552 88.4987 40.6916 88.2741 40.0013C88.0442 39.2897 87.9319 38.5566 87.9319 37.8128C87.9319 37.069 88.0442 36.3412 88.2741 35.6295C88.4987 34.9392 88.8195 34.2757 89.2419 33.6603C89.659 33.0503 90.167 32.4938 90.7498 31.9961C91.338 31.4931 91.9957 31.065 92.7069 30.7119C93.4341 30.348 94.2095 30.0697 95.0169 29.8825C95.8617 29.6845 96.728 29.5935 97.5996 29.5935C98.4658 29.5935 99.3267 29.6845 100.172 29.8825C100.979 30.0751 101.76 30.348 102.487 30.7119C103.198 31.0704 103.861 31.4985 104.455 31.9961C105.037 32.4884 105.551 33.0449 105.968 33.6603C106.39 34.2757 106.711 34.9392 106.936 35.6295C107.166 36.3412 107.278 37.0743 107.278 37.8128C107.278 38.5566 107.166 39.2897 106.936 40.0013C106.711 40.6916 106.385 41.3552 105.968 41.9705C105.749 42.297 105.497 42.602 105.225 42.8963C104.984 43.1585 104.722 43.4046 104.449 43.6401C104.385 43.6989 104.316 43.7524 104.246 43.8113ZM102.257 42.0883C102.856 41.5371 103.321 40.9003 103.647 40.194C104 39.4395 104.161 38.6422 104.161 37.8235C104.161 37.0047 104 36.2074 103.647 35.4529C103.316 34.7466 102.856 34.1045 102.257 33.5586C101.658 33.0128 100.958 32.5955 100.172 32.2958C99.3534 31.9854 98.4872 31.8356 97.5942 31.8356C96.7119 31.8356 95.8564 31.9854 95.0436 32.2958C94.2576 32.5955 93.5571 33.0128 92.9582 33.5586C92.354 34.1098 91.8834 34.7466 91.5519 35.4583C91.199 36.2128 91.0386 37.0101 91.0386 37.8288C91.0386 38.6475 91.199 39.4448 91.5519 40.1993C91.8834 40.911 92.3486 41.5478 92.9582 42.099C93.5571 42.6394 94.2576 43.0622 95.0436 43.3618C95.8564 43.6722 96.7119 43.822 97.5942 43.822C98.4819 43.822 99.3534 43.6775 100.172 43.3618C100.958 43.0515 101.658 42.6341 102.257 42.0883Z" fill="#EDAD63"/>
<path d="M109.759 37.2938C110.112 36.5393 110.615 35.8811 111.267 35.3085C111.935 34.7199 112.722 34.2811 113.593 33.9654C114.55 33.6176 115.566 33.4678 116.598 33.4678C117.63 33.4678 118.652 33.6176 119.609 33.9654C120.069 34.1313 120.512 34.3347 120.924 34.5754C121.288 34.7895 121.63 35.0303 121.945 35.3085C122.598 35.8811 123.1 36.5446 123.459 37.2938C123.828 38.0644 123.993 38.8831 123.993 39.7178V45.5612H120.924V44.8656C120.512 45.1064 120.069 45.3044 119.603 45.4702C118.635 45.8181 117.609 45.9625 116.566 45.9625C115.545 45.9625 114.534 45.8127 113.588 45.4649C112.722 45.1492 111.935 44.7104 111.267 44.1271C110.615 43.5599 110.117 42.8964 109.765 42.1472C109.396 41.3713 109.224 40.558 109.224 39.7178C109.224 38.8831 109.39 38.0644 109.759 37.2938ZM120.641 41.382C120.78 41.077 120.871 40.7559 120.919 40.4349C120.956 40.1994 120.978 39.9586 120.978 39.7178C120.978 39.4824 120.962 39.2469 120.919 39.0115C120.865 38.6904 120.774 38.3747 120.635 38.0697C120.421 37.5881 120.117 37.1493 119.71 36.7747C119.315 36.4055 118.844 36.1273 118.315 35.9293C117.769 35.7259 117.192 35.635 116.604 35.635C116.015 35.635 115.449 35.7313 114.903 35.9293C114.374 36.1273 113.914 36.4109 113.513 36.7747C113.107 37.1493 112.796 37.5828 112.582 38.0697C112.347 38.5941 112.251 39.1506 112.251 39.7178C112.251 40.285 112.347 40.8469 112.582 41.3767C112.802 41.8636 113.112 42.3024 113.518 42.677C113.919 43.0409 114.39 43.3298 114.919 43.5278C115.459 43.7311 116.031 43.8221 116.62 43.8221C117.208 43.8221 117.785 43.7311 118.331 43.5278C118.86 43.3298 119.325 43.0462 119.721 42.6823C120.127 42.3078 120.427 41.8636 120.641 41.382Z" fill="#EDAD63"/>
<path d="M127.469 45.5611V36.8923H125.95V34.7679H127.469V34.0081C127.469 32.0389 129.068 30.3319 131.239 29.9734C131.517 29.9252 131.8 29.9038 132.078 29.9038H133.57V32.0282H132.731C131.522 32.0282 130.538 32.9058 130.538 33.9813V34.7679H133.57V36.8923H130.538V45.5611H127.469Z" fill="#EDAD63"/>
<path d="M138.965 30.4283C138.965 31.2738 138.195 31.9641 137.244 31.9641C136.292 31.9641 135.522 31.2792 135.522 30.4283C135.522 29.5829 136.292 28.8926 137.244 28.8926C138.19 28.8979 138.965 29.5829 138.965 30.4283ZM138.773 45.5612H135.704V33.8905H138.773V45.5612Z" fill="#EDAD63"/>
<path d="M144.002 29.9092V41.4889C144.002 42.5645 144.986 43.442 146.195 43.442H147.034V45.5664H145.542C145.259 45.5664 144.976 45.545 144.703 45.4969C142.532 45.1383 140.933 43.4313 140.933 41.4621V29.9092H144.002Z" fill="#EDAD63"/>
<path d="M149.526 37.2938C149.879 36.5393 150.381 35.8811 151.034 35.3085C151.702 34.7199 152.488 34.2811 153.36 33.9654C154.317 33.6176 155.333 33.4678 156.365 33.4678C157.397 33.4678 158.418 33.6176 159.375 33.9654C159.835 34.1313 160.279 34.3347 160.691 34.5754C161.054 34.7895 161.397 35.0303 161.712 35.3085C162.364 35.8811 162.867 36.5446 163.225 37.2938C163.594 38.0644 163.76 38.8831 163.76 39.7178V45.5612H160.691V44.8656C160.279 45.1064 159.835 45.3044 159.37 45.4702C158.402 45.8181 157.376 45.9625 156.333 45.9625C155.311 45.9625 154.301 45.8127 153.354 45.4649C152.488 45.1492 151.702 44.7104 151.034 44.1271C150.381 43.5599 149.884 42.8964 149.531 42.1472C149.162 41.3713 148.991 40.558 148.991 39.7178C148.991 38.8831 149.162 38.0644 149.526 37.2938ZM160.413 41.382C160.552 41.077 160.643 40.7559 160.691 40.4349C160.728 40.1994 160.75 39.9586 160.75 39.7178C160.75 39.4824 160.734 39.2469 160.691 39.0115C160.637 38.6904 160.546 38.3747 160.407 38.0697C160.193 37.5881 159.889 37.1493 159.482 36.7747C159.087 36.4055 158.616 36.1273 158.087 35.9293C157.541 35.7259 156.964 35.635 156.376 35.635C155.787 35.635 155.221 35.7313 154.675 35.9293C154.146 36.1273 153.686 36.4109 153.285 36.7747C152.879 37.1493 152.568 37.5828 152.354 38.0697C152.119 38.5941 152.023 39.1506 152.023 39.7178C152.023 40.285 152.119 40.8469 152.354 41.3767C152.574 41.8636 152.884 42.3024 153.29 42.677C153.691 43.0409 154.162 43.3298 154.691 43.5278C155.231 43.7311 155.803 43.8221 156.392 43.8221C156.98 43.8221 157.557 43.7311 158.103 43.5278C158.632 43.3298 159.097 43.0462 159.493 42.6823C159.894 42.3078 160.199 41.8636 160.413 41.382Z" fill="#EDAD63"/>
<path d="M102.738 9.16327L102.786 21.8507H105.043L105.588 24.9864H98.9951V12.3151H96.1718C95.6585 12.3151 95.1398 12.4114 94.6104 12.5987C94.081 12.7859 93.6051 13.0749 93.1881 13.4655C92.7656 13.8562 92.4234 14.3485 92.1614 14.9424C91.8994 15.5364 91.7657 16.2481 91.7657 17.0668C91.7657 17.8695 91.8887 18.5651 92.14 19.1698C92.386 19.7691 92.7175 20.2668 93.1292 20.6627C93.541 21.0587 94.0115 21.353 94.5409 21.5564C95.0703 21.7544 95.6157 21.856 96.1771 21.856H98.1609L98.1342 24.9918H97.1182C96.4391 24.9918 95.744 24.9436 95.0221 24.8526C94.3003 24.7617 93.5998 24.6011 92.9154 24.3657C92.2309 24.1302 91.5839 23.8252 90.985 23.4399C90.3808 23.0547 89.8514 22.5731 89.3862 21.9845C88.921 21.3958 88.5628 20.7002 88.2954 19.8922C88.0334 19.0842 87.8997 18.1477 87.8997 17.0722C87.8997 15.7933 88.1724 14.6214 88.7178 13.5565C89.2632 12.4916 89.9798 11.5873 90.8727 10.8328C91.2684 10.5224 91.6748 10.2656 92.0865 10.0623C92.4983 9.85891 92.91 9.69303 93.3271 9.5646C93.8083 9.42547 94.3591 9.32915 94.9847 9.26494C95.6103 9.20073 96.3215 9.16862 97.1182 9.16862H102.738V9.16327ZM93.7923 3.14331C94.1399 3.14331 94.466 3.19147 94.7708 3.28244C95.0756 3.37341 95.343 3.50183 95.5783 3.66237C95.8082 3.8229 95.99 4.01019 96.1237 4.21888C96.2573 4.43292 96.3215 4.65232 96.3215 4.87706C96.3215 5.11786 96.2573 5.3426 96.1237 5.55665C95.99 5.77069 95.8082 5.95263 95.5783 6.11316C95.3483 6.27369 95.0756 6.40212 94.7708 6.49844C94.466 6.59476 94.1399 6.64291 93.7923 6.64291C93.4608 6.64291 93.1453 6.59476 92.8405 6.49844C92.5357 6.40212 92.2683 6.27369 92.0491 6.11316C91.8245 5.95263 91.6481 5.76534 91.5144 5.55665C91.3807 5.34795 91.3166 5.11786 91.3166 4.87706C91.3166 4.64697 91.3807 4.42757 91.5144 4.21888C91.6481 4.01019 91.8245 3.8229 92.0491 3.66237C92.2737 3.50183 92.5357 3.37876 92.8405 3.28244C93.1453 3.19147 93.4608 3.14331 93.7923 3.14331ZM99.4175 3.14331C99.7651 3.14331 100.097 3.19147 100.407 3.28244C100.722 3.37341 100.995 3.50183 101.225 3.66237C101.455 3.8229 101.637 4.01019 101.77 4.21888C101.904 4.43292 101.968 4.65232 101.968 4.87706C101.968 5.11786 101.904 5.3426 101.77 5.55665C101.637 5.77069 101.455 5.95263 101.225 6.11316C100.995 6.27369 100.722 6.40212 100.407 6.49844C100.091 6.59476 99.7651 6.64291 99.4175 6.64291C99.086 6.64291 98.7705 6.59476 98.4657 6.49844C98.1609 6.40212 97.8936 6.27369 97.6743 6.11316C97.4498 5.95263 97.2733 5.76534 97.1396 5.55665C97.0059 5.34795 96.9418 5.11786 96.9418 4.87706C96.9418 4.64697 97.0059 4.42757 97.1396 4.21888C97.2733 4.01019 97.4498 3.8229 97.6743 3.66237C97.8989 3.50183 98.1609 3.37876 98.4657 3.28244C98.7705 3.19147 99.086 3.14331 99.4175 3.14331Z" fill="white"/>
<path d="M111.561 2.68311H115.325L115.277 17.2594C115.325 18.0353 115.486 18.7149 115.748 19.2929C116.01 19.8708 116.357 20.347 116.774 20.7269C117.197 21.1015 117.673 21.3851 118.197 21.5778C118.726 21.765 119.272 21.8614 119.833 21.8614H120.774L121.32 24.9971H120.747C120.122 24.9971 119.469 24.9596 118.801 24.8794C118.133 24.7991 117.475 24.66 116.833 24.4673C116.192 24.2747 115.571 24.0125 114.989 23.6807C114.4 23.349 113.876 22.9316 113.416 22.4286C112.935 22.9316 112.406 23.349 111.818 23.6807C111.229 24.0125 110.615 24.2747 109.973 24.4673C109.331 24.66 108.673 24.7991 108.005 24.8794C107.337 24.9596 106.69 24.9971 106.059 24.9971H105.588L105.043 21.8614H107C107.561 21.8614 108.107 21.765 108.636 21.5778C109.165 21.3905 109.641 21.1069 110.058 20.7269C110.481 20.3524 110.823 19.8708 111.085 19.2929C111.347 18.7149 111.507 18.0407 111.556 17.2594V2.68311H111.561Z" fill="white"/>
<path d="M131.854 9.35056C132.233 9.47899 132.613 9.63417 132.993 9.83216C133.372 10.0248 133.752 10.2709 134.132 10.5706C134.575 10.9505 134.987 11.384 135.356 11.8763C135.73 12.3686 136.04 12.8983 136.297 13.4709C136.554 14.0435 136.757 14.6428 136.907 15.2689C137.056 15.8949 137.131 16.5371 137.131 17.1899C137.131 18.731 136.843 20.0099 136.265 21.0159C135.688 22.0219 134.95 22.8246 134.062 23.4185C133.169 24.0125 132.18 24.4299 131.089 24.66C129.998 24.8954 128.939 25.0078 127.918 24.9971H121.32L120.774 21.8614H123.127C122.699 21.1871 122.362 20.4594 122.122 19.6728C121.881 18.8915 121.764 18.0621 121.764 17.1952C121.764 15.9966 121.919 14.9478 122.234 14.0488C122.55 13.1498 122.967 12.3846 123.496 11.7425C124.025 11.1004 124.635 10.5867 125.33 10.1907C126.025 9.7947 126.752 9.50039 127.512 9.30775C128.303 9.13652 129.052 9.0616 129.752 9.08301C130.463 9.09906 131.159 9.19538 131.854 9.35056ZM127.442 12.9893C126.998 13.3318 126.624 13.7706 126.325 14.3003C126.025 14.8301 125.822 15.4026 125.704 16.0127C125.587 16.6227 125.565 17.2487 125.63 17.8909C125.694 18.533 125.859 19.127 126.127 19.6728C126.389 20.2239 126.736 20.6681 127.153 21.0213C127.576 21.3691 128.025 21.6152 128.506 21.749C128.988 21.8881 129.474 21.9095 129.982 21.8186C130.485 21.7276 130.961 21.5136 131.404 21.1818C131.864 20.8393 132.244 20.4005 132.533 19.8708C132.821 19.341 133.025 18.7685 133.142 18.1584C133.26 17.5484 133.276 16.9223 133.206 16.2802C133.132 15.6381 132.961 15.0441 132.699 14.4983C132.415 13.9471 132.073 13.503 131.672 13.1498C131.265 12.802 130.827 12.5559 130.346 12.4221C129.865 12.2829 129.373 12.2615 128.87 12.3472C128.362 12.4328 127.886 12.6468 127.442 12.9893ZM129.03 3.14331C129.378 3.14331 129.704 3.19147 130.009 3.28244C130.314 3.37341 130.586 3.50183 130.827 3.66237C131.068 3.8229 131.255 4.01019 131.383 4.21888C131.517 4.43292 131.581 4.65232 131.581 4.87706C131.581 5.11786 131.517 5.3426 131.383 5.55665C131.249 5.77069 131.068 5.95263 130.827 6.11316C130.586 6.27369 130.314 6.40212 130.009 6.49844C129.704 6.59476 129.378 6.64291 129.03 6.64291C128.699 6.64291 128.383 6.59476 128.079 6.49844C127.774 6.40212 127.506 6.27369 127.287 6.11316C127.063 5.95263 126.886 5.76534 126.752 5.55665C126.619 5.34795 126.555 5.11786 126.555 4.87706C126.555 4.64697 126.619 4.42757 126.752 4.21888C126.886 4.01019 127.063 3.8229 127.287 3.66237C127.512 3.50183 127.774 3.37876 128.079 3.28244C128.378 3.19147 128.699 3.14331 129.03 3.14331Z" fill="white"/>
<path d="M141.965 16.7939C141.965 17.6501 142.093 18.3939 142.35 19.0253C142.607 19.6567 142.949 20.1811 143.377 20.6039C143.805 21.0266 144.291 21.3423 144.837 21.5457C145.382 21.749 145.954 21.856 146.548 21.856H147.441L147.986 24.9918H147.489C146.81 24.9918 146.115 24.9436 145.393 24.8526C144.676 24.7617 143.976 24.6011 143.297 24.3657C142.617 24.1302 141.976 23.8252 141.366 23.44C140.757 23.0547 140.217 22.5731 139.757 21.9845C139.292 21.3958 138.933 20.7002 138.666 19.8922C138.404 19.0842 138.27 18.1477 138.27 17.0722C138.27 14.6588 138.265 12.2616 138.26 9.88032C138.254 7.49909 138.254 5.10181 138.27 2.68848H141.986L141.965 16.7939Z" fill="white"/>
<path d="M158.515 9.35056C158.894 9.47899 159.274 9.63417 159.654 9.83216C160.033 10.0248 160.413 10.2709 160.793 10.5706C161.237 10.9505 161.648 11.384 162.017 11.8763C162.392 12.3686 162.702 12.8983 162.958 13.4709C163.215 14.0435 163.418 14.6428 163.568 15.2689C163.718 15.8949 163.792 16.5371 163.792 17.1899C163.792 18.731 163.504 20.0099 162.926 21.0159C162.349 22.0219 161.611 22.8246 160.723 23.4185C159.83 24.0125 158.841 24.4299 157.75 24.66C156.659 24.8954 155.601 25.0078 154.579 24.9971H147.986L147.441 21.8614H149.794C149.366 21.1871 149.029 20.4594 148.788 19.6728C148.548 18.8915 148.43 18.0621 148.43 17.1952C148.43 15.9966 148.585 14.9478 148.901 14.0488C149.216 13.1498 149.633 12.3846 150.163 11.7425C150.692 11.1004 151.301 10.5867 151.997 10.1907C152.692 9.7947 153.419 9.50039 154.178 9.30775C154.97 9.13652 155.718 9.0616 156.419 9.08301C157.125 9.09906 157.82 9.19538 158.515 9.35056ZM153.585 3.14331C153.932 3.14331 154.258 3.19147 154.563 3.28244C154.868 3.37341 155.141 3.50183 155.381 3.66237C155.622 3.8229 155.809 4.01019 155.937 4.21888C156.071 4.43292 156.135 4.65232 156.135 4.87706C156.135 5.11786 156.071 5.3426 155.937 5.55665C155.804 5.77069 155.622 5.95263 155.381 6.11316C155.141 6.27369 154.868 6.40212 154.563 6.49844C154.258 6.59476 153.932 6.64291 153.585 6.64291C153.253 6.64291 152.938 6.59476 152.633 6.49844C152.328 6.40212 152.061 6.27369 151.842 6.11316C151.617 5.95263 151.44 5.76534 151.307 5.55665C151.173 5.34795 151.109 5.11786 151.109 4.87706C151.109 4.64697 151.173 4.42757 151.307 4.21888C151.44 4.01019 151.617 3.8229 151.842 3.66237C152.066 3.50183 152.328 3.37876 152.633 3.28244C152.938 3.19147 153.253 3.14331 153.585 3.14331ZM154.103 12.9893C153.66 13.3318 153.285 13.7706 152.986 14.3003C152.686 14.8301 152.483 15.4026 152.366 16.0127C152.248 16.6227 152.227 17.2487 152.291 17.8909C152.355 18.533 152.521 19.127 152.788 19.6728C153.05 20.2239 153.398 20.6681 153.815 21.0213C154.237 21.3691 154.686 21.6152 155.167 21.749C155.649 21.8881 156.135 21.9095 156.643 21.8186C157.146 21.7276 157.622 21.5136 158.066 21.1818C158.525 20.8393 158.905 20.4005 159.194 19.8708C159.483 19.341 159.686 18.7685 159.803 18.1584C159.921 17.5484 159.937 16.9223 159.868 16.2802C159.793 15.6381 159.622 15.0441 159.36 14.4983C159.076 13.9471 158.734 13.503 158.333 13.1498C157.927 12.802 157.488 12.5559 157.007 12.4221C156.526 12.2829 156.034 12.2615 155.531 12.3472C155.028 12.4328 154.553 12.6468 154.103 12.9893ZM159.237 3.14331C159.584 3.14331 159.91 3.19147 160.215 3.28244C160.52 3.37341 160.787 3.50183 161.023 3.66237C161.253 3.8229 161.434 4.01019 161.568 4.21888C161.702 4.43292 161.766 4.65232 161.766 4.87706C161.766 5.11786 161.702 5.3426 161.568 5.55665C161.434 5.77069 161.253 5.95263 161.023 6.11316C160.793 6.27369 160.525 6.40212 160.215 6.49844C159.91 6.59476 159.584 6.64291 159.237 6.64291C158.889 6.64291 158.568 6.59476 158.269 6.49844C157.969 6.40212 157.713 6.27369 157.488 6.11316C157.264 5.95263 157.087 5.76534 156.953 5.55665C156.82 5.34795 156.756 5.11786 156.756 4.87706C156.756 4.64697 156.82 4.42757 156.953 4.21888C157.087 4.01019 157.264 3.8229 157.488 3.66237C157.713 3.50183 157.969 3.37876 158.269 3.28244C158.563 3.19147 158.889 3.14331 159.237 3.14331Z" fill="white"/>
</svg>
