<?xml version="1.0" encoding="utf-8"?>
<!-- Generator: Adobe Illustrator 24.3.0, SVG Export Plug-In . SVG Version: 6.00 Build 0)  -->
<svg version="1.1" id="Layer_1" xmlns="http://www.w3.org/2000/svg" xmlns:xlink="http://www.w3.org/1999/xlink" x="0px" y="0px"
	 viewBox="0 0 181.02 16.22" style="enable-background:new 0 0 181.02 16.22;" xml:space="preserve">
<g>
	<g>
		<g>
			<path d="M60.04,0c0.19,0.25,0.18,0.49,0.04,0.75c-9.82,0-19.63,0-29.45,0C30.47,0.51,30.57,0.27,30.61,0C40.41,0,50.21,0,60.04,0
				z"/>
		</g>
		<g>
			<path d="M0.2,0.74c-0.06-0.24-0.04-0.46,0-0.72c9.84,0,19.67,0,29.53,0c0.08,0.23,0.04,0.46,0.03,0.72
				C19.91,0.74,10.08,0.74,0.2,0.74z"/>
		</g>
		<g>
			<path d="M90.46,0.01c0.06,0.26,0.06,0.48,0.02,0.73c-9.84,0-19.68,0-29.51,0c-0.08-0.33-0.08-0.39,0.01-0.73
				C70.8,0.01,80.63,0.01,90.46,0.01z"/>
		</g>
		<g>
			<path d="M60.04,15.46c0.19,0.25,0.18,0.49,0.04,0.75c-9.82,0-19.63,0-29.45,0c-0.16-0.24-0.06-0.48-0.02-0.75
				C40.41,15.46,50.21,15.46,60.04,15.46z"/>
		</g>
		<g>
			<path d="M0.2,16.2c-0.06-0.24-0.04-0.46,0-0.72c9.84,0,19.67,0,29.53,0c0.08,0.23,0.04,0.46,0.03,0.72
				C19.91,16.2,10.08,16.2,0.2,16.2z"/>
		</g>
		<g>
			<path d="M90.46,15.47c0.06,0.26,0.06,0.48,0.02,0.73c-9.84,0-19.68,0-29.51,0c-0.08-0.33-0.08-0.39,0.01-0.73
				C70.8,15.47,80.63,15.47,90.46,15.47z"/>
		</g>
		<g>
			<path d="M1.63,4.47C1.11,4.03,0.65,3.64,0.18,3.25C0.19,3.23,0.2,3.2,0.21,3.18c0.95,0,1.9,0,2.93,0
				C2.67,3.68,2.14,4.04,1.63,4.47z"/>
		</g>
		<g>
			<path d="M69.25,3.16c0.94,0,1.88,0,2.91,0c-0.48,0.52-1,0.88-1.51,1.3c-0.5-0.42-0.98-0.82-1.45-1.22
				C69.22,3.22,69.23,3.19,69.25,3.16z"/>
		</g>
		<g>
			<path d="M7.41,4.48c-0.54-0.42-1.03-0.8-1.56-1.29c1.04,0,1.99,0,3,0C8.41,3.7,7.84,4,7.41,4.48z"/>
		</g>
		<g>
			<path d="M78.28,3.16c0.94,0,1.87,0,2.9,0c-0.44,0.53-0.99,0.86-1.45,1.3c-0.56-0.37-1.01-0.81-1.49-1.22
				C78.26,3.21,78.27,3.19,78.28,3.16z"/>
		</g>
		<g>
			<path d="M90.19,3.25c-0.45,0.42-0.94,0.81-1.46,1.21c-0.5-0.41-0.98-0.81-1.46-1.21c0.02-0.03,0.03-0.05,0.05-0.08
				c0.94,0,1.88,0,2.83,0C90.16,3.2,90.17,3.22,90.19,3.25z"/>
		</g>
		<g>
			<path d="M35.96,3.25c-0.48,0.4-0.95,0.79-1.46,1.22c-0.5-0.41-0.98-0.81-1.47-1.22c0.01-0.03,0.03-0.05,0.04-0.08
				c0.94,0,1.89,0,2.83,0C35.92,3.2,35.94,3.22,35.96,3.25z"/>
		</g>
		<g>
			<path d="M53.99,3.18c-0.44,0.47-0.89,0.9-1.43,1.27c-0.49-0.41-0.97-0.81-1.53-1.27C52.09,3.18,53.04,3.18,53.99,3.18z"/>
		</g>
		<g>
			<path d="M57.36,3.24c-0.48,0.4-0.95,0.8-1.44,1.21c-0.55-0.38-1.03-0.78-1.55-1.28c1.03,0,1.98,0,2.93,0
				C57.32,3.2,57.34,3.22,57.36,3.24z"/>
		</g>
		<g>
			<path d="M25.48,4.5c-0.5-0.48-1.05-0.8-1.53-1.32c1.03,0,1.97,0,2.99,0C26.51,3.69,25.93,3.99,25.48,4.5z"/>
		</g>
		<g>
			<path d="M54.25,2.8c-0.53-0.44-1.02-0.84-1.57-1.29c1.04,0,2.02,0,3.06,0C55.3,2,54.73,2.31,54.25,2.8z"/>
		</g>
		<g>
			<path d="M12.14,3.26c-0.47,0.39-0.94,0.78-1.44,1.2c-0.52-0.39-1-0.8-1.53-1.29c1.04,0,1.98,0,2.92,0
				C12.1,3.21,12.12,3.23,12.14,3.26z"/>
		</g>
		<g>
			<path d="M16.4,4.46c-0.5-0.42-0.97-0.81-1.44-1.21C14.97,3.23,14.98,3.2,15,3.18c0.94,0,1.89,0,2.92,0
				C17.43,3.67,16.92,4.05,16.4,4.46z"/>
		</g>
		<g>
			<path d="M63.27,2.8c-0.53-0.44-1.01-0.85-1.55-1.3c1.05,0,2.03,0,3.11,0C64.28,1.96,63.8,2.36,63.27,2.8z"/>
		</g>
		<g>
			<path d="M43.71,1.5c0.98,0,1.97,0,3.04,0c-0.54,0.45-1.02,0.85-1.54,1.28C44.66,2.43,44.23,1.94,43.71,1.5z"/>
		</g>
		<g>
			<path d="M72.49,3.17c1.02,0,1.95,0,2.96,0c-0.43,0.52-0.98,0.84-1.46,1.28C73.47,4.08,72.98,3.68,72.49,3.17z"/>
		</g>
		<g>
			<path d="M81.61,3.17c0.95,0,1.89,0,2.89,0c-0.44,0.52-0.98,0.86-1.48,1.29c-0.51-0.39-0.99-0.79-1.45-1.21
				C81.58,3.22,81.59,3.19,81.61,3.17z"/>
		</g>
		<g>
			<path d="M70.73,1.49c1.08,0,2.06,0,3.15,0c-0.56,0.46-1.04,0.87-1.57,1.3C71.81,2.37,71.31,1.96,70.73,1.49z"/>
		</g>
		<g>
			<path d="M63.08,3.25c-0.48,0.4-0.95,0.79-1.46,1.22c-0.5-0.42-0.98-0.82-1.47-1.22c0.01-0.02,0.03-0.05,0.04-0.07
				c0.94,0,1.89,0,2.83,0C63.04,3.2,63.06,3.23,63.08,3.25z"/>
		</g>
		<g>
			<path d="M7.45,1.49c1.09,0,2.07,0,3.14,0C10.03,1.96,9.54,2.37,9.03,2.8C8.51,2.37,8.02,1.96,7.45,1.49z"/>
		</g>
		<g>
			<path d="M18.08,2.79c-0.51-0.42-1.01-0.83-1.57-1.28c1.06,0,2.04,0,3.1,0C19.08,1.95,18.61,2.35,18.08,2.79z"/>
		</g>
		<g>
			<path d="M25.53,1.49c1.08,0,2.06,0,3.13,0c-0.54,0.46-1.03,0.87-1.55,1.31C26.6,2.37,26.1,1.97,25.53,1.49z"/>
		</g>
		<g>
			<path d="M36.15,2.79c-0.52-0.43-1.01-0.84-1.57-1.3c1.07,0,2.05,0,3.12,0C37.16,1.95,36.69,2.35,36.15,2.79z"/>
		</g>
		<g>
			<path d="M36.39,3.16c0.94,0,1.88,0,2.91,0c-0.45,0.53-1,0.84-1.46,1.3c-0.54-0.38-1-0.81-1.49-1.22
				C36.35,3.22,36.37,3.19,36.39,3.16z"/>
		</g>
		<g>
			<path d="M28.79,4.45c-0.56-0.36-1-0.81-1.47-1.27c0.95,0,1.9,0,2.94,0C29.78,3.68,29.27,4.03,28.79,4.45z"/>
		</g>
		<g>
			<path d="M21.18,3.26c-0.48,0.4-0.95,0.79-1.45,1.21c-0.52-0.42-1.01-0.8-1.52-1.3c1.03,0,1.97,0,2.91,0
				C21.14,3.2,21.16,3.23,21.18,3.26z"/>
		</g>
		<g>
			<path d="M64.93,4.46c-0.52-0.43-1-0.82-1.47-1.22c0.02-0.02,0.03-0.05,0.05-0.07c0.95,0,1.89,0,2.92,0
				C65.97,3.69,65.42,4.01,64.93,4.46z"/>
		</g>
		<g>
			<path d="M42.12,3.17c0.94,0,1.89,0,2.92,0c-0.45,0.55-1.04,0.82-1.48,1.32c-0.53-0.44-1.01-0.83-1.49-1.23
				C42.09,3.23,42.11,3.2,42.12,3.17z"/>
		</g>
		<g>
			<path d="M82.87,1.51c-0.48,0.48-0.99,0.84-1.49,1.26c-0.56-0.35-1-0.83-1.61-1.26C80.84,1.51,81.82,1.51,82.87,1.51z"/>
		</g>
		<g>
			<path d="M46.85,4.47c-0.51-0.42-0.99-0.82-1.55-1.29c1.05,0,1.99,0,3.01,0C47.89,3.69,47.35,4.01,46.85,4.47z"/>
		</g>
		<g>
			<path d="M79.81,7.83c0.52-0.43,1.01-0.84,1.54-1.28c0.5,0.41,0.99,0.81,1.55,1.28C81.83,7.83,80.84,7.83,79.81,7.83z"/>
		</g>
		<g>
			<path d="M37.73,7.84c-1.08,0-2.07,0-3.14,0c0.55-0.46,1.04-0.87,1.56-1.29C36.65,6.97,37.15,7.37,37.73,7.84z"/>
		</g>
		<g>
			<path d="M61.72,7.83c0.54-0.44,1.03-0.85,1.56-1.29c0.5,0.41,0.99,0.82,1.55,1.29C63.75,7.83,62.76,7.83,61.72,7.83z"/>
		</g>
		<g>
			<path d="M18.07,6.55c0.52,0.43,1.01,0.83,1.57,1.29c-1.08,0-2.06,0-3.14,0C17.06,7.39,17.55,6.98,18.07,6.55z"/>
		</g>
		<g>
			<path d="M52.67,7.83c0.56-0.46,1.05-0.86,1.56-1.29c0.5,0.42,0.99,0.82,1.55,1.29C54.72,7.83,53.74,7.83,52.67,7.83z"/>
		</g>
		<g>
			<path d="M70.74,7.84c0.54-0.44,1.03-0.85,1.55-1.27c0.54,0.36,0.99,0.82,1.49,1.27C72.79,7.84,71.8,7.84,70.74,7.84z"/>
		</g>
		<g>
			<path d="M9.03,6.55c0.52,0.43,1.01,0.84,1.56,1.29c-1.05,0-2.04,0-3.1,0C8.02,7.38,8.51,6.97,9.03,6.55z"/>
		</g>
		<g>
			<path d="M45.19,6.57c0.54,0.37,1,0.81,1.55,1.26c-1.06,0-2.04,0-3.07,0C44.17,7.37,44.65,6.98,45.19,6.57z"/>
		</g>
		<g>
			<path d="M28.57,7.85c-0.97,0-1.93,0-3.02,0c0.56-0.47,1.05-0.88,1.53-1.29c0.56,0.36,1.01,0.83,1.52,1.21
				C28.6,7.8,28.59,7.83,28.57,7.85z"/>
		</g>
		<g>
			<path d="M17.95,6.07c-1.05,0-2,0-3.05,0c0.56-0.46,1.03-0.86,1.52-1.27C16.91,5.22,17.39,5.62,17.95,6.07z"/>
		</g>
		<g>
			<path d="M42.09,6c0.46-0.38,0.93-0.76,1.41-1.16c0.56,0.35,1,0.78,1.54,1.24c-1.04,0-1.98,0-2.92,0C42.11,6.05,42.1,6.03,42.09,6
				z"/>
		</g>
		<g>
			<path d="M24.03,6.05c0.46-0.42,0.89-0.86,1.43-1.2c0.54,0.34,0.96,0.78,1.44,1.19C25.94,6.14,24.99,6.1,24.03,6.05z"/>
		</g>
		<g>
			<path d="M7.39,4.83C7.9,5.25,8.36,5.63,8.9,6.07c-1.04,0-1.99,0-3.01,0C6.39,5.61,6.86,5.22,7.39,4.83z"/>
		</g>
		<g>
			<path d="M72.44,6.07c0.54-0.45,1.01-0.83,1.52-1.26C74.45,5.21,74.92,5.6,75.4,6c-0.01,0.03-0.02,0.05-0.03,0.08
				C74.43,6.07,73.49,6.07,72.44,6.07z"/>
		</g>
		<g>
			<path d="M57.27,6.09c-0.93,0-1.87,0-2.92,0c0.54-0.45,1-0.84,1.5-1.26C56.4,5.17,56.83,5.62,57.32,6
				C57.3,6.03,57.29,6.06,57.27,6.09z"/>
		</g>
		<g>
			<path d="M28.77,4.82c0.5,0.41,0.97,0.8,1.53,1.26c-1.05,0-2,0-3.02,0C27.75,5.6,28.26,5.25,28.77,4.82z"/>
		</g>
		<g>
			<path d="M34.5,4.81c0.49,0.41,0.97,0.81,1.52,1.26c-1.05,0-2,0-3.05,0C33.53,5.61,34.01,5.21,34.5,4.81z"/>
		</g>
		<g>
			<path d="M9.16,6.06c0.54-0.44,1.02-0.83,1.52-1.24c0.48,0.39,0.96,0.78,1.52,1.24C11.16,6.06,10.21,6.06,9.16,6.06z"/>
		</g>
		<g>
			<path d="M48.37,6.08c-1.05,0-1.99,0-3.02,0c0.49-0.48,1-0.85,1.5-1.26C47.37,5.24,47.83,5.63,48.37,6.08z"/>
		</g>
		<g>
			<path d="M37.78,4.84c0.55,0.33,0.97,0.78,1.44,1.23c-0.95,0-1.91,0-2.94,0C36.82,5.63,37.29,5.25,37.78,4.84z"/>
		</g>
		<g>
			<path d="M3.05,6.08c-0.94,0-1.89,0-2.91,0C0.63,5.6,1.12,5.24,1.63,4.85C2.18,5.19,2.6,5.63,3.05,6.08z"/>
		</g>
		<g>
			<path d="M51.08,6.06c0.52-0.44,0.97-0.85,1.51-1.23c0.48,0.4,0.95,0.78,1.5,1.23C53.05,6.06,52.1,6.06,51.08,6.06z"/>
		</g>
		<g>
			<path d="M60.09,6.07c0.54-0.44,1-0.83,1.5-1.24c0.54,0.36,0.99,0.78,1.54,1.24C62.09,6.07,61.14,6.07,60.09,6.07z"/>
		</g>
		<g>
			<path d="M64.94,4.82c0.52,0.44,0.99,0.82,1.51,1.25c-1.02,0-1.98,0-3.01,0C63.92,5.6,64.43,5.23,64.94,4.82z"/>
		</g>
		<g>
			<path d="M79.67,4.84c0.55,0.35,0.98,0.79,1.55,1.23c-1.05,0-1.99,0-3.04,0C78.71,5.63,79.18,5.24,79.67,4.84z"/>
		</g>
		<g>
			<path d="M84.54,6.09c-1.05,0-2,0-3.06,0c0.57-0.47,1.01-0.93,1.59-1.24C83.56,5.27,84.02,5.65,84.54,6.09z"/>
		</g>
		<g>
			<path d="M88.74,4.83c0.52,0.43,1,0.81,1.54,1.25c-1.05,0-2,0-3.08,0C87.76,5.63,88.23,5.24,88.74,4.83z"/>
		</g>
		<g>
			<path d="M69.19,6.06c0.46-0.47,0.96-0.82,1.46-1.22c0.54,0.35,0.97,0.79,1.54,1.22C71.14,6.06,70.19,6.06,69.19,6.06z"/>
		</g>
		<g>
			<path d="M19.69,4.84c0.56,0.36,1,0.79,1.54,1.24c-1.04,0-1.98,0-3.02,0C18.73,5.64,19.19,5.26,19.69,4.84z"/>
		</g>
		<g>
			<path d="M90.4,1.51c0,0.4,0.07,0.79-0.07,1.23c-0.52-0.43-0.98-0.81-1.48-1.23C89.38,1.51,89.86,1.51,90.4,1.51z"/>
		</g>
		<g>
			<path d="M0,2.65c0-0.37,0-0.73,0-1.14c0.47,0,0.96,0,1.53,0C1.02,1.93,0.56,2.32,0.1,2.7C0.06,2.68,0.03,2.67,0,2.65z"/>
		</g>
		<g>
			<path d="M90.42,7.84c-0.53,0-1,0-1.52,0c0.44-0.47,0.94-0.81,1.45-1.25C90.44,7.03,90.38,7.4,90.42,7.84z"/>
		</g>
		<g>
			<path d="M0.01,6.58c0.54,0.44,1.02,0.83,1.55,1.26c-0.56,0-1.04,0-1.55,0C0.01,7.44,0.01,7.07,0.01,6.58z"/>
		</g>
		<g>
			<path d="M1.63,10.81c-0.52-0.43-0.99-0.83-1.45-1.22C0.19,9.57,0.2,9.55,0.21,9.52c0.95,0,1.9,0,2.93,0
				C2.67,10.02,2.14,10.38,1.63,10.81z"/>
		</g>
		<g>
			<path d="M69.25,9.51c0.94,0,1.88,0,2.91,0c-0.48,0.52-1,0.88-1.51,1.3c-0.5-0.42-0.98-0.82-1.45-1.22
				C69.22,9.56,69.23,9.54,69.25,9.51z"/>
		</g>
		<g>
			<path d="M7.41,10.82c-0.54-0.42-1.03-0.8-1.56-1.29c1.04,0,1.99,0,3,0C8.41,10.04,7.84,10.34,7.41,10.82z"/>
		</g>
		<g>
			<path d="M78.28,9.5c0.94,0,1.87,0,2.9,0c-0.44,0.53-0.99,0.86-1.45,1.3c-0.56-0.37-1.01-0.81-1.49-1.22
				C78.26,9.56,78.27,9.53,78.28,9.5z"/>
		</g>
		<g>
			<path d="M90.19,9.59c-0.45,0.42-0.94,0.81-1.46,1.21c-0.5-0.41-0.98-0.81-1.46-1.21c0.02-0.03,0.03-0.05,0.05-0.08
				c0.94,0,1.88,0,2.83,0C90.16,9.54,90.17,9.57,90.19,9.59z"/>
		</g>
		<g>
			<path d="M35.96,9.59c-0.48,0.4-0.95,0.79-1.46,1.22C34,10.4,33.52,10,33.03,9.6c0.01-0.03,0.03-0.05,0.04-0.08
				c0.94,0,1.89,0,2.83,0C35.92,9.54,35.94,9.57,35.96,9.59z"/>
		</g>
		<g>
			<path d="M53.99,9.53c-0.44,0.47-0.89,0.9-1.43,1.27c-0.49-0.41-0.97-0.81-1.53-1.27C52.09,9.53,53.04,9.53,53.99,9.53z"/>
		</g>
		<g>
			<path d="M57.36,9.58c-0.48,0.4-0.95,0.8-1.44,1.21c-0.55-0.38-1.03-0.78-1.55-1.28c1.03,0,1.98,0,2.93,0
				C57.32,9.54,57.34,9.56,57.36,9.58z"/>
		</g>
		<g>
			<path d="M25.48,10.84c-0.5-0.48-1.05-0.8-1.53-1.32c1.03,0,1.97,0,2.99,0C26.51,10.03,25.93,10.33,25.48,10.84z"/>
		</g>
		<g>
			<path d="M54.25,9.15c-0.53-0.44-1.02-0.84-1.57-1.29c1.04,0,2.02,0,3.06,0C55.3,8.34,54.73,8.65,54.25,9.15z"/>
		</g>
		<g>
			<path d="M12.14,9.6c-0.47,0.39-0.94,0.78-1.44,1.2c-0.52-0.39-1-0.8-1.53-1.29c1.04,0,1.98,0,2.92,0
				C12.1,9.55,12.12,9.58,12.14,9.6z"/>
		</g>
		<g>
			<path d="M16.4,10.8c-0.5-0.42-0.97-0.81-1.44-1.21c0.01-0.03,0.03-0.05,0.04-0.08c0.94,0,1.89,0,2.92,0
				C17.43,10.01,16.92,10.39,16.4,10.8z"/>
		</g>
		<g>
			<path d="M63.27,9.14c-0.53-0.44-1.01-0.85-1.55-1.3c1.05,0,2.03,0,3.11,0C64.28,8.3,63.8,8.7,63.27,9.14z"/>
		</g>
		<g>
			<path d="M43.71,7.84c0.98,0,1.97,0,3.04,0c-0.54,0.45-1.02,0.85-1.54,1.28C44.66,8.77,44.23,8.28,43.71,7.84z"/>
		</g>
		<g>
			<path d="M72.49,9.52c1.02,0,1.95,0,2.96,0c-0.43,0.52-0.98,0.84-1.46,1.28C73.47,10.42,72.98,10.03,72.49,9.52z"/>
		</g>
		<g>
			<path d="M81.61,9.51c0.95,0,1.89,0,2.89,0c-0.44,0.52-0.98,0.86-1.48,1.29c-0.51-0.39-0.99-0.79-1.45-1.21
				C81.58,9.56,81.59,9.54,81.61,9.51z"/>
		</g>
		<g>
			<path d="M70.73,7.83c1.08,0,2.06,0,3.15,0c-0.56,0.46-1.04,0.87-1.57,1.3C71.81,8.72,71.31,8.31,70.73,7.83z"/>
		</g>
		<g>
			<path d="M63.08,9.6c-0.48,0.4-0.95,0.79-1.46,1.22c-0.5-0.42-0.98-0.82-1.47-1.22c0.01-0.02,0.03-0.05,0.04-0.07
				c0.94,0,1.89,0,2.83,0C63.04,9.54,63.06,9.57,63.08,9.6z"/>
		</g>
		<g>
			<path d="M7.45,7.83c1.09,0,2.07,0,3.14,0C10.03,8.3,9.54,8.71,9.03,9.14C8.51,8.71,8.02,8.3,7.45,7.83z"/>
		</g>
		<g>
			<path d="M18.08,9.14c-0.51-0.42-1.01-0.83-1.57-1.28c1.06,0,2.04,0,3.1,0C19.08,8.29,18.61,8.69,18.08,9.14z"/>
		</g>
		<g>
			<path d="M25.53,7.84c1.08,0,2.06,0,3.13,0c-0.54,0.46-1.03,0.87-1.55,1.31C26.6,8.72,26.1,8.31,25.53,7.84z"/>
		</g>
		<g>
			<path d="M36.15,9.14c-0.52-0.43-1.01-0.84-1.57-1.3c1.07,0,2.05,0,3.12,0C37.16,8.29,36.69,8.69,36.15,9.14z"/>
		</g>
		<g>
			<path d="M36.39,9.51c0.94,0,1.88,0,2.91,0c-0.45,0.53-1,0.84-1.46,1.3c-0.54-0.38-1-0.81-1.49-1.22
				C36.35,9.56,36.37,9.53,36.39,9.51z"/>
		</g>
		<g>
			<path d="M28.79,10.79c-0.56-0.36-1-0.81-1.47-1.27c0.95,0,1.9,0,2.94,0C29.78,10.02,29.27,10.37,28.79,10.79z"/>
		</g>
		<g>
			<path d="M21.18,9.6c-0.48,0.4-0.95,0.79-1.45,1.21c-0.52-0.42-1.01-0.8-1.52-1.3c1.03,0,1.97,0,2.91,0
				C21.14,9.54,21.16,9.57,21.18,9.6z"/>
		</g>
		<g>
			<path d="M64.93,10.81c-0.52-0.43-1-0.82-1.47-1.22c0.02-0.02,0.03-0.05,0.05-0.07c0.95,0,1.89,0,2.92,0
				C65.97,10.04,65.42,10.36,64.93,10.81z"/>
		</g>
		<g>
			<path d="M42.12,9.51c0.94,0,1.89,0,2.92,0c-0.45,0.55-1.04,0.82-1.48,1.32c-0.53-0.44-1.01-0.83-1.49-1.23
				C42.09,9.57,42.11,9.54,42.12,9.51z"/>
		</g>
		<g>
			<path d="M82.87,7.85c-0.48,0.48-0.99,0.84-1.49,1.26c-0.56-0.35-1-0.83-1.61-1.26C80.84,7.85,81.82,7.85,82.87,7.85z"/>
		</g>
		<g>
			<path d="M46.85,10.81c-0.51-0.42-0.99-0.82-1.55-1.29c1.05,0,1.99,0,3.01,0C47.89,10.03,47.35,10.35,46.85,10.81z"/>
		</g>
		<g>
			<path d="M79.81,14.17c0.52-0.43,1.01-0.84,1.54-1.28c0.5,0.41,0.99,0.81,1.55,1.28C81.83,14.17,80.84,14.17,79.81,14.17z"/>
		</g>
		<g>
			<path d="M37.73,14.19c-1.08,0-2.07,0-3.14,0c0.55-0.46,1.04-0.87,1.56-1.29C36.65,13.31,37.15,13.71,37.73,14.19z"/>
		</g>
		<g>
			<path d="M61.72,14.18c0.54-0.44,1.03-0.85,1.56-1.29c0.5,0.41,0.99,0.82,1.55,1.29C63.75,14.18,62.76,14.18,61.72,14.18z"/>
		</g>
		<g>
			<path d="M18.07,12.9c0.52,0.43,1.01,0.83,1.57,1.29c-1.08,0-2.06,0-3.14,0C17.06,13.73,17.55,13.32,18.07,12.9z"/>
		</g>
		<g>
			<path d="M52.67,14.17c0.56-0.46,1.05-0.86,1.56-1.29c0.5,0.42,0.99,0.82,1.55,1.29C54.72,14.17,53.74,14.17,52.67,14.17z"/>
		</g>
		<g>
			<path d="M70.74,14.18c0.54-0.44,1.03-0.85,1.55-1.27c0.54,0.36,0.99,0.82,1.49,1.27C72.79,14.18,71.8,14.18,70.74,14.18z"/>
		</g>
		<g>
			<path d="M9.03,12.89c0.52,0.43,1.01,0.84,1.56,1.29c-1.05,0-2.04,0-3.1,0C8.02,13.72,8.51,13.32,9.03,12.89z"/>
		</g>
		<g>
			<path d="M45.19,12.92c0.54,0.37,1,0.81,1.55,1.26c-1.06,0-2.04,0-3.07,0C44.17,13.71,44.65,13.32,45.19,12.92z"/>
		</g>
		<g>
			<path d="M28.57,14.19c-0.97,0-1.93,0-3.02,0c0.56-0.47,1.05-0.88,1.53-1.29c0.56,0.36,1.01,0.83,1.52,1.21
				C28.6,14.14,28.59,14.17,28.57,14.19z"/>
		</g>
		<g>
			<path d="M17.95,12.42c-1.05,0-2,0-3.05,0c0.56-0.46,1.03-0.86,1.52-1.27C16.91,11.56,17.39,11.96,17.95,12.42z"/>
		</g>
		<g>
			<path d="M42.09,12.34c0.46-0.38,0.93-0.76,1.41-1.16c0.56,0.35,1,0.78,1.54,1.24c-1.04,0-1.98,0-2.92,0
				C42.11,12.4,42.1,12.37,42.09,12.34z"/>
		</g>
		<g>
			<path d="M24.03,12.39c0.46-0.42,0.89-0.86,1.43-1.2c0.54,0.34,0.96,0.78,1.44,1.19C25.94,12.48,24.99,12.45,24.03,12.39z"/>
		</g>
		<g>
			<path d="M7.39,11.18c0.51,0.42,0.97,0.8,1.51,1.23c-1.04,0-1.99,0-3.01,0C6.39,11.95,6.86,11.56,7.39,11.18z"/>
		</g>
		<g>
			<path d="M72.44,12.41c0.54-0.45,1.01-0.83,1.52-1.26c0.49,0.4,0.96,0.79,1.44,1.18c-0.01,0.03-0.02,0.05-0.03,0.08
				C74.43,12.41,73.49,12.41,72.44,12.41z"/>
		</g>
		<g>
			<path d="M57.27,12.43c-0.93,0-1.87,0-2.92,0c0.54-0.45,1-0.84,1.5-1.26c0.54,0.33,0.98,0.79,1.47,1.17
				C57.3,12.37,57.29,12.4,57.27,12.43z"/>
		</g>
		<g>
			<path d="M28.77,11.17c0.5,0.41,0.97,0.8,1.53,1.26c-1.05,0-2,0-3.02,0C27.75,11.94,28.26,11.6,28.77,11.17z"/>
		</g>
		<g>
			<path d="M34.5,11.15c0.49,0.41,0.97,0.81,1.52,1.26c-1.05,0-2,0-3.05,0C33.53,11.95,34.01,11.56,34.5,11.15z"/>
		</g>
		<g>
			<path d="M9.16,12.41c0.54-0.44,1.02-0.83,1.52-1.24c0.48,0.39,0.96,0.78,1.52,1.24C11.16,12.41,10.21,12.41,9.16,12.41z"/>
		</g>
		<g>
			<path d="M48.37,12.42c-1.05,0-1.99,0-3.02,0c0.49-0.48,1-0.85,1.5-1.26C47.37,11.58,47.83,11.97,48.37,12.42z"/>
		</g>
		<g>
			<path d="M37.78,11.18c0.55,0.33,0.97,0.78,1.44,1.23c-0.95,0-1.91,0-2.94,0C36.82,11.97,37.29,11.59,37.78,11.18z"/>
		</g>
		<g>
			<path d="M3.05,12.43c-0.94,0-1.89,0-2.91,0c0.49-0.48,0.98-0.84,1.49-1.23C2.18,11.53,2.6,11.98,3.05,12.43z"/>
		</g>
		<g>
			<path d="M51.08,12.4c0.52-0.44,0.97-0.85,1.51-1.23c0.48,0.4,0.95,0.78,1.5,1.23C53.05,12.4,52.1,12.4,51.08,12.4z"/>
		</g>
		<g>
			<path d="M60.09,12.42c0.54-0.44,1-0.83,1.5-1.24c0.54,0.36,0.99,0.78,1.54,1.24C62.09,12.42,61.14,12.42,60.09,12.42z"/>
		</g>
		<g>
			<path d="M64.94,11.16c0.52,0.44,0.99,0.82,1.51,1.25c-1.02,0-1.98,0-3.01,0C63.92,11.94,64.43,11.58,64.94,11.16z"/>
		</g>
		<g>
			<path d="M79.67,11.18c0.55,0.35,0.98,0.79,1.55,1.23c-1.05,0-1.99,0-3.04,0C78.71,11.97,79.18,11.58,79.67,11.18z"/>
		</g>
		<g>
			<path d="M84.54,12.43c-1.05,0-2,0-3.06,0c0.57-0.47,1.01-0.93,1.59-1.24C83.56,11.61,84.02,12,84.54,12.43z"/>
		</g>
		<g>
			<path d="M88.74,11.17c0.52,0.43,1,0.81,1.54,1.25c-1.05,0-2,0-3.08,0C87.76,11.97,88.23,11.59,88.74,11.17z"/>
		</g>
		<g>
			<path d="M69.19,12.41c0.46-0.47,0.96-0.82,1.46-1.22c0.54,0.35,0.97,0.79,1.54,1.22C71.14,12.41,70.19,12.41,69.19,12.41z"/>
		</g>
		<g>
			<path d="M19.69,11.18c0.56,0.36,1,0.79,1.54,1.24c-1.04,0-1.98,0-3.02,0C18.73,11.99,19.19,11.6,19.69,11.18z"/>
		</g>
		<g>
			<path d="M90.4,7.85c0,0.4,0.07,0.79-0.07,1.23c-0.52-0.43-0.98-0.81-1.48-1.23C89.38,7.85,89.86,7.85,90.4,7.85z"/>
		</g>
		<g>
			<path d="M0,9c0-0.37,0-0.73,0-1.14c0.47,0,0.96,0,1.53,0c-0.5,0.42-0.97,0.8-1.43,1.19C0.06,9.03,0.03,9.01,0,9z"/>
		</g>
		<g>
			<path d="M90.42,14.18c-0.53,0-1,0-1.52,0c0.44-0.47,0.94-0.81,1.45-1.25C90.44,13.37,90.38,13.75,90.42,14.18z"/>
		</g>
		<g>
			<path d="M0.01,12.92c0.54,0.44,1.02,0.83,1.55,1.26c-0.56,0-1.04,0-1.55,0C0.01,13.79,0.01,13.41,0.01,12.92z"/>
		</g>
	</g>
	<g>
		<g>
			<path d="M150.55,0c0.19,0.25,0.18,0.49,0.04,0.75c-9.82,0-19.63,0-29.45,0c-0.16-0.24-0.06-0.48-0.02-0.75
				C130.92,0,140.72,0,150.55,0z"/>
		</g>
		<g>
			<path d="M90.71,0.74c-0.06-0.24-0.04-0.46,0-0.72c9.84,0,19.67,0,29.53,0c0.08,0.23,0.04,0.46,0.03,0.72
				C110.43,0.74,100.59,0.74,90.71,0.74z"/>
		</g>
		<g>
			<path d="M180.97,0.01c0.06,0.26,0.06,0.48,0.02,0.73c-9.84,0-19.68,0-29.51,0c-0.08-0.33-0.08-0.39,0.01-0.73
				C161.31,0.01,171.15,0.01,180.97,0.01z"/>
		</g>
		<g>
			<path d="M150.55,15.46c0.19,0.25,0.18,0.49,0.04,0.75c-9.82,0-19.63,0-29.45,0c-0.16-0.24-0.06-0.48-0.02-0.75
				C130.92,15.46,140.72,15.46,150.55,15.46z"/>
		</g>
		<g>
			<path d="M90.71,16.2c-0.06-0.24-0.04-0.46,0-0.72c9.84,0,19.67,0,29.53,0c0.08,0.23,0.04,0.46,0.03,0.72
				C110.43,16.2,100.59,16.2,90.71,16.2z"/>
		</g>
		<g>
			<path d="M180.97,15.47c0.06,0.26,0.06,0.48,0.02,0.73c-9.84,0-19.68,0-29.51,0c-0.08-0.33-0.08-0.39,0.01-0.73
				C161.31,15.47,171.15,15.47,180.97,15.47z"/>
		</g>
		<g>
			<path d="M92.14,4.47c-0.52-0.43-0.99-0.83-1.45-1.22c0.01-0.02,0.02-0.05,0.04-0.07c0.95,0,1.9,0,2.93,0
				C93.18,3.68,92.65,4.04,92.14,4.47z"/>
		</g>
		<g>
			<path d="M159.76,3.16c0.94,0,1.88,0,2.91,0c-0.48,0.52-1,0.88-1.51,1.3c-0.5-0.42-0.98-0.82-1.45-1.22
				C159.73,3.22,159.75,3.19,159.76,3.16z"/>
		</g>
		<g>
			<path d="M97.92,4.48c-0.54-0.42-1.03-0.8-1.56-1.29c1.04,0,1.99,0,3,0C98.93,3.7,98.35,4,97.92,4.48z"/>
		</g>
		<g>
			<path d="M168.8,3.16c0.94,0,1.87,0,2.9,0c-0.44,0.53-0.99,0.86-1.45,1.3c-0.56-0.37-1.01-0.81-1.49-1.22
				C168.77,3.21,168.78,3.19,168.8,3.16z"/>
		</g>
		<g>
			<path d="M180.7,3.25c-0.45,0.42-0.94,0.81-1.46,1.21c-0.5-0.41-0.98-0.81-1.46-1.21c0.02-0.03,0.03-0.05,0.05-0.08
				c0.94,0,1.88,0,2.83,0C180.67,3.2,180.69,3.22,180.7,3.25z"/>
		</g>
		<g>
			<path d="M126.47,3.25c-0.48,0.4-0.95,0.79-1.46,1.22c-0.5-0.41-0.98-0.81-1.47-1.22c0.01-0.03,0.03-0.05,0.04-0.08
				c0.94,0,1.89,0,2.83,0C126.44,3.2,126.45,3.22,126.47,3.25z"/>
		</g>
		<g>
			<path d="M144.5,3.18c-0.44,0.47-0.89,0.9-1.43,1.27c-0.49-0.41-0.97-0.81-1.53-1.27C142.61,3.18,143.56,3.18,144.5,3.18z"/>
		</g>
		<g>
			<path d="M147.87,3.24c-0.48,0.4-0.95,0.8-1.44,1.21c-0.55-0.38-1.03-0.78-1.55-1.28c1.03,0,1.98,0,2.93,0
				C147.83,3.2,147.85,3.22,147.87,3.24z"/>
		</g>
		<g>
			<path d="M115.99,4.5c-0.5-0.48-1.05-0.8-1.53-1.32c1.03,0,1.97,0,2.99,0C117.02,3.69,116.44,3.99,115.99,4.5z"/>
		</g>
		<g>
			<path d="M144.76,2.8c-0.53-0.44-1.02-0.84-1.57-1.29c1.04,0,2.02,0,3.06,0C145.81,2,145.24,2.31,144.76,2.8z"/>
		</g>
		<g>
			<path d="M102.65,3.26c-0.47,0.39-0.94,0.78-1.44,1.2c-0.52-0.39-1-0.8-1.53-1.29c1.04,0,1.98,0,2.92,0
				C102.61,3.21,102.63,3.23,102.65,3.26z"/>
		</g>
		<g>
			<path d="M106.91,4.46c-0.5-0.42-0.97-0.81-1.44-1.21c0.01-0.03,0.03-0.05,0.04-0.08c0.94,0,1.89,0,2.92,0
				C107.94,3.67,107.43,4.05,106.91,4.46z"/>
		</g>
		<g>
			<path d="M153.79,2.8c-0.53-0.44-1.01-0.85-1.55-1.3c1.05,0,2.03,0,3.11,0C154.8,1.96,154.31,2.36,153.79,2.8z"/>
		</g>
		<g>
			<path d="M134.22,1.5c0.98,0,1.97,0,3.04,0c-0.54,0.45-1.02,0.85-1.54,1.28C135.18,2.43,134.74,1.94,134.22,1.5z"/>
		</g>
		<g>
			<path d="M163,3.17c1.02,0,1.95,0,2.96,0c-0.43,0.52-0.98,0.84-1.46,1.28C163.98,4.08,163.49,3.68,163,3.17z"/>
		</g>
		<g>
			<path d="M172.12,3.17c0.95,0,1.89,0,2.89,0c-0.44,0.52-0.98,0.86-1.48,1.29c-0.51-0.39-0.99-0.79-1.45-1.21
				C172.09,3.22,172.11,3.19,172.12,3.17z"/>
		</g>
		<g>
			<path d="M161.25,1.49c1.08,0,2.06,0,3.15,0c-0.56,0.46-1.04,0.87-1.57,1.3C162.32,2.37,161.82,1.96,161.25,1.49z"/>
		</g>
		<g>
			<path d="M153.59,3.25c-0.48,0.4-0.95,0.79-1.46,1.22c-0.5-0.42-0.98-0.82-1.47-1.22c0.01-0.02,0.03-0.05,0.04-0.07
				c0.94,0,1.89,0,2.83,0C153.56,3.2,153.57,3.23,153.59,3.25z"/>
		</g>
		<g>
			<path d="M97.96,1.49c1.09,0,2.07,0,3.14,0c-0.56,0.46-1.05,0.88-1.56,1.31C99.02,2.37,98.53,1.96,97.96,1.49z"/>
		</g>
		<g>
			<path d="M108.59,2.79c-0.51-0.42-1.01-0.83-1.57-1.28c1.06,0,2.04,0,3.1,0C109.6,1.95,109.12,2.35,108.59,2.79z"/>
		</g>
		<g>
			<path d="M116.04,1.49c1.08,0,2.06,0,3.13,0c-0.54,0.46-1.03,0.87-1.55,1.31C117.11,2.37,116.62,1.97,116.04,1.49z"/>
		</g>
		<g>
			<path d="M126.66,2.79c-0.52-0.43-1.01-0.84-1.57-1.3c1.07,0,2.05,0,3.12,0C127.68,1.95,127.2,2.35,126.66,2.79z"/>
		</g>
		<g>
			<path d="M126.9,3.16c0.94,0,1.88,0,2.91,0c-0.45,0.53-1,0.84-1.46,1.3c-0.54-0.38-1-0.81-1.49-1.22
				C126.86,3.22,126.88,3.19,126.9,3.16z"/>
		</g>
		<g>
			<path d="M119.3,4.45c-0.56-0.36-1-0.81-1.47-1.27c0.95,0,1.9,0,2.94,0C120.29,3.68,119.78,4.03,119.3,4.45z"/>
		</g>
		<g>
			<path d="M111.69,3.26c-0.48,0.4-0.95,0.79-1.45,1.21c-0.52-0.42-1.01-0.8-1.52-1.3c1.03,0,1.97,0,2.91,0
				C111.65,3.2,111.67,3.23,111.69,3.26z"/>
		</g>
		<g>
			<path d="M155.44,4.46c-0.52-0.43-1-0.82-1.47-1.22c0.02-0.02,0.03-0.05,0.05-0.07c0.95,0,1.89,0,2.92,0
				C156.48,3.69,155.93,4.01,155.44,4.46z"/>
		</g>
		<g>
			<path d="M132.63,3.17c0.94,0,1.89,0,2.92,0c-0.45,0.55-1.04,0.82-1.48,1.32c-0.53-0.44-1.01-0.83-1.49-1.23
				C132.6,3.23,132.62,3.2,132.63,3.17z"/>
		</g>
		<g>
			<path d="M173.38,1.51c-0.48,0.48-0.99,0.84-1.49,1.26c-0.56-0.35-1-0.83-1.61-1.26C171.35,1.51,172.33,1.51,173.38,1.51z"/>
		</g>
		<g>
			<path d="M137.36,4.47c-0.51-0.42-0.99-0.82-1.55-1.29c1.05,0,1.99,0,3.01,0C138.4,3.69,137.86,4.01,137.36,4.47z"/>
		</g>
		<g>
			<path d="M170.32,7.83c0.52-0.43,1.01-0.84,1.54-1.28c0.5,0.41,0.99,0.81,1.55,1.28C172.34,7.83,171.35,7.83,170.32,7.83z"/>
		</g>
		<g>
			<path d="M128.24,7.84c-1.08,0-2.07,0-3.14,0c0.55-0.46,1.04-0.87,1.56-1.29C127.17,6.97,127.66,7.37,128.24,7.84z"/>
		</g>
		<g>
			<path d="M152.23,7.83c0.54-0.44,1.03-0.85,1.56-1.29c0.5,0.41,0.99,0.82,1.55,1.29C154.26,7.83,153.27,7.83,152.23,7.83z"/>
		</g>
		<g>
			<path d="M108.58,6.55c0.52,0.43,1.01,0.83,1.57,1.29c-1.08,0-2.06,0-3.14,0C107.57,7.39,108.06,6.98,108.58,6.55z"/>
		</g>
		<g>
			<path d="M143.19,7.83c0.56-0.46,1.05-0.86,1.56-1.29c0.5,0.42,0.99,0.82,1.55,1.29C145.23,7.83,144.26,7.83,143.19,7.83z"/>
		</g>
		<g>
			<path d="M161.25,7.84c0.54-0.44,1.03-0.85,1.55-1.27c0.54,0.36,0.99,0.82,1.49,1.27C163.3,7.84,162.31,7.84,161.25,7.84z"/>
		</g>
		<g>
			<path d="M99.54,6.55c0.52,0.43,1.01,0.84,1.56,1.29c-1.05,0-2.04,0-3.1,0C98.54,7.38,99.02,6.97,99.54,6.55z"/>
		</g>
		<g>
			<path d="M135.7,6.57c0.54,0.37,1,0.81,1.55,1.26c-1.06,0-2.04,0-3.07,0C134.68,7.37,135.17,6.98,135.7,6.57z"/>
		</g>
		<g>
			<path d="M119.09,7.85c-0.97,0-1.93,0-3.02,0c0.56-0.47,1.05-0.88,1.53-1.29c0.56,0.36,1.01,0.83,1.52,1.21
				C119.11,7.8,119.1,7.83,119.09,7.85z"/>
		</g>
		<g>
			<path d="M108.46,6.07c-1.05,0-2,0-3.05,0c0.56-0.46,1.03-0.86,1.52-1.27C107.43,5.22,107.9,5.62,108.46,6.07z"/>
		</g>
		<g>
			<path d="M132.6,6c0.46-0.38,0.93-0.76,1.41-1.16c0.56,0.35,1,0.78,1.54,1.24c-1.04,0-1.98,0-2.92,0
				C132.62,6.05,132.61,6.03,132.6,6z"/>
		</g>
		<g>
			<path d="M114.54,6.05c0.46-0.42,0.89-0.86,1.43-1.2c0.54,0.34,0.96,0.78,1.44,1.19C116.45,6.14,115.5,6.1,114.54,6.05z"/>
		</g>
		<g>
			<path d="M97.9,4.83c0.51,0.42,0.97,0.8,1.51,1.23c-1.04,0-1.99,0-3.01,0C96.9,5.61,97.37,5.22,97.9,4.83z"/>
		</g>
		<g>
			<path d="M162.95,6.07c0.54-0.45,1.01-0.83,1.52-1.26c0.49,0.4,0.96,0.79,1.44,1.18c-0.01,0.03-0.02,0.05-0.03,0.08
				C164.94,6.07,164,6.07,162.95,6.07z"/>
		</g>
		<g>
			<path d="M147.78,6.09c-0.93,0-1.87,0-2.92,0c0.54-0.45,1-0.84,1.5-1.26c0.54,0.33,0.98,0.79,1.47,1.17
				C147.82,6.03,147.8,6.06,147.78,6.09z"/>
		</g>
		<g>
			<path d="M119.28,4.82c0.5,0.41,0.97,0.8,1.53,1.26c-1.05,0-2,0-3.02,0C118.26,5.6,118.78,5.25,119.28,4.82z"/>
		</g>
		<g>
			<path d="M125.01,4.81c0.49,0.41,0.97,0.81,1.52,1.26c-1.05,0-2,0-3.05,0C124.04,5.61,124.52,5.21,125.01,4.81z"/>
		</g>
		<g>
			<path d="M99.68,6.06c0.54-0.44,1.02-0.83,1.52-1.24c0.48,0.39,0.96,0.78,1.52,1.24C101.67,6.06,100.72,6.06,99.68,6.06z"/>
		</g>
		<g>
			<path d="M138.88,6.08c-1.05,0-1.99,0-3.02,0c0.49-0.48,1-0.85,1.5-1.26C137.88,5.24,138.34,5.63,138.88,6.08z"/>
		</g>
		<g>
			<path d="M128.3,4.84c0.55,0.33,0.97,0.78,1.44,1.23c-0.95,0-1.91,0-2.94,0C127.33,5.63,127.8,5.25,128.3,4.84z"/>
		</g>
		<g>
			<path d="M93.56,6.08c-0.94,0-1.89,0-2.91,0c0.49-0.48,0.98-0.84,1.49-1.23C92.69,5.19,93.11,5.63,93.56,6.08z"/>
		</g>
		<g>
			<path d="M141.59,6.06c0.52-0.44,0.97-0.85,1.51-1.23c0.48,0.4,0.95,0.78,1.5,1.23C143.57,6.06,142.61,6.06,141.59,6.06z"/>
		</g>
		<g>
			<path d="M150.6,6.07c0.54-0.44,1-0.83,1.5-1.24c0.54,0.36,0.99,0.78,1.54,1.24C152.6,6.07,151.65,6.07,150.6,6.07z"/>
		</g>
		<g>
			<path d="M155.45,4.82c0.52,0.44,0.99,0.82,1.51,1.25c-1.02,0-1.98,0-3.01,0C154.43,5.6,154.94,5.23,155.45,4.82z"/>
		</g>
		<g>
			<path d="M170.19,4.84c0.55,0.35,0.98,0.79,1.55,1.23c-1.05,0-1.99,0-3.04,0C169.22,5.63,169.7,5.24,170.19,4.84z"/>
		</g>
		<g>
			<path d="M175.05,6.09c-1.05,0-2,0-3.06,0c0.57-0.47,1.01-0.93,1.59-1.24C174.07,5.27,174.53,5.65,175.05,6.09z"/>
		</g>
		<g>
			<path d="M179.26,4.83c0.52,0.43,1,0.81,1.54,1.25c-1.05,0-2,0-3.08,0C178.27,5.63,178.74,5.24,179.26,4.83z"/>
		</g>
		<g>
			<path d="M159.7,6.06c0.46-0.47,0.96-0.82,1.46-1.22c0.54,0.35,0.97,0.79,1.54,1.22C161.65,6.06,160.7,6.06,159.7,6.06z"/>
		</g>
		<g>
			<path d="M110.2,4.84c0.56,0.36,1,0.79,1.54,1.24c-1.04,0-1.98,0-3.02,0C109.24,5.64,109.7,5.26,110.2,4.84z"/>
		</g>
		<g>
			<path d="M180.91,1.51c0,0.4,0.07,0.79-0.07,1.23c-0.52-0.43-0.98-0.81-1.48-1.23C179.89,1.51,180.37,1.51,180.91,1.51z"/>
		</g>
		<g>
			<path d="M90.51,2.65c0-0.37,0-0.73,0-1.14c0.47,0,0.96,0,1.53,0c-0.5,0.42-0.97,0.8-1.43,1.19C90.58,2.68,90.54,2.67,90.51,2.65z
				"/>
		</g>
		<g>
			<path d="M180.93,7.84c-0.53,0-1,0-1.52,0c0.44-0.47,0.94-0.81,1.45-1.25C180.95,7.03,180.89,7.4,180.93,7.84z"/>
		</g>
		<g>
			<path d="M90.53,6.58c0.54,0.44,1.02,0.83,1.55,1.26c-0.56,0-1.04,0-1.55,0C90.53,7.44,90.53,7.07,90.53,6.58z"/>
		</g>
		<g>
			<path d="M92.14,10.81c-0.52-0.43-0.99-0.83-1.45-1.22c0.01-0.02,0.02-0.05,0.04-0.07c0.95,0,1.9,0,2.93,0
				C93.18,10.02,92.65,10.38,92.14,10.81z"/>
		</g>
		<g>
			<path d="M159.76,9.51c0.94,0,1.88,0,2.91,0c-0.48,0.52-1,0.88-1.51,1.3c-0.5-0.42-0.98-0.82-1.45-1.22
				C159.73,9.56,159.75,9.54,159.76,9.51z"/>
		</g>
		<g>
			<path d="M97.92,10.82c-0.54-0.42-1.03-0.8-1.56-1.29c1.04,0,1.99,0,3,0C98.93,10.04,98.35,10.34,97.92,10.82z"/>
		</g>
		<g>
			<path d="M168.8,9.5c0.94,0,1.87,0,2.9,0c-0.44,0.53-0.99,0.86-1.45,1.3c-0.56-0.37-1.01-0.81-1.49-1.22
				C168.77,9.56,168.78,9.53,168.8,9.5z"/>
		</g>
		<g>
			<path d="M180.7,9.59c-0.45,0.42-0.94,0.81-1.46,1.21c-0.5-0.41-0.98-0.81-1.46-1.21c0.02-0.03,0.03-0.05,0.05-0.08
				c0.94,0,1.88,0,2.83,0C180.67,9.54,180.69,9.57,180.7,9.59z"/>
		</g>
		<g>
			<path d="M126.47,9.59c-0.48,0.4-0.95,0.79-1.46,1.22c-0.5-0.41-0.98-0.81-1.47-1.22c0.01-0.03,0.03-0.05,0.04-0.08
				c0.94,0,1.89,0,2.83,0C126.44,9.54,126.45,9.57,126.47,9.59z"/>
		</g>
		<g>
			<path d="M144.5,9.53c-0.44,0.47-0.89,0.9-1.43,1.27c-0.49-0.41-0.97-0.81-1.53-1.27C142.61,9.53,143.56,9.53,144.5,9.53z"/>
		</g>
		<g>
			<path d="M147.87,9.58c-0.48,0.4-0.95,0.8-1.44,1.21c-0.55-0.38-1.03-0.78-1.55-1.28c1.03,0,1.98,0,2.93,0
				C147.83,9.54,147.85,9.56,147.87,9.58z"/>
		</g>
		<g>
			<path d="M115.99,10.84c-0.5-0.48-1.05-0.8-1.53-1.32c1.03,0,1.97,0,2.99,0C117.02,10.03,116.44,10.33,115.99,10.84z"/>
		</g>
		<g>
			<path d="M144.76,9.15c-0.53-0.44-1.02-0.84-1.57-1.29c1.04,0,2.02,0,3.06,0C145.81,8.34,145.24,8.65,144.76,9.15z"/>
		</g>
		<g>
			<path d="M102.65,9.6c-0.47,0.39-0.94,0.78-1.44,1.2c-0.52-0.39-1-0.8-1.53-1.29c1.04,0,1.98,0,2.92,0
				C102.61,9.55,102.63,9.58,102.65,9.6z"/>
		</g>
		<g>
			<path d="M106.91,10.8c-0.5-0.42-0.97-0.81-1.44-1.21c0.01-0.03,0.03-0.05,0.04-0.08c0.94,0,1.89,0,2.92,0
				C107.94,10.01,107.43,10.39,106.91,10.8z"/>
		</g>
		<g>
			<path d="M153.79,9.14c-0.53-0.44-1.01-0.85-1.55-1.3c1.05,0,2.03,0,3.11,0C154.8,8.3,154.31,8.7,153.79,9.14z"/>
		</g>
		<g>
			<path d="M134.22,7.84c0.98,0,1.97,0,3.04,0c-0.54,0.45-1.02,0.85-1.54,1.28C135.18,8.77,134.74,8.28,134.22,7.84z"/>
		</g>
		<g>
			<path d="M163,9.52c1.02,0,1.95,0,2.96,0c-0.43,0.52-0.98,0.84-1.46,1.28C163.98,10.42,163.49,10.03,163,9.52z"/>
		</g>
		<g>
			<path d="M172.12,9.51c0.95,0,1.89,0,2.89,0c-0.44,0.52-0.98,0.86-1.48,1.29c-0.51-0.39-0.99-0.79-1.45-1.21
				C172.09,9.56,172.11,9.54,172.12,9.51z"/>
		</g>
		<g>
			<path d="M161.25,7.83c1.08,0,2.06,0,3.15,0c-0.56,0.46-1.04,0.87-1.57,1.3C162.32,8.72,161.82,8.31,161.25,7.83z"/>
		</g>
		<g>
			<path d="M153.59,9.6c-0.48,0.4-0.95,0.79-1.46,1.22c-0.5-0.42-0.98-0.82-1.47-1.22c0.01-0.02,0.03-0.05,0.04-0.07
				c0.94,0,1.89,0,2.83,0C153.56,9.54,153.57,9.57,153.59,9.6z"/>
		</g>
		<g>
			<path d="M97.96,7.83c1.09,0,2.07,0,3.14,0c-0.56,0.46-1.05,0.88-1.56,1.31C99.02,8.71,98.53,8.3,97.96,7.83z"/>
		</g>
		<g>
			<path d="M108.59,9.14c-0.51-0.42-1.01-0.83-1.57-1.28c1.06,0,2.04,0,3.1,0C109.6,8.29,109.12,8.69,108.59,9.14z"/>
		</g>
		<g>
			<path d="M116.04,7.84c1.08,0,2.06,0,3.13,0c-0.54,0.46-1.03,0.87-1.55,1.31C117.11,8.72,116.62,8.31,116.04,7.84z"/>
		</g>
		<g>
			<path d="M126.66,9.14c-0.52-0.43-1.01-0.84-1.57-1.3c1.07,0,2.05,0,3.12,0C127.68,8.29,127.2,8.69,126.66,9.14z"/>
		</g>
		<g>
			<path d="M126.9,9.51c0.94,0,1.88,0,2.91,0c-0.45,0.53-1,0.84-1.46,1.3c-0.54-0.38-1-0.81-1.49-1.22
				C126.86,9.56,126.88,9.53,126.9,9.51z"/>
		</g>
		<g>
			<path d="M119.3,10.79c-0.56-0.36-1-0.81-1.47-1.27c0.95,0,1.9,0,2.94,0C120.29,10.02,119.78,10.37,119.3,10.79z"/>
		</g>
		<g>
			<path d="M111.69,9.6c-0.48,0.4-0.95,0.79-1.45,1.21c-0.52-0.42-1.01-0.8-1.52-1.3c1.03,0,1.97,0,2.91,0
				C111.65,9.54,111.67,9.57,111.69,9.6z"/>
		</g>
		<g>
			<path d="M155.44,10.81c-0.52-0.43-1-0.82-1.47-1.22c0.02-0.02,0.03-0.05,0.05-0.07c0.95,0,1.89,0,2.92,0
				C156.48,10.04,155.93,10.36,155.44,10.81z"/>
		</g>
		<g>
			<path d="M132.63,9.51c0.94,0,1.89,0,2.92,0c-0.45,0.55-1.04,0.82-1.48,1.32c-0.53-0.44-1.01-0.83-1.49-1.23
				C132.6,9.57,132.62,9.54,132.63,9.51z"/>
		</g>
		<g>
			<path d="M173.38,7.85c-0.48,0.48-0.99,0.84-1.49,1.26c-0.56-0.35-1-0.83-1.61-1.26C171.35,7.85,172.33,7.85,173.38,7.85z"/>
		</g>
		<g>
			<path d="M137.36,10.81c-0.51-0.42-0.99-0.82-1.55-1.29c1.05,0,1.99,0,3.01,0C138.4,10.03,137.86,10.35,137.36,10.81z"/>
		</g>
		<g>
			<path d="M170.32,14.17c0.52-0.43,1.01-0.84,1.54-1.28c0.5,0.41,0.99,0.81,1.55,1.28C172.34,14.17,171.35,14.17,170.32,14.17z"/>
		</g>
		<g>
			<path d="M128.24,14.19c-1.08,0-2.07,0-3.14,0c0.55-0.46,1.04-0.87,1.56-1.29C127.17,13.31,127.66,13.71,128.24,14.19z"/>
		</g>
		<g>
			<path d="M152.23,14.18c0.54-0.44,1.03-0.85,1.56-1.29c0.5,0.41,0.99,0.82,1.55,1.29C154.26,14.18,153.27,14.18,152.23,14.18z"/>
		</g>
		<g>
			<path d="M108.58,12.9c0.52,0.43,1.01,0.83,1.57,1.29c-1.08,0-2.06,0-3.14,0C107.57,13.73,108.06,13.32,108.58,12.9z"/>
		</g>
		<g>
			<path d="M143.19,14.17c0.56-0.46,1.05-0.86,1.56-1.29c0.5,0.42,0.99,0.82,1.55,1.29C145.23,14.17,144.26,14.17,143.19,14.17z"/>
		</g>
		<g>
			<path d="M161.25,14.18c0.54-0.44,1.03-0.85,1.55-1.27c0.54,0.36,0.99,0.82,1.49,1.27C163.3,14.18,162.31,14.18,161.25,14.18z"/>
		</g>
		<g>
			<path d="M99.54,12.89c0.52,0.43,1.01,0.84,1.56,1.29c-1.05,0-2.04,0-3.1,0C98.54,13.72,99.02,13.32,99.54,12.89z"/>
		</g>
		<g>
			<path d="M135.7,12.92c0.54,0.37,1,0.81,1.55,1.26c-1.06,0-2.04,0-3.07,0C134.68,13.71,135.17,13.32,135.7,12.92z"/>
		</g>
		<g>
			<path d="M119.09,14.19c-0.97,0-1.93,0-3.02,0c0.56-0.47,1.05-0.88,1.53-1.29c0.56,0.36,1.01,0.83,1.52,1.21
				C119.11,14.14,119.1,14.17,119.09,14.19z"/>
		</g>
		<g>
			<path d="M108.46,12.42c-1.05,0-2,0-3.05,0c0.56-0.46,1.03-0.86,1.52-1.27C107.43,11.56,107.9,11.96,108.46,12.42z"/>
		</g>
		<g>
			<path d="M132.6,12.34c0.46-0.38,0.93-0.76,1.41-1.16c0.56,0.35,1,0.78,1.54,1.24c-1.04,0-1.98,0-2.92,0
				C132.62,12.4,132.61,12.37,132.6,12.34z"/>
		</g>
		<g>
			<path d="M114.54,12.39c0.46-0.42,0.89-0.86,1.43-1.2c0.54,0.34,0.96,0.78,1.44,1.19C116.45,12.48,115.5,12.45,114.54,12.39z"/>
		</g>
		<g>
			<path d="M97.9,11.18c0.51,0.42,0.97,0.8,1.51,1.23c-1.04,0-1.99,0-3.01,0C96.9,11.95,97.37,11.56,97.9,11.18z"/>
		</g>
		<g>
			<path d="M162.95,12.41c0.54-0.45,1.01-0.83,1.52-1.26c0.49,0.4,0.96,0.79,1.44,1.18c-0.01,0.03-0.02,0.05-0.03,0.08
				C164.94,12.41,164,12.41,162.95,12.41z"/>
		</g>
		<g>
			<path d="M147.78,12.43c-0.93,0-1.87,0-2.92,0c0.54-0.45,1-0.84,1.5-1.26c0.54,0.33,0.98,0.79,1.47,1.17
				C147.82,12.37,147.8,12.4,147.78,12.43z"/>
		</g>
		<g>
			<path d="M119.28,11.17c0.5,0.41,0.97,0.8,1.53,1.26c-1.05,0-2,0-3.02,0C118.26,11.94,118.78,11.6,119.28,11.17z"/>
		</g>
		<g>
			<path d="M125.01,11.15c0.49,0.41,0.97,0.81,1.52,1.26c-1.05,0-2,0-3.05,0C124.04,11.95,124.52,11.56,125.01,11.15z"/>
		</g>
		<g>
			<path d="M99.68,12.41c0.54-0.44,1.02-0.83,1.52-1.24c0.48,0.39,0.96,0.78,1.52,1.24C101.67,12.41,100.72,12.41,99.68,12.41z"/>
		</g>
		<g>
			<path d="M138.88,12.42c-1.05,0-1.99,0-3.02,0c0.49-0.48,1-0.85,1.5-1.26C137.88,11.58,138.34,11.97,138.88,12.42z"/>
		</g>
		<g>
			<path d="M128.3,11.18c0.55,0.33,0.97,0.78,1.44,1.23c-0.95,0-1.91,0-2.94,0C127.33,11.97,127.8,11.59,128.3,11.18z"/>
		</g>
		<g>
			<path d="M93.56,12.43c-0.94,0-1.89,0-2.91,0c0.49-0.48,0.98-0.84,1.49-1.23C92.69,11.53,93.11,11.98,93.56,12.43z"/>
		</g>
		<g>
			<path d="M141.59,12.4c0.52-0.44,0.97-0.85,1.51-1.23c0.48,0.4,0.95,0.78,1.5,1.23C143.57,12.4,142.61,12.4,141.59,12.4z"/>
		</g>
		<g>
			<path d="M150.6,12.42c0.54-0.44,1-0.83,1.5-1.24c0.54,0.36,0.99,0.78,1.54,1.24C152.6,12.42,151.65,12.42,150.6,12.42z"/>
		</g>
		<g>
			<path d="M155.45,11.16c0.52,0.44,0.99,0.82,1.51,1.25c-1.02,0-1.98,0-3.01,0C154.43,11.94,154.94,11.58,155.45,11.16z"/>
		</g>
		<g>
			<path d="M170.19,11.18c0.55,0.35,0.98,0.79,1.55,1.23c-1.05,0-1.99,0-3.04,0C169.22,11.97,169.7,11.58,170.19,11.18z"/>
		</g>
		<g>
			<path d="M175.05,12.43c-1.05,0-2,0-3.06,0c0.57-0.47,1.01-0.93,1.59-1.24C174.07,11.61,174.53,12,175.05,12.43z"/>
		</g>
		<g>
			<path d="M179.26,11.17c0.52,0.43,1,0.81,1.54,1.25c-1.05,0-2,0-3.08,0C178.27,11.97,178.74,11.59,179.26,11.17z"/>
		</g>
		<g>
			<path d="M159.7,12.41c0.46-0.47,0.96-0.82,1.46-1.22c0.54,0.35,0.97,0.79,1.54,1.22C161.65,12.41,160.7,12.41,159.7,12.41z"/>
		</g>
		<g>
			<path d="M110.2,11.18c0.56,0.36,1,0.79,1.54,1.24c-1.04,0-1.98,0-3.02,0C109.24,11.99,109.7,11.6,110.2,11.18z"/>
		</g>
		<g>
			<path d="M180.91,7.85c0,0.4,0.07,0.79-0.07,1.23c-0.52-0.43-0.98-0.81-1.48-1.23C179.89,7.85,180.37,7.85,180.91,7.85z"/>
		</g>
		<g>
			<path d="M90.51,9c0-0.37,0-0.73,0-1.14c0.47,0,0.96,0,1.53,0c-0.5,0.42-0.97,0.8-1.43,1.19C90.58,9.03,90.54,9.01,90.51,9z"/>
		</g>
		<g>
			<path d="M180.93,14.18c-0.53,0-1,0-1.52,0c0.44-0.47,0.94-0.81,1.45-1.25C180.95,13.37,180.89,13.75,180.93,14.18z"/>
		</g>
		<g>
			<path d="M90.53,12.92c0.54,0.44,1.02,0.83,1.55,1.26c-0.56,0-1.04,0-1.55,0C90.53,13.79,90.53,13.41,90.53,12.92z"/>
		</g>
	</g>
</g>
</svg>
