<?xml version="1.0" encoding="utf-8"?>
<!-- Generator: Adobe Illustrator 24.3.0, SVG Export Plug-In . SVG Version: 6.00 Build 0)  -->
<svg version="1.1" id="Layer_1" xmlns="http://www.w3.org/2000/svg" xmlns:xlink="http://www.w3.org/1999/xlink" x="0px" y="0px"
	 viewBox="0 0 178.42 69.56" style="enable-background:new 0 0 178.42 69.56;" xml:space="preserve">
<g>
	<g>
		<g>
			<g>
				<g>
					<polygon points="178.42,6.26 178.42,6.84 174.01,4.09 169.33,6.96 165.09,4.09 160.41,6.96 156.16,4.09 151.49,6.96 
						147.24,4.09 142.57,6.96 138.32,4.09 133.65,6.96 129.4,4.09 124.73,6.96 120.48,4.09 115.81,6.96 111.56,4.09 106.89,6.96 
						102.64,4.09 97.96,6.96 93.72,4.09 89.22,6.85 89.21,6.32 93.73,3.55 97.98,6.41 102.65,3.55 106.9,6.41 111.58,3.55 
						115.82,6.41 120.5,3.55 124.74,6.41 129.42,3.55 133.67,6.41 138.34,3.55 142.59,6.41 147.26,3.55 151.51,6.41 156.18,3.55 
						160.43,6.41 165.1,3.55 169.35,6.41 174.02,3.55 					"/>
				</g>
			</g>
			<g>
				<g>
					<polygon points="178.42,0.7 178.42,0.12 174.01,2.87 169.33,0 165.09,2.87 160.41,0 156.16,2.87 151.49,0 147.24,2.87 
						142.57,0 138.32,2.87 133.65,0 129.4,2.87 124.73,0 120.48,2.87 115.81,0 111.56,2.87 106.89,0 102.64,2.87 97.96,0 
						93.72,2.87 89.22,0.11 89.21,0.64 93.73,3.41 97.98,0.54 102.65,3.41 106.9,0.54 111.58,3.41 115.82,0.54 120.5,3.41 
						124.74,0.54 129.42,3.41 133.67,0.54 138.34,3.41 142.59,0.54 147.26,3.41 151.51,0.54 156.18,3.41 160.43,0.54 165.1,3.41 
						169.35,0.54 174.02,3.41 					"/>
				</g>
			</g>
			<g>
				<g>
					<polygon points="97.98,2.19 95.67,3.55 97.98,4.91 100.28,3.55 					"/>
				</g>
			</g>
			<g>
				<g>
					<polygon points="89.21,4.91 91.52,3.55 89.21,2.19 					"/>
				</g>
			</g>
			<g>
				<g>
					<polygon points="91.92,0.65 93.7,1.86 95.47,0.65 					"/>
				</g>
			</g>
			<g>
				<g>
					<polygon points="91.92,6.38 93.7,5.17 95.47,6.38 					"/>
				</g>
			</g>
			<g>
				<g>
					<polygon points="100.77,0.65 102.55,1.86 104.32,0.65 					"/>
				</g>
			</g>
			<g>
				<g>
					<polygon points="100.77,6.38 102.55,5.17 104.32,6.38 					"/>
				</g>
			</g>
			<g>
				<g>
					<polygon points="109.63,0.65 111.4,1.86 113.18,0.65 					"/>
				</g>
			</g>
			<g>
				<g>
					<polygon points="109.63,6.38 111.4,5.17 113.18,6.38 					"/>
				</g>
			</g>
			<g>
				<g>
					<polygon points="118.48,0.65 120.25,1.86 122.03,0.65 					"/>
				</g>
			</g>
			<g>
				<g>
					<polygon points="118.48,6.38 120.25,5.17 122.03,6.38 					"/>
				</g>
			</g>
			<g>
				<g>
					<polygon points="127.55,0.65 129.32,1.86 131.1,0.65 					"/>
				</g>
			</g>
			<g>
				<g>
					<polygon points="127.55,6.38 129.32,5.17 131.1,6.38 					"/>
				</g>
			</g>
			<g>
				<g>
					<polygon points="136.51,0.65 138.29,1.86 140.06,0.65 					"/>
				</g>
			</g>
			<g>
				<g>
					<polygon points="136.51,6.38 138.29,5.17 140.06,6.38 					"/>
				</g>
			</g>
			<g>
				<g>
					<polygon points="145.39,0.65 147.16,1.86 148.94,0.65 					"/>
				</g>
			</g>
			<g>
				<g>
					<polygon points="145.39,6.38 147.16,5.17 148.94,6.38 					"/>
				</g>
			</g>
			<g>
				<g>
					<polygon points="154.24,0.65 156.01,1.86 157.79,0.65 					"/>
				</g>
			</g>
			<g>
				<g>
					<polygon points="154.24,6.38 156.01,5.17 157.79,6.38 					"/>
				</g>
			</g>
			<g>
				<g>
					<polygon points="163.26,0.65 165.04,1.86 166.81,0.65 					"/>
				</g>
			</g>
			<g>
				<g>
					<polygon points="163.26,6.38 165.04,5.17 166.81,6.38 					"/>
				</g>
			</g>
			<g>
				<g>
					<polygon points="172.15,0.65 173.92,1.86 175.7,0.65 					"/>
				</g>
			</g>
			<g>
				<g>
					<polygon points="172.15,6.38 173.92,5.17 175.7,6.38 					"/>
				</g>
			</g>
			<g>
				<g>
					<polygon points="106.85,2.19 104.54,3.55 106.85,4.91 109.15,3.55 					"/>
				</g>
			</g>
			<g>
				<g>
					<polygon points="115.72,2.19 113.41,3.55 115.72,4.91 118.02,3.55 					"/>
				</g>
			</g>
			<g>
				<g>
					<polygon points="124.59,2.19 122.28,3.55 124.59,4.91 126.89,3.55 					"/>
				</g>
			</g>
			<g>
				<g>
					<polygon points="133.46,2.19 131.15,3.55 133.46,4.91 135.76,3.55 					"/>
				</g>
			</g>
			<g>
				<g>
					<polygon points="142.33,2.19 140.02,3.55 142.33,4.91 144.63,3.55 					"/>
				</g>
			</g>
			<g>
				<g>
					<polygon points="151.4,2.19 149.1,3.55 151.4,4.91 153.71,3.55 					"/>
				</g>
			</g>
			<g>
				<g>
					<polygon points="160.39,2.19 158.08,3.55 160.39,4.91 162.69,3.55 					"/>
				</g>
			</g>
			<g>
				<g>
					<polygon points="169.38,2.19 167.08,3.55 169.38,4.91 171.69,3.55 					"/>
				</g>
			</g>
			<g>
				<g>
					<polygon points="178.42,2.16 176.12,3.51 178.42,4.87 					"/>
				</g>
			</g>
		</g>
		<g>
			<g>
				<g>
					<polygon points="89.21,6.26 89.21,6.84 84.8,4.09 80.12,6.96 75.87,4.09 71.2,6.96 66.95,4.09 62.28,6.96 58.03,4.09 
						53.36,6.96 49.11,4.09 44.44,6.96 40.19,4.09 35.52,6.96 31.27,4.09 26.6,6.96 22.35,4.09 17.67,6.96 13.43,4.09 8.75,6.96 
						4.51,4.09 0.01,6.85 0,6.32 4.52,3.55 8.77,6.41 13.44,3.55 17.69,6.41 22.36,3.55 26.61,6.41 31.29,3.55 35.53,6.41 
						40.21,3.55 44.45,6.41 49.13,3.55 53.38,6.41 58.05,3.55 62.3,6.41 66.97,3.55 71.22,6.41 75.89,3.55 80.14,6.41 84.81,3.55 
											"/>
				</g>
			</g>
			<g>
				<g>
					<polygon points="89.21,0.7 89.21,0.12 84.8,2.87 80.12,0 75.87,2.87 71.2,0 66.95,2.87 62.28,0 58.03,2.87 53.36,0 49.11,2.87 
						44.44,0 40.19,2.87 35.52,0 31.27,2.87 26.6,0 22.35,2.87 17.67,0 13.43,2.87 8.75,0 4.51,2.87 0.01,0.11 0,0.64 4.52,3.41 
						8.77,0.54 13.44,3.41 17.69,0.54 22.36,3.41 26.61,0.54 31.29,3.41 35.53,0.54 40.21,3.41 44.45,0.54 49.13,3.41 53.38,0.54 
						58.05,3.41 62.3,0.54 66.97,3.41 71.22,0.54 75.89,3.41 80.14,0.54 84.81,3.41 					"/>
				</g>
			</g>
			<g>
				<g>
					<polygon points="8.77,2.19 6.46,3.55 8.77,4.91 11.07,3.55 					"/>
				</g>
			</g>
			<g>
				<g>
					<polygon points="0,4.91 2.31,3.55 0,2.19 					"/>
				</g>
			</g>
			<g>
				<g>
					<polygon points="2.71,0.65 4.48,1.86 6.26,0.65 					"/>
				</g>
			</g>
			<g>
				<g>
					<polygon points="2.71,6.38 4.48,5.17 6.26,6.38 					"/>
				</g>
			</g>
			<g>
				<g>
					<polygon points="11.56,0.65 13.34,1.86 15.11,0.65 					"/>
				</g>
			</g>
			<g>
				<g>
					<polygon points="11.56,6.38 13.34,5.17 15.11,6.38 					"/>
				</g>
			</g>
			<g>
				<g>
					<polygon points="20.42,0.65 22.19,1.86 23.97,0.65 					"/>
				</g>
			</g>
			<g>
				<g>
					<polygon points="20.42,6.38 22.19,5.17 23.97,6.38 					"/>
				</g>
			</g>
			<g>
				<g>
					<polygon points="29.27,0.65 31.04,1.86 32.82,0.65 					"/>
				</g>
			</g>
			<g>
				<g>
					<polygon points="29.27,6.38 31.04,5.17 32.82,6.38 					"/>
				</g>
			</g>
			<g>
				<g>
					<polygon points="38.34,0.65 40.11,1.86 41.89,0.65 					"/>
				</g>
			</g>
			<g>
				<g>
					<polygon points="38.34,6.38 40.11,5.17 41.89,6.38 					"/>
				</g>
			</g>
			<g>
				<g>
					<polygon points="47.3,0.65 49.08,1.86 50.85,0.65 					"/>
				</g>
			</g>
			<g>
				<g>
					<polygon points="47.3,6.38 49.08,5.17 50.85,6.38 					"/>
				</g>
			</g>
			<g>
				<g>
					<polygon points="56.18,0.65 57.95,1.86 59.73,0.65 					"/>
				</g>
			</g>
			<g>
				<g>
					<polygon points="56.18,6.38 57.95,5.17 59.73,6.38 					"/>
				</g>
			</g>
			<g>
				<g>
					<polygon points="65.03,0.65 66.8,1.86 68.58,0.65 					"/>
				</g>
			</g>
			<g>
				<g>
					<polygon points="65.03,6.38 66.8,5.17 68.58,6.38 					"/>
				</g>
			</g>
			<g>
				<g>
					<polygon points="74.05,0.65 75.83,1.86 77.6,0.65 					"/>
				</g>
			</g>
			<g>
				<g>
					<polygon points="74.05,6.38 75.83,5.17 77.6,6.38 					"/>
				</g>
			</g>
			<g>
				<g>
					<polygon points="82.93,0.65 84.71,1.86 86.48,0.65 					"/>
				</g>
			</g>
			<g>
				<g>
					<polygon points="82.93,6.38 84.71,5.17 86.48,6.38 					"/>
				</g>
			</g>
			<g>
				<g>
					<polygon points="17.64,2.19 15.33,3.55 17.64,4.91 19.94,3.55 					"/>
				</g>
			</g>
			<g>
				<g>
					<polygon points="26.51,2.19 24.2,3.55 26.51,4.91 28.81,3.55 					"/>
				</g>
			</g>
			<g>
				<g>
					<polygon points="35.38,2.19 33.07,3.55 35.38,4.91 37.68,3.55 					"/>
				</g>
			</g>
			<g>
				<g>
					<polygon points="44.25,2.19 41.94,3.55 44.25,4.91 46.55,3.55 					"/>
				</g>
			</g>
			<g>
				<g>
					<polygon points="53.12,2.19 50.81,3.55 53.12,4.91 55.42,3.55 					"/>
				</g>
			</g>
			<g>
				<g>
					<polygon points="62.19,2.19 59.89,3.55 62.19,4.91 64.5,3.55 					"/>
				</g>
			</g>
			<g>
				<g>
					<polygon points="71.17,2.19 68.87,3.55 71.17,4.91 73.48,3.55 					"/>
				</g>
			</g>
			<g>
				<g>
					<polygon points="80.17,2.19 77.87,3.55 80.17,4.91 82.48,3.55 					"/>
				</g>
			</g>
			<g>
				<g>
					<polygon points="89.21,2.16 86.91,3.51 89.21,4.87 					"/>
				</g>
			</g>
		</g>
	</g>
	<g>
		<g>
			<g>
				<g>
					<polygon points="178.42,13.21 178.42,13.8 174.01,11.05 169.33,13.91 165.09,11.05 160.41,13.91 156.16,11.05 151.49,13.91 
						147.24,11.05 142.57,13.91 138.32,11.05 133.65,13.91 129.4,11.05 124.73,13.91 120.48,11.05 115.81,13.91 111.56,11.05 
						106.89,13.91 102.64,11.05 97.96,13.91 93.72,11.05 89.22,13.8 89.21,13.27 93.73,10.5 97.98,13.37 102.65,10.5 106.9,13.37 
						111.58,10.5 115.82,13.37 120.5,10.5 124.74,13.37 129.42,10.5 133.67,13.37 138.34,10.5 142.59,13.37 147.26,10.5 
						151.51,13.37 156.18,10.5 160.43,13.37 165.1,10.5 169.35,13.37 174.02,10.5 					"/>
				</g>
			</g>
			<g>
				<g>
					<polygon points="178.42,7.65 178.42,7.07 174.01,9.82 169.33,6.96 165.09,9.82 160.41,6.96 156.16,9.82 151.49,6.96 
						147.24,9.82 142.57,6.96 138.32,9.82 133.65,6.96 129.4,9.82 124.73,6.96 120.48,9.82 115.81,6.96 111.56,9.82 106.89,6.96 
						102.64,9.82 97.96,6.96 93.72,9.82 89.22,7.07 89.21,7.59 93.73,10.36 97.98,7.5 102.65,10.36 106.9,7.5 111.58,10.36 
						115.82,7.5 120.5,10.36 124.74,7.5 129.42,10.36 133.67,7.5 138.34,10.36 142.59,7.5 147.26,10.36 151.51,7.5 156.18,10.36 
						160.43,7.5 165.1,10.36 169.35,7.5 174.02,10.36 					"/>
				</g>
			</g>
			<g>
				<g>
					<polygon points="97.98,9.15 95.67,10.5 97.98,11.86 100.28,10.5 					"/>
				</g>
			</g>
			<g>
				<g>
					<polygon points="89.21,11.86 91.52,10.5 89.21,9.15 					"/>
				</g>
			</g>
			<g>
				<g>
					<polygon points="91.92,7.61 93.7,8.82 95.47,7.61 					"/>
				</g>
			</g>
			<g>
				<g>
					<polygon points="91.92,13.34 93.7,12.12 95.47,13.34 					"/>
				</g>
			</g>
			<g>
				<g>
					<polygon points="100.77,7.61 102.55,8.82 104.32,7.61 					"/>
				</g>
			</g>
			<g>
				<g>
					<polygon points="100.77,13.34 102.55,12.12 104.32,13.34 					"/>
				</g>
			</g>
			<g>
				<g>
					<polygon points="109.63,7.61 111.4,8.82 113.18,7.61 					"/>
				</g>
			</g>
			<g>
				<g>
					<polygon points="109.63,13.34 111.4,12.12 113.18,13.34 					"/>
				</g>
			</g>
			<g>
				<g>
					<polygon points="118.48,7.61 120.25,8.82 122.03,7.61 					"/>
				</g>
			</g>
			<g>
				<g>
					<polygon points="118.48,13.34 120.25,12.12 122.03,13.34 					"/>
				</g>
			</g>
			<g>
				<g>
					<polygon points="127.55,7.61 129.32,8.82 131.1,7.61 					"/>
				</g>
			</g>
			<g>
				<g>
					<polygon points="127.55,13.34 129.32,12.12 131.1,13.34 					"/>
				</g>
			</g>
			<g>
				<g>
					<polygon points="136.51,7.61 138.29,8.82 140.06,7.61 					"/>
				</g>
			</g>
			<g>
				<g>
					<polygon points="136.51,13.34 138.29,12.12 140.06,13.34 					"/>
				</g>
			</g>
			<g>
				<g>
					<polygon points="145.39,7.61 147.16,8.82 148.94,7.61 					"/>
				</g>
			</g>
			<g>
				<g>
					<polygon points="145.39,13.34 147.16,12.12 148.94,13.34 					"/>
				</g>
			</g>
			<g>
				<g>
					<polygon points="154.24,7.61 156.01,8.82 157.79,7.61 					"/>
				</g>
			</g>
			<g>
				<g>
					<polygon points="154.24,13.34 156.01,12.12 157.79,13.34 					"/>
				</g>
			</g>
			<g>
				<g>
					<polygon points="163.26,7.61 165.04,8.82 166.81,7.61 					"/>
				</g>
			</g>
			<g>
				<g>
					<polygon points="163.26,13.34 165.04,12.12 166.81,13.34 					"/>
				</g>
			</g>
			<g>
				<g>
					<polygon points="172.15,7.61 173.92,8.82 175.7,7.61 					"/>
				</g>
			</g>
			<g>
				<g>
					<polygon points="172.15,13.34 173.92,12.12 175.7,13.34 					"/>
				</g>
			</g>
			<g>
				<g>
					<polygon points="106.85,9.15 104.54,10.5 106.85,11.86 109.15,10.5 					"/>
				</g>
			</g>
			<g>
				<g>
					<polygon points="115.72,9.15 113.41,10.5 115.72,11.86 118.02,10.5 					"/>
				</g>
			</g>
			<g>
				<g>
					<polygon points="124.59,9.15 122.28,10.5 124.59,11.86 126.89,10.5 					"/>
				</g>
			</g>
			<g>
				<g>
					<polygon points="133.46,9.15 131.15,10.5 133.46,11.86 135.76,10.5 					"/>
				</g>
			</g>
			<g>
				<g>
					<polygon points="142.33,9.15 140.02,10.5 142.33,11.86 144.63,10.5 					"/>
				</g>
			</g>
			<g>
				<g>
					<polygon points="151.4,9.15 149.1,10.5 151.4,11.86 153.71,10.5 					"/>
				</g>
			</g>
			<g>
				<g>
					<polygon points="160.39,9.15 158.08,10.5 160.39,11.86 162.69,10.5 					"/>
				</g>
			</g>
			<g>
				<g>
					<polygon points="169.38,9.15 167.08,10.5 169.38,11.86 171.69,10.5 					"/>
				</g>
			</g>
			<g>
				<g>
					<polygon points="178.42,9.11 176.12,10.47 178.42,11.83 					"/>
				</g>
			</g>
		</g>
		<g>
			<g>
				<g>
					<polygon points="89.21,13.21 89.21,13.8 84.8,11.05 80.12,13.91 75.87,11.05 71.2,13.91 66.95,11.05 62.28,13.91 58.03,11.05 
						53.36,13.91 49.11,11.05 44.44,13.91 40.19,11.05 35.52,13.91 31.27,11.05 26.6,13.91 22.35,11.05 17.67,13.91 13.43,11.05 
						8.75,13.91 4.51,11.05 0.01,13.8 0,13.27 4.52,10.5 8.77,13.37 13.44,10.5 17.69,13.37 22.36,10.5 26.61,13.37 31.29,10.5 
						35.53,13.37 40.21,10.5 44.45,13.37 49.13,10.5 53.38,13.37 58.05,10.5 62.3,13.37 66.97,10.5 71.22,13.37 75.89,10.5 
						80.14,13.37 84.81,10.5 					"/>
				</g>
			</g>
			<g>
				<g>
					<polygon points="89.21,7.65 89.21,7.07 84.8,9.82 80.12,6.96 75.87,9.82 71.2,6.96 66.95,9.82 62.28,6.96 58.03,9.82 
						53.36,6.96 49.11,9.82 44.44,6.96 40.19,9.82 35.52,6.96 31.27,9.82 26.6,6.96 22.35,9.82 17.67,6.96 13.43,9.82 8.75,6.96 
						4.51,9.82 0.01,7.07 0,7.59 4.52,10.36 8.77,7.5 13.44,10.36 17.69,7.5 22.36,10.36 26.61,7.5 31.29,10.36 35.53,7.5 
						40.21,10.36 44.45,7.5 49.13,10.36 53.38,7.5 58.05,10.36 62.3,7.5 66.97,10.36 71.22,7.5 75.89,10.36 80.14,7.5 84.81,10.36 
											"/>
				</g>
			</g>
			<g>
				<g>
					<polygon points="8.77,9.15 6.46,10.5 8.77,11.86 11.07,10.5 					"/>
				</g>
			</g>
			<g>
				<g>
					<polygon points="0,11.86 2.31,10.5 0,9.15 					"/>
				</g>
			</g>
			<g>
				<g>
					<polygon points="2.71,7.61 4.48,8.82 6.26,7.61 					"/>
				</g>
			</g>
			<g>
				<g>
					<polygon points="2.71,13.34 4.48,12.12 6.26,13.34 					"/>
				</g>
			</g>
			<g>
				<g>
					<polygon points="11.56,7.61 13.34,8.82 15.11,7.61 					"/>
				</g>
			</g>
			<g>
				<g>
					<polygon points="11.56,13.34 13.34,12.12 15.11,13.34 					"/>
				</g>
			</g>
			<g>
				<g>
					<polygon points="20.42,7.61 22.19,8.82 23.97,7.61 					"/>
				</g>
			</g>
			<g>
				<g>
					<polygon points="20.42,13.34 22.19,12.12 23.97,13.34 					"/>
				</g>
			</g>
			<g>
				<g>
					<polygon points="29.27,7.61 31.04,8.82 32.82,7.61 					"/>
				</g>
			</g>
			<g>
				<g>
					<polygon points="29.27,13.34 31.04,12.12 32.82,13.34 					"/>
				</g>
			</g>
			<g>
				<g>
					<polygon points="38.34,7.61 40.11,8.82 41.89,7.61 					"/>
				</g>
			</g>
			<g>
				<g>
					<polygon points="38.34,13.34 40.11,12.12 41.89,13.34 					"/>
				</g>
			</g>
			<g>
				<g>
					<polygon points="47.3,7.61 49.08,8.82 50.85,7.61 					"/>
				</g>
			</g>
			<g>
				<g>
					<polygon points="47.3,13.34 49.08,12.12 50.85,13.34 					"/>
				</g>
			</g>
			<g>
				<g>
					<polygon points="56.18,7.61 57.95,8.82 59.73,7.61 					"/>
				</g>
			</g>
			<g>
				<g>
					<polygon points="56.18,13.34 57.95,12.12 59.73,13.34 					"/>
				</g>
			</g>
			<g>
				<g>
					<polygon points="65.03,7.61 66.8,8.82 68.58,7.61 					"/>
				</g>
			</g>
			<g>
				<g>
					<polygon points="65.03,13.34 66.8,12.12 68.58,13.34 					"/>
				</g>
			</g>
			<g>
				<g>
					<polygon points="74.05,7.61 75.83,8.82 77.6,7.61 					"/>
				</g>
			</g>
			<g>
				<g>
					<polygon points="74.05,13.34 75.83,12.12 77.6,13.34 					"/>
				</g>
			</g>
			<g>
				<g>
					<polygon points="82.93,7.61 84.71,8.82 86.48,7.61 					"/>
				</g>
			</g>
			<g>
				<g>
					<polygon points="82.93,13.34 84.71,12.12 86.48,13.34 					"/>
				</g>
			</g>
			<g>
				<g>
					<polygon points="17.64,9.15 15.33,10.5 17.64,11.86 19.94,10.5 					"/>
				</g>
			</g>
			<g>
				<g>
					<polygon points="26.51,9.15 24.2,10.5 26.51,11.86 28.81,10.5 					"/>
				</g>
			</g>
			<g>
				<g>
					<polygon points="35.38,9.15 33.07,10.5 35.38,11.86 37.68,10.5 					"/>
				</g>
			</g>
			<g>
				<g>
					<polygon points="44.25,9.15 41.94,10.5 44.25,11.86 46.55,10.5 					"/>
				</g>
			</g>
			<g>
				<g>
					<polygon points="53.12,9.15 50.81,10.5 53.12,11.86 55.42,10.5 					"/>
				</g>
			</g>
			<g>
				<g>
					<polygon points="62.19,9.15 59.89,10.5 62.19,11.86 64.5,10.5 					"/>
				</g>
			</g>
			<g>
				<g>
					<polygon points="71.17,9.15 68.87,10.5 71.17,11.86 73.48,10.5 					"/>
				</g>
			</g>
			<g>
				<g>
					<polygon points="80.17,9.15 77.87,10.5 80.17,11.86 82.48,10.5 					"/>
				</g>
			</g>
			<g>
				<g>
					<polygon points="89.21,9.11 86.91,10.47 89.21,11.83 					"/>
				</g>
			</g>
		</g>
	</g>
	<g>
		<g>
			<g>
				<g>
					<polygon points="178.42,20.17 178.42,20.75 174.01,18 169.33,20.87 165.09,18 160.41,20.87 156.16,18 151.49,20.87 147.24,18 
						142.57,20.87 138.32,18 133.65,20.87 129.4,18 124.73,20.87 120.48,18 115.81,20.87 111.56,18 106.89,20.87 102.64,18 
						97.96,20.87 93.72,18 89.22,20.76 89.21,20.23 93.73,17.46 97.98,20.33 102.65,17.46 106.9,20.33 111.58,17.46 115.82,20.33 
						120.5,17.46 124.74,20.33 129.42,17.46 133.67,20.33 138.34,17.46 142.59,20.33 147.26,17.46 151.51,20.33 156.18,17.46 
						160.43,20.33 165.1,17.46 169.35,20.33 174.02,17.46 					"/>
				</g>
			</g>
			<g>
				<g>
					<polygon points="178.42,14.61 178.42,14.03 174.01,16.78 169.33,13.91 165.09,16.78 160.41,13.91 156.16,16.78 151.49,13.91 
						147.24,16.78 142.57,13.91 138.32,16.78 133.65,13.91 129.4,16.78 124.73,13.91 120.48,16.78 115.81,13.91 111.56,16.78 
						106.89,13.91 102.64,16.78 97.96,13.91 93.72,16.78 89.22,14.02 89.21,14.55 93.73,17.32 97.98,14.45 102.65,17.32 
						106.9,14.45 111.58,17.32 115.82,14.45 120.5,17.32 124.74,14.45 129.42,17.32 133.67,14.45 138.34,17.32 142.59,14.45 
						147.26,17.32 151.51,14.45 156.18,17.32 160.43,14.45 165.1,17.32 169.35,14.45 174.02,17.32 					"/>
				</g>
			</g>
			<g>
				<g>
					<polygon points="97.98,16.1 95.67,17.46 97.98,18.82 100.28,17.46 					"/>
				</g>
			</g>
			<g>
				<g>
					<polygon points="89.21,18.82 91.52,17.46 89.21,16.1 					"/>
				</g>
			</g>
			<g>
				<g>
					<polygon points="91.92,14.56 93.7,15.77 95.47,14.56 					"/>
				</g>
			</g>
			<g>
				<g>
					<polygon points="91.92,20.29 93.7,19.08 95.47,20.29 					"/>
				</g>
			</g>
			<g>
				<g>
					<polygon points="100.77,14.56 102.55,15.77 104.32,14.56 					"/>
				</g>
			</g>
			<g>
				<g>
					<polygon points="100.77,20.29 102.55,19.08 104.32,20.29 					"/>
				</g>
			</g>
			<g>
				<g>
					<polygon points="109.63,14.56 111.4,15.77 113.18,14.56 					"/>
				</g>
			</g>
			<g>
				<g>
					<polygon points="109.63,20.29 111.4,19.08 113.18,20.29 					"/>
				</g>
			</g>
			<g>
				<g>
					<polygon points="118.48,14.56 120.25,15.77 122.03,14.56 					"/>
				</g>
			</g>
			<g>
				<g>
					<polygon points="118.48,20.29 120.25,19.08 122.03,20.29 					"/>
				</g>
			</g>
			<g>
				<g>
					<polygon points="127.55,14.56 129.32,15.77 131.1,14.56 					"/>
				</g>
			</g>
			<g>
				<g>
					<polygon points="127.55,20.29 129.32,19.08 131.1,20.29 					"/>
				</g>
			</g>
			<g>
				<g>
					<polygon points="136.51,14.56 138.29,15.77 140.06,14.56 					"/>
				</g>
			</g>
			<g>
				<g>
					<polygon points="136.51,20.29 138.29,19.08 140.06,20.29 					"/>
				</g>
			</g>
			<g>
				<g>
					<polygon points="145.39,14.56 147.16,15.77 148.94,14.56 					"/>
				</g>
			</g>
			<g>
				<g>
					<polygon points="145.39,20.29 147.16,19.08 148.94,20.29 					"/>
				</g>
			</g>
			<g>
				<g>
					<polygon points="154.24,14.56 156.01,15.77 157.79,14.56 					"/>
				</g>
			</g>
			<g>
				<g>
					<polygon points="154.24,20.29 156.01,19.08 157.79,20.29 					"/>
				</g>
			</g>
			<g>
				<g>
					<polygon points="163.26,14.56 165.04,15.77 166.81,14.56 					"/>
				</g>
			</g>
			<g>
				<g>
					<polygon points="163.26,20.29 165.04,19.08 166.81,20.29 					"/>
				</g>
			</g>
			<g>
				<g>
					<polygon points="172.15,14.56 173.92,15.77 175.7,14.56 					"/>
				</g>
			</g>
			<g>
				<g>
					<polygon points="172.15,20.29 173.92,19.08 175.7,20.29 					"/>
				</g>
			</g>
			<g>
				<g>
					<polygon points="106.85,16.1 104.54,17.46 106.85,18.82 109.15,17.46 					"/>
				</g>
			</g>
			<g>
				<g>
					<polygon points="115.72,16.1 113.41,17.46 115.72,18.82 118.02,17.46 					"/>
				</g>
			</g>
			<g>
				<g>
					<polygon points="124.59,16.1 122.28,17.46 124.59,18.82 126.89,17.46 					"/>
				</g>
			</g>
			<g>
				<g>
					<polygon points="133.46,16.1 131.15,17.46 133.46,18.82 135.76,17.46 					"/>
				</g>
			</g>
			<g>
				<g>
					<polygon points="142.33,16.1 140.02,17.46 142.33,18.82 144.63,17.46 					"/>
				</g>
			</g>
			<g>
				<g>
					<polygon points="151.4,16.1 149.1,17.46 151.4,18.82 153.71,17.46 					"/>
				</g>
			</g>
			<g>
				<g>
					<polygon points="160.39,16.1 158.08,17.46 160.39,18.82 162.69,17.46 					"/>
				</g>
			</g>
			<g>
				<g>
					<polygon points="169.38,16.1 167.08,17.46 169.38,18.82 171.69,17.46 					"/>
				</g>
			</g>
			<g>
				<g>
					<polygon points="178.42,16.07 176.12,17.43 178.42,18.79 					"/>
				</g>
			</g>
		</g>
		<g>
			<g>
				<g>
					<polygon points="89.21,20.17 89.21,20.75 84.8,18 80.12,20.87 75.87,18 71.2,20.87 66.95,18 62.28,20.87 58.03,18 53.36,20.87 
						49.11,18 44.44,20.87 40.19,18 35.52,20.87 31.27,18 26.6,20.87 22.35,18 17.67,20.87 13.43,18 8.75,20.87 4.51,18 0.01,20.76 
						0,20.23 4.52,17.46 8.77,20.33 13.44,17.46 17.69,20.33 22.36,17.46 26.61,20.33 31.29,17.46 35.53,20.33 40.21,17.46 
						44.45,20.33 49.13,17.46 53.38,20.33 58.05,17.46 62.3,20.33 66.97,17.46 71.22,20.33 75.89,17.46 80.14,20.33 84.81,17.46 
											"/>
				</g>
			</g>
			<g>
				<g>
					<polygon points="89.21,14.61 89.21,14.03 84.8,16.78 80.12,13.91 75.87,16.78 71.2,13.91 66.95,16.78 62.28,13.91 58.03,16.78 
						53.36,13.91 49.11,16.78 44.44,13.91 40.19,16.78 35.52,13.91 31.27,16.78 26.6,13.91 22.35,16.78 17.67,13.91 13.43,16.78 
						8.75,13.91 4.51,16.78 0.01,14.02 0,14.55 4.52,17.32 8.77,14.45 13.44,17.32 17.69,14.45 22.36,17.32 26.61,14.45 
						31.29,17.32 35.53,14.45 40.21,17.32 44.45,14.45 49.13,17.32 53.38,14.45 58.05,17.32 62.3,14.45 66.97,17.32 71.22,14.45 
						75.89,17.32 80.14,14.45 84.81,17.32 					"/>
				</g>
			</g>
			<g>
				<g>
					<polygon points="8.77,16.1 6.46,17.46 8.77,18.82 11.07,17.46 					"/>
				</g>
			</g>
			<g>
				<g>
					<polygon points="0,18.82 2.31,17.46 0,16.1 					"/>
				</g>
			</g>
			<g>
				<g>
					<polygon points="2.71,14.56 4.48,15.77 6.26,14.56 					"/>
				</g>
			</g>
			<g>
				<g>
					<polygon points="2.71,20.29 4.48,19.08 6.26,20.29 					"/>
				</g>
			</g>
			<g>
				<g>
					<polygon points="11.56,14.56 13.34,15.77 15.11,14.56 					"/>
				</g>
			</g>
			<g>
				<g>
					<polygon points="11.56,20.29 13.34,19.08 15.11,20.29 					"/>
				</g>
			</g>
			<g>
				<g>
					<polygon points="20.42,14.56 22.19,15.77 23.97,14.56 					"/>
				</g>
			</g>
			<g>
				<g>
					<polygon points="20.42,20.29 22.19,19.08 23.97,20.29 					"/>
				</g>
			</g>
			<g>
				<g>
					<polygon points="29.27,14.56 31.04,15.77 32.82,14.56 					"/>
				</g>
			</g>
			<g>
				<g>
					<polygon points="29.27,20.29 31.04,19.08 32.82,20.29 					"/>
				</g>
			</g>
			<g>
				<g>
					<polygon points="38.34,14.56 40.11,15.77 41.89,14.56 					"/>
				</g>
			</g>
			<g>
				<g>
					<polygon points="38.34,20.29 40.11,19.08 41.89,20.29 					"/>
				</g>
			</g>
			<g>
				<g>
					<polygon points="47.3,14.56 49.08,15.77 50.85,14.56 					"/>
				</g>
			</g>
			<g>
				<g>
					<polygon points="47.3,20.29 49.08,19.08 50.85,20.29 					"/>
				</g>
			</g>
			<g>
				<g>
					<polygon points="56.18,14.56 57.95,15.77 59.73,14.56 					"/>
				</g>
			</g>
			<g>
				<g>
					<polygon points="56.18,20.29 57.95,19.08 59.73,20.29 					"/>
				</g>
			</g>
			<g>
				<g>
					<polygon points="65.03,14.56 66.8,15.77 68.58,14.56 					"/>
				</g>
			</g>
			<g>
				<g>
					<polygon points="65.03,20.29 66.8,19.08 68.58,20.29 					"/>
				</g>
			</g>
			<g>
				<g>
					<polygon points="74.05,14.56 75.83,15.77 77.6,14.56 					"/>
				</g>
			</g>
			<g>
				<g>
					<polygon points="74.05,20.29 75.83,19.08 77.6,20.29 					"/>
				</g>
			</g>
			<g>
				<g>
					<polygon points="82.93,14.56 84.71,15.77 86.48,14.56 					"/>
				</g>
			</g>
			<g>
				<g>
					<polygon points="82.93,20.29 84.71,19.08 86.48,20.29 					"/>
				</g>
			</g>
			<g>
				<g>
					<polygon points="17.64,16.1 15.33,17.46 17.64,18.82 19.94,17.46 					"/>
				</g>
			</g>
			<g>
				<g>
					<polygon points="26.51,16.1 24.2,17.46 26.51,18.82 28.81,17.46 					"/>
				</g>
			</g>
			<g>
				<g>
					<polygon points="35.38,16.1 33.07,17.46 35.38,18.82 37.68,17.46 					"/>
				</g>
			</g>
			<g>
				<g>
					<polygon points="44.25,16.1 41.94,17.46 44.25,18.82 46.55,17.46 					"/>
				</g>
			</g>
			<g>
				<g>
					<polygon points="53.12,16.1 50.81,17.46 53.12,18.82 55.42,17.46 					"/>
				</g>
			</g>
			<g>
				<g>
					<polygon points="62.19,16.1 59.89,17.46 62.19,18.82 64.5,17.46 					"/>
				</g>
			</g>
			<g>
				<g>
					<polygon points="71.17,16.1 68.87,17.46 71.17,18.82 73.48,17.46 					"/>
				</g>
			</g>
			<g>
				<g>
					<polygon points="80.17,16.1 77.87,17.46 80.17,18.82 82.48,17.46 					"/>
				</g>
			</g>
			<g>
				<g>
					<polygon points="89.21,16.07 86.91,17.43 89.21,18.79 					"/>
				</g>
			</g>
		</g>
	</g>
	<g>
		<g>
			<g>
				<g>
					<polygon points="178.42,27.12 178.42,27.71 174.01,24.96 169.33,27.82 165.09,24.96 160.41,27.82 156.16,24.96 151.49,27.82 
						147.24,24.96 142.57,27.82 138.32,24.96 133.65,27.82 129.4,24.96 124.73,27.82 120.48,24.96 115.81,27.82 111.56,24.96 
						106.89,27.82 102.64,24.96 97.96,27.82 93.72,24.96 89.22,27.71 89.21,27.18 93.73,24.42 97.98,27.28 102.65,24.42 
						106.9,27.28 111.58,24.42 115.82,27.28 120.5,24.42 124.74,27.28 129.42,24.42 133.67,27.28 138.34,24.42 142.59,27.28 
						147.26,24.42 151.51,27.28 156.18,24.42 160.43,27.28 165.1,24.42 169.35,27.28 174.02,24.42 					"/>
				</g>
			</g>
			<g>
				<g>
					<polygon points="178.42,21.57 178.42,20.98 174.01,23.73 169.33,20.87 165.09,23.73 160.41,20.87 156.16,23.73 151.49,20.87 
						147.24,23.73 142.57,20.87 138.32,23.73 133.65,20.87 129.4,23.73 124.73,20.87 120.48,23.73 115.81,20.87 111.56,23.73 
						106.89,20.87 102.64,23.73 97.96,20.87 93.72,23.73 89.22,20.98 89.21,21.5 93.73,24.27 97.98,21.41 102.65,24.27 106.9,21.41 
						111.58,24.27 115.82,21.41 120.5,24.27 124.74,21.41 129.42,24.27 133.67,21.41 138.34,24.27 142.59,21.41 147.26,24.27 
						151.51,21.41 156.18,24.27 160.43,21.41 165.1,24.27 169.35,21.41 174.02,24.27 					"/>
				</g>
			</g>
			<g>
				<g>
					<polygon points="97.98,23.06 95.67,24.42 97.98,25.77 100.28,24.42 					"/>
				</g>
			</g>
			<g>
				<g>
					<polygon points="89.21,25.77 91.52,24.42 89.21,23.06 					"/>
				</g>
			</g>
			<g>
				<g>
					<polygon points="91.92,21.52 93.7,22.73 95.47,21.52 					"/>
				</g>
			</g>
			<g>
				<g>
					<polygon points="91.92,27.25 93.7,26.04 95.47,27.25 					"/>
				</g>
			</g>
			<g>
				<g>
					<polygon points="100.77,21.52 102.55,22.73 104.32,21.52 					"/>
				</g>
			</g>
			<g>
				<g>
					<polygon points="100.77,27.25 102.55,26.04 104.32,27.25 					"/>
				</g>
			</g>
			<g>
				<g>
					<polygon points="109.63,21.52 111.4,22.73 113.18,21.52 					"/>
				</g>
			</g>
			<g>
				<g>
					<polygon points="109.63,27.25 111.4,26.04 113.18,27.25 					"/>
				</g>
			</g>
			<g>
				<g>
					<polygon points="118.48,21.52 120.25,22.73 122.03,21.52 					"/>
				</g>
			</g>
			<g>
				<g>
					<polygon points="118.48,27.25 120.25,26.04 122.03,27.25 					"/>
				</g>
			</g>
			<g>
				<g>
					<polygon points="127.55,21.52 129.32,22.73 131.1,21.52 					"/>
				</g>
			</g>
			<g>
				<g>
					<polygon points="127.55,27.25 129.32,26.04 131.1,27.25 					"/>
				</g>
			</g>
			<g>
				<g>
					<polygon points="136.51,21.52 138.29,22.73 140.06,21.52 					"/>
				</g>
			</g>
			<g>
				<g>
					<polygon points="136.51,27.25 138.29,26.04 140.06,27.25 					"/>
				</g>
			</g>
			<g>
				<g>
					<polygon points="145.39,21.52 147.16,22.73 148.94,21.52 					"/>
				</g>
			</g>
			<g>
				<g>
					<polygon points="145.39,27.25 147.16,26.04 148.94,27.25 					"/>
				</g>
			</g>
			<g>
				<g>
					<polygon points="154.24,21.52 156.01,22.73 157.79,21.52 					"/>
				</g>
			</g>
			<g>
				<g>
					<polygon points="154.24,27.25 156.01,26.04 157.79,27.25 					"/>
				</g>
			</g>
			<g>
				<g>
					<polygon points="163.26,21.52 165.04,22.73 166.81,21.52 					"/>
				</g>
			</g>
			<g>
				<g>
					<polygon points="163.26,27.25 165.04,26.04 166.81,27.25 					"/>
				</g>
			</g>
			<g>
				<g>
					<polygon points="172.15,21.52 173.92,22.73 175.7,21.52 					"/>
				</g>
			</g>
			<g>
				<g>
					<polygon points="172.15,27.25 173.92,26.04 175.7,27.25 					"/>
				</g>
			</g>
			<g>
				<g>
					<polygon points="106.85,23.06 104.54,24.42 106.85,25.77 109.15,24.42 					"/>
				</g>
			</g>
			<g>
				<g>
					<polygon points="115.72,23.06 113.41,24.42 115.72,25.77 118.02,24.42 					"/>
				</g>
			</g>
			<g>
				<g>
					<polygon points="124.59,23.06 122.28,24.42 124.59,25.77 126.89,24.42 					"/>
				</g>
			</g>
			<g>
				<g>
					<polygon points="133.46,23.06 131.15,24.42 133.46,25.77 135.76,24.42 					"/>
				</g>
			</g>
			<g>
				<g>
					<polygon points="142.33,23.06 140.02,24.42 142.33,25.77 144.63,24.42 					"/>
				</g>
			</g>
			<g>
				<g>
					<polygon points="151.4,23.06 149.1,24.42 151.4,25.77 153.71,24.42 					"/>
				</g>
			</g>
			<g>
				<g>
					<polygon points="160.39,23.06 158.08,24.42 160.39,25.77 162.69,24.42 					"/>
				</g>
			</g>
			<g>
				<g>
					<polygon points="169.38,23.06 167.08,24.42 169.38,25.77 171.69,24.42 					"/>
				</g>
			</g>
			<g>
				<g>
					<polygon points="178.42,23.02 176.12,24.38 178.42,25.74 					"/>
				</g>
			</g>
		</g>
		<g>
			<g>
				<g>
					<polygon points="89.21,27.12 89.21,27.71 84.8,24.96 80.12,27.82 75.87,24.96 71.2,27.82 66.95,24.96 62.28,27.82 58.03,24.96 
						53.36,27.82 49.11,24.96 44.44,27.82 40.19,24.96 35.52,27.82 31.27,24.96 26.6,27.82 22.35,24.96 17.67,27.82 13.43,24.96 
						8.75,27.82 4.51,24.96 0.01,27.71 0,27.18 4.52,24.42 8.77,27.28 13.44,24.42 17.69,27.28 22.36,24.42 26.61,27.28 
						31.29,24.42 35.53,27.28 40.21,24.42 44.45,27.28 49.13,24.42 53.38,27.28 58.05,24.42 62.3,27.28 66.97,24.42 71.22,27.28 
						75.89,24.42 80.14,27.28 84.81,24.42 					"/>
				</g>
			</g>
			<g>
				<g>
					<polygon points="89.21,21.57 89.21,20.98 84.8,23.73 80.12,20.87 75.87,23.73 71.2,20.87 66.95,23.73 62.28,20.87 58.03,23.73 
						53.36,20.87 49.11,23.73 44.44,20.87 40.19,23.73 35.52,20.87 31.27,23.73 26.6,20.87 22.35,23.73 17.67,20.87 13.43,23.73 
						8.75,20.87 4.51,23.73 0.01,20.98 0,21.5 4.52,24.27 8.77,21.41 13.44,24.27 17.69,21.41 22.36,24.27 26.61,21.41 31.29,24.27 
						35.53,21.41 40.21,24.27 44.45,21.41 49.13,24.27 53.38,21.41 58.05,24.27 62.3,21.41 66.97,24.27 71.22,21.41 75.89,24.27 
						80.14,21.41 84.81,24.27 					"/>
				</g>
			</g>
			<g>
				<g>
					<polygon points="8.77,23.06 6.46,24.42 8.77,25.77 11.07,24.42 					"/>
				</g>
			</g>
			<g>
				<g>
					<polygon points="0,25.77 2.31,24.42 0,23.06 					"/>
				</g>
			</g>
			<g>
				<g>
					<polygon points="2.71,21.52 4.48,22.73 6.26,21.52 					"/>
				</g>
			</g>
			<g>
				<g>
					<polygon points="2.71,27.25 4.48,26.04 6.26,27.25 					"/>
				</g>
			</g>
			<g>
				<g>
					<polygon points="11.56,21.52 13.34,22.73 15.11,21.52 					"/>
				</g>
			</g>
			<g>
				<g>
					<polygon points="11.56,27.25 13.34,26.04 15.11,27.25 					"/>
				</g>
			</g>
			<g>
				<g>
					<polygon points="20.42,21.52 22.19,22.73 23.97,21.52 					"/>
				</g>
			</g>
			<g>
				<g>
					<polygon points="20.42,27.25 22.19,26.04 23.97,27.25 					"/>
				</g>
			</g>
			<g>
				<g>
					<polygon points="29.27,21.52 31.04,22.73 32.82,21.52 					"/>
				</g>
			</g>
			<g>
				<g>
					<polygon points="29.27,27.25 31.04,26.04 32.82,27.25 					"/>
				</g>
			</g>
			<g>
				<g>
					<polygon points="38.34,21.52 40.11,22.73 41.89,21.52 					"/>
				</g>
			</g>
			<g>
				<g>
					<polygon points="38.34,27.25 40.11,26.04 41.89,27.25 					"/>
				</g>
			</g>
			<g>
				<g>
					<polygon points="47.3,21.52 49.08,22.73 50.85,21.52 					"/>
				</g>
			</g>
			<g>
				<g>
					<polygon points="47.3,27.25 49.08,26.04 50.85,27.25 					"/>
				</g>
			</g>
			<g>
				<g>
					<polygon points="56.18,21.52 57.95,22.73 59.73,21.52 					"/>
				</g>
			</g>
			<g>
				<g>
					<polygon points="56.18,27.25 57.95,26.04 59.73,27.25 					"/>
				</g>
			</g>
			<g>
				<g>
					<polygon points="65.03,21.52 66.8,22.73 68.58,21.52 					"/>
				</g>
			</g>
			<g>
				<g>
					<polygon points="65.03,27.25 66.8,26.04 68.58,27.25 					"/>
				</g>
			</g>
			<g>
				<g>
					<polygon points="74.05,21.52 75.83,22.73 77.6,21.52 					"/>
				</g>
			</g>
			<g>
				<g>
					<polygon points="74.05,27.25 75.83,26.04 77.6,27.25 					"/>
				</g>
			</g>
			<g>
				<g>
					<polygon points="82.93,21.52 84.71,22.73 86.48,21.52 					"/>
				</g>
			</g>
			<g>
				<g>
					<polygon points="82.93,27.25 84.71,26.04 86.48,27.25 					"/>
				</g>
			</g>
			<g>
				<g>
					<polygon points="17.64,23.06 15.33,24.42 17.64,25.77 19.94,24.42 					"/>
				</g>
			</g>
			<g>
				<g>
					<polygon points="26.51,23.06 24.2,24.42 26.51,25.77 28.81,24.42 					"/>
				</g>
			</g>
			<g>
				<g>
					<polygon points="35.38,23.06 33.07,24.42 35.38,25.77 37.68,24.42 					"/>
				</g>
			</g>
			<g>
				<g>
					<polygon points="44.25,23.06 41.94,24.42 44.25,25.77 46.55,24.42 					"/>
				</g>
			</g>
			<g>
				<g>
					<polygon points="53.12,23.06 50.81,24.42 53.12,25.77 55.42,24.42 					"/>
				</g>
			</g>
			<g>
				<g>
					<polygon points="62.19,23.06 59.89,24.42 62.19,25.77 64.5,24.42 					"/>
				</g>
			</g>
			<g>
				<g>
					<polygon points="71.17,23.06 68.87,24.42 71.17,25.77 73.48,24.42 					"/>
				</g>
			</g>
			<g>
				<g>
					<polygon points="80.17,23.06 77.87,24.42 80.17,25.77 82.48,24.42 					"/>
				</g>
			</g>
			<g>
				<g>
					<polygon points="89.21,23.02 86.91,24.38 89.21,25.74 					"/>
				</g>
			</g>
		</g>
	</g>
	<g>
		<g>
			<g>
				<g>
					<polygon points="178.42,34.08 178.42,34.66 174.01,31.91 169.33,34.78 165.09,31.91 160.41,34.78 156.16,31.91 151.49,34.78 
						147.24,31.91 142.57,34.78 138.32,31.91 133.65,34.78 129.4,31.91 124.73,34.78 120.48,31.91 115.81,34.78 111.56,31.91 
						106.89,34.78 102.64,31.91 97.96,34.78 93.72,31.91 89.22,34.67 89.21,34.14 93.73,31.37 97.98,34.24 102.65,31.37 
						106.9,34.24 111.58,31.37 115.82,34.24 120.5,31.37 124.74,34.24 129.42,31.37 133.67,34.24 138.34,31.37 142.59,34.24 
						147.26,31.37 151.51,34.24 156.18,31.37 160.43,34.24 165.1,31.37 169.35,34.24 174.02,31.37 					"/>
				</g>
			</g>
			<g>
				<g>
					<polygon points="178.42,28.52 178.42,27.94 174.01,30.69 169.33,27.82 165.09,30.69 160.41,27.82 156.16,30.69 151.49,27.82 
						147.24,30.69 142.57,27.82 138.32,30.69 133.65,27.82 129.4,30.69 124.73,27.82 120.48,30.69 115.81,27.82 111.56,30.69 
						106.89,27.82 102.64,30.69 97.96,27.82 93.72,30.69 89.22,27.93 89.21,28.46 93.73,31.23 97.98,28.36 102.65,31.23 
						106.9,28.36 111.58,31.23 115.82,28.36 120.5,31.23 124.74,28.36 129.42,31.23 133.67,28.36 138.34,31.23 142.59,28.36 
						147.26,31.23 151.51,28.36 156.18,31.23 160.43,28.36 165.1,31.23 169.35,28.36 174.02,31.23 					"/>
				</g>
			</g>
			<g>
				<g>
					<polygon points="97.98,30.01 95.67,31.37 97.98,32.73 100.28,31.37 					"/>
				</g>
			</g>
			<g>
				<g>
					<polygon points="89.21,32.73 91.52,31.37 89.21,30.01 					"/>
				</g>
			</g>
			<g>
				<g>
					<polygon points="91.92,28.47 93.7,29.69 95.47,28.47 					"/>
				</g>
			</g>
			<g>
				<g>
					<polygon points="91.92,34.2 93.7,32.99 95.47,34.2 					"/>
				</g>
			</g>
			<g>
				<g>
					<polygon points="100.77,28.47 102.55,29.69 104.32,28.47 					"/>
				</g>
			</g>
			<g>
				<g>
					<polygon points="100.77,34.2 102.55,32.99 104.32,34.2 					"/>
				</g>
			</g>
			<g>
				<g>
					<polygon points="109.63,28.47 111.4,29.69 113.18,28.47 					"/>
				</g>
			</g>
			<g>
				<g>
					<polygon points="109.63,34.2 111.4,32.99 113.18,34.2 					"/>
				</g>
			</g>
			<g>
				<g>
					<polygon points="118.48,28.47 120.25,29.69 122.03,28.47 					"/>
				</g>
			</g>
			<g>
				<g>
					<polygon points="118.48,34.2 120.25,32.99 122.03,34.2 					"/>
				</g>
			</g>
			<g>
				<g>
					<polygon points="127.55,28.47 129.32,29.69 131.1,28.47 					"/>
				</g>
			</g>
			<g>
				<g>
					<polygon points="127.55,34.2 129.32,32.99 131.1,34.2 					"/>
				</g>
			</g>
			<g>
				<g>
					<polygon points="136.51,28.47 138.29,29.69 140.06,28.47 					"/>
				</g>
			</g>
			<g>
				<g>
					<polygon points="136.51,34.2 138.29,32.99 140.06,34.2 					"/>
				</g>
			</g>
			<g>
				<g>
					<polygon points="145.39,28.47 147.16,29.69 148.94,28.47 					"/>
				</g>
			</g>
			<g>
				<g>
					<polygon points="145.39,34.2 147.16,32.99 148.94,34.2 					"/>
				</g>
			</g>
			<g>
				<g>
					<polygon points="154.24,28.47 156.01,29.69 157.79,28.47 					"/>
				</g>
			</g>
			<g>
				<g>
					<polygon points="154.24,34.2 156.01,32.99 157.79,34.2 					"/>
				</g>
			</g>
			<g>
				<g>
					<polygon points="163.26,28.47 165.04,29.69 166.81,28.47 					"/>
				</g>
			</g>
			<g>
				<g>
					<polygon points="163.26,34.2 165.04,32.99 166.81,34.2 					"/>
				</g>
			</g>
			<g>
				<g>
					<polygon points="172.15,28.47 173.92,29.69 175.7,28.47 					"/>
				</g>
			</g>
			<g>
				<g>
					<polygon points="172.15,34.2 173.92,32.99 175.7,34.2 					"/>
				</g>
			</g>
			<g>
				<g>
					<polygon points="106.85,30.01 104.54,31.37 106.85,32.73 109.15,31.37 					"/>
				</g>
			</g>
			<g>
				<g>
					<polygon points="115.72,30.01 113.41,31.37 115.72,32.73 118.02,31.37 					"/>
				</g>
			</g>
			<g>
				<g>
					<polygon points="124.59,30.01 122.28,31.37 124.59,32.73 126.89,31.37 					"/>
				</g>
			</g>
			<g>
				<g>
					<polygon points="133.46,30.01 131.15,31.37 133.46,32.73 135.76,31.37 					"/>
				</g>
			</g>
			<g>
				<g>
					<polygon points="142.33,30.01 140.02,31.37 142.33,32.73 144.63,31.37 					"/>
				</g>
			</g>
			<g>
				<g>
					<polygon points="151.4,30.01 149.1,31.37 151.4,32.73 153.71,31.37 					"/>
				</g>
			</g>
			<g>
				<g>
					<polygon points="160.39,30.01 158.08,31.37 160.39,32.73 162.69,31.37 					"/>
				</g>
			</g>
			<g>
				<g>
					<polygon points="169.38,30.01 167.08,31.37 169.38,32.73 171.69,31.37 					"/>
				</g>
			</g>
			<g>
				<g>
					<polygon points="178.42,29.98 176.12,31.34 178.42,32.7 					"/>
				</g>
			</g>
		</g>
		<g>
			<g>
				<g>
					<polygon points="89.21,34.08 89.21,34.66 84.8,31.91 80.12,34.78 75.87,31.91 71.2,34.78 66.95,31.91 62.28,34.78 58.03,31.91 
						53.36,34.78 49.11,31.91 44.44,34.78 40.19,31.91 35.52,34.78 31.27,31.91 26.6,34.78 22.35,31.91 17.67,34.78 13.43,31.91 
						8.75,34.78 4.51,31.91 0.01,34.67 0,34.14 4.52,31.37 8.77,34.24 13.44,31.37 17.69,34.24 22.36,31.37 26.61,34.24 
						31.29,31.37 35.53,34.24 40.21,31.37 44.45,34.24 49.13,31.37 53.38,34.24 58.05,31.37 62.3,34.24 66.97,31.37 71.22,34.24 
						75.89,31.37 80.14,34.24 84.81,31.37 					"/>
				</g>
			</g>
			<g>
				<g>
					<polygon points="89.21,28.52 89.21,27.94 84.8,30.69 80.12,27.82 75.87,30.69 71.2,27.82 66.95,30.69 62.28,27.82 58.03,30.69 
						53.36,27.82 49.11,30.69 44.44,27.82 40.19,30.69 35.52,27.82 31.27,30.69 26.6,27.82 22.35,30.69 17.67,27.82 13.43,30.69 
						8.75,27.82 4.51,30.69 0.01,27.93 0,28.46 4.52,31.23 8.77,28.36 13.44,31.23 17.69,28.36 22.36,31.23 26.61,28.36 
						31.29,31.23 35.53,28.36 40.21,31.23 44.45,28.36 49.13,31.23 53.38,28.36 58.05,31.23 62.3,28.36 66.97,31.23 71.22,28.36 
						75.89,31.23 80.14,28.36 84.81,31.23 					"/>
				</g>
			</g>
			<g>
				<g>
					<polygon points="8.77,30.01 6.46,31.37 8.77,32.73 11.07,31.37 					"/>
				</g>
			</g>
			<g>
				<g>
					<polygon points="0,32.73 2.31,31.37 0,30.01 					"/>
				</g>
			</g>
			<g>
				<g>
					<polygon points="2.71,28.47 4.48,29.69 6.26,28.47 					"/>
				</g>
			</g>
			<g>
				<g>
					<polygon points="2.71,34.2 4.48,32.99 6.26,34.2 					"/>
				</g>
			</g>
			<g>
				<g>
					<polygon points="11.56,28.47 13.34,29.69 15.11,28.47 					"/>
				</g>
			</g>
			<g>
				<g>
					<polygon points="11.56,34.2 13.34,32.99 15.11,34.2 					"/>
				</g>
			</g>
			<g>
				<g>
					<polygon points="20.42,28.47 22.19,29.69 23.97,28.47 					"/>
				</g>
			</g>
			<g>
				<g>
					<polygon points="20.42,34.2 22.19,32.99 23.97,34.2 					"/>
				</g>
			</g>
			<g>
				<g>
					<polygon points="29.27,28.47 31.04,29.69 32.82,28.47 					"/>
				</g>
			</g>
			<g>
				<g>
					<polygon points="29.27,34.2 31.04,32.99 32.82,34.2 					"/>
				</g>
			</g>
			<g>
				<g>
					<polygon points="38.34,28.47 40.11,29.69 41.89,28.47 					"/>
				</g>
			</g>
			<g>
				<g>
					<polygon points="38.34,34.2 40.11,32.99 41.89,34.2 					"/>
				</g>
			</g>
			<g>
				<g>
					<polygon points="47.3,28.47 49.08,29.69 50.85,28.47 					"/>
				</g>
			</g>
			<g>
				<g>
					<polygon points="47.3,34.2 49.08,32.99 50.85,34.2 					"/>
				</g>
			</g>
			<g>
				<g>
					<polygon points="56.18,28.47 57.95,29.69 59.73,28.47 					"/>
				</g>
			</g>
			<g>
				<g>
					<polygon points="56.18,34.2 57.95,32.99 59.73,34.2 					"/>
				</g>
			</g>
			<g>
				<g>
					<polygon points="65.03,28.47 66.8,29.69 68.58,28.47 					"/>
				</g>
			</g>
			<g>
				<g>
					<polygon points="65.03,34.2 66.8,32.99 68.58,34.2 					"/>
				</g>
			</g>
			<g>
				<g>
					<polygon points="74.05,28.47 75.83,29.69 77.6,28.47 					"/>
				</g>
			</g>
			<g>
				<g>
					<polygon points="74.05,34.2 75.83,32.99 77.6,34.2 					"/>
				</g>
			</g>
			<g>
				<g>
					<polygon points="82.93,28.47 84.71,29.69 86.48,28.47 					"/>
				</g>
			</g>
			<g>
				<g>
					<polygon points="82.93,34.2 84.71,32.99 86.48,34.2 					"/>
				</g>
			</g>
			<g>
				<g>
					<polygon points="17.64,30.01 15.33,31.37 17.64,32.73 19.94,31.37 					"/>
				</g>
			</g>
			<g>
				<g>
					<polygon points="26.51,30.01 24.2,31.37 26.51,32.73 28.81,31.37 					"/>
				</g>
			</g>
			<g>
				<g>
					<polygon points="35.38,30.01 33.07,31.37 35.38,32.73 37.68,31.37 					"/>
				</g>
			</g>
			<g>
				<g>
					<polygon points="44.25,30.01 41.94,31.37 44.25,32.73 46.55,31.37 					"/>
				</g>
			</g>
			<g>
				<g>
					<polygon points="53.12,30.01 50.81,31.37 53.12,32.73 55.42,31.37 					"/>
				</g>
			</g>
			<g>
				<g>
					<polygon points="62.19,30.01 59.89,31.37 62.19,32.73 64.5,31.37 					"/>
				</g>
			</g>
			<g>
				<g>
					<polygon points="71.17,30.01 68.87,31.37 71.17,32.73 73.48,31.37 					"/>
				</g>
			</g>
			<g>
				<g>
					<polygon points="80.17,30.01 77.87,31.37 80.17,32.73 82.48,31.37 					"/>
				</g>
			</g>
			<g>
				<g>
					<polygon points="89.21,29.98 86.91,31.34 89.21,32.7 					"/>
				</g>
			</g>
		</g>
	</g>
	<g>
		<g>
			<g>
				<g>
					<polygon points="178.42,41.04 178.42,41.62 174.01,38.87 169.33,41.73 165.09,38.87 160.41,41.73 156.16,38.87 151.49,41.73 
						147.24,38.87 142.57,41.73 138.32,38.87 133.65,41.73 129.4,38.87 124.73,41.73 120.48,38.87 115.81,41.73 111.56,38.87 
						106.89,41.73 102.64,38.87 97.96,41.73 93.72,38.87 89.22,41.62 89.21,41.1 93.73,38.33 97.98,41.19 102.65,38.33 106.9,41.19 
						111.58,38.33 115.82,41.19 120.5,38.33 124.74,41.19 129.42,38.33 133.67,41.19 138.34,38.33 142.59,41.19 147.26,38.33 
						151.51,41.19 156.18,38.33 160.43,41.19 165.1,38.33 169.35,41.19 174.02,38.33 					"/>
				</g>
			</g>
			<g>
				<g>
					<polygon points="178.42,35.48 178.42,34.89 174.01,37.64 169.33,34.78 165.09,37.64 160.41,34.78 156.16,37.64 151.49,34.78 
						147.24,37.64 142.57,34.78 138.32,37.64 133.65,34.78 129.4,37.64 124.73,34.78 120.48,37.64 115.81,34.78 111.56,37.64 
						106.89,34.78 102.64,37.64 97.96,34.78 93.72,37.64 89.22,34.89 89.21,35.42 93.73,38.18 97.98,35.32 102.65,38.18 
						106.9,35.32 111.58,38.18 115.82,35.32 120.5,38.18 124.74,35.32 129.42,38.18 133.67,35.32 138.34,38.18 142.59,35.32 
						147.26,38.18 151.51,35.32 156.18,38.18 160.43,35.32 165.1,38.18 169.35,35.32 174.02,38.18 					"/>
				</g>
			</g>
			<g>
				<g>
					<polygon points="97.98,36.97 95.67,38.33 97.98,39.69 100.28,38.33 					"/>
				</g>
			</g>
			<g>
				<g>
					<polygon points="89.21,39.69 91.52,38.33 89.21,36.97 					"/>
				</g>
			</g>
			<g>
				<g>
					<polygon points="91.92,35.43 93.7,36.64 95.47,35.43 					"/>
				</g>
			</g>
			<g>
				<g>
					<polygon points="91.92,41.16 93.7,39.95 95.47,41.16 					"/>
				</g>
			</g>
			<g>
				<g>
					<polygon points="100.77,35.43 102.55,36.64 104.32,35.43 					"/>
				</g>
			</g>
			<g>
				<g>
					<polygon points="100.77,41.16 102.55,39.95 104.32,41.16 					"/>
				</g>
			</g>
			<g>
				<g>
					<polygon points="109.63,35.43 111.4,36.64 113.18,35.43 					"/>
				</g>
			</g>
			<g>
				<g>
					<polygon points="109.63,41.16 111.4,39.95 113.18,41.16 					"/>
				</g>
			</g>
			<g>
				<g>
					<polygon points="118.48,35.43 120.25,36.64 122.03,35.43 					"/>
				</g>
			</g>
			<g>
				<g>
					<polygon points="118.48,41.16 120.25,39.95 122.03,41.16 					"/>
				</g>
			</g>
			<g>
				<g>
					<polygon points="127.55,35.43 129.32,36.64 131.1,35.43 					"/>
				</g>
			</g>
			<g>
				<g>
					<polygon points="127.55,41.16 129.32,39.95 131.1,41.16 					"/>
				</g>
			</g>
			<g>
				<g>
					<polygon points="136.51,35.43 138.29,36.64 140.06,35.43 					"/>
				</g>
			</g>
			<g>
				<g>
					<polygon points="136.51,41.16 138.29,39.95 140.06,41.16 					"/>
				</g>
			</g>
			<g>
				<g>
					<polygon points="145.39,35.43 147.16,36.64 148.94,35.43 					"/>
				</g>
			</g>
			<g>
				<g>
					<polygon points="145.39,41.16 147.16,39.95 148.94,41.16 					"/>
				</g>
			</g>
			<g>
				<g>
					<polygon points="154.24,35.43 156.01,36.64 157.79,35.43 					"/>
				</g>
			</g>
			<g>
				<g>
					<polygon points="154.24,41.16 156.01,39.95 157.79,41.16 					"/>
				</g>
			</g>
			<g>
				<g>
					<polygon points="163.26,35.43 165.04,36.64 166.81,35.43 					"/>
				</g>
			</g>
			<g>
				<g>
					<polygon points="163.26,41.16 165.04,39.95 166.81,41.16 					"/>
				</g>
			</g>
			<g>
				<g>
					<polygon points="172.15,35.43 173.92,36.64 175.7,35.43 					"/>
				</g>
			</g>
			<g>
				<g>
					<polygon points="172.15,41.16 173.92,39.95 175.7,41.16 					"/>
				</g>
			</g>
			<g>
				<g>
					<polygon points="106.85,36.97 104.54,38.33 106.85,39.69 109.15,38.33 					"/>
				</g>
			</g>
			<g>
				<g>
					<polygon points="115.72,36.97 113.41,38.33 115.72,39.69 118.02,38.33 					"/>
				</g>
			</g>
			<g>
				<g>
					<polygon points="124.59,36.97 122.28,38.33 124.59,39.69 126.89,38.33 					"/>
				</g>
			</g>
			<g>
				<g>
					<polygon points="133.46,36.97 131.15,38.33 133.46,39.69 135.76,38.33 					"/>
				</g>
			</g>
			<g>
				<g>
					<polygon points="142.33,36.97 140.02,38.33 142.33,39.69 144.63,38.33 					"/>
				</g>
			</g>
			<g>
				<g>
					<polygon points="151.4,36.97 149.1,38.33 151.4,39.69 153.71,38.33 					"/>
				</g>
			</g>
			<g>
				<g>
					<polygon points="160.39,36.97 158.08,38.33 160.39,39.69 162.69,38.33 					"/>
				</g>
			</g>
			<g>
				<g>
					<polygon points="169.38,36.97 167.08,38.33 169.38,39.69 171.69,38.33 					"/>
				</g>
			</g>
			<g>
				<g>
					<polygon points="178.42,36.93 176.12,38.29 178.42,39.65 					"/>
				</g>
			</g>
		</g>
		<g>
			<g>
				<g>
					<polygon points="89.21,41.04 89.21,41.62 84.8,38.87 80.12,41.73 75.87,38.87 71.2,41.73 66.95,38.87 62.28,41.73 58.03,38.87 
						53.36,41.73 49.11,38.87 44.44,41.73 40.19,38.87 35.52,41.73 31.27,38.87 26.6,41.73 22.35,38.87 17.67,41.73 13.43,38.87 
						8.75,41.73 4.51,38.87 0.01,41.62 0,41.1 4.52,38.33 8.77,41.19 13.44,38.33 17.69,41.19 22.36,38.33 26.61,41.19 31.29,38.33 
						35.53,41.19 40.21,38.33 44.45,41.19 49.13,38.33 53.38,41.19 58.05,38.33 62.3,41.19 66.97,38.33 71.22,41.19 75.89,38.33 
						80.14,41.19 84.81,38.33 					"/>
				</g>
			</g>
			<g>
				<g>
					<polygon points="89.21,35.48 89.21,34.89 84.8,37.64 80.12,34.78 75.87,37.64 71.2,34.78 66.95,37.64 62.28,34.78 58.03,37.64 
						53.36,34.78 49.11,37.64 44.44,34.78 40.19,37.64 35.52,34.78 31.27,37.64 26.6,34.78 22.35,37.64 17.67,34.78 13.43,37.64 
						8.75,34.78 4.51,37.64 0.01,34.89 0,35.42 4.52,38.18 8.77,35.32 13.44,38.18 17.69,35.32 22.36,38.18 26.61,35.32 
						31.29,38.18 35.53,35.32 40.21,38.18 44.45,35.32 49.13,38.18 53.38,35.32 58.05,38.18 62.3,35.32 66.97,38.18 71.22,35.32 
						75.89,38.18 80.14,35.32 84.81,38.18 					"/>
				</g>
			</g>
			<g>
				<g>
					<polygon points="8.77,36.97 6.46,38.33 8.77,39.69 11.07,38.33 					"/>
				</g>
			</g>
			<g>
				<g>
					<polygon points="0,39.69 2.31,38.33 0,36.97 					"/>
				</g>
			</g>
			<g>
				<g>
					<polygon points="2.71,35.43 4.48,36.64 6.26,35.43 					"/>
				</g>
			</g>
			<g>
				<g>
					<polygon points="2.71,41.16 4.48,39.95 6.26,41.16 					"/>
				</g>
			</g>
			<g>
				<g>
					<polygon points="11.56,35.43 13.34,36.64 15.11,35.43 					"/>
				</g>
			</g>
			<g>
				<g>
					<polygon points="11.56,41.16 13.34,39.95 15.11,41.16 					"/>
				</g>
			</g>
			<g>
				<g>
					<polygon points="20.42,35.43 22.19,36.64 23.97,35.43 					"/>
				</g>
			</g>
			<g>
				<g>
					<polygon points="20.42,41.16 22.19,39.95 23.97,41.16 					"/>
				</g>
			</g>
			<g>
				<g>
					<polygon points="29.27,35.43 31.04,36.64 32.82,35.43 					"/>
				</g>
			</g>
			<g>
				<g>
					<polygon points="29.27,41.16 31.04,39.95 32.82,41.16 					"/>
				</g>
			</g>
			<g>
				<g>
					<polygon points="38.34,35.43 40.11,36.64 41.89,35.43 					"/>
				</g>
			</g>
			<g>
				<g>
					<polygon points="38.34,41.16 40.11,39.95 41.89,41.16 					"/>
				</g>
			</g>
			<g>
				<g>
					<polygon points="47.3,35.43 49.08,36.64 50.85,35.43 					"/>
				</g>
			</g>
			<g>
				<g>
					<polygon points="47.3,41.16 49.08,39.95 50.85,41.16 					"/>
				</g>
			</g>
			<g>
				<g>
					<polygon points="56.18,35.43 57.95,36.64 59.73,35.43 					"/>
				</g>
			</g>
			<g>
				<g>
					<polygon points="56.18,41.16 57.95,39.95 59.73,41.16 					"/>
				</g>
			</g>
			<g>
				<g>
					<polygon points="65.03,35.43 66.8,36.64 68.58,35.43 					"/>
				</g>
			</g>
			<g>
				<g>
					<polygon points="65.03,41.16 66.8,39.95 68.58,41.16 					"/>
				</g>
			</g>
			<g>
				<g>
					<polygon points="74.05,35.43 75.83,36.64 77.6,35.43 					"/>
				</g>
			</g>
			<g>
				<g>
					<polygon points="74.05,41.16 75.83,39.95 77.6,41.16 					"/>
				</g>
			</g>
			<g>
				<g>
					<polygon points="82.93,35.43 84.71,36.64 86.48,35.43 					"/>
				</g>
			</g>
			<g>
				<g>
					<polygon points="82.93,41.16 84.71,39.95 86.48,41.16 					"/>
				</g>
			</g>
			<g>
				<g>
					<polygon points="17.64,36.97 15.33,38.33 17.64,39.69 19.94,38.33 					"/>
				</g>
			</g>
			<g>
				<g>
					<polygon points="26.51,36.97 24.2,38.33 26.51,39.69 28.81,38.33 					"/>
				</g>
			</g>
			<g>
				<g>
					<polygon points="35.38,36.97 33.07,38.33 35.38,39.69 37.68,38.33 					"/>
				</g>
			</g>
			<g>
				<g>
					<polygon points="44.25,36.97 41.94,38.33 44.25,39.69 46.55,38.33 					"/>
				</g>
			</g>
			<g>
				<g>
					<polygon points="53.12,36.97 50.81,38.33 53.12,39.69 55.42,38.33 					"/>
				</g>
			</g>
			<g>
				<g>
					<polygon points="62.19,36.97 59.89,38.33 62.19,39.69 64.5,38.33 					"/>
				</g>
			</g>
			<g>
				<g>
					<polygon points="71.17,36.97 68.87,38.33 71.17,39.69 73.48,38.33 					"/>
				</g>
			</g>
			<g>
				<g>
					<polygon points="80.17,36.97 77.87,38.33 80.17,39.69 82.48,38.33 					"/>
				</g>
			</g>
			<g>
				<g>
					<polygon points="89.21,36.93 86.91,38.29 89.21,39.65 					"/>
				</g>
			</g>
		</g>
	</g>
	<g>
		<g>
			<g>
				<g>
					<polygon points="178.42,47.99 178.42,48.57 174.01,45.82 169.33,48.69 165.09,45.82 160.41,48.69 156.16,45.82 151.49,48.69 
						147.24,45.82 142.57,48.69 138.32,45.82 133.65,48.69 129.4,45.82 124.73,48.69 120.48,45.82 115.81,48.69 111.56,45.82 
						106.89,48.69 102.64,45.82 97.96,48.69 93.72,45.82 89.22,48.58 89.21,48.05 93.73,45.28 97.98,48.15 102.65,45.28 
						106.9,48.15 111.58,45.28 115.82,48.15 120.5,45.28 124.74,48.15 129.42,45.28 133.67,48.15 138.34,45.28 142.59,48.15 
						147.26,45.28 151.51,48.15 156.18,45.28 160.43,48.15 165.1,45.28 169.35,48.15 174.02,45.28 					"/>
				</g>
			</g>
			<g>
				<g>
					<polygon points="178.42,42.43 178.42,41.85 174.01,44.6 169.33,41.73 165.09,44.6 160.41,41.73 156.16,44.6 151.49,41.73 
						147.24,44.6 142.57,41.73 138.32,44.6 133.65,41.73 129.4,44.6 124.73,41.73 120.48,44.6 115.81,41.73 111.56,44.6 
						106.89,41.73 102.64,44.6 97.96,41.73 93.72,44.6 89.22,41.84 89.21,42.37 93.73,45.14 97.98,42.27 102.65,45.14 106.9,42.27 
						111.58,45.14 115.82,42.27 120.5,45.14 124.74,42.27 129.42,45.14 133.67,42.27 138.34,45.14 142.59,42.27 147.26,45.14 
						151.51,42.27 156.18,45.14 160.43,42.27 165.1,45.14 169.35,42.27 174.02,45.14 					"/>
				</g>
			</g>
			<g>
				<g>
					<polygon points="97.98,43.92 95.67,45.28 97.98,46.64 100.28,45.28 					"/>
				</g>
			</g>
			<g>
				<g>
					<polygon points="89.21,46.64 91.52,45.28 89.21,43.92 					"/>
				</g>
			</g>
			<g>
				<g>
					<polygon points="91.92,42.38 93.7,43.6 95.47,42.38 					"/>
				</g>
			</g>
			<g>
				<g>
					<polygon points="91.92,48.12 93.7,46.9 95.47,48.12 					"/>
				</g>
			</g>
			<g>
				<g>
					<polygon points="100.77,42.38 102.55,43.6 104.32,42.38 					"/>
				</g>
			</g>
			<g>
				<g>
					<polygon points="100.77,48.12 102.55,46.9 104.32,48.12 					"/>
				</g>
			</g>
			<g>
				<g>
					<polygon points="109.63,42.38 111.4,43.6 113.18,42.38 					"/>
				</g>
			</g>
			<g>
				<g>
					<polygon points="109.63,48.12 111.4,46.9 113.18,48.12 					"/>
				</g>
			</g>
			<g>
				<g>
					<polygon points="118.48,42.38 120.25,43.6 122.03,42.38 					"/>
				</g>
			</g>
			<g>
				<g>
					<polygon points="118.48,48.12 120.25,46.9 122.03,48.12 					"/>
				</g>
			</g>
			<g>
				<g>
					<polygon points="127.55,42.38 129.32,43.6 131.1,42.38 					"/>
				</g>
			</g>
			<g>
				<g>
					<polygon points="127.55,48.12 129.32,46.9 131.1,48.12 					"/>
				</g>
			</g>
			<g>
				<g>
					<polygon points="136.51,42.38 138.29,43.6 140.06,42.38 					"/>
				</g>
			</g>
			<g>
				<g>
					<polygon points="136.51,48.12 138.29,46.9 140.06,48.12 					"/>
				</g>
			</g>
			<g>
				<g>
					<polygon points="145.39,42.38 147.16,43.6 148.94,42.38 					"/>
				</g>
			</g>
			<g>
				<g>
					<polygon points="145.39,48.12 147.16,46.9 148.94,48.12 					"/>
				</g>
			</g>
			<g>
				<g>
					<polygon points="154.24,42.38 156.01,43.6 157.79,42.38 					"/>
				</g>
			</g>
			<g>
				<g>
					<polygon points="154.24,48.12 156.01,46.9 157.79,48.12 					"/>
				</g>
			</g>
			<g>
				<g>
					<polygon points="163.26,42.38 165.04,43.6 166.81,42.38 					"/>
				</g>
			</g>
			<g>
				<g>
					<polygon points="163.26,48.12 165.04,46.9 166.81,48.12 					"/>
				</g>
			</g>
			<g>
				<g>
					<polygon points="172.15,42.38 173.92,43.6 175.7,42.38 					"/>
				</g>
			</g>
			<g>
				<g>
					<polygon points="172.15,48.12 173.92,46.9 175.7,48.12 					"/>
				</g>
			</g>
			<g>
				<g>
					<polygon points="106.85,43.92 104.54,45.28 106.85,46.64 109.15,45.28 					"/>
				</g>
			</g>
			<g>
				<g>
					<polygon points="115.72,43.92 113.41,45.28 115.72,46.64 118.02,45.28 					"/>
				</g>
			</g>
			<g>
				<g>
					<polygon points="124.59,43.92 122.28,45.28 124.59,46.64 126.89,45.28 					"/>
				</g>
			</g>
			<g>
				<g>
					<polygon points="133.46,43.92 131.15,45.28 133.46,46.64 135.76,45.28 					"/>
				</g>
			</g>
			<g>
				<g>
					<polygon points="142.33,43.92 140.02,45.28 142.33,46.64 144.63,45.28 					"/>
				</g>
			</g>
			<g>
				<g>
					<polygon points="151.4,43.92 149.1,45.28 151.4,46.64 153.71,45.28 					"/>
				</g>
			</g>
			<g>
				<g>
					<polygon points="160.39,43.92 158.08,45.28 160.39,46.64 162.69,45.28 					"/>
				</g>
			</g>
			<g>
				<g>
					<polygon points="169.38,43.92 167.08,45.28 169.38,46.64 171.69,45.28 					"/>
				</g>
			</g>
			<g>
				<g>
					<polygon points="178.42,43.89 176.12,45.25 178.42,46.61 					"/>
				</g>
			</g>
		</g>
		<g>
			<g>
				<g>
					<polygon points="89.21,47.99 89.21,48.57 84.8,45.82 80.12,48.69 75.87,45.82 71.2,48.69 66.95,45.82 62.28,48.69 58.03,45.82 
						53.36,48.69 49.11,45.82 44.44,48.69 40.19,45.82 35.52,48.69 31.27,45.82 26.6,48.69 22.35,45.82 17.67,48.69 13.43,45.82 
						8.75,48.69 4.51,45.82 0.01,48.58 0,48.05 4.52,45.28 8.77,48.15 13.44,45.28 17.69,48.15 22.36,45.28 26.61,48.15 
						31.29,45.28 35.53,48.15 40.21,45.28 44.45,48.15 49.13,45.28 53.38,48.15 58.05,45.28 62.3,48.15 66.97,45.28 71.22,48.15 
						75.89,45.28 80.14,48.15 84.81,45.28 					"/>
				</g>
			</g>
			<g>
				<g>
					<polygon points="89.21,42.43 89.21,41.85 84.8,44.6 80.12,41.73 75.87,44.6 71.2,41.73 66.95,44.6 62.28,41.73 58.03,44.6 
						53.36,41.73 49.11,44.6 44.44,41.73 40.19,44.6 35.52,41.73 31.27,44.6 26.6,41.73 22.35,44.6 17.67,41.73 13.43,44.6 
						8.75,41.73 4.51,44.6 0.01,41.84 0,42.37 4.52,45.14 8.77,42.27 13.44,45.14 17.69,42.27 22.36,45.14 26.61,42.27 31.29,45.14 
						35.53,42.27 40.21,45.14 44.45,42.27 49.13,45.14 53.38,42.27 58.05,45.14 62.3,42.27 66.97,45.14 71.22,42.27 75.89,45.14 
						80.14,42.27 84.81,45.14 					"/>
				</g>
			</g>
			<g>
				<g>
					<polygon points="8.77,43.92 6.46,45.28 8.77,46.64 11.07,45.28 					"/>
				</g>
			</g>
			<g>
				<g>
					<polygon points="0,46.64 2.31,45.28 0,43.92 					"/>
				</g>
			</g>
			<g>
				<g>
					<polygon points="2.71,42.38 4.48,43.6 6.26,42.38 					"/>
				</g>
			</g>
			<g>
				<g>
					<polygon points="2.71,48.12 4.48,46.9 6.26,48.12 					"/>
				</g>
			</g>
			<g>
				<g>
					<polygon points="11.56,42.38 13.34,43.6 15.11,42.38 					"/>
				</g>
			</g>
			<g>
				<g>
					<polygon points="11.56,48.12 13.34,46.9 15.11,48.12 					"/>
				</g>
			</g>
			<g>
				<g>
					<polygon points="20.42,42.38 22.19,43.6 23.97,42.38 					"/>
				</g>
			</g>
			<g>
				<g>
					<polygon points="20.42,48.12 22.19,46.9 23.97,48.12 					"/>
				</g>
			</g>
			<g>
				<g>
					<polygon points="29.27,42.38 31.04,43.6 32.82,42.38 					"/>
				</g>
			</g>
			<g>
				<g>
					<polygon points="29.27,48.12 31.04,46.9 32.82,48.12 					"/>
				</g>
			</g>
			<g>
				<g>
					<polygon points="38.34,42.38 40.11,43.6 41.89,42.38 					"/>
				</g>
			</g>
			<g>
				<g>
					<polygon points="38.34,48.12 40.11,46.9 41.89,48.12 					"/>
				</g>
			</g>
			<g>
				<g>
					<polygon points="47.3,42.38 49.08,43.6 50.85,42.38 					"/>
				</g>
			</g>
			<g>
				<g>
					<polygon points="47.3,48.12 49.08,46.9 50.85,48.12 					"/>
				</g>
			</g>
			<g>
				<g>
					<polygon points="56.18,42.38 57.95,43.6 59.73,42.38 					"/>
				</g>
			</g>
			<g>
				<g>
					<polygon points="56.18,48.12 57.95,46.9 59.73,48.12 					"/>
				</g>
			</g>
			<g>
				<g>
					<polygon points="65.03,42.38 66.8,43.6 68.58,42.38 					"/>
				</g>
			</g>
			<g>
				<g>
					<polygon points="65.03,48.12 66.8,46.9 68.58,48.12 					"/>
				</g>
			</g>
			<g>
				<g>
					<polygon points="74.05,42.38 75.83,43.6 77.6,42.38 					"/>
				</g>
			</g>
			<g>
				<g>
					<polygon points="74.05,48.12 75.83,46.9 77.6,48.12 					"/>
				</g>
			</g>
			<g>
				<g>
					<polygon points="82.93,42.38 84.71,43.6 86.48,42.38 					"/>
				</g>
			</g>
			<g>
				<g>
					<polygon points="82.93,48.12 84.71,46.9 86.48,48.12 					"/>
				</g>
			</g>
			<g>
				<g>
					<polygon points="17.64,43.92 15.33,45.28 17.64,46.64 19.94,45.28 					"/>
				</g>
			</g>
			<g>
				<g>
					<polygon points="26.51,43.92 24.2,45.28 26.51,46.64 28.81,45.28 					"/>
				</g>
			</g>
			<g>
				<g>
					<polygon points="35.38,43.92 33.07,45.28 35.38,46.64 37.68,45.28 					"/>
				</g>
			</g>
			<g>
				<g>
					<polygon points="44.25,43.92 41.94,45.28 44.25,46.64 46.55,45.28 					"/>
				</g>
			</g>
			<g>
				<g>
					<polygon points="53.12,43.92 50.81,45.28 53.12,46.64 55.42,45.28 					"/>
				</g>
			</g>
			<g>
				<g>
					<polygon points="62.19,43.92 59.89,45.28 62.19,46.64 64.5,45.28 					"/>
				</g>
			</g>
			<g>
				<g>
					<polygon points="71.17,43.92 68.87,45.28 71.17,46.64 73.48,45.28 					"/>
				</g>
			</g>
			<g>
				<g>
					<polygon points="80.17,43.92 77.87,45.28 80.17,46.64 82.48,45.28 					"/>
				</g>
			</g>
			<g>
				<g>
					<polygon points="89.21,43.89 86.91,45.25 89.21,46.61 					"/>
				</g>
			</g>
		</g>
	</g>
	<g>
		<g>
			<g>
				<g>
					<polygon points="178.42,54.95 178.42,55.53 174.01,52.78 169.33,55.65 165.09,52.78 160.41,55.65 156.16,52.78 151.49,55.65 
						147.24,52.78 142.57,55.65 138.32,52.78 133.65,55.65 129.4,52.78 124.73,55.65 120.48,52.78 115.81,55.65 111.56,52.78 
						106.89,55.65 102.64,52.78 97.96,55.65 93.72,52.78 89.22,55.54 89.21,55.01 93.73,52.24 97.98,55.1 102.65,52.24 106.9,55.1 
						111.58,52.24 115.82,55.1 120.5,52.24 124.74,55.1 129.42,52.24 133.67,55.1 138.34,52.24 142.59,55.1 147.26,52.24 
						151.51,55.1 156.18,52.24 160.43,55.1 165.1,52.24 169.35,55.1 174.02,52.24 					"/>
				</g>
			</g>
			<g>
				<g>
					<polygon points="178.42,49.39 178.42,48.81 174.01,51.56 169.33,48.69 165.09,51.56 160.41,48.69 156.16,51.56 151.49,48.69 
						147.24,51.56 142.57,48.69 138.32,51.56 133.65,48.69 129.4,51.56 124.73,48.69 120.48,51.56 115.81,48.69 111.56,51.56 
						106.89,48.69 102.64,51.56 97.96,48.69 93.72,51.56 89.22,48.8 89.21,49.33 93.73,52.1 97.98,49.23 102.65,52.1 106.9,49.23 
						111.58,52.1 115.82,49.23 120.5,52.1 124.74,49.23 129.42,52.1 133.67,49.23 138.34,52.1 142.59,49.23 147.26,52.1 
						151.51,49.23 156.18,52.1 160.43,49.23 165.1,52.1 169.35,49.23 174.02,52.1 					"/>
				</g>
			</g>
			<g>
				<g>
					<polygon points="97.98,50.88 95.67,52.24 97.98,53.6 100.28,52.24 					"/>
				</g>
			</g>
			<g>
				<g>
					<polygon points="89.21,53.6 91.52,52.24 89.21,50.88 					"/>
				</g>
			</g>
			<g>
				<g>
					<polygon points="91.92,49.34 93.7,50.55 95.47,49.34 					"/>
				</g>
			</g>
			<g>
				<g>
					<polygon points="91.92,55.07 93.7,53.86 95.47,55.07 					"/>
				</g>
			</g>
			<g>
				<g>
					<polygon points="100.77,49.34 102.55,50.55 104.32,49.34 					"/>
				</g>
			</g>
			<g>
				<g>
					<polygon points="100.77,55.07 102.55,53.86 104.32,55.07 					"/>
				</g>
			</g>
			<g>
				<g>
					<polygon points="109.63,49.34 111.4,50.55 113.18,49.34 					"/>
				</g>
			</g>
			<g>
				<g>
					<polygon points="109.63,55.07 111.4,53.86 113.18,55.07 					"/>
				</g>
			</g>
			<g>
				<g>
					<polygon points="118.48,49.34 120.25,50.55 122.03,49.34 					"/>
				</g>
			</g>
			<g>
				<g>
					<polygon points="118.48,55.07 120.25,53.86 122.03,55.07 					"/>
				</g>
			</g>
			<g>
				<g>
					<polygon points="127.55,49.34 129.32,50.55 131.1,49.34 					"/>
				</g>
			</g>
			<g>
				<g>
					<polygon points="127.55,55.07 129.32,53.86 131.1,55.07 					"/>
				</g>
			</g>
			<g>
				<g>
					<polygon points="136.51,49.34 138.29,50.55 140.06,49.34 					"/>
				</g>
			</g>
			<g>
				<g>
					<polygon points="136.51,55.07 138.29,53.86 140.06,55.07 					"/>
				</g>
			</g>
			<g>
				<g>
					<polygon points="145.39,49.34 147.16,50.55 148.94,49.34 					"/>
				</g>
			</g>
			<g>
				<g>
					<polygon points="145.39,55.07 147.16,53.86 148.94,55.07 					"/>
				</g>
			</g>
			<g>
				<g>
					<polygon points="154.24,49.34 156.01,50.55 157.79,49.34 					"/>
				</g>
			</g>
			<g>
				<g>
					<polygon points="154.24,55.07 156.01,53.86 157.79,55.07 					"/>
				</g>
			</g>
			<g>
				<g>
					<polygon points="163.26,49.34 165.04,50.55 166.81,49.34 					"/>
				</g>
			</g>
			<g>
				<g>
					<polygon points="163.26,55.07 165.04,53.86 166.81,55.07 					"/>
				</g>
			</g>
			<g>
				<g>
					<polygon points="172.15,49.34 173.92,50.55 175.7,49.34 					"/>
				</g>
			</g>
			<g>
				<g>
					<polygon points="172.15,55.07 173.92,53.86 175.7,55.07 					"/>
				</g>
			</g>
			<g>
				<g>
					<polygon points="106.85,50.88 104.54,52.24 106.85,53.6 109.15,52.24 					"/>
				</g>
			</g>
			<g>
				<g>
					<polygon points="115.72,50.88 113.41,52.24 115.72,53.6 118.02,52.24 					"/>
				</g>
			</g>
			<g>
				<g>
					<polygon points="124.59,50.88 122.28,52.24 124.59,53.6 126.89,52.24 					"/>
				</g>
			</g>
			<g>
				<g>
					<polygon points="133.46,50.88 131.15,52.24 133.46,53.6 135.76,52.24 					"/>
				</g>
			</g>
			<g>
				<g>
					<polygon points="142.33,50.88 140.02,52.24 142.33,53.6 144.63,52.24 					"/>
				</g>
			</g>
			<g>
				<g>
					<polygon points="151.4,50.88 149.1,52.24 151.4,53.6 153.71,52.24 					"/>
				</g>
			</g>
			<g>
				<g>
					<polygon points="160.39,50.88 158.08,52.24 160.39,53.6 162.69,52.24 					"/>
				</g>
			</g>
			<g>
				<g>
					<polygon points="169.38,50.88 167.08,52.24 169.38,53.6 171.69,52.24 					"/>
				</g>
			</g>
			<g>
				<g>
					<polygon points="178.42,50.84 176.12,52.2 178.42,53.56 					"/>
				</g>
			</g>
		</g>
		<g>
			<g>
				<g>
					<polygon points="89.21,54.95 89.21,55.53 84.8,52.78 80.12,55.65 75.87,52.78 71.2,55.65 66.95,52.78 62.28,55.65 58.03,52.78 
						53.36,55.65 49.11,52.78 44.44,55.65 40.19,52.78 35.52,55.65 31.27,52.78 26.6,55.65 22.35,52.78 17.67,55.65 13.43,52.78 
						8.75,55.65 4.51,52.78 0.01,55.54 0,55.01 4.52,52.24 8.77,55.1 13.44,52.24 17.69,55.1 22.36,52.24 26.61,55.1 31.29,52.24 
						35.53,55.1 40.21,52.24 44.45,55.1 49.13,52.24 53.38,55.1 58.05,52.24 62.3,55.1 66.97,52.24 71.22,55.1 75.89,52.24 
						80.14,55.1 84.81,52.24 					"/>
				</g>
			</g>
			<g>
				<g>
					<polygon points="89.21,49.39 89.21,48.81 84.8,51.56 80.12,48.69 75.87,51.56 71.2,48.69 66.95,51.56 62.28,48.69 58.03,51.56 
						53.36,48.69 49.11,51.56 44.44,48.69 40.19,51.56 35.52,48.69 31.27,51.56 26.6,48.69 22.35,51.56 17.67,48.69 13.43,51.56 
						8.75,48.69 4.51,51.56 0.01,48.8 0,49.33 4.52,52.1 8.77,49.23 13.44,52.1 17.69,49.23 22.36,52.1 26.61,49.23 31.29,52.1 
						35.53,49.23 40.21,52.1 44.45,49.23 49.13,52.1 53.38,49.23 58.05,52.1 62.3,49.23 66.97,52.1 71.22,49.23 75.89,52.1 
						80.14,49.23 84.81,52.1 					"/>
				</g>
			</g>
			<g>
				<g>
					<polygon points="8.77,50.88 6.46,52.24 8.77,53.6 11.07,52.24 					"/>
				</g>
			</g>
			<g>
				<g>
					<polygon points="0,53.6 2.31,52.24 0,50.88 					"/>
				</g>
			</g>
			<g>
				<g>
					<polygon points="2.71,49.34 4.48,50.55 6.26,49.34 					"/>
				</g>
			</g>
			<g>
				<g>
					<polygon points="2.71,55.07 4.48,53.86 6.26,55.07 					"/>
				</g>
			</g>
			<g>
				<g>
					<polygon points="11.56,49.34 13.34,50.55 15.11,49.34 					"/>
				</g>
			</g>
			<g>
				<g>
					<polygon points="11.56,55.07 13.34,53.86 15.11,55.07 					"/>
				</g>
			</g>
			<g>
				<g>
					<polygon points="20.42,49.34 22.19,50.55 23.97,49.34 					"/>
				</g>
			</g>
			<g>
				<g>
					<polygon points="20.42,55.07 22.19,53.86 23.97,55.07 					"/>
				</g>
			</g>
			<g>
				<g>
					<polygon points="29.27,49.34 31.04,50.55 32.82,49.34 					"/>
				</g>
			</g>
			<g>
				<g>
					<polygon points="29.27,55.07 31.04,53.86 32.82,55.07 					"/>
				</g>
			</g>
			<g>
				<g>
					<polygon points="38.34,49.34 40.11,50.55 41.89,49.34 					"/>
				</g>
			</g>
			<g>
				<g>
					<polygon points="38.34,55.07 40.11,53.86 41.89,55.07 					"/>
				</g>
			</g>
			<g>
				<g>
					<polygon points="47.3,49.34 49.08,50.55 50.85,49.34 					"/>
				</g>
			</g>
			<g>
				<g>
					<polygon points="47.3,55.07 49.08,53.86 50.85,55.07 					"/>
				</g>
			</g>
			<g>
				<g>
					<polygon points="56.18,49.34 57.95,50.55 59.73,49.34 					"/>
				</g>
			</g>
			<g>
				<g>
					<polygon points="56.18,55.07 57.95,53.86 59.73,55.07 					"/>
				</g>
			</g>
			<g>
				<g>
					<polygon points="65.03,49.34 66.8,50.55 68.58,49.34 					"/>
				</g>
			</g>
			<g>
				<g>
					<polygon points="65.03,55.07 66.8,53.86 68.58,55.07 					"/>
				</g>
			</g>
			<g>
				<g>
					<polygon points="74.05,49.34 75.83,50.55 77.6,49.34 					"/>
				</g>
			</g>
			<g>
				<g>
					<polygon points="74.05,55.07 75.83,53.86 77.6,55.07 					"/>
				</g>
			</g>
			<g>
				<g>
					<polygon points="82.93,49.34 84.71,50.55 86.48,49.34 					"/>
				</g>
			</g>
			<g>
				<g>
					<polygon points="82.93,55.07 84.71,53.86 86.48,55.07 					"/>
				</g>
			</g>
			<g>
				<g>
					<polygon points="17.64,50.88 15.33,52.24 17.64,53.6 19.94,52.24 					"/>
				</g>
			</g>
			<g>
				<g>
					<polygon points="26.51,50.88 24.2,52.24 26.51,53.6 28.81,52.24 					"/>
				</g>
			</g>
			<g>
				<g>
					<polygon points="35.38,50.88 33.07,52.24 35.38,53.6 37.68,52.24 					"/>
				</g>
			</g>
			<g>
				<g>
					<polygon points="44.25,50.88 41.94,52.24 44.25,53.6 46.55,52.24 					"/>
				</g>
			</g>
			<g>
				<g>
					<polygon points="53.12,50.88 50.81,52.24 53.12,53.6 55.42,52.24 					"/>
				</g>
			</g>
			<g>
				<g>
					<polygon points="62.19,50.88 59.89,52.24 62.19,53.6 64.5,52.24 					"/>
				</g>
			</g>
			<g>
				<g>
					<polygon points="71.17,50.88 68.87,52.24 71.17,53.6 73.48,52.24 					"/>
				</g>
			</g>
			<g>
				<g>
					<polygon points="80.17,50.88 77.87,52.24 80.17,53.6 82.48,52.24 					"/>
				</g>
			</g>
			<g>
				<g>
					<polygon points="89.21,50.84 86.91,52.2 89.21,53.56 					"/>
				</g>
			</g>
		</g>
	</g>
	<g>
		<g>
			<g>
				<g>
					<polygon points="178.42,61.9 178.42,62.48 174.01,59.73 169.33,62.6 165.09,59.73 160.41,62.6 156.16,59.73 151.49,62.6 
						147.24,59.73 142.57,62.6 138.32,59.73 133.65,62.6 129.4,59.73 124.73,62.6 120.48,59.73 115.81,62.6 111.56,59.73 
						106.89,62.6 102.64,59.73 97.96,62.6 93.72,59.73 89.22,62.49 89.21,61.96 93.73,59.19 97.98,62.06 102.65,59.19 106.9,62.06 
						111.58,59.19 115.82,62.06 120.5,59.19 124.74,62.06 129.42,59.19 133.67,62.06 138.34,59.19 142.59,62.06 147.26,59.19 
						151.51,62.06 156.18,59.19 160.43,62.06 165.1,59.19 169.35,62.06 174.02,59.19 					"/>
				</g>
			</g>
			<g>
				<g>
					<polygon points="178.42,56.34 178.42,55.76 174.01,58.51 169.33,55.65 165.09,58.51 160.41,55.65 156.16,58.51 151.49,55.65 
						147.24,58.51 142.57,55.65 138.32,58.51 133.65,55.65 129.4,58.51 124.73,55.65 120.48,58.51 115.81,55.65 111.56,58.51 
						106.89,55.65 102.64,58.51 97.96,55.65 93.72,58.51 89.22,55.75 89.21,56.28 93.73,59.05 97.98,56.19 102.65,59.05 
						106.9,56.19 111.58,59.05 115.82,56.19 120.5,59.05 124.74,56.19 129.42,59.05 133.67,56.19 138.34,59.05 142.59,56.19 
						147.26,59.05 151.51,56.19 156.18,59.05 160.43,56.19 165.1,59.05 169.35,56.19 174.02,59.05 					"/>
				</g>
			</g>
			<g>
				<g>
					<polygon points="97.98,57.83 95.67,59.19 97.98,60.55 100.28,59.19 					"/>
				</g>
			</g>
			<g>
				<g>
					<polygon points="89.21,60.55 91.52,59.19 89.21,57.83 					"/>
				</g>
			</g>
			<g>
				<g>
					<polygon points="91.92,56.29 93.7,57.51 95.47,56.29 					"/>
				</g>
			</g>
			<g>
				<g>
					<polygon points="91.92,62.03 93.7,60.81 95.47,62.03 					"/>
				</g>
			</g>
			<g>
				<g>
					<polygon points="100.77,56.29 102.55,57.51 104.32,56.29 					"/>
				</g>
			</g>
			<g>
				<g>
					<polygon points="100.77,62.03 102.55,60.81 104.32,62.03 					"/>
				</g>
			</g>
			<g>
				<g>
					<polygon points="109.63,56.29 111.4,57.51 113.18,56.29 					"/>
				</g>
			</g>
			<g>
				<g>
					<polygon points="109.63,62.03 111.4,60.81 113.18,62.03 					"/>
				</g>
			</g>
			<g>
				<g>
					<polygon points="118.48,56.29 120.25,57.51 122.03,56.29 					"/>
				</g>
			</g>
			<g>
				<g>
					<polygon points="118.48,62.03 120.25,60.81 122.03,62.03 					"/>
				</g>
			</g>
			<g>
				<g>
					<polygon points="127.55,56.29 129.32,57.51 131.1,56.29 					"/>
				</g>
			</g>
			<g>
				<g>
					<polygon points="127.55,62.03 129.32,60.81 131.1,62.03 					"/>
				</g>
			</g>
			<g>
				<g>
					<polygon points="136.51,56.29 138.29,57.51 140.06,56.29 					"/>
				</g>
			</g>
			<g>
				<g>
					<polygon points="136.51,62.03 138.29,60.81 140.06,62.03 					"/>
				</g>
			</g>
			<g>
				<g>
					<polygon points="145.39,56.29 147.16,57.51 148.94,56.29 					"/>
				</g>
			</g>
			<g>
				<g>
					<polygon points="145.39,62.03 147.16,60.81 148.94,62.03 					"/>
				</g>
			</g>
			<g>
				<g>
					<polygon points="154.24,56.29 156.01,57.51 157.79,56.29 					"/>
				</g>
			</g>
			<g>
				<g>
					<polygon points="154.24,62.03 156.01,60.81 157.79,62.03 					"/>
				</g>
			</g>
			<g>
				<g>
					<polygon points="163.26,56.29 165.04,57.51 166.81,56.29 					"/>
				</g>
			</g>
			<g>
				<g>
					<polygon points="163.26,62.03 165.04,60.81 166.81,62.03 					"/>
				</g>
			</g>
			<g>
				<g>
					<polygon points="172.15,56.29 173.92,57.51 175.7,56.29 					"/>
				</g>
			</g>
			<g>
				<g>
					<polygon points="172.15,62.03 173.92,60.81 175.7,62.03 					"/>
				</g>
			</g>
			<g>
				<g>
					<polygon points="106.85,57.83 104.54,59.19 106.85,60.55 109.15,59.19 					"/>
				</g>
			</g>
			<g>
				<g>
					<polygon points="115.72,57.83 113.41,59.19 115.72,60.55 118.02,59.19 					"/>
				</g>
			</g>
			<g>
				<g>
					<polygon points="124.59,57.83 122.28,59.19 124.59,60.55 126.89,59.19 					"/>
				</g>
			</g>
			<g>
				<g>
					<polygon points="133.46,57.83 131.15,59.19 133.46,60.55 135.76,59.19 					"/>
				</g>
			</g>
			<g>
				<g>
					<polygon points="142.33,57.83 140.02,59.19 142.33,60.55 144.63,59.19 					"/>
				</g>
			</g>
			<g>
				<g>
					<polygon points="151.4,57.83 149.1,59.19 151.4,60.55 153.71,59.19 					"/>
				</g>
			</g>
			<g>
				<g>
					<polygon points="160.39,57.83 158.08,59.19 160.39,60.55 162.69,59.19 					"/>
				</g>
			</g>
			<g>
				<g>
					<polygon points="169.38,57.83 167.08,59.19 169.38,60.55 171.69,59.19 					"/>
				</g>
			</g>
			<g>
				<g>
					<polygon points="178.42,57.8 176.12,59.16 178.42,60.52 					"/>
				</g>
			</g>
		</g>
		<g>
			<g>
				<g>
					<polygon points="89.21,61.9 89.21,62.48 84.8,59.73 80.12,62.6 75.87,59.73 71.2,62.6 66.95,59.73 62.28,62.6 58.03,59.73 
						53.36,62.6 49.11,59.73 44.44,62.6 40.19,59.73 35.52,62.6 31.27,59.73 26.6,62.6 22.35,59.73 17.67,62.6 13.43,59.73 
						8.75,62.6 4.51,59.73 0.01,62.49 0,61.96 4.52,59.19 8.77,62.06 13.44,59.19 17.69,62.06 22.36,59.19 26.61,62.06 31.29,59.19 
						35.53,62.06 40.21,59.19 44.45,62.06 49.13,59.19 53.38,62.06 58.05,59.19 62.3,62.06 66.97,59.19 71.22,62.06 75.89,59.19 
						80.14,62.06 84.81,59.19 					"/>
				</g>
			</g>
			<g>
				<g>
					<polygon points="89.21,56.34 89.21,55.76 84.8,58.51 80.12,55.65 75.87,58.51 71.2,55.65 66.95,58.51 62.28,55.65 58.03,58.51 
						53.36,55.65 49.11,58.51 44.44,55.65 40.19,58.51 35.52,55.65 31.27,58.51 26.6,55.65 22.35,58.51 17.67,55.65 13.43,58.51 
						8.75,55.65 4.51,58.51 0.01,55.75 0,56.28 4.52,59.05 8.77,56.19 13.44,59.05 17.69,56.19 22.36,59.05 26.61,56.19 
						31.29,59.05 35.53,56.19 40.21,59.05 44.45,56.19 49.13,59.05 53.38,56.19 58.05,59.05 62.3,56.19 66.97,59.05 71.22,56.19 
						75.89,59.05 80.14,56.19 84.81,59.05 					"/>
				</g>
			</g>
			<g>
				<g>
					<polygon points="8.77,57.83 6.46,59.19 8.77,60.55 11.07,59.19 					"/>
				</g>
			</g>
			<g>
				<g>
					<polygon points="0,60.55 2.31,59.19 0,57.83 					"/>
				</g>
			</g>
			<g>
				<g>
					<polygon points="2.71,56.29 4.48,57.51 6.26,56.29 					"/>
				</g>
			</g>
			<g>
				<g>
					<polygon points="2.71,62.03 4.48,60.81 6.26,62.03 					"/>
				</g>
			</g>
			<g>
				<g>
					<polygon points="11.56,56.29 13.34,57.51 15.11,56.29 					"/>
				</g>
			</g>
			<g>
				<g>
					<polygon points="11.56,62.03 13.34,60.81 15.11,62.03 					"/>
				</g>
			</g>
			<g>
				<g>
					<polygon points="20.42,56.29 22.19,57.51 23.97,56.29 					"/>
				</g>
			</g>
			<g>
				<g>
					<polygon points="20.42,62.03 22.19,60.81 23.97,62.03 					"/>
				</g>
			</g>
			<g>
				<g>
					<polygon points="29.27,56.29 31.04,57.51 32.82,56.29 					"/>
				</g>
			</g>
			<g>
				<g>
					<polygon points="29.27,62.03 31.04,60.81 32.82,62.03 					"/>
				</g>
			</g>
			<g>
				<g>
					<polygon points="38.34,56.29 40.11,57.51 41.89,56.29 					"/>
				</g>
			</g>
			<g>
				<g>
					<polygon points="38.34,62.03 40.11,60.81 41.89,62.03 					"/>
				</g>
			</g>
			<g>
				<g>
					<polygon points="47.3,56.29 49.08,57.51 50.85,56.29 					"/>
				</g>
			</g>
			<g>
				<g>
					<polygon points="47.3,62.03 49.08,60.81 50.85,62.03 					"/>
				</g>
			</g>
			<g>
				<g>
					<polygon points="56.18,56.29 57.95,57.51 59.73,56.29 					"/>
				</g>
			</g>
			<g>
				<g>
					<polygon points="56.18,62.03 57.95,60.81 59.73,62.03 					"/>
				</g>
			</g>
			<g>
				<g>
					<polygon points="65.03,56.29 66.8,57.51 68.58,56.29 					"/>
				</g>
			</g>
			<g>
				<g>
					<polygon points="65.03,62.03 66.8,60.81 68.58,62.03 					"/>
				</g>
			</g>
			<g>
				<g>
					<polygon points="74.05,56.29 75.83,57.51 77.6,56.29 					"/>
				</g>
			</g>
			<g>
				<g>
					<polygon points="74.05,62.03 75.83,60.81 77.6,62.03 					"/>
				</g>
			</g>
			<g>
				<g>
					<polygon points="82.93,56.29 84.71,57.51 86.48,56.29 					"/>
				</g>
			</g>
			<g>
				<g>
					<polygon points="82.93,62.03 84.71,60.81 86.48,62.03 					"/>
				</g>
			</g>
			<g>
				<g>
					<polygon points="17.64,57.83 15.33,59.19 17.64,60.55 19.94,59.19 					"/>
				</g>
			</g>
			<g>
				<g>
					<polygon points="26.51,57.83 24.2,59.19 26.51,60.55 28.81,59.19 					"/>
				</g>
			</g>
			<g>
				<g>
					<polygon points="35.38,57.83 33.07,59.19 35.38,60.55 37.68,59.19 					"/>
				</g>
			</g>
			<g>
				<g>
					<polygon points="44.25,57.83 41.94,59.19 44.25,60.55 46.55,59.19 					"/>
				</g>
			</g>
			<g>
				<g>
					<polygon points="53.12,57.83 50.81,59.19 53.12,60.55 55.42,59.19 					"/>
				</g>
			</g>
			<g>
				<g>
					<polygon points="62.19,57.83 59.89,59.19 62.19,60.55 64.5,59.19 					"/>
				</g>
			</g>
			<g>
				<g>
					<polygon points="71.17,57.83 68.87,59.19 71.17,60.55 73.48,59.19 					"/>
				</g>
			</g>
			<g>
				<g>
					<polygon points="80.17,57.83 77.87,59.19 80.17,60.55 82.48,59.19 					"/>
				</g>
			</g>
			<g>
				<g>
					<polygon points="89.21,57.8 86.91,59.16 89.21,60.52 					"/>
				</g>
			</g>
		</g>
	</g>
	<g>
		<g>
			<g>
				<g>
					<polygon points="178.42,68.86 178.42,69.44 174.01,66.69 169.33,69.56 165.09,66.69 160.41,69.56 156.16,66.69 151.49,69.56 
						147.24,66.69 142.57,69.56 138.32,66.69 133.65,69.56 129.4,66.69 124.73,69.56 120.48,66.69 115.81,69.56 111.56,66.69 
						106.89,69.56 102.64,66.69 97.96,69.56 93.72,66.69 89.22,69.45 89.21,68.92 93.73,66.15 97.98,69.02 102.65,66.15 
						106.9,69.02 111.58,66.15 115.82,69.02 120.5,66.15 124.74,69.02 129.42,66.15 133.67,69.02 138.34,66.15 142.59,69.02 
						147.26,66.15 151.51,69.02 156.18,66.15 160.43,69.02 165.1,66.15 169.35,69.02 174.02,66.15 					"/>
				</g>
			</g>
			<g>
				<g>
					<polygon points="178.42,63.3 178.42,62.72 174.01,65.47 169.33,62.6 165.09,65.47 160.41,62.6 156.16,65.47 151.49,62.6 
						147.24,65.47 142.57,62.6 138.32,65.47 133.65,62.6 129.4,65.47 124.73,62.6 120.48,65.47 115.81,62.6 111.56,65.47 
						106.89,62.6 102.64,65.47 97.96,62.6 93.72,65.47 89.22,62.71 89.21,63.24 93.73,66.01 97.98,63.14 102.65,66.01 106.9,63.14 
						111.58,66.01 115.82,63.14 120.5,66.01 124.74,63.14 129.42,66.01 133.67,63.14 138.34,66.01 142.59,63.14 147.26,66.01 
						151.51,63.14 156.18,66.01 160.43,63.14 165.1,66.01 169.35,63.14 174.02,66.01 					"/>
				</g>
			</g>
			<g>
				<g>
					<polygon points="97.98,64.79 95.67,66.15 97.98,67.51 100.28,66.15 					"/>
				</g>
			</g>
			<g>
				<g>
					<polygon points="89.21,67.51 91.52,66.15 89.21,64.79 					"/>
				</g>
			</g>
			<g>
				<g>
					<polygon points="91.92,63.25 93.7,64.46 95.47,63.25 					"/>
				</g>
			</g>
			<g>
				<g>
					<polygon points="91.92,68.98 93.7,67.77 95.47,68.98 					"/>
				</g>
			</g>
			<g>
				<g>
					<polygon points="100.77,63.25 102.55,64.46 104.32,63.25 					"/>
				</g>
			</g>
			<g>
				<g>
					<polygon points="100.77,68.98 102.55,67.77 104.32,68.98 					"/>
				</g>
			</g>
			<g>
				<g>
					<polygon points="109.63,63.25 111.4,64.46 113.18,63.25 					"/>
				</g>
			</g>
			<g>
				<g>
					<polygon points="109.63,68.98 111.4,67.77 113.18,68.98 					"/>
				</g>
			</g>
			<g>
				<g>
					<polygon points="118.48,63.25 120.25,64.46 122.03,63.25 					"/>
				</g>
			</g>
			<g>
				<g>
					<polygon points="118.48,68.98 120.25,67.77 122.03,68.98 					"/>
				</g>
			</g>
			<g>
				<g>
					<polygon points="127.55,63.25 129.32,64.46 131.1,63.25 					"/>
				</g>
			</g>
			<g>
				<g>
					<polygon points="127.55,68.98 129.32,67.77 131.1,68.98 					"/>
				</g>
			</g>
			<g>
				<g>
					<polygon points="136.51,63.25 138.29,64.46 140.06,63.25 					"/>
				</g>
			</g>
			<g>
				<g>
					<polygon points="136.51,68.98 138.29,67.77 140.06,68.98 					"/>
				</g>
			</g>
			<g>
				<g>
					<polygon points="145.39,63.25 147.16,64.46 148.94,63.25 					"/>
				</g>
			</g>
			<g>
				<g>
					<polygon points="145.39,68.98 147.16,67.77 148.94,68.98 					"/>
				</g>
			</g>
			<g>
				<g>
					<polygon points="154.24,63.25 156.01,64.46 157.79,63.25 					"/>
				</g>
			</g>
			<g>
				<g>
					<polygon points="154.24,68.98 156.01,67.77 157.79,68.98 					"/>
				</g>
			</g>
			<g>
				<g>
					<polygon points="163.26,63.25 165.04,64.46 166.81,63.25 					"/>
				</g>
			</g>
			<g>
				<g>
					<polygon points="163.26,68.98 165.04,67.77 166.81,68.98 					"/>
				</g>
			</g>
			<g>
				<g>
					<polygon points="172.15,63.25 173.92,64.46 175.7,63.25 					"/>
				</g>
			</g>
			<g>
				<g>
					<polygon points="172.15,68.98 173.92,67.77 175.7,68.98 					"/>
				</g>
			</g>
			<g>
				<g>
					<polygon points="106.85,64.79 104.54,66.15 106.85,67.51 109.15,66.15 					"/>
				</g>
			</g>
			<g>
				<g>
					<polygon points="115.72,64.79 113.41,66.15 115.72,67.51 118.02,66.15 					"/>
				</g>
			</g>
			<g>
				<g>
					<polygon points="124.59,64.79 122.28,66.15 124.59,67.51 126.89,66.15 					"/>
				</g>
			</g>
			<g>
				<g>
					<polygon points="133.46,64.79 131.15,66.15 133.46,67.51 135.76,66.15 					"/>
				</g>
			</g>
			<g>
				<g>
					<polygon points="142.33,64.79 140.02,66.15 142.33,67.51 144.63,66.15 					"/>
				</g>
			</g>
			<g>
				<g>
					<polygon points="151.4,64.79 149.1,66.15 151.4,67.51 153.71,66.15 					"/>
				</g>
			</g>
			<g>
				<g>
					<polygon points="160.39,64.79 158.08,66.15 160.39,67.51 162.69,66.15 					"/>
				</g>
			</g>
			<g>
				<g>
					<polygon points="169.38,64.79 167.08,66.15 169.38,67.51 171.69,66.15 					"/>
				</g>
			</g>
			<g>
				<g>
					<polygon points="178.42,64.76 176.12,66.12 178.42,67.47 					"/>
				</g>
			</g>
		</g>
		<g>
			<g>
				<g>
					<polygon points="89.21,68.86 89.21,69.44 84.8,66.69 80.12,69.56 75.87,66.69 71.2,69.56 66.95,66.69 62.28,69.56 58.03,66.69 
						53.36,69.56 49.11,66.69 44.44,69.56 40.19,66.69 35.52,69.56 31.27,66.69 26.6,69.56 22.35,66.69 17.67,69.56 13.43,66.69 
						8.75,69.56 4.51,66.69 0.01,69.45 0,68.92 4.52,66.15 8.77,69.02 13.44,66.15 17.69,69.02 22.36,66.15 26.61,69.02 
						31.29,66.15 35.53,69.02 40.21,66.15 44.45,69.02 49.13,66.15 53.38,69.02 58.05,66.15 62.3,69.02 66.97,66.15 71.22,69.02 
						75.89,66.15 80.14,69.02 84.81,66.15 					"/>
				</g>
			</g>
			<g>
				<g>
					<polygon points="89.21,63.3 89.21,62.72 84.8,65.47 80.12,62.6 75.87,65.47 71.2,62.6 66.95,65.47 62.28,62.6 58.03,65.47 
						53.36,62.6 49.11,65.47 44.44,62.6 40.19,65.47 35.52,62.6 31.27,65.47 26.6,62.6 22.35,65.47 17.67,62.6 13.43,65.47 
						8.75,62.6 4.51,65.47 0.01,62.71 0,63.24 4.52,66.01 8.77,63.14 13.44,66.01 17.69,63.14 22.36,66.01 26.61,63.14 31.29,66.01 
						35.53,63.14 40.21,66.01 44.45,63.14 49.13,66.01 53.38,63.14 58.05,66.01 62.3,63.14 66.97,66.01 71.22,63.14 75.89,66.01 
						80.14,63.14 84.81,66.01 					"/>
				</g>
			</g>
			<g>
				<g>
					<polygon points="8.77,64.79 6.46,66.15 8.77,67.51 11.07,66.15 					"/>
				</g>
			</g>
			<g>
				<g>
					<polygon points="0,67.51 2.31,66.15 0,64.79 					"/>
				</g>
			</g>
			<g>
				<g>
					<polygon points="2.71,63.25 4.48,64.46 6.26,63.25 					"/>
				</g>
			</g>
			<g>
				<g>
					<polygon points="2.71,68.98 4.48,67.77 6.26,68.98 					"/>
				</g>
			</g>
			<g>
				<g>
					<polygon points="11.56,63.25 13.34,64.46 15.11,63.25 					"/>
				</g>
			</g>
			<g>
				<g>
					<polygon points="11.56,68.98 13.34,67.77 15.11,68.98 					"/>
				</g>
			</g>
			<g>
				<g>
					<polygon points="20.42,63.25 22.19,64.46 23.97,63.25 					"/>
				</g>
			</g>
			<g>
				<g>
					<polygon points="20.42,68.98 22.19,67.77 23.97,68.98 					"/>
				</g>
			</g>
			<g>
				<g>
					<polygon points="29.27,63.25 31.04,64.46 32.82,63.25 					"/>
				</g>
			</g>
			<g>
				<g>
					<polygon points="29.27,68.98 31.04,67.77 32.82,68.98 					"/>
				</g>
			</g>
			<g>
				<g>
					<polygon points="38.34,63.25 40.11,64.46 41.89,63.25 					"/>
				</g>
			</g>
			<g>
				<g>
					<polygon points="38.34,68.98 40.11,67.77 41.89,68.98 					"/>
				</g>
			</g>
			<g>
				<g>
					<polygon points="47.3,63.25 49.08,64.46 50.85,63.25 					"/>
				</g>
			</g>
			<g>
				<g>
					<polygon points="47.3,68.98 49.08,67.77 50.85,68.98 					"/>
				</g>
			</g>
			<g>
				<g>
					<polygon points="56.18,63.25 57.95,64.46 59.73,63.25 					"/>
				</g>
			</g>
			<g>
				<g>
					<polygon points="56.18,68.98 57.95,67.77 59.73,68.98 					"/>
				</g>
			</g>
			<g>
				<g>
					<polygon points="65.03,63.25 66.8,64.46 68.58,63.25 					"/>
				</g>
			</g>
			<g>
				<g>
					<polygon points="65.03,68.98 66.8,67.77 68.58,68.98 					"/>
				</g>
			</g>
			<g>
				<g>
					<polygon points="74.05,63.25 75.83,64.46 77.6,63.25 					"/>
				</g>
			</g>
			<g>
				<g>
					<polygon points="74.05,68.98 75.83,67.77 77.6,68.98 					"/>
				</g>
			</g>
			<g>
				<g>
					<polygon points="82.93,63.25 84.71,64.46 86.48,63.25 					"/>
				</g>
			</g>
			<g>
				<g>
					<polygon points="82.93,68.98 84.71,67.77 86.48,68.98 					"/>
				</g>
			</g>
			<g>
				<g>
					<polygon points="17.64,64.79 15.33,66.15 17.64,67.51 19.94,66.15 					"/>
				</g>
			</g>
			<g>
				<g>
					<polygon points="26.51,64.79 24.2,66.15 26.51,67.51 28.81,66.15 					"/>
				</g>
			</g>
			<g>
				<g>
					<polygon points="35.38,64.79 33.07,66.15 35.38,67.51 37.68,66.15 					"/>
				</g>
			</g>
			<g>
				<g>
					<polygon points="44.25,64.79 41.94,66.15 44.25,67.51 46.55,66.15 					"/>
				</g>
			</g>
			<g>
				<g>
					<polygon points="53.12,64.79 50.81,66.15 53.12,67.51 55.42,66.15 					"/>
				</g>
			</g>
			<g>
				<g>
					<polygon points="62.19,64.79 59.89,66.15 62.19,67.51 64.5,66.15 					"/>
				</g>
			</g>
			<g>
				<g>
					<polygon points="71.17,64.79 68.87,66.15 71.17,67.51 73.48,66.15 					"/>
				</g>
			</g>
			<g>
				<g>
					<polygon points="80.17,64.79 77.87,66.15 80.17,67.51 82.48,66.15 					"/>
				</g>
			</g>
			<g>
				<g>
					<polygon points="89.21,64.76 86.91,66.12 89.21,67.47 					"/>
				</g>
			</g>
		</g>
	</g>
</g>
</svg>
