<?xml version="1.0" encoding="utf-8"?>
<!-- Generator: Adobe Illustrator 24.3.0, SVG Export Plug-In . SVG Version: 6.00 Build 0)  -->
<svg version="1.1" id="Layer_1" xmlns="http://www.w3.org/2000/svg" xmlns:xlink="http://www.w3.org/1999/xlink" x="0px" y="0px"
	 viewBox="0 0 329.54 193.03" style="enable-background:new 0 0 329.54 193.03;" xml:space="preserve">
<g>
	<g>
		<g>
			<g>
				<path d="M11.3,110.11c-0.17,0-0.34-0.05-0.49-0.16c-0.32-0.23-0.42-0.66-0.25-1.02l5.59-11.65c0.06-1.33,0.55-10.18,2.38-19.72
					c5.26-27.36,42.03-43.13,42.4-43.28l0.64,1.51c-0.36,0.15-36.33,15.59-41.43,42.08c-1.96,10.18-2.36,19.55-2.36,19.65
					c0,0.11-0.03,0.22-0.08,0.32l-3.46,7.22c1.33-1.48,2.91-3.35,4.51-5.48c3.92-5.25,4.23-20.53,4.24-20.69
					c0-0.18,0.06-0.35,0.17-0.49c0.01-0.01,1.32-1.8,1.57-5.97c0.3-4.82,5.9-9.85,6.14-10.06c0.17-0.15,0.39-0.22,0.6-0.21
					c0.22,0.02,0.42,0.12,0.57,0.29l8.87,10.41l-1.25,1.06l-8.31-9.75c-1.41,1.39-4.78,5.06-4.99,8.36
					c-0.24,3.88-1.33,5.96-1.75,6.63c-0.05,2.1-0.56,16.05-4.56,21.4c-4.12,5.51-8.04,9.18-8.2,9.33
					C11.7,110.04,11.5,110.11,11.3,110.11z"/>
			</g>
		</g>
		<g>
			<g>
				<path d="M45.46,52.83c0,0-0.01,0-0.01,0c-0.23,0-0.44-0.1-0.6-0.27l-4.42-4.94l1.22-1.09l3.83,4.28l8.75-9.14
					c0.16-0.16,0.41-0.26,0.59-0.25c0.22,0,0.43,0.09,0.59,0.25l9.57,9.78l-1.17,1.15l-8.98-9.17l-8.77,9.17
					C45.89,52.74,45.68,52.83,45.46,52.83z"/>
			</g>
		</g>
		<g>
			<g>
				<path d="M40.64,58.56c-0.22,0-0.43-0.08-0.59-0.25l-5.49-5.73l1.19-1.14l4.93,5.14l2.48-2.31l1.12,1.2l-3.07,2.86
					C41.04,58.49,40.84,58.56,40.64,58.56z"/>
			</g>
		</g>
		<g>
			<g>
				<path d="M50.77,77.42c-0.23,0-0.44-0.09-0.6-0.26L30.61,56.49l1.19-1.13L50.76,75.4l8.97-9.69l1.21,1.12l-9.57,10.34
					C51.21,77.32,50.96,77.36,50.77,77.42z"/>
			</g>
		</g>
		<g>
			<g>
				<path d="M38.82,81.33c-0.22,0-0.43-0.08-0.59-0.25L26.48,68.76l1.19-1.13l11.18,11.73l7.72-7.19l1.12,1.2l-8.32,7.75
					C39.22,81.26,39.02,81.33,38.82,81.33z"/>
			</g>
		</g>
		<g>
			<g>
				<path d="M62.99,58.56c-0.2,0-0.41-0.08-0.56-0.23l-7.6-7.21l-7.47,7.21l-1.14-1.18l8.03-7.75c0.32-0.3,0.82-0.31,1.13,0
					l7.66,7.27l9.87-7.62c0.33-0.25,0.8-0.22,1.09,0.08l7.73,8.05l-1.18,1.14l-7.23-7.52l-9.84,7.6
					C63.34,58.5,63.17,58.56,62.99,58.56z"/>
			</g>
		</g>
		<g>
			<g>
				<path d="M88.09,58.32l-1.16-1.16l13.48-13.55c0.32-0.32,0.84-0.32,1.16-0.01l9.89,9.69l7.74-7.87c0.16-0.16,0.37-0.23,0.59-0.25
					c0.22,0,0.43,0.09,0.59,0.26l9.88,10.41l9.25-9.78l1.19,1.13l-9.85,10.41c-0.16,0.16-0.37,0.26-0.6,0.26l0,0
					c-0.22,0-0.44-0.09-0.59-0.26l-9.89-10.42l-7.72,7.85c-0.32,0.32-0.84,0.33-1.16,0.01l-9.9-9.7L88.09,58.32z"/>
			</g>
		</g>
		<g>
			<g>
				<path d="M172.93,62.35c-12.42,0-23.28-5.55-27.2-9.71c-6.25-6.62-20.49-15.46-23.7-17.42l-3.54,4.98l-1.34-0.95l3.98-5.6
					c0.25-0.35,0.72-0.45,1.09-0.23c0.71,0.42,17.5,10.48,24.7,18.09c3.77,3.99,15.15,9.67,27.61,9.16
					c10.13-0.41,18.87-4.84,25.29-12.81c0.55-1.13,6.46-13.52,7.5-20.29c1.16-7.52,4.79-10.21,4.94-10.32l0.96,1.33l-0.48-0.67
					l0.48,0.66c-0.03,0.02-3.24,2.46-4.28,9.24c-1.12,7.3-7.42,20.29-7.69,20.84c-0.03,0.06-0.06,0.11-0.1,0.15
					c-6.73,8.4-15.92,13.06-26.57,13.49C174.04,62.34,173.48,62.35,172.93,62.35z"/>
			</g>
		</g>
		<g>
			<g>
				<path d="M215.27,24.96c-0.18,0-0.36-0.06-0.51-0.17l-4.66-3.65l1.01-1.29l4.01,3.14l11.09-14.23l1.3,1.01l-11.6,14.88
					c-0.13,0.17-0.33,0.28-0.55,0.31C215.34,24.96,215.3,24.96,215.27,24.96z"/>
			</g>
		</g>
		<g>
			<g>
				<path d="M216.46,16.72c-0.33,0-3.24-0.21-4.51-7.31c-0.26-1.46,0.01-2.42,0.81-2.83c2.31-1.2,8.37,4.5,10.86,7.02l-1.16,1.16
					c-3.85-3.87-8-7.01-8.94-6.72c0.01,0.01-0.1,0.26,0.04,1.09c1.01,5.66,2.92,5.96,2.94,5.96L216.46,16.72z"/>
			</g>
		</g>
		<g>
			<g>
				<path d="M255.71,27.2c-0.17,0-0.34-0.05-0.48-0.16l-4.61-3.35l0.97-1.33l3.72,2.7c0.66-2.27,0.38-4.31-0.82-6.09
					c-1.71-2.52-4.69-3.65-5.54-3.65c-2.07,0-24.1-5.48-26.6-6.1l0.4-1.59c9.76,2.43,24.79,6.05,26.21,6.05
					c1.33,0,4.84,1.32,6.9,4.37c1.17,1.73,2.24,4.64,0.64,8.63c-0.09,0.24-0.29,0.41-0.53,0.48
					C255.87,27.19,255.79,27.2,255.71,27.2z"/>
			</g>
		</g>
		<g>
			<g>
				<path d="M226.1,35.79c-0.23,0-0.44-0.09-0.6-0.26l-3.56-3.84c-0.28-0.3-0.29-0.77-0.03-1.09l2.31-2.72l1.25,1.06l-1.84,2.17
					l2.73,2.94c6.27-1.95,10.62-11.06,10.66-11.16c0.14-0.29,0.42-0.54,0.76-0.47c0.33,0.01,0.62,0.21,0.74,0.51
					c2.82,6.9,9.79,7.07,13.22,6.69l-7.1-4.79c-0.2-0.14-0.33-0.35-0.36-0.59c-0.03-0.24,0.05-0.48,0.22-0.65l5.38-5.66l1.19,1.13
					L246.36,24l8,5.4c0.27,0.18,0.41,0.5,0.35,0.82c-0.05,0.32-0.29,0.57-0.61,0.65c-0.12,0.03-11.54,2.82-16.37-5.81
					c-1.64,2.93-5.76,9.28-11.44,10.7C226.23,35.78,226.16,35.79,226.1,35.79z"/>
			</g>
		</g>
		<g>
			<g>
				<path d="M232.36,31.01l-8.76-8.25l-4.17,6.5l-1.38-0.89l4.7-7.33c0.13-0.21,0.35-0.34,0.59-0.37c0.24-0.03,0.48,0.05,0.66,0.22
					l9.48,8.93L232.36,31.01z"/>
			</g>
		</g>
		<g>
			<g>
				<path d="M232.03,23.14c-0.2,0-0.4-0.08-0.55-0.21l-6.2-5.62l1.1-1.22l5.57,5.05l7.59-8.99l1.25,1.06l-8.14,9.64
					c-0.14,0.17-0.35,0.27-0.57,0.29C232.07,23.14,232.05,23.14,232.03,23.14z"/>
			</g>
		</g>
		<g>
			<g>
				<path d="M241.74,21.47c-0.18,0-0.37-0.06-0.52-0.18l-2.24-1.82l1.03-1.28l1.64,1.33l5.23-5.78l1.22,1.1l-5.75,6.36
					C242.19,21.38,241.97,21.47,241.74,21.47z"/>
			</g>
		</g>
		<g>
			<g>
				<path d="M230.5,16.23c-0.19,0-0.38-0.06-0.53-0.19l-2.17-1.82l1.05-1.26l1.6,1.35l3.69-3.51l1.13,1.19L231.06,16
					C230.91,16.15,230.7,16.23,230.5,16.23z"/>
			</g>
		</g>
		<g>
			<g>
				<rect x="215.13" y="22.99" transform="matrix(0.614 -0.7893 0.7893 0.614 57.5807 183.0621)" width="1.64" height="19.34"/>
			</g>
		</g>
		<g>
			<g>
				<path d="M208.7,60.87c-0.28,0-0.55-0.15-0.7-0.4l-3.35-5.59l1.41-0.84l2.26,3.76c2.3-8.75,11.64-21.11,12.07-21.67l1.3,0.99
					c-0.11,0.15-11.16,14.75-12.17,23.03c-0.04,0.35-0.3,0.63-0.64,0.7C208.82,60.86,208.76,60.87,208.7,60.87z"/>
			</g>
		</g>
		<g>
			<g>
				<rect x="201.07" y="47.83" transform="matrix(0.7823 -0.6229 0.6229 0.7823 12.7949 136.6499)" width="1.64" height="4.38"/>
			</g>
		</g>
		<g>
			<g>
				<rect x="206.16" y="41.97" transform="matrix(0.6759 -0.737 0.737 0.6759 31.7208 168.0903)" width="1.64" height="12.02"/>
			</g>
		</g>
		<g>
			<g>
				<path d="M210.31,44.03c-0.25,0-0.48-0.11-0.64-0.3l-4.96-6.07l1.27-1.04l4.25,5.21l3.37-5.14l1.37,0.9L211,43.66
					c-0.14,0.22-0.38,0.36-0.64,0.37C210.34,44.03,210.33,44.03,210.31,44.03z"/>
			</g>
		</g>
		<g>
			<g>
				<rect x="199.61" y="51.22" transform="matrix(0.7277 -0.6859 0.6859 0.7277 15.2238 153.1006)" width="1.64" height="12.32"/>
			</g>
		</g>
		<g>
			<g>
				<path d="M160.94,98.66l-0.02-1.64c29.61-0.42,46.38-25.65,50.06-31.86c-3.34,0.75-7.16,3.74-7.21,3.78
					c-0.32,0.25-0.78,0.23-1.07-0.05l-8.66-8.24l1.13-1.19l8.16,7.76c1.52-1.11,5.74-3.96,9.17-3.87c0.28,0,0.55,0.16,0.69,0.4
					c0.15,0.24,0.16,0.54,0.03,0.8C213.03,64.88,195.54,98.16,160.94,98.66z"/>
			</g>
		</g>
		<g>
			<g>
				<path d="M202.89,77.39l-13.7-13.16l-9,10.05l-1.22-1.09l9.57-10.69c0.15-0.17,0.36-0.26,0.58-0.27c0.21-0.01,0.44,0.07,0.6,0.23
					l14.32,13.75L202.89,77.39z"/>
			</g>
		</g>
		<g>
			<g>
				<path d="M194.02,85.88l-8.94-8.49c-0.16-0.15-0.25-0.36-0.25-0.57c0-0.22,0.08-0.43,0.23-0.59l4.47-4.67
					c0.31-0.33,0.83-0.34,1.15-0.03l5.73,5.38l-1.12,1.2l-5.14-4.82l-3.34,3.49l8.34,7.92L194.02,85.88z"/>
			</g>
		</g>
		<g>
			<g>
				<path d="M176.92,69.95c-0.22,0-0.43-0.09-0.58-0.24l-7.77-7.77l1.16-1.16l7.15,7.16l8.15-9.17l1.23,1.09l-8.73,9.82
					c-0.15,0.17-0.36,0.27-0.59,0.28C176.94,69.95,176.93,69.95,176.92,69.95z"/>
			</g>
		</g>
		<g>
			<g>
				<path d="M187.54,87.19l-18.07-16.92l-7.61,7.48c-0.32,0.31-0.83,0.31-1.15,0l-8.45-8.31c-0.16-0.16-0.25-0.37-0.25-0.6
					c0-0.22,0.1-0.44,0.26-0.59l9.32-8.7l1.12,1.2l-8.69,8.12l7.27,7.15l7.6-7.47c0.32-0.31,0.81-0.32,1.14-0.01l18.65,17.46
					L187.54,87.19z"/>
			</g>
		</g>
		<g>
			<g>
				<path d="M177.21,95.38l-8.64-8.77c-0.16-0.16-0.24-0.37-0.24-0.59c0-0.22,0.1-0.43,0.26-0.58l4.34-4.09l-3.53-3.38l-4.88,5.2
					l-1.2-1.12l5.45-5.81c0.15-0.16,0.36-0.25,0.58-0.26c0.2,0,0.43,0.08,0.59,0.23l4.75,4.55c0.16,0.16,0.25,0.37,0.25,0.6
					c0,0.23-0.09,0.44-0.26,0.59l-4.36,4.1l8.05,8.17L177.21,95.38z"/>
			</g>
		</g>
		<g>
			<g>
				<rect x="180.71" y="82.2" transform="matrix(0.6573 -0.7536 0.7536 0.6573 -3.8624 166.8469)" width="1.64" height="10.94"/>
			</g>
		</g>
		<g>
			<g>
				<path d="M151.21,65.04c-0.21,0-0.42-0.08-0.58-0.24l-10.16-10.14l-3.4,3.64l-1.2-1.12l3.98-4.26c0.15-0.16,0.36-0.26,0.59-0.26
					c0.25,0.01,0.44,0.08,0.59,0.24l10.18,10.16l5.24-5.13l1.15,1.17l-5.82,5.69C151.63,64.96,151.42,65.04,151.21,65.04z"/>
			</g>
		</g>
		<g>
			<g>
				<path d="M130.82,69.95c-0.02,0-0.03,0-0.05,0c-0.24-0.01-0.46-0.13-0.6-0.32l-2.38-3.07l1.3-1l1.8,2.32l4.91-5.05H42.87v-1.64
					h94.86c0.33,0,0.63,0.2,0.76,0.5c0.13,0.3,0.06,0.65-0.17,0.89l-6.92,7.12C131.25,69.86,131.04,69.95,130.82,69.95z"/>
			</g>
		</g>
		<g>
			<g>
				<path d="M134.45,81.68c-0.24,0-0.46-0.1-0.62-0.28L120.7,66.45l1.23-1.08l12.5,14.23l10.79-12.82l-5.72-6.08l1.2-1.13l6.22,6.61
					c0.29,0.3,0.3,0.77,0.03,1.09l-11.88,14.11C134.92,81.57,134.7,81.68,134.45,81.68C134.46,81.68,134.45,81.68,134.45,81.68z"/>
			</g>
		</g>
		<g>
			<g>
				<rect x="132.4" y="68.76" transform="matrix(0.6873 -0.7264 0.7264 0.6873 -7.7135 121.2429)" width="9.14" height="1.64"/>
			</g>
		</g>
		<g>
			<g>
				<path d="M129.31,83.8l-12.25-13.02l-12.12,13.01l-1.2-1.12l12.71-13.65c0.16-0.17,0.37-0.26,0.6-0.26h0
					c0.23,0,0.44,0.09,0.6,0.26l12.85,13.65L129.31,83.8z"/>
			</g>
		</g>
		<g>
			<g>
				<rect x="97.34" y="64.13" transform="matrix(0.6916 -0.7223 0.7223 0.6916 -21.0436 92.8087)" width="1.64" height="13.83"/>
			</g>
		</g>
		<g>
			<g>
				<rect x="92.52" y="73.93" transform="matrix(0.7071 -0.7071 0.7071 0.7071 -22.2433 95.7992)" width="24" height="1.64"/>
			</g>
		</g>
		<g>
			<g>
				<rect x="75.79" y="62.62" transform="matrix(0.6998 -0.7143 0.7143 0.6998 -30.398 77.1639)" width="1.64" height="24.25"/>
			</g>
		</g>
		<g>
			<g>
				<path d="M46.3,89.5C46.29,89.5,46.29,89.5,46.3,89.5c-0.23,0-0.44-0.09-0.59-0.25l-4.89-5.1L42,83.02l4.3,4.49L63.8,69.6
					c0.15-0.16,0.37-0.25,0.59-0.25c0.27,0,0.44,0.09,0.59,0.25l12.43,13.06l-1.19,1.13L64.38,71.35l-17.5,17.9
					C46.73,89.42,46.52,89.5,46.3,89.5z"/>
			</g>
		</g>
		<g>
			<g>
				<path d="M21.71,137.21c-0.23,0-0.44-0.09-0.6-0.26l-6.78-7.19l1.2-1.13l6.14,6.52c2.51-3.03,12.46-14.83,19.77-20.9
					c6.68-5.54,11.68-19.6,13.64-25.82l-8.73,8.59c-0.16,0.16-0.36,0.25-0.61,0.23c-0.23-0.01-0.44-0.11-0.59-0.29L31.15,80.65
					c0.67,4.54,0.19,9.76-0.25,12.96l3.03-3.63l1.26,1.05l-4.96,5.94c-0.24,0.29-0.65,0.37-0.98,0.21c-0.34-0.16-0.52-0.53-0.45-0.9
					c0.02-0.12,2.3-11.67,0.03-18.44c-0.13-0.37,0.03-0.78,0.37-0.98c0.34-0.19,0.77-0.12,1.03,0.18l15.6,18.19L56.2,85.02
					c0.26-0.26,0.67-0.31,0.99-0.12c0.32,0.19,0.47,0.56,0.38,0.92c-0.24,0.9-6.03,22.18-15.08,29.69
					c-8.27,6.87-20.03,21.26-20.14,21.4c-0.15,0.18-0.37,0.29-0.61,0.3C21.73,137.21,21.72,137.21,21.71,137.21z"/>
			</g>
		</g>
		<g>
			<g>
				<path d="M16.26,193.03H0.82c-0.45,0-0.82-0.37-0.82-0.82V171.6c0-0.08,0.01-0.17,0.04-0.25c3.15-10.02,6.29-33.02,6.33-33.25
					c0.02-0.19,0.11-0.36,0.25-0.49c14.19-13.37,20.12-33.04,20.17-33.23c0.04-0.12,0.1-0.23,0.19-0.33l9.53-10.2
					c0.16-0.17,0.37-0.3,0.6-0.26c0.23,0,0.45,0.1,0.6,0.26l11.27,12.2l-1.21,1.11L37.1,95.62l-8.8,9.41
					c-0.57,1.81-5.26,16.13-15.48,28.36l6.89,7.18c0.3,0.31,0.31,0.8,0.02,1.12c-0.11,0.12-11.24,12.67-11.03,32.62
					c0.11,10.62,7.65,15.04,7.97,15.22c0.26,0.15,0.42,0.42,0.42,0.71v1.96C17.08,192.66,16.71,193.03,16.26,193.03z M1.64,191.39
					h13.8v-0.68c-1.75-1.15-8.28-6.12-8.38-16.37c-0.19-18.4,8.71-30.41,10.96-33.16l-6.27-6.53c-1.19,1.36-2.46,2.69-3.8,3.96
					c-0.39,2.8-3.28,23.41-6.31,33.12V191.39z"/>
			</g>
		</g>
		<g>
			<g>
				<rect x="8.53" y="143.85" transform="matrix(0.7287 -0.6848 0.6848 0.7287 -99.1591 46.6921)" width="1.64" height="9.31"/>
			</g>
		</g>
		<g>
			<g>
				<rect x="9.04" y="137.06" transform="matrix(0.6889 -0.7249 0.7249 0.6889 -98.9624 50.9366)" width="1.64" height="7.4"/>
			</g>
		</g>
		<g>
			<g>
				<path d="M1.29,192.88l-0.93-1.35l9.43-6.5l-9.51-8.71l1.11-1.21l10.27,9.4c0.18,0.17,0.28,0.41,0.26,0.66
					c-0.02,0.25-0.15,0.48-0.35,0.62L1.29,192.88z"/>
			</g>
		</g>
		<g>
			<g>
				<path d="M7.55,175.55l-7.07-3.21c-0.25-0.11-0.42-0.34-0.47-0.61c-0.04-0.27,0.05-0.54,0.25-0.73l7.92-7.47l1.13,1.19
					l-7.03,6.63l5.95,2.7L7.55,175.55z"/>
			</g>
		</g>
		<g>
			<g>
				<rect x="5.89" y="155.86" transform="matrix(0.6815 -0.7318 0.7318 0.6815 -114.463 55.6566)" width="1.64" height="6.94"/>
			</g>
		</g>
		<g>
			<g>
				<rect x="5.76" y="151.21" transform="matrix(0.661 -0.7504 0.7504 0.661 -112.751 56.8805)" width="1.64" height="4.02"/>
			</g>
		</g>
		<g>
			<g>
				<path d="M40.81,115.92l-8.66-8.99c-0.3-0.32-0.31-0.81-0.01-1.13l4.37-4.65c0.15-0.16,0.37-0.26,0.59-0.26
					c0.23,0.02,0.44,0.09,0.59,0.25l4.64,4.72c0.31,0.32,0.31,0.83,0,1.15l-3.95,4.04l3.6,3.74L40.81,115.92z M33.88,106.35
					l3.38,3.51l3.35-3.43l-3.48-3.54L33.88,106.35z"/>
			</g>
		</g>
		<g>
			<g>
				<rect x="31.07" y="105.15" transform="matrix(0.7724 -0.6352 0.6352 0.7724 -64.643 46.0228)" width="1.64" height="16.1"/>
			</g>
		</g>
		<g>
			<g>
				<rect x="26.51" y="112.52" transform="matrix(0.7144 -0.6997 0.6997 0.7144 -74.3109 52.6381)" width="1.64" height="9.68"/>
			</g>
		</g>
		<g>
			<g>
				<rect x="25.74" y="120.31" transform="matrix(0.7779 -0.6284 0.6284 0.7779 -72.3149 44.3339)" width="1.64" height="8.31"/>
			</g>
		</g>
		<g>
			<g>
				<rect x="19.62" y="123.67" transform="matrix(0.7601 -0.6498 0.6498 0.7601 -77.6305 43.7581)" width="1.64" height="6.68"/>
			</g>
		</g>
		<g>
			<g>
				<path d="M59.7,83.81l-1.16-1.16l5.27-5.31c0.15-0.15,0.36-0.24,0.58-0.24c0.18-0.05,0.43,0.09,0.59,0.25l5.17,5.31l-1.18,1.14
					l-4.59-4.71L59.7,83.81z"/>
			</g>
		</g>
		<g>
			<g>
				<path d="M116.03,58.81l-1.16-1.16l5.27-5.31c0.15-0.15,0.36-0.24,0.58-0.24c0.26-0.04,0.43,0.09,0.59,0.25l5.17,5.31l-1.18,1.14
					l-4.59-4.71L116.03,58.81z"/>
			</g>
		</g>
		<g>
			<g>
				<path d="M80.1,55.58l-1.16-1.16l5.27-5.31c0.15-0.15,0.36-0.24,0.58-0.24c0,0,0,0,0,0c0.22,0,0.43,0.09,0.58,0.25l5.17,5.31
					l-1.18,1.14l-4.59-4.71L80.1,55.58z"/>
			</g>
		</g>
		<g>
			<g>
				<path d="M82.28,72.6c-0.24-0.08-0.43-0.09-0.59-0.25l-5.17-5.31l1.18-1.14l4.59,4.71l4.69-4.72l1.16,1.16l-5.27,5.31
					C82.71,72.51,82.5,72.6,82.28,72.6z"/>
			</g>
		</g>
		<g>
			<g>
				<path d="M80.1,48.69l-1.16-1.16l5.27-5.31c0.15-0.15,0.36-0.24,0.58-0.24c0,0,0,0,0,0c0.22,0,0.43,0.09,0.58,0.25l5.17,5.31
					l-1.18,1.14l-4.59-4.71L80.1,48.69z"/>
			</g>
		</g>
		<g>
			<g>
				<path d="M112.49,83.81l-1.16-1.16l5.27-5.31c0.16-0.16,0.33-0.27,0.59-0.24c0.22,0,0.43,0.09,0.58,0.25l5.17,5.31l-1.18,1.14
					l-4.59-4.71L112.49,83.81z"/>
			</g>
		</g>
		<g>
			<g>
				<path d="M130.68,49.9c0,0-0.01,0-0.01,0c-0.22,0-0.43-0.1-0.58-0.26l-8.33-8.8l1.19-1.13l7.76,8.19l4.94-4.85l1.15,1.17
					l-5.54,5.44C131.1,49.81,130.89,49.9,130.68,49.9z"/>
			</g>
		</g>
		<g>
			<g>
				<rect x="101.05" y="46.14" transform="matrix(0.7096 -0.7046 0.7046 0.7096 -7.7078 87.1482)" width="1.64" height="13.57"/>
			</g>
		</g>
		<g>
			<g>
				<path d="M66.81,47.74l-1.07-1.25l5.03-4.32c0.15-0.13,0.34-0.2,0.54-0.2h7.4v1.64h-7.1L66.81,47.74z"/>
			</g>
		</g>
		<g>
			<g>
				<path d="M111.38,49.14l-1.16-1.16l4.92-4.93h-8.78v-1.64h10.76c0.33,0,0.63,0.2,0.76,0.51c0.13,0.31,0.06,0.66-0.18,0.89
					L111.38,49.14z"/>
			</g>
		</g>
		<g>
			<g>
				<g>
					<polygon points="98.92,42.23 89.55,42.23 94.23,46.92 					"/>
				</g>
			</g>
		</g>
		<g>
			<g>
				<g>
					<polygon points="87.9,11.11 94.25,11.11 91.07,7.93 					"/>
				</g>
			</g>
		</g>
		<g>
			<g>
				<g>
					<polygon points="67.95,42.23 58.58,42.23 63.26,46.92 					"/>
				</g>
			</g>
		</g>
		<g>
			<g>
				<g>
					<polygon points="70.15,57.92 74.83,57.92 72.49,55.58 					"/>
				</g>
			</g>
		</g>
		<g>
			<g>
				<g>
					<polygon points="52.09,57.92 56.77,57.92 54.43,55.58 					"/>
				</g>
			</g>
		</g>
		<g>
			<g>
				<g>
					<polygon points="94.23,57.92 98.92,57.92 96.57,55.58 					"/>
				</g>
			</g>
		</g>
		<g>
			<g>
				<g>
					<polygon points="106.63,65.87 99.21,65.87 102.92,69.58 					"/>
				</g>
			</g>
		</g>
		<g>
			<g>
				<g>
					<polygon points="54.21,65.87 46.78,65.87 50.49,69.58 					"/>
				</g>
			</g>
		</g>
		<g>
			<g>
				<g>
					<polygon points="74.65,87.04 67.23,87.04 70.94,90.75 					"/>
				</g>
			</g>
		</g>
		<g>
			<g>
				<g>
					<polygon points="88.91,87.04 81.49,87.04 85.2,90.75 					"/>
				</g>
			</g>
		</g>
		<g>
			<g>
				<rect x="159.3" y="67.07" transform="matrix(0.6813 -0.732 0.732 0.6813 2.21 140.8591)" width="7.13" height="1.64"/>
			</g>
		</g>
		<g>
			<g>
				<path d="M171.13,97.15l-22.9-22.61l-12.38,13.13l2.8,2.97l9.53-9.66c0.32-0.32,0.83-0.32,1.15-0.02l12.15,11.66l-1.14,1.18
					l-11.57-11.1l-9.56,9.69c-0.16,0.16-0.38,0.26-0.59,0.24c-0.22,0-0.44-0.1-0.59-0.26l-3.91-4.16c-0.3-0.32-0.3-0.81,0-1.13
					l13.48-14.31c0.15-0.16,0.36-0.25,0.58-0.26c0.24,0.01,0.43,0.08,0.59,0.24l23.5,23.2L171.13,97.15z"/>
			</g>
		</g>
		<g>
			<g>
				<path d="M114.89,152.16c-0.2,0-0.41-0.08-0.57-0.23l-4.26-4.05c-3.29-2.16,1.48-12.61,7.58-25.01c1.55-3.16,3.02-6.14,3.14-6.87
					c0.5-2.98,10.09-21.6,11.19-23.71c0.12-0.24,0.36-0.4,0.62-0.44c0.27-0.04,0.53,0.06,0.71,0.26l5.44,5.97l9.43-9.76
					c0.16-0.17,0.38-0.24,0.61-0.25c0.23,0.01,0.45,0.11,0.6,0.28l7.26,8.38c0.28,0.32,0.27,0.79-0.02,1.1l-9.71,10.34
					c-0.16,0.17-0.37,0.26-0.6,0.26c-0.21-0.01-0.45-0.1-0.61-0.27l-12.83-14.08c-4.23,8.22-10.16,20.21-10.49,22.18
					c-0.15,0.93-1.23,3.15-3.29,7.33c-2.87,5.84-9.26,18.82-8.47,22.29l6.38-8.59c0.14-0.19,0.35-0.31,0.58-0.33
					c0.22-0.03,0.46,0.06,0.63,0.21l4.33,3.98c0.2,0.19,0.3,0.47,0.25,0.74c-0.59,3.52-6.68,9.37-7.37,10.03
					C115.3,152.09,115.09,152.16,114.89,152.16z M111.72,147.21l3.17,3c1.92-1.9,5.5-5.79,6.22-8.15l-3.31-3.04L111.72,147.21z
					 M139.86,99.3l6.48,7.11l8.59-9.15l-6.19-7.14L139.86,99.3z"/>
			</g>
		</g>
		<g>
			<g>
				<rect x="134.03" y="96.63" transform="matrix(0.717 -0.6971 0.6971 0.717 -34.4476 123.4799)" width="1.64" height="15.07"/>
			</g>
		</g>
		<g>
			<g>
				<path d="M122.71,136.38c-0.28,0-0.53-0.14-0.68-0.37l-5.96-8.99l1.37-0.91l5.27,7.95l6.56-10.1l-8.16-7.48l1.11-1.21l8.67,7.95
					c0.29,0.27,0.35,0.72,0.13,1.05L123.4,136C123.25,136.23,122.99,136.37,122.71,136.38
					C122.72,136.38,122.72,136.38,122.71,136.38z"/>
			</g>
		</g>
		<g>
			<g>
				<rect x="120.52" y="120.82" transform="matrix(0.7316 -0.6818 0.6818 0.7316 -51.9981 116.02)" width="1.64" height="6.45"/>
			</g>
		</g>
		<g>
			<g>
				<path d="M132.33,120.4l-5.75-6.22c-0.27-0.29-0.29-0.73-0.05-1.05l4.19-5.59c0.14-0.18,0.35-0.3,0.58-0.32
					c0.22-0.02,0.46,0.05,0.63,0.21l6.08,5.45l-1.1,1.22l-5.41-4.85l-3.24,4.32l5.29,5.71L132.33,120.4z"/>
			</g>
		</g>
		<g>
			<g>
				<path d="M117.13,192.12h-12.78c-0.35,0-0.88-0.11-1.38-0.61c-2.23-2.24-2.24-11.52-2.23-12.58c-1.06-5.65,6.16-26.95,6.47-27.85
					c0.09-0.26,0.3-0.46,0.57-0.53c0.27-0.07,0.55,0,0.76,0.19l5.24,4.75c0.17,0.15,0.26,0.36,0.27,0.59c0,0.22-0.08,0.44-0.24,0.6
					c-3.19,3.19-4.51,18.14-4.78,24.07l8.73,10.02c0.21,0.24,0.26,0.59,0.13,0.88C117.74,191.93,117.45,192.12,117.13,192.12z
					 M108.35,152.79c-2.61,7.84-6.76,21.9-6,25.99c-0.01,3.86,0.45,10.24,1.77,11.56c0.08,0.09,0.16,0.13,0.22,0.13h10.98
					l-7.76-8.91c-0.14-0.16-0.21-0.36-0.2-0.57c0.03-0.82,0.83-19.38,4.72-24.83L108.35,152.79z"/>
			</g>
		</g>
		<g>
			<g>
				<rect x="107.1" y="158.03" transform="matrix(0.5793 -0.8151 0.8151 0.5793 -85.8853 155.726)" width="1.64" height="6.07"/>
			</g>
		</g>
		<g>
			<g>
				<rect x="105.68" y="163.88" transform="matrix(0.5359 -0.8443 0.8443 0.5359 -91.7207 167.4991)" width="1.64" height="6.6"/>
			</g>
		</g>
		<g>
			<g>
				<rect x="104.61" y="169.63" transform="matrix(0.5479 -0.8365 0.8365 0.5479 -97.3692 166.574)" width="1.64" height="7.49"/>
			</g>
		</g>
		<g>
			<g>
				<rect x="102.65" y="187.17" transform="matrix(0.7882 -0.6154 0.6154 0.7882 -92.8902 106.0478)" width="9.98" height="1.64"/>
			</g>
		</g>
		<g>
			<g>
				<rect x="104" y="175.39" transform="matrix(0.4746 -0.8802 0.8802 0.4746 -102.6734 186.4274)" width="1.64" height="7.65"/>
			</g>
		</g>
		<g>
			<g>
				<path d="M156.03,129.81c-0.03,0-0.07,0-0.1-0.01c-0.29-0.03-0.53-0.22-0.65-0.48l-7.54-16.7c-0.15-0.32-0.07-0.71,0.2-0.95
					l10.9-9.92c0.21-0.19,0.5-0.26,0.78-0.18c0.27,0.08,0.49,0.29,0.56,0.57l7.13,25.71l-1.58,0.44l-6.77-24.42l-9.47,8.62
					l1.64,3.63l5.11-4.98c0.21-0.2,0.5-0.28,0.78-0.21c0.28,0.07,0.5,0.29,0.58,0.56l3.49,11.81c0.08,0.25,0.02,0.53-0.14,0.74
					l-4.26,5.45C156.52,129.7,156.28,129.81,156.03,129.81z M151.84,117.72l4.38,9.69l3.16-4.05l-2.98-10.09L151.84,117.72z"/>
			</g>
		</g>
		<g>
			<g>
				<path d="M190.12,192.88c-3.37,0-5.68-0.68-5.82-0.72c-0.16-0.05-0.3-0.14-0.4-0.27c-0.43-0.53-10.29-12.89-8.74-19.26
					c-4.23-11.14-9.28-23.41-10.4-24.4c-1.79-1.37-5.62-6.6-4.98-9.68c0.03-0.16,0.12-0.31,0.24-0.43l2.44-2.31
					c0.31-0.3,0.81-0.3,1.13,0l8.72,8.27c-0.95-8.65-7.88-13.47-9.94-14.73l-3.75,4.37l-1.25-1.07l4.19-4.89
					c0.25-0.29,0.67-0.37,1.01-0.19c0.14,0.07,14,7.59,11.08,22.68c1.66,5.01,6.18,17.81,8.21,20.2c0.06,0.06,0.1,0.14,0.13,0.22
					c1.14,2.76,4.83,10.26,8.15,11.87c5.99,2.9,8.93,5.36,8.73,7.32c-0.11,1.09-1.08,1.87-2.88,2.32
					C193.85,192.7,191.84,192.88,190.12,192.88z M185.01,190.65c1.05,0.26,5.46,1.2,10.57-0.07c1.18-0.29,1.62-0.67,1.64-0.9
					c0.08-0.72-1.94-2.83-7.81-5.67c-4.36-2.11-8.39-11.4-8.9-12.6c-2.72-3.41-8.26-20.13-8.5-20.85c-0.04-0.14-0.05-0.28-0.03-0.42
					c0.26-1.29,0.39-2.53,0.42-3.7l-9.39-8.91l-1.67,1.58c-0.19,2.22,2.79,6.58,4.41,7.82c1.86,1.43,8.91,19.78,11.03,25.37
					c0.06,0.17,0.07,0.36,0.02,0.53C175.44,177.26,182.11,186.99,185.01,190.65z"/>
			</g>
		</g>
		<g>
			<g>
				<rect x="163.04" y="143.19" transform="matrix(0.7168 -0.6973 0.6973 0.7168 -53.3176 156.7466)" width="6.53" height="1.64"/>
			</g>
		</g>
		<g>
			<g>
				<rect x="168.93" y="146.03" transform="matrix(0.5117 -0.8592 0.8592 0.5117 -46.5296 219.4058)" width="1.64" height="9.22"/>
			</g>
		</g>
		<g>
			<g>
				<rect x="170.67" y="157.72" transform="matrix(0.9012 -0.4335 0.4335 0.9012 -51.6171 90.711)" width="4.88" height="1.64"/>
			</g>
		</g>
		<g>
			<g>
				<rect x="181.29" y="185.04" transform="matrix(0.6087 -0.7934 0.7934 0.6087 -74.7911 220.0698)" width="8.85" height="1.64"/>
			</g>
		</g>
		<g>
			<g>
				<rect x="175.57" y="170.31" transform="matrix(0.8321 -0.5547 0.5547 0.8321 -64.9964 127.5839)" width="5.24" height="1.64"/>
			</g>
		</g>
		<g>
			<g>
				<rect x="176.33" y="175.96" transform="matrix(0.8873 -0.4612 0.4612 0.8873 -61.2495 102.9339)" width="7.28" height="1.64"/>
			</g>
		</g>
		<g>
			<g>
				<rect x="145.68" y="97.32" transform="matrix(0.7134 -0.7007 0.7007 0.7134 -26.3784 131.7867)" width="4.5" height="1.64"/>
			</g>
		</g>
		<g>
			<g>
				<path d="M123,98.05l-1.31-0.99l6.99-9.3H59.57v-1.64h70.76c0.31,0,0.59,0.18,0.73,0.45c0.14,0.28,0.11,0.61-0.08,0.86L123,98.05
					z"/>
			</g>
		</g>
		<g>
			<g>
				<rect x="112.67" y="84.8" transform="matrix(0.749 -0.6625 0.6625 0.749 -33.3515 98.6112)" width="1.64" height="17.07"/>
			</g>
		</g>
		<g>
			<g>
				<path d="M109.65,108.21c-0.23,0-0.46-0.1-0.62-0.28L90.95,87.48l1.23-1.09l17.44,19.72l4.07-5.09c0.14-0.18,0.35-0.29,0.58-0.31
					c0.24-0.01,0.45,0.06,0.62,0.22l4.88,4.57l5.94-7.27l1.27,1.04l-6.5,7.94c-0.14,0.18-0.35,0.28-0.58,0.3
					c-0.22,0.01-0.45-0.06-0.62-0.22l-4.87-4.56l-4.12,5.16c-0.15,0.19-0.38,0.3-0.62,0.31
					C109.66,108.21,109.66,108.21,109.65,108.21z"/>
			</g>
		</g>
		<g>
			<g>
				<rect x="87.48" y="90.48" transform="matrix(0.749 -0.6626 0.6626 0.749 -44.1914 83.6358)" width="1.64" height="19.34"/>
			</g>
		</g>
		<g>
			<g>
				<rect x="114.63" y="92.56" transform="matrix(0.6332 -0.774 0.774 0.6332 -28.9644 125.6409)" width="6.9" height="1.64"/>
			</g>
		</g>
		<g>
			<g>
				<rect x="90.54" y="98.42" transform="matrix(0.7187 -0.6953 0.6953 0.7187 -40.9701 97.2131)" width="18.25" height="1.64"/>
			</g>
		</g>
		<g>
			<g>
				<path d="M66.64,101.33c-0.07,0-0.14-0.01-0.21-0.03c-0.87-0.22-8.53-2.27-10.53-4.82l1.29-1.01c1.32,1.69,6.72,3.44,9.2,4.12
					l13.71-13.25l1.14,1.18L67.21,101.1C67.06,101.25,66.85,101.33,66.64,101.33z"/>
			</g>
		</g>
		<g>
			<g>
				<path d="M78.22,106.78c-0.23,0-0.45-0.1-0.6-0.26L62.73,90.35l1.21-1.11l14.26,15.48l14.28-16.57l1.24,1.07l-14.88,17.27
					c-0.15,0.18-0.38,0.28-0.61,0.29C78.23,106.78,78.23,106.78,78.22,106.78z"/>
			</g>
		</g>
		<g>
			<g>
				<path d="M106.33,109.31c-0.91,0-1.81-0.03-2.69-0.11l0.15-1.64c6.76,0.61,15.77-1.63,15.86-1.66l0.4,1.59
					C119.72,107.59,112.78,109.31,106.33,109.31z"/>
			</g>
		</g>
		<g>
			<g>
				<rect x="96.85" y="105.51" transform="matrix(0.7297 -0.6838 0.6838 0.7297 -45.6705 97.1282)" width="6.32" height="1.64"/>
			</g>
		</g>
		<g>
			<g>
				<rect x="108.19" y="96.86" transform="matrix(0.7071 -0.7071 0.7071 0.7071 -37.4802 106.5171)" width="3.29" height="3.29"/>
			</g>
		</g>
		<g>
			<g>
				<rect x="91.59" y="95.27" transform="matrix(0.7071 -0.7071 0.7071 0.7071 -41.2257 94.3103)" width="3.29" height="3.29"/>
			</g>
		</g>
		<g>
			<g>
				<rect x="76.37" y="95.91" transform="matrix(0.7071 -0.7071 0.7071 0.7071 -46.1332 83.735)" width="3.29" height="3.29"/>
			</g>
		</g>
		<g>
			<g>
				<rect x="53.94" y="130.38" transform="matrix(0.7071 -0.7071 0.7071 0.7071 -77.0746 77.9767)" width="3.29" height="3.29"/>
			</g>
		</g>
		<g>
			<g>
				<rect x="44.89" y="79.26" transform="matrix(0.7071 -0.7071 0.7071 0.7071 -43.5828 56.6007)" width="3.29" height="3.29"/>
			</g>
		</g>
		<g>
			<g>
				<path d="M91.05,81.14c-0.21,0-0.42-0.08-0.58-0.24l-5.59-5.57c-0.16-0.16-0.24-0.37-0.24-0.59c0-0.22,0.1-0.43,0.26-0.59
					l4.84-4.58c0.16-0.15,0.31-0.25,0.59-0.22c0.22,0.01,0.42,0.1,0.57,0.26l5.26,5.66c0.3,0.32,0.29,0.83-0.02,1.14l-4.52,4.49
					C91.47,81.07,91.26,81.14,91.05,81.14z M86.64,74.77l4.41,4.4l3.38-3.36l-4.16-4.47L86.64,74.77z"/>
			</g>
		</g>
		<g>
			<g>
				<path d="M46.6,127.08c-0.09,0-0.19-0.02-0.28-0.05c-0.34-0.12-0.55-0.44-0.54-0.8l0.31-9.48l1.64,0.05l-0.23,6.96l11.18-14.35
					c0.14-0.18,0.35-0.3,0.58-0.31c0.24-0.02,0.46,0.06,0.63,0.22l4.24,3.99l-1.13,1.2l-3.59-3.37l-12.18,15.63
					C47.09,126.97,46.85,127.08,46.6,127.08z"/>
			</g>
		</g>
		<g>
			<g>
				<path d="M50.02,114.41l-1.29-1.01l9.12-11.59c0.13-0.17,0.33-0.28,0.55-0.31c0.22-0.03,0.44,0.04,0.61,0.17l5.84,4.67
					l-1.03,1.28l-5.2-4.15L50.02,114.41z"/>
			</g>
		</g>
		<g>
			<g>
				<path d="M53.82,139.05l-6.76-6.76c-0.31-0.31-0.32-0.8-0.04-1.12l12.42-14.09c0.16-0.18,0.38-0.28,0.62-0.28h0
					c0.24,0,0.46,0.1,0.62,0.28l2.2,2.51l-1.23,1.08l-1.59-1.81l-11.29,12.81l6.21,6.21L53.82,139.05z"/>
			</g>
		</g>
		<g>
			<g>
				<path d="M80.65,191.89H70.8c-0.31,0-0.6-0.18-0.73-0.46l-5.71-11.48l-22.74-35.39c-2.74-3.81,1.88-8.95,2.08-9.17
					c0.15-0.17,0.36-0.26,0.59-0.27c0.2-0.01,0.44,0.08,0.6,0.24l5.71,5.71c0.16,0.16,0.25,0.38,0.24,0.61
					c-0.01,0.23-0.12,0.44-0.29,0.59l-5.46,4.63l20.2,31.44l2.64-2.23c0.21-0.17,0.49-0.23,0.74-0.16c0.26,0.07,0.47,0.26,0.56,0.52
					c0.7,1.99,4.67,5.87,6.24,7.29c3.77,1.91,5.87,3.84,6.25,5.72c0.25,1.26-0.36,2.02-0.43,2.1
					C81.12,191.78,80.89,191.89,80.65,191.89z M71.31,190.25h8.81c0.02-0.13,0.02-0.29-0.03-0.5c-0.19-0.77-1.15-2.39-5.46-4.56
					c-0.07-0.03-0.13-0.07-0.18-0.12c-0.52-0.47-4.65-4.22-6.28-7l-2.06,1.74L71.31,190.25z M44.36,137.17
					c-1,1.33-2.91,4.35-1.39,6.47l1.21,1.88l4.61-3.92L44.36,137.17z"/>
			</g>
		</g>
		<g>
			<g>
				<rect x="68.77" y="185.41" transform="matrix(0.8508 -0.5255 0.5255 0.8508 -87.1017 65.6951)" width="6.72" height="1.64"/>
			</g>
		</g>
		<g>
			<g>
				<rect x="62.2" y="173.61" transform="matrix(0.7839 -0.6209 0.6209 0.7839 -94.3565 77.7567)" width="4.65" height="1.64"/>
			</g>
		</g>
		<g>
			<g>
				<rect x="59.31" y="168.77" transform="matrix(0.7839 -0.6209 0.6209 0.7839 -91.9788 74.9138)" width="4.65" height="1.64"/>
			</g>
		</g>
		<g>
			<g>
				<path d="M57.11,167.09l-0.95-1.34l3.46-2.45c-1.27-2.1-3.79-7.38-4.9-9.74l-3.69,3.8l-1.18-1.14l4.51-4.65
					c0.19-0.19,0.46-0.28,0.72-0.24c0.27,0.04,0.49,0.22,0.61,0.46c1.81,3.89,4.95,10.36,5.66,11.18c0.15,0.17,0.22,0.41,0.2,0.64
					c-0.03,0.23-0.15,0.44-0.34,0.57L57.11,167.09z"/>
			</g>
		</g>
		<g>
			<g>
				<path d="M47.53,151.98l-1.12-1.2l5.71-5.32c0.2-0.18,0.47-0.26,0.73-0.2c0.26,0.06,0.48,0.24,0.59,0.48l1.47,3.45l-1.51,0.64
					l-1.01-2.37L47.53,151.98z"/>
			</g>
		</g>
		<g>
			<g>
				<polygon points="58.86,129.19 57.5,127.7 60.85,124.47 				"/>
			</g>
		</g>
		<g>
			<g>
				<path d="M90.56,108.49c0,0-6.35-0.07-9.08-1.84l4.65-1.99L90.56,108.49z"/>
			</g>
		</g>
		<g>
			<g>
				<polygon points="216.87,50.95 218.51,53.23 214.45,60.69 212.48,61.21 				"/>
			</g>
		</g>
		<g>
			<g>
				<polygon points="219.6,50.69 217.77,48.15 219.37,45.95 221.04,48.23 				"/>
			</g>
		</g>
		<g>
			<g>
				<path d="M112.89,38.45H68.81c-0.06,0-0.12-0.01-0.17-0.02c-0.21-0.04-5.03-1.12-5.03-5.18V19.2c0-2.74,0.93-5.29,2.61-7.17
					c0.78-0.87,1.61-1.5,2.47-1.87c0.44-0.19,1.24-0.61,2.29-1.16c1.95-1.02,4.9-2.56,7.96-3.89c5.83-2.53,11.92-5.03,11.98-5.05
					C91.04,0.01,91.17-0.01,91.3,0c0.51,0.05,12.74,1.24,25.69,12.16l-1.06,1.26C104.26,3.58,92.94,1.86,91.35,1.66
					c-1.09,0.45-6.52,2.69-11.76,4.96c-3,1.3-5.8,2.77-7.85,3.83c-1.1,0.58-1.94,1.01-2.4,1.21c-0.64,0.27-1.28,0.76-1.9,1.45
					c-1.41,1.58-2.19,3.74-2.19,6.07v14.05c0,2.51,3.12,3.42,3.66,3.56h43.99c2.34,0,3.26-2.98,3.41-3.52V15.64H74.79V14h42.34
					c0.45,0,0.82,0.37,0.82,0.82v18.57c0,0.06-0.01,0.13-0.02,0.19C117.88,33.78,116.75,38.45,112.89,38.45z"/>
			</g>
		</g>
		<g>
			<g>
				<path d="M87.12,34.52c-0.22,0-0.43-0.08-0.59-0.25L66.24,13.14l1.18-1.14l19.74,20.56l1.75-1.56l1.09,1.23l-2.34,2.08
					C87.51,34.46,87.31,34.52,87.12,34.52z"/>
			</g>
		</g>
		<g>
			<g>
				<polygon points="93.21,20.59 91.18,22.57 88.53,20.02 86.6,22.31 91.05,26.85 97.4,20.45 94.61,18.25 99.97,18.25 100.8,20.02 
					90.78,31.21 82.91,22.57 87.23,18.25 91.18,18.25 				"/>
			</g>
		</g>
		<g>
			<g>
				<polygon points="79.29,18.25 83.14,18.25 79.48,21.91 77.55,19.98 				"/>
			</g>
		</g>
		<g>
			<g>
				<polygon points="104.29,18.42 108.06,18.42 117.13,27.72 117.13,32.1 				"/>
			</g>
		</g>
		<g>
			<g>
				<polygon points="111.43,18.42 113.98,18.42 113.98,21.32 				"/>
			</g>
		</g>
		<g>
			<g>
				<path d="M112,33.85l-8.24-9.17l-5.7,6l-1.19-1.13l6.31-6.64c0.16-0.16,0.37-0.26,0.59-0.26c0,0,0.01,0,0.01,0
					c0.23,0,0.45,0.1,0.6,0.27l8.84,9.83L112,33.85z"/>
			</g>
		</g>
		<g>
			<g>
				<polygon points="91.86,33.93 107.5,33.93 103.34,29.12 99.18,33.59 95.43,30.01 				"/>
			</g>
		</g>
		<g>
			<g>
				<polygon points="68.72,33.93 82.43,33.93 78.79,29.12 75.14,33.59 71.86,30.01 				"/>
			</g>
		</g>
		<g>
			<g>
				<path d="M75.14,29.34l-2.85-3.45l-3.78,3.14c-0.33,0.27-0.81,0.25-1.11-0.06l-3.56-3.67l1.18-1.14l3.03,3.13l3.82-3.18
					c0.17-0.14,0.39-0.21,0.6-0.19c0.22,0.02,0.42,0.13,0.56,0.29l3.37,4.08L75.14,29.34z"/>
			</g>
		</g>
		<g>
			<g>
				<path d="M99.42,11.69c-0.01,0-0.03,0-0.04,0c-0.23-0.01-0.45-0.12-0.59-0.3l-7.61-9.34l-9.4,9.4c-0.32,0.32-0.84,0.32-1.16,0
					l-4.08-4.03l1.15-1.17l3.49,3.45l9.47-9.47c0.16-0.17,0.39-0.26,0.62-0.24c0.23,0.01,0.45,0.12,0.59,0.3l7.61,9.34l4.98-4.96
					l1.16,1.16l-5.62,5.6C99.84,11.6,99.63,11.69,99.42,11.69z"/>
			</g>
		</g>
		<g>
			<g>
				<path d="M253.21,119.96c-0.12,0-0.23-0.02-0.34-0.08l-12.83-5.9c-0.39-0.18-0.58-0.63-0.43-1.03
					c3.83-10.45,32.54-46.13,33.76-47.65l1.28,1.03c-0.29,0.36-28.49,35.41-33.22,46.48l11.53,5.3l14.82-19.17l1.3,1l-15.22,19.68
					C253.7,119.84,253.46,119.96,253.21,119.96z"/>
			</g>
		</g>
		<g>
			<g>
				<path d="M257.19,104.66c-0.01,0-0.02,0-0.03,0c-0.22-0.01-0.43-0.11-0.58-0.27l-6.58-7.27l1.22-1.1l6.01,6.65l23.93-22.69
					c0.16-0.15,0.4-0.24,0.59-0.22c0.22,0.01,0.43,0.1,0.58,0.26l7.44,8.11l4.58-5c0.22-0.24,0.57-0.33,0.87-0.22
					c0.31,0.11,0.53,0.39,0.55,0.71l0.64,7.97c0.02,0.23-0.06,0.45-0.21,0.62l-5.5,6.06c-0.16,0.17-0.4,0.25-0.61,0.27
					c-0.23,0-0.45-0.1-0.61-0.27l-8.22-9.18l-6.64,7.74l-1.24-1.07l7.25-8.45c0.15-0.18,0.38-0.28,0.61-0.29c0,0,0,0,0.01,0
					c0.23,0,0.46,0.1,0.61,0.27l8.24,9.2l4.65-5.12l-0.46-5.74l-3.91,4.27c-0.16,0.17-0.38,0.27-0.61,0.27l0,0
					c-0.23,0-0.45-0.1-0.6-0.27l-7.48-8.15l-23.94,22.69C257.6,104.58,257.4,104.66,257.19,104.66z"/>
			</g>
		</g>
		<g>
			<g>
				<path d="M271.89,106.48l-1.18-1.14l9.72-10.12c0.31-0.32,0.82-0.34,1.15-0.03l8.17,7.57l6.94-5.56l1.03,1.28l-7.49,6
					c-0.32,0.25-0.77,0.24-1.07-0.04l-8.09-7.5L271.89,106.48z"/>
			</g>
		</g>
		<g>
			<g>
				<rect x="266.2" y="109.07" width="32.35" height="1.64"/>
			</g>
		</g>
		<g>
			<g>
				<path d="M274.16,181.97c-22.26,0-36.92-11.15-37.07-11.27c-0.18-0.14-0.3-0.36-0.32-0.59c-0.02-0.23,0.07-0.46,0.23-0.63
					c18.21-18.83,28.7-55.15,28.81-55.51c0.08-0.27,0.29-0.49,0.57-0.57c0.28-0.08,0.57,0,0.78,0.19l7.5,7.06l7.73-6.76
					c0.32-0.28,0.79-0.27,1.1,0.02l7.4,6.88l7.09-6.87c0.23-0.22,0.57-0.29,0.86-0.18c0.3,0.11,0.5,0.39,0.53,0.71l0.96,13.71
					c0.01,0.21-0.05,0.42-0.19,0.58l-4.86,5.82c-0.15,0.18-0.37,0.29-0.6,0.29c-0.21,0.03-0.46-0.09-0.62-0.25l-11.68-12.29
					l-15.58,16.04c-0.16,0.16-0.43,0.26-0.6,0.25c-0.23,0-0.44-0.1-0.59-0.27l-4.86-5.34c-4.87,11.79-12.29,26.69-21.89,36.94
					c3.4,2.33,18.12,11.45,38.95,10.3c20.99-1.17,32.35-7.44,34.77-8.94l-11.34-36.43l-18.24,20.43c-0.15,0.17-0.36,0.27-0.59,0.27
					c-0.25-0.01-0.45-0.08-0.6-0.24l-8.85-8.92c-0.16-0.16-0.25-0.38-0.24-0.61c0.01-0.23,0.11-0.44,0.28-0.59l8.61-7.49
					c0.31-0.27,0.78-0.27,1.09,0.01l4.7,4.3l-1.11,1.21l-4.16-3.81l-7.39,6.43l7.61,7.68l18.62-20.86c0.2-0.22,0.5-0.32,0.79-0.26
					c0.29,0.06,0.52,0.28,0.61,0.56l11.95,38.41c0.11,0.34-0.02,0.71-0.31,0.91c-0.47,0.33-11.87,8.2-36.13,9.55
					C276.62,181.94,275.37,181.97,274.16,181.97z M261.42,131.31l4.8,5.27l15.57-16.03c0.16-0.16,0.36-0.24,0.59-0.25
					c0.22,0,0.44,0.09,0.59,0.26l11.64,12.24l4.06-4.86l-0.81-11.62l-6.38,6.18c-0.31,0.31-0.81,0.31-1.13,0.01l-7.42-6.91
					l-7.73,6.76c-0.32,0.28-0.79,0.27-1.1-0.02L267,115.7C266.23,118.19,264.34,124.05,261.42,131.31z"/>
			</g>
		</g>
		<g>
			<g>
				<path d="M262.13,150.72c-0.21,0-0.41-0.08-0.57-0.23l-6.85-6.69l1.15-1.17l6.26,6.12l19.67-19.82c0.15-0.16,0.36-0.24,0.58-0.24
					c0,0,0,0,0,0c0.22,0,0.43,0.09,0.58,0.24l11.84,12l-1.17,1.15l-11.26-11.4l-19.66,19.81
					C262.56,150.63,262.35,150.72,262.13,150.72z"/>
			</g>
		</g>
		<g>
			<g>
				<path d="M282.37,163.54c-0.21,0-0.42-0.08-0.58-0.23L268.25,150l1.15-1.17l12.94,12.71l17.59-19.6c0.2-0.22,0.5-0.32,0.8-0.25
					c0.29,0.07,0.52,0.29,0.6,0.58l3.27,11.47l-1.58,0.45l-2.86-10.04l-17.18,19.13c-0.15,0.17-0.36,0.27-0.59,0.27
					C282.39,163.54,282.38,163.54,282.37,163.54z"/>
			</g>
		</g>
		<g>
			<g>
				<path d="M281.82,179.4c-0.22,0-0.43-0.09-0.59-0.25l-8.77-8.92l-8.9,8c-0.33,0.3-0.85,0.28-1.16-0.06l-7.16-7.9l-6.55,6.19
					l-1.13-1.19l7.16-6.76c0.16-0.15,0.38-0.23,0.6-0.22c0.22,0.01,0.43,0.11,0.58,0.27l7.18,7.92l8.87-7.98
					c0.32-0.3,0.82-0.28,1.13,0.03l8.74,8.89l8.02-8.17c0.16-0.17,0.37-0.27,0.62-0.25c0.23,0.01,0.45,0.12,0.6,0.3l3.27,4.02
					l-1.27,1.03l-2.69-3.31l-7.96,8.11C282.25,179.31,282.04,179.4,281.82,179.4z"/>
			</g>
		</g>
		<g>
			<g>
				<path d="M302.72,176.94l-12.71-13.05l-7.78,7.71c-0.32,0.32-0.84,0.32-1.16,0l-17.21-17.21l1.16-1.16l16.63,16.63l7.79-7.71
					c0.16-0.15,0.34-0.23,0.59-0.24c0.22,0,0.43,0.09,0.58,0.25l13.29,13.65L302.72,176.94z"/>
			</g>
		</g>
		<g>
			<g>
				<path d="M246.36,171.27c-0.01,0-0.02,0-0.04,0c-0.23-0.01-0.45-0.12-0.6-0.3l-4.42-5.37l1.27-1.04l3.85,4.67l12.73-12.87
					l-7.22-7.08l1.15-1.17l7.81,7.65c0.16,0.15,0.25,0.36,0.25,0.58c0,0.22-0.08,0.43-0.24,0.58l-13.95,14.1
					C246.79,171.19,246.57,171.27,246.36,171.27z"/>
			</g>
		</g>
		<g>
			<g>
				<path d="M305.64,171.27c-0.21,0-0.42-0.08-0.57-0.23l-16.14-15.67l1.14-1.18l15.45,15l4.66-6.61l1.34,0.95l-5.22,7.39
					c-0.14,0.2-0.35,0.32-0.59,0.34C305.69,171.27,305.67,171.27,305.64,171.27z"/>
			</g>
		</g>
		<g>
			<g>
				<path d="M304.84,161.47c-0.2,0-0.39-0.07-0.55-0.21l-7.01-6.3l1.1-1.22l6.42,5.76l3.42-3.57l1.19,1.14l-3.97,4.15
					C305.28,161.39,305.06,161.47,304.84,161.47z"/>
			</g>
		</g>
		<g>
			<g>
				<path d="M262.77,170.88c-0.02,0-0.04,0-0.06,0c-0.22-0.02-0.42-0.12-0.56-0.29l-4.22-4.97c-0.29-0.34-0.25-0.86,0.09-1.15
					l5.9-5.07c0.17-0.15,0.4-0.22,0.61-0.19c0.22,0.02,0.43,0.13,0.56,0.3l4.06,5.07c0.28,0.34,0.23,0.84-0.1,1.13l-5.74,4.97
					C263.16,170.8,262.97,170.88,262.77,170.88z M259.7,165.17l3.16,3.72l4.51-3.91l-3.04-3.79L259.7,165.17z"/>
			</g>
		</g>
		<g>
			<g>
				<rect x="268.62" y="118.28" transform="matrix(0.6897 -0.7241 0.7241 0.6897 -6.8387 233.8789)" width="1.64" height="13.27"/>
			</g>
		</g>
		<g>
			<g>
				<rect x="293.51" y="123.67" transform="matrix(0.7774 -0.629 0.629 0.7774 -12.2712 214.2993)" width="6.29" height="1.64"/>
			</g>
		</g>
		<g>
			<g>
				<path d="M303.31,125.74c-0.1,0-0.21-0.02-0.3-0.06c-0.31-0.12-0.52-0.43-0.52-0.76l0.01-4.58l1.64,0l-0.01,2.5l4.9-5.21
					l-9.08-9.16l1.17-1.16l9.64,9.72c0.31,0.31,0.32,0.82,0.01,1.14l-6.87,7.29C303.75,125.65,303.53,125.74,303.31,125.74z"/>
			</g>
		</g>
		<g>
			<g>
				<rect x="301.26" y="114.34" transform="matrix(0.7642 -0.645 0.645 0.7642 -2.6056 223.201)" width="5.4" height="1.64"/>
			</g>
		</g>
		<g>
			<g>
				<path d="M315.39,130.64c-0.49,0-0.99-0.11-1.46-0.34l-6.9-3.42l0.73-1.47l6.9,3.42c0.74,0.37,1.65,0.13,2.11-0.56l1.39-2.07
					c0.23-0.34,0.29-0.75,0.18-1.14c-0.11-0.39-0.39-0.7-0.76-0.86l-5.72-2.48l0.65-1.51l5.72,2.48c0.82,0.36,1.44,1.05,1.69,1.91
					c0.25,0.86,0.11,1.78-0.39,2.52l-1.39,2.07C317.5,130.13,316.46,130.64,315.39,130.64z"/>
			</g>
		</g>
		<g>
			<g>
				<path d="M240.17,132.12c-0.92,0-1.81-0.31-2.66-0.92c-1.71-1.23-2.67-2.74-2.83-4.47c-0.3-3.18,2.21-5.89,2.31-6
					c0.23-0.25,0.58-0.33,0.9-0.2c0.31,0.12,0.52,0.43,0.52,0.76c0,1.7,1.58,3.93,2.19,4.64l-1.25,1.07
					c-0.08-0.09-1.49-1.76-2.2-3.71c-0.5,0.88-0.97,2.06-0.85,3.28c0.12,1.24,0.85,2.34,2.16,3.29c0.8,0.58,1.61,0.74,2.47,0.5
					c3.05-0.86,6.01-6.5,6.89-8.6l1.51,0.63c-0.14,0.34-3.52,8.29-7.96,9.54C240.98,132.06,240.57,132.12,240.17,132.12z"/>
			</g>
		</g>
		<g>
			<g>
				<path d="M269.46,92.25l-6.9-6.83c-0.32-0.32-0.33-0.83-0.02-1.15l4.82-5.06l1.19,1.13l-4.27,4.47l6.33,6.27L269.46,92.25z"/>
			</g>
		</g>
		<g>
			<g>
				<path d="M289.7,82.43c-0.22,0-0.43-0.09-0.6-0.26l-7.7-8.14l-6.81,7.11c-0.31,0.32-0.82,0.34-1.15,0.04L266.68,75l1.11-1.21
					l6.18,5.63l6.86-7.15c0.16-0.16,0.37-0.25,0.59-0.25c0,0,0,0,0,0c0.22,0,0.44,0.09,0.59,0.26l7.74,8.18l2.9-2.63l-11.33-11.26
					l-7.15,6.78c-0.31,0.29-0.79,0.3-1.11,0.02l-2.99-2.68l1.1-1.22l2.43,2.17l7.18-6.81c0.32-0.31,0.83-0.3,1.14,0.01l12.51,12.43
					c0.16,0.16,0.25,0.38,0.24,0.6c0,0.23-0.1,0.44-0.27,0.59l-4.14,3.75C290.1,82.36,289.9,82.43,289.7,82.43z"/>
			</g>
		</g>
		<g>
			<g>
				<rect x="271.02" y="83.89" transform="matrix(0.708 -0.7062 0.7062 0.708 18.3226 217.1975)" width="1.64" height="5.1"/>
			</g>
		</g>
		<g>
			<g>
				<rect x="259.58" y="85.59" transform="matrix(0.7728 -0.6347 0.6347 0.7728 2.48 185.5703)" width="1.64" height="7.46"/>
			</g>
		</g>
		<g>
			<g>
				<path d="M276.25,62.97c-1.87,0-4.01-0.33-6.48-1.14c-0.24-0.08-0.44-0.27-0.52-0.51c-0.08-0.24-0.05-0.51,0.09-0.72
					c2.56-3.82,9.04-14.67,8.31-18.84c-0.05-0.31,0.07-0.63,0.33-0.81c0.26-0.18,0.6-0.2,0.87-0.05c0.08,0.04,7.62,4.15,10.92,4.44
					c0.25,0.02,0.47,0.16,0.61,0.36c0.14,0.21,0.17,0.47,0.1,0.7l-3.27,10.2C287.16,56.73,284.37,62.97,276.25,62.97z M271.32,60.58
					c10.88,3.07,14.22-4.24,14.37-4.56l2.95-9.22c-2.89-0.63-7.19-2.73-9.3-3.82C278.92,48.35,273.23,57.62,271.32,60.58z"/>
			</g>
		</g>
		<g>
			<g>
				<path d="M298.63,65.77c-0.17,0-0.33-0.05-0.47-0.15l-8.53-6.06l0.95-1.34l7.94,5.64c5.95-6.54,3.8-12.84,2.58-15.26l-5.95,8.22
					c-0.13,0.18-0.34,0.31-0.57,0.33c-0.22,0.03-0.46-0.04-0.63-0.19l-3.11-2.63l1.06-1.25l2.43,2.06l6.17-8.53
					c0.16-0.21,0.4-0.34,0.67-0.34c0,0,0,0,0.01,0c0.26,0,0.51,0.13,0.67,0.35c0.07,0.09,6.47,9.54-2.63,18.89
					C299.06,65.69,298.84,65.77,298.63,65.77z"/>
			</g>
		</g>
		<g>
			<g>
				<path d="M293.85,72.55c-0.23,0-0.46-0.1-0.62-0.28l-8.45-9.57l1.23-1.09l6.89,7.8l-0.19-3.54l1.64-0.09l0.32,5.9
					c0.02,0.35-0.18,0.67-0.51,0.8C294.06,72.52,293.95,72.55,293.85,72.55z"/>
			</g>
		</g>
		<g>
			<g>
				<path d="M298.45,44.58c-9.05,0-18.55-6.27-19.03-6.59c-0.19-0.13-0.32-0.33-0.35-0.56c-0.04-0.23,0.03-0.46,0.17-0.64
					c0.2-0.25,5.08-6.19,15.18-4.12c10.27,2.1,10.3,10.06,10.3,10.14c0,0.33-0.21,0.63-0.52,0.76
					C302.36,44.28,300.41,44.58,298.45,44.58z M281.16,37.14c3.05,1.84,13.82,7.78,21.86,5.1c-0.21-1.64-1.46-6.43-8.94-7.96
					C286.9,32.81,282.69,35.75,281.16,37.14z"/>
			</g>
		</g>
		<g>
			<g>
				<path d="M295.6,40.35c-0.09,0-0.19-0.02-0.28-0.05l-8.05-2.86l0.55-1.55l6.95,2.47v-4.56h1.64v5.72c0,0.27-0.13,0.52-0.35,0.67
					C295.93,40.3,295.77,40.35,295.6,40.35z"/>
			</g>
		</g>
		<g>
			<g>
				<path d="M285.85,56.92l-5.58-5.66c-0.24-0.24-0.3-0.6-0.17-0.91l1.59-3.59l1.5,0.67l-1.37,3.07l5.19,5.26L285.85,56.92z"/>
			</g>
		</g>
		<g>
			<g>
				<rect x="277.43" y="54.11" transform="matrix(0.7273 -0.6863 0.6863 0.7273 37.1244 206.365)" width="1.64" height="4.71"/>
			</g>
		</g>
		<g>
			<g>
				<rect x="299.43" y="50.99" transform="matrix(0.6999 -0.7142 0.7142 0.6999 50.9634 230.8762)" width="1.64" height="7.6"/>
			</g>
		</g>
		<g>
			<g>
				<rect x="298.25" y="59.29" transform="matrix(0.6411 -0.7675 0.7675 0.6411 60.3003 251.5284)" width="1.64" height="4"/>
			</g>
		</g>
		<g>
			<g>
				<polygon points="292.86,46.15 297.07,47.32 294.01,49.83 				"/>
			</g>
		</g>
		<g>
			<g>
				<polygon points="277.62,105.91 284.48,105.91 280.86,102.3 				"/>
			</g>
		</g>
		<g>
			<g>
				<polygon points="276.58,113.87 271.68,113.87 274.26,116.45 				"/>
			</g>
		</g>
		<g>
			<g>
				<polygon points="293.38,113.87 288.48,113.87 291.06,116.45 				"/>
			</g>
		</g>
		<g>
			<g>
				<polygon points="294.52,105.91 297.76,102.3 297.76,105.91 				"/>
			</g>
		</g>
		<g>
			<g>
				<path d="M246.94,112.28l-1.29-1.02l5.45-6.86c0.14-0.18,0.35-0.29,0.58-0.31c0.22-0.02,0.45,0.06,0.62,0.21l4.72,4.3l-1.11,1.21
					l-4.07-3.7L246.94,112.28z"/>
			</g>
		</g>
		<g>
			<g>
				<path d="M258.04,97.92c-0.22,0-0.43-0.09-0.59-0.25l-4.49-4.62l1.18-1.14l1.96,2.01l1.08-1.45c0.15-0.2,0.38-0.32,0.63-0.33
					c0.26-0.02,0.49,0.1,0.65,0.29l1.83,2.15c0.26,0.3,0.26,0.74,0.01,1.05l-1.62,1.99c-0.15,0.18-0.37,0.29-0.6,0.3
					C258.06,97.92,258.05,97.92,258.04,97.92z M257.25,95.11l0.73,0.76l0.61-0.75l-0.72-0.84L257.25,95.11z"/>
			</g>
		</g>
		<g>
			<g>
				<rect x="264.4" y="124.73" transform="matrix(0.8158 -0.5784 0.5784 0.8158 -25.371 177.0408)" width="1.64" height="7.23"/>
			</g>
		</g>
		<g>
			<g>
				<rect x="246.31" y="159.42" transform="matrix(0.7157 -0.6984 0.6984 0.7157 -42.5406 218.5217)" width="1.64" height="4.18"/>
			</g>
		</g>
		<g>
			<g>
				<rect x="250.3" y="154.19" transform="matrix(0.7158 -0.6983 0.6983 0.7158 -37.7631 219.782)" width="1.64" height="4.18"/>
			</g>
		</g>
		<g>
			<g>
				<path d="M248.86,192.11c-10.29,0-17.46-10.76-17.79-11.26c-0.22-0.33-0.17-0.78,0.13-1.05l5.17-4.82
					c0.24-0.22,0.6-0.28,0.9-0.15c3.11,1.4,4.33,8.54,4.45,9.35l-1.62,0.26c-0.4-2.49-1.55-6.56-3.07-7.83l-4.19,3.9
					c1.68,2.28,8.48,10.7,17.28,9.89l-6.28-5.7c-0.15-0.13-0.24-0.31-0.26-0.51l-0.56-4.68l1.63-0.2l0.52,4.38l7.32,6.64
					c0.23,0.21,0.32,0.52,0.24,0.82s-0.32,0.52-0.62,0.59C251,192,249.91,192.11,248.86,192.11z"/>
			</g>
		</g>
		<g>
			<g>
				<path d="M310.75,192.19c-1.17,0-1.9-0.08-2.02-0.09c-0.3-0.03-0.56-0.23-0.67-0.52l-4.28-11.02l1.53-0.59l2.65,6.83l5.29-7.02
					c0.14-0.19,0.36-0.31,0.6-0.33c0.24,0,0.47,0.07,0.64,0.24c1.58,1.58,6.49,2.34,13.15,2.01c0.73-0.03,1.42,0.37,1.73,1.05
					c0.31,0.67,0.19,1.46-0.31,2C322.89,191.36,314.55,192.19,310.75,192.19z M309.4,190.51c2.26,0.13,11.86,0.2,18.45-6.89
					c0.05-0.05,0.06-0.12,0.02-0.19c-0.03-0.07-0.11-0.1-0.16-0.1c-4.75,0.23-10.75,0.06-13.67-1.89l-5.4,7.16L309.4,190.51z"/>
			</g>
		</g>
		<g>
			<g>
				<rect x="314.03" y="184.08" transform="matrix(0.5363 -0.844 0.844 0.5363 -8.9652 353.4795)" width="6.39" height="1.64"/>
			</g>
		</g>
		<g>
			<g>
				<rect x="303.93" y="179.81" transform="matrix(0.5146 -0.8574 0.8574 0.5146 -4.9493 352.5257)" width="9.95" height="1.64"/>
			</g>
		</g>
		<g>
			<g>
				<rect x="281" y="144.96" transform="matrix(0.7071 -0.7071 0.7071 0.7071 -20.9234 242.9067)" width="3.5" height="3.5"/>
			</g>
		</g>
		<g>
			<g>
				<rect x="259.76" y="139.33" transform="matrix(0.7071 -0.7071 0.7071 0.7071 -23.1633 226.2353)" width="3.5" height="3.5"/>
			</g>
		</g>
		<g>
			<g>
				<polygon points="267.23,180.42 272.04,175.61 276.85,180.42 				"/>
			</g>
		</g>
		<g>
			<g>
				<path d="M236.14,122.15c-1.01-2.33-24.55-57.49-7.23-89.68l2.17,1.17c-16.75,31.14,7.08,86.97,7.32,87.53L236.14,122.15z"/>
			</g>
		</g>
	</g>
</g>
</svg>
