<?xml version="1.0" encoding="utf-8"?>
<!-- Generator: Adobe Illustrator 24.3.0, SVG Export Plug-In . SVG Version: 6.00 Build 0)  -->
<svg version="1.1" id="Layer_1" xmlns="http://www.w3.org/2000/svg" xmlns:xlink="http://www.w3.org/1999/xlink" x="0px" y="0px"
	 viewBox="0 0 179.56 15.84" style="enable-background:new 0 0 179.56 15.84;" xml:space="preserve">
<g>
	<g>
		<polygon points="5.29,8.87 7.51,11.21 9.75,8.85 11.99,11.21 14.24,8.85 16.48,11.21 18.72,8.85 20.97,11.21 23.21,8.85 
			25.45,11.21 27.69,8.85 29.94,11.21 32.18,8.85 34.42,11.21 36.66,8.85 38.91,11.21 41.15,8.85 43.39,11.21 45.63,8.85 
			47.88,11.21 50.12,8.85 52.36,11.21 54.6,8.85 56.85,11.21 59.09,8.85 61.33,11.21 63.58,8.85 65.82,11.21 68.06,8.85 70.3,11.21 
			72.55,8.85 74.79,11.21 77.03,8.85 79.27,11.21 81.52,8.85 83.76,11.21 85.69,9.18 87.61,11.21 89.78,8.93 91.95,11.21 
			94.17,8.87 96.39,11.21 98.63,8.85 100.87,11.21 103.12,8.85 105.36,11.21 107.6,8.85 109.84,11.21 112.09,8.85 114.33,11.21 
			116.57,8.85 118.82,11.21 121.06,8.85 123.3,11.21 125.54,8.85 127.79,11.21 130.03,8.85 132.27,11.21 134.51,8.85 136.76,11.21 
			139,8.85 141.24,11.21 143.48,8.85 145.73,11.21 147.97,8.85 150.21,11.21 152.45,8.85 154.7,11.21 156.94,8.85 159.18,11.21 
			161.43,8.85 163.67,11.21 165.91,8.85 168.15,11.21 170.4,8.85 172.64,11.21 174.56,9.18 176.49,11.21 179.56,7.98 176.49,4.75 
			174.56,6.78 172.64,4.75 170.4,7.11 168.15,4.75 165.91,7.11 163.67,4.75 161.43,7.11 159.18,4.75 156.94,7.11 154.7,4.75 
			152.45,7.11 150.21,4.75 147.97,7.11 145.73,4.75 143.48,7.11 141.24,4.75 139,7.11 136.76,4.75 134.51,7.11 132.27,4.75 
			130.03,7.11 127.79,4.75 125.54,7.11 123.3,4.75 121.06,7.11 118.82,4.75 116.57,7.11 114.33,4.75 112.09,7.11 109.84,4.75 
			107.6,7.11 105.36,4.75 103.12,7.11 100.87,4.75 98.63,7.11 96.39,4.75 94.17,7.09 91.95,4.75 89.78,7.03 87.61,4.75 85.69,6.78 
			83.76,4.75 81.52,7.11 79.27,4.75 77.03,7.11 74.79,4.75 72.55,7.11 70.3,4.75 68.06,7.11 65.82,4.75 63.58,7.11 61.33,4.75 
			59.09,7.11 56.85,4.75 54.6,7.11 52.36,4.75 50.12,7.11 47.88,4.75 45.63,7.11 43.39,4.75 41.15,7.11 38.91,4.75 36.66,7.11 
			34.42,4.75 32.18,7.11 29.94,4.75 27.69,7.11 25.45,4.75 23.21,7.11 20.97,4.75 18.72,7.11 16.48,4.75 14.24,7.11 11.99,4.75 
			9.75,7.11 7.51,4.75 5.29,7.09 3.07,4.75 0,7.98 3.07,11.21 		"/>
	</g>
	<g>
		<path d="M30.84,15.83c9.7,0,19.37,0,29.07,0c0-0.25,0-0.45,0-0.71c-9.72,0-19.41,0-29.13,0C30.83,15.38,30.75,15.62,30.84,15.83z"
			/>
	</g>
	<g>
		<path d="M0.93,15.11c-0.06,0.41-0.06,0.41,0.03,0.73c9.67,0,19.35,0,29.03,0c0.04-0.25,0.04-0.47,0-0.73
			C20.29,15.11,10.61,15.11,0.93,15.11z"/>
	</g>
	<g>
		<path d="M69.81,12.99c0.66,0.35,1.32,0.69,1.98,1.04c0.18,0.1,0.36,0.09,0.54-0.01c0.65-0.35,1.3-0.7,1.93-1.04
			c0.68,0.36,1.32,0.69,1.97,1.04c0.17,0.09,0.35,0.12,0.5,0.03c0.64-0.4,1.34-0.69,1.99-1.07c0.65,0.34,1.28,0.67,1.91,1.01
			c0.19,0.1,0.38,0.14,0.58,0.03c0.65-0.35,1.31-0.7,1.95-1.05c0.66,0.34,1.31,0.67,1.95,1.02c0.21,0.11,0.39,0.11,0.6-0.01
			c0.63-0.35,1.26-0.68,1.89-1.01c0.72,0.37,1.43,0.74,2.16,1.13c0.01-0.07,0.02-0.13,0.02-0.19c0.01,0.06,0.03,0.11,0.07,0.17
			c0.71-0.37,1.41-0.74,2.12-1.1c0.63,0.33,1.27,0.66,1.9,1c0.23,0.13,0.42,0.12,0.64,0c0.63-0.34,1.26-0.67,1.9-1
			c0.63,0.33,1.26,0.63,1.87,0.98c0.26,0.15,0.46,0.14,0.71,0.01c0.63-0.34,1.26-0.67,1.87-0.99c0.64,0.33,1.26,0.62,1.85,0.97
			c0.26,0.15,0.46,0.15,0.71,0.02c0.63-0.34,1.26-0.67,1.89-1c0.6,0.31,1.2,0.59,1.76,0.94c0.34,0.21,0.61,0.17,0.93-0.01
			c0.58-0.33,1.17-0.62,1.76-0.92c0.56,0.29,1.11,0.57,1.68,0.87c0.05-0.19,0.07-0.34,0.02-0.56c-0.51-0.26-1.02-0.53-1.53-0.8
			c-0.17-0.09-0.31-0.02-0.46,0.06c-0.53,0.28-1.06,0.54-1.57,0.84c-0.25,0.15-0.46,0.13-0.71-0.01c-0.51-0.28-1.03-0.54-1.54-0.82
			c-0.24-0.13-0.45-0.13-0.68,0c-0.51,0.28-1.03,0.54-1.54,0.82c-0.23,0.13-0.44,0.13-0.68,0c-0.51-0.28-1.03-0.53-1.54-0.82
			c-0.25-0.14-0.47-0.13-0.71,0.01c-0.5,0.29-1.02,0.54-1.54,0.82c-0.22,0.12-0.41,0.13-0.64,0c-0.52-0.29-1.05-0.55-1.57-0.84
			c-0.24-0.14-0.44-0.13-0.68,0.01c-0.52,0.29-1.05,0.56-1.57,0.84c-0.2,0.11-0.39,0.12-0.6,0c-0.54-0.3-1.1-0.58-1.64-0.88
			c-0.15-0.08-0.3-0.13-0.46-0.05c-0.67,0.35-1.33,0.71-2.01,1.07c0.01,0.05,0,0.1,0,0.14c-0.01-0.05-0.01-0.11-0.02-0.16
			c-0.64-0.34-1.27-0.67-1.9-1.01c-0.19-0.1-0.35-0.09-0.53,0.01c-0.53,0.29-1.08,0.56-1.61,0.86c-0.23,0.13-0.44,0.13-0.68,0
			c-0.52-0.29-1.05-0.56-1.57-0.84c-0.21-0.11-0.39-0.12-0.61,0c-0.53,0.3-1.08,0.56-1.61,0.86c-0.23,0.13-0.42,0.12-0.64,0
			c-0.52-0.29-1.05-0.55-1.57-0.84c-0.23-0.13-0.42-0.13-0.64-0.01c-0.52,0.29-1.06,0.55-1.57,0.84c-0.24,0.13-0.44,0.13-0.68,0
			c-0.51-0.28-1.03-0.54-1.54-0.82c-0.25-0.14-0.46-0.13-0.71,0.01c-0.49,0.28-1.01,0.52-1.5,0.8c-0.25,0.14-0.46,0.15-0.71,0
			c-0.6-0.34-1.22-0.64-1.84-0.97c-0.63,0.28-1.24,0.61-1.85,0.96c0.01,0.18-0.1,0.36,0.08,0.53C68.65,13.6,69.23,13.29,69.81,12.99
			z"/>
	</g>
	<g>
		<path d="M0.97,14.09c0.71-0.37,1.41-0.74,2.12-1.1c0.63,0.33,1.27,0.66,1.9,1c0.23,0.13,0.42,0.12,0.64,0
			c0.63-0.34,1.26-0.67,1.9-1c0.63,0.33,1.26,0.63,1.87,0.98c0.26,0.15,0.46,0.14,0.71,0.01c0.63-0.34,1.26-0.67,1.87-0.99
			c0.64,0.33,1.26,0.62,1.86,0.97c0.26,0.15,0.46,0.15,0.71,0.02c0.63-0.34,1.26-0.67,1.89-1c0.6,0.31,1.2,0.59,1.76,0.94
			c0.34,0.21,0.61,0.17,0.93-0.01c0.58-0.33,1.17-0.62,1.76-0.92c0.56,0.29,1.11,0.57,1.68,0.87c0.05-0.19,0.07-0.34,0.02-0.56
			c-0.51-0.26-1.02-0.53-1.53-0.8c-0.17-0.09-0.31-0.02-0.46,0.06c-0.53,0.28-1.06,0.54-1.57,0.84c-0.25,0.15-0.46,0.13-0.71-0.01
			c-0.51-0.28-1.03-0.54-1.54-0.82c-0.24-0.13-0.45-0.13-0.68,0c-0.51,0.28-1.03,0.54-1.54,0.82c-0.23,0.13-0.44,0.13-0.68,0
			c-0.51-0.28-1.03-0.53-1.54-0.82c-0.25-0.14-0.47-0.13-0.71,0.01c-0.5,0.29-1.02,0.54-1.54,0.82c-0.22,0.12-0.41,0.13-0.64,0
			c-0.52-0.29-1.05-0.55-1.57-0.84c-0.24-0.14-0.44-0.13-0.68,0.01c-0.52,0.29-1.05,0.56-1.57,0.84c-0.2,0.11-0.39,0.12-0.6,0
			c-0.54-0.3-1.1-0.58-1.64-0.88c-0.15-0.08-0.3-0.13-0.46-0.05c-0.67,0.35-1.33,0.71-2.01,1.07C0.92,13.75,0.83,13.92,0.97,14.09z"
			/>
	</g>
	<g>
		<path d="M25.32,12.99c0.66,0.34,1.31,0.67,1.95,1.02c0.2,0.11,0.37,0.1,0.57,0c0.64-0.35,1.29-0.68,1.93-1.01
			c0.68,0.36,1.35,0.71,2.02,1.06c0.15,0.08,0.31,0.06,0.46-0.03c0.65-0.35,1.31-0.69,1.97-1.03c0.67,0.35,1.34,0.71,2.01,1.06
			c0.15,0.08,0.31,0.06,0.46-0.02c0.65-0.35,1.31-0.69,1.98-1.03c0.63,0.33,1.27,0.66,1.9,1c0.23,0.12,0.42,0.12,0.65-0.01
			c0.63-0.34,1.27-0.67,1.89-0.99c0.57,0.29,1.12,0.57,1.68,0.86c0.11-0.18,0.12-0.32,0.04-0.53c-0.44-0.24-0.92-0.49-1.39-0.76
			c-0.24-0.14-0.45-0.11-0.68,0.02c-0.5,0.28-1.01,0.52-1.5,0.81c-0.26,0.15-0.47,0.15-0.74,0c-0.62-0.33-1.22-0.7-1.88-0.96
			c-0.62,0.32-1.23,0.63-1.83,0.97c-0.25,0.14-0.47,0.14-0.72,0c-0.6-0.33-1.22-0.64-1.87-0.98c-0.65,0.34-1.27,0.66-1.89,0.99
			c-0.23,0.13-0.44,0.14-0.68,0c-0.48-0.27-0.99-0.51-1.47-0.78c-0.28-0.16-0.52-0.19-0.82-0.01c-0.49,0.29-1,0.53-1.5,0.8
			c-0.23,0.13-0.44,0.12-0.68-0.01c-0.52-0.29-1.05-0.56-1.57-0.85c-0.19-0.11-0.37-0.12-0.57-0.01c-0.5,0.28-1,0.54-1.52,0.82
			c0.02,0.18-0.04,0.35,0.04,0.54C24.18,13.59,24.75,13.29,25.32,12.99z"/>
	</g>
	<g>
		<path d="M45.82,13.9c0.59-0.31,1.18-0.61,1.75-0.91c0.68,0.35,1.34,0.69,1.99,1.04c0.17,0.09,0.33,0.07,0.5-0.01
			c0.66-0.35,1.31-0.69,1.95-1.03c0.69,0.36,1.35,0.72,2.02,1.06c0.14,0.07,0.29,0.06,0.43-0.01c0.67-0.35,1.34-0.7,2-1.05
			c0.65,0.34,1.3,0.68,1.94,1.02c0.18,0.1,0.35,0.1,0.54,0.01c0.65-0.35,1.31-0.68,1.97-1.02c0.64,0.33,1.28,0.65,1.91,0.99
			c0.21,0.12,0.4,0.13,0.61,0.01c0.64-0.34,1.29-0.68,1.93-1.01c0.55,0.28,1.09,0.56,1.64,0.84c0.08-0.2,0.07-0.35,0.03-0.54
			c-0.43-0.23-0.89-0.46-1.33-0.72c-0.24-0.14-0.44-0.13-0.68,0c-0.51,0.29-1.03,0.54-1.53,0.83c-0.24,0.13-0.44,0.14-0.67,0.01
			c-0.51-0.28-1.03-0.54-1.54-0.82c-0.25-0.14-0.46-0.15-0.71,0c-0.49,0.28-1,0.53-1.5,0.81c-0.25,0.14-0.47,0.14-0.72,0
			c-0.51-0.28-1.03-0.53-1.53-0.82c-0.24-0.13-0.44-0.14-0.68-0.01c-0.51,0.29-1.03,0.54-1.54,0.82c-0.25,0.14-0.47,0.13-0.72,0
			c-0.6-0.33-1.22-0.64-1.86-0.98c-0.65,0.34-1.28,0.65-1.89,0.99c-0.24,0.13-0.43,0.14-0.67,0c-0.61-0.34-1.24-0.65-1.86-0.98
			c-0.65,0.27-1.24,0.62-1.84,0.95C45.77,13.56,45.7,13.73,45.82,13.9z"/>
	</g>
	<g>
		<path d="M41.7,11.54c-0.18-0.37-0.51-0.57-0.77-0.91c-0.34,0.26-0.59,0.53-0.85,0.85c0.18,0.41,0.51,0.66,0.84,0.95
			C41.2,12.11,41.49,11.87,41.7,11.54z"/>
	</g>
	<g>
		<path d="M46.14,11.53c-0.28-0.33-0.53-0.62-0.81-0.94c-0.26,0.38-0.67,0.56-0.8,1c0.27,0.29,0.51,0.54,0.8,0.85
			C45.65,12.12,45.98,11.88,46.14,11.53z"/>
	</g>
	<g>
		<path d="M23.13,10.63c-0.35,0.26-0.6,0.57-0.84,0.86c0.28,0.33,0.53,0.61,0.78,0.91c0.32-0.25,0.57-0.54,0.84-0.86
			C23.74,11.15,23.37,10.96,23.13,10.63z"/>
	</g>
	<g>
		<path d="M50.56,11.54c-0.17-0.22-0.27-0.4-0.4-0.53c-0.13-0.13-0.23-0.32-0.46-0.34c-0.19,0.34-0.6,0.49-0.71,0.9
			c0.27,0.29,0.51,0.55,0.78,0.84C50.09,12.12,50.46,11.9,50.56,11.54z"/>
	</g>
	<g>
		<path d="M63.11,12.35c0.31-0.3,0.58-0.55,0.87-0.83c-0.28-0.33-0.52-0.63-0.85-0.88c-0.28,0.31-0.64,0.53-0.81,0.98
			C62.66,11.84,62.81,12.25,63.11,12.35z"/>
	</g>
	<g>
		<path d="M28.38,11.58c-0.24-0.39-0.55-0.66-0.87-0.95c-0.28,0.32-0.58,0.56-0.78,0.89c0.28,0.27,0.54,0.53,0.85,0.84
			C27.87,12.19,28.08,11.87,28.38,11.58z"/>
	</g>
	<g>
		<path d="M58.71,12.4c0.3-0.3,0.59-0.54,0.79-0.91c-0.27-0.29-0.49-0.6-0.82-0.83c-0.29,0.29-0.58,0.54-0.83,0.91
			C58.15,11.85,58.36,12.17,58.71,12.4z"/>
	</g>
	<g>
		<path d="M67.6,12.39c0.31-0.27,0.6-0.53,0.81-0.9c-0.3-0.32-0.52-0.63-0.87-0.84c-0.24,0.31-0.57,0.52-0.76,0.89
			C67.04,11.86,67.28,12.16,67.6,12.39z"/>
	</g>
	<g>
		<path d="M4.49,11.52c0.29,0.29,0.54,0.55,0.84,0.85c0.3-0.22,0.55-0.52,0.81-0.82c-0.29-0.32-0.55-0.6-0.82-0.9
			C4.99,10.91,4.72,11.18,4.49,11.52z"/>
	</g>
	<g>
		<path d="M37.27,11.5c-0.29-0.29-0.52-0.59-0.84-0.84c-0.27,0.3-0.6,0.52-0.73,0.79c0.3,0.37,0.53,0.65,0.77,0.95
			C36.75,12.11,37.05,11.86,37.27,11.5z"/>
	</g>
	<g>
		<path d="M80.98,12.38c0.24-0.31,0.62-0.49,0.72-0.82c-0.27-0.35-0.49-0.63-0.73-0.95c-0.33,0.34-0.65,0.58-0.88,0.97
			C80.42,11.82,80.58,12.2,80.98,12.38z"/>
	</g>
	<g>
		<path d="M32.82,11.49c-0.31-0.28-0.52-0.61-0.86-0.84c-0.26,0.29-0.52,0.57-0.76,0.85c0.22,0.37,0.52,0.6,0.77,0.91
			C32.29,12.14,32.6,11.88,32.82,11.49z"/>
	</g>
	<g>
		<path d="M55.05,11.5c-0.25-0.32-0.52-0.59-0.77-0.82c-0.29,0.29-0.55,0.56-0.82,0.84c0.27,0.28,0.54,0.55,0.84,0.86
			C54.5,12.1,54.83,11.91,55.05,11.5z"/>
	</g>
	<g>
		<path d="M8.97,11.48c0.11,0.39,0.5,0.57,0.73,0.91c0.37-0.19,0.56-0.54,0.88-0.81c-0.24-0.38-0.55-0.66-0.82-0.89
			C9.51,10.95,9.27,11.18,8.97,11.48z"/>
	</g>
	<g>
		<path d="M72.86,11.54c-0.25-0.34-0.53-0.62-0.78-0.84c-0.3,0.28-0.57,0.52-0.89,0.81c0.31,0.32,0.54,0.63,0.85,0.86
			C72.36,12.17,72.57,11.86,72.86,11.54z"/>
	</g>
	<g>
		<path d="M18.71,10.63c-0.33,0.24-0.57,0.54-0.85,0.84c0.19,0.41,0.49,0.69,0.85,0.94c0.24-0.34,0.56-0.53,0.75-0.9
			C19.25,11.15,18.92,10.97,18.71,10.63z"/>
	</g>
	<g>
		<path d="M76.54,12.39c0.22-0.33,0.62-0.51,0.73-0.95c-0.26-0.27-0.5-0.51-0.77-0.79c-0.31,0.28-0.6,0.55-0.85,0.92
			C75.99,11.83,76.16,12.2,76.54,12.39z"/>
	</g>
	<g>
		<path d="M86.23,11.5c-0.32-0.28-0.51-0.65-0.89-0.84c-0.26,0.32-0.57,0.54-0.8,0.89c0.3,0.28,0.53,0.59,0.84,0.82
			C85.69,12.15,85.93,11.87,86.23,11.5z"/>
	</g>
	<g>
		<path d="M13.4,11.57c0.28,0.28,0.53,0.54,0.81,0.82c0.29-0.28,0.57-0.55,0.79-0.84c-0.28-0.31-0.53-0.59-0.82-0.92
			C13.93,10.98,13.58,11.17,13.4,11.57z"/>
	</g>
	<g>
		<path d="M59.87,0.72c0.1-0.25,0.08-0.46,0.03-0.7c-9.73,0-19.42,0-29.15,0c0.07,0.27-0.02,0.5,0.1,0.7
			C40.53,0.72,50.2,0.72,59.87,0.72z"/>
	</g>
	<g>
		<path d="M29.98,0C20.28,0,10.6,0,0.9,0c0,0.25,0,0.47,0,0.72c9.71,0,19.41,0,29.11,0C30.01,0.45,30.07,0.22,29.98,0z"/>
	</g>
	<g>
		<path d="M89.77,0.72c0-0.25,0-0.47,0-0.72c-9.73,0-19.4,0-29.1,0c-0.01,0.26-0.05,0.5,0.02,0.72C70.4,0.72,80.08,0.72,89.77,0.72z
			"/>
	</g>
	<g>
		<path d="M2.75,3.25C3,3.4,3.19,3.38,3.42,3.25c0.62-0.35,1.26-0.67,1.88-1C5.96,2.6,6.6,2.92,7.22,3.27
			c0.23,0.13,0.4,0.12,0.63-0.01c0.63-0.36,1.28-0.68,1.91-1c0.67,0.35,1.3,0.68,1.93,1.03c0.21,0.12,0.38,0.11,0.6-0.01
			c0.63-0.36,1.28-0.68,1.91-1.01c0.65,0.34,1.28,0.65,1.89,1c0.28,0.16,0.48,0.12,0.74-0.03c0.6-0.35,1.23-0.65,1.83-0.97
			c0.67,0.36,1.3,0.69,1.93,1.03c0.13,0.07,0.28,0.16,0.42,0.08c0.53-0.28,1.06-0.58,1.59-0.87c-0.03-0.18,0.05-0.33-0.07-0.48
			c-0.58,0.19-1.07,0.61-1.65,0.79C20.21,2.53,19.62,2.17,19,1.84c-0.24-0.13-0.42-0.14-0.66-0.01c-0.63,0.35-1.26,0.72-1.94,0.98
			c-0.62-0.33-1.25-0.64-1.86-0.98C14.3,1.7,14.12,1.7,13.87,1.84c-0.61,0.35-1.23,0.65-1.89,0.99c-0.65-0.34-1.28-0.67-1.91-1.01
			c-0.22-0.12-0.4-0.13-0.63,0c-0.51,0.3-1.05,0.54-1.57,0.83c-0.25,0.14-0.46,0.15-0.71,0C6.65,2.36,6.12,2.1,5.61,1.81
			C5.42,1.71,5.24,1.68,5.05,1.79C4.69,2,4.3,2.17,3.96,2.41c-0.62,0.42-1.19,0.4-1.8-0.04C1.79,2.1,1.38,1.91,0.95,1.75
			c-0.08,0.19-0.07,0.35,0,0.54C1.54,2.61,2.16,2.91,2.75,3.25z"/>
	</g>
	<g>
		<path d="M43.36,3.31c0.41-0.23,0.83-0.45,1.25-0.66c0.29-0.14,0.35-0.34,0.23-0.66c-0.31,0.07-0.57,0.21-0.81,0.39
			c-0.6,0.45-1.18,0.46-1.8,0.02c-0.41-0.29-0.87-0.49-1.32-0.73c-0.76,0.36-1.47,0.82-2.27,1.16c-0.64-0.34-1.27-0.66-1.89-1
			c-0.22-0.13-0.4-0.12-0.63,0.01c-0.63,0.35-1.26,0.71-1.94,0.99c-0.62-0.32-1.25-0.63-1.86-0.98c-0.24-0.13-0.42-0.15-0.66-0.01
			c-0.62,0.35-1.25,0.67-1.9,1c-0.76-0.39-1.5-0.78-2.23-1.17c-0.57,0.3-1.11,0.56-1.63,0.88c-0.42,0.25-0.78,0.27-1.19-0.01
			c-0.36-0.24-0.76-0.41-1.15-0.62c-0.09,0.22-0.05,0.38-0.02,0.58c0.47,0.25,0.97,0.49,1.45,0.77c0.24,0.14,0.43,0.12,0.67-0.02
			c0.62-0.35,1.25-0.67,1.87-1c0.66,0.35,1.3,0.68,1.92,1.02c0.21,0.12,0.38,0.12,0.6,0C30.7,2.92,31.35,2.59,32,2.25
			c0.6,0.32,1.2,0.61,1.76,0.95c0.35,0.21,0.62,0.18,0.96-0.02c0.58-0.34,1.18-0.63,1.74-0.92c0.68,0.36,1.3,0.68,1.91,1.02
			C38.59,3.4,38.78,3.39,39,3.26c0.62-0.35,1.26-0.67,1.9-1.01c0.65,0.35,1.29,0.68,1.93,1.03C43.01,3.38,43.17,3.42,43.36,3.31z"/>
	</g>
	<g>
		<path d="M58.4,1.81c-0.12,0.1-0.26,0.14-0.39,0.2c-0.53,0.26-1.02,0.6-1.58,0.8c-0.63-0.33-1.25-0.64-1.86-0.98
			c-0.24-0.13-0.42-0.14-0.66,0c-0.62,0.35-1.25,0.66-1.89,1c-0.77-0.4-1.51-0.79-2.24-1.16c-0.76,0.39-1.46,0.82-2.21,1.14
			c-0.63-0.23-1.16-0.63-1.77-0.88c-0.15,0.22-0.07,0.4,0.01,0.57c0.47,0.25,0.95,0.47,1.4,0.74c0.25,0.15,0.45,0.15,0.7,0.01
			c0.62-0.35,1.26-0.67,1.88-0.99c0.65,0.34,1.27,0.65,1.88,1c0.24,0.14,0.43,0.15,0.67,0.01c0.62-0.35,1.26-0.67,1.9-1.01
			c0.63,0.33,1.26,0.64,1.86,0.99c0.25,0.14,0.45,0.16,0.7,0.01c0.62-0.35,1.26-0.67,1.9-1c0.64,0.35,1.27,0.68,1.9,1.03
			c0.21,0.12,0.39,0.12,0.6,0.01c0.64-0.35,1.28-0.68,1.94-1.03c0.64,0.34,1.27,0.67,1.89,1.01c0.15,0.08,0.29,0.18,0.45,0.1
			c0.52-0.27,1.04-0.56,1.54-0.83c0.03-0.2,0.05-0.35-0.03-0.56c-0.37,0.19-0.74,0.37-1.09,0.58c-0.39,0.24-0.73,0.24-1.12,0
			c-0.53-0.32-1.08-0.59-1.65-0.9c-0.56,0.3-1.13,0.59-1.69,0.91c-0.34,0.2-0.65,0.26-1.01,0.04c-0.47-0.29-0.97-0.52-1.44-0.79
			C58.79,1.7,58.59,1.66,58.4,1.81z"/>
	</g>
	<g>
		<path d="M80.1,4.28c0.26,0.33,0.52,0.6,0.82,0.89c0.33-0.26,0.61-0.54,0.8-0.81c-0.26-0.32-0.5-0.61-0.78-0.95
			C80.61,3.69,80.35,3.97,80.1,4.28z"/>
	</g>
	<g>
		<path d="M84.55,4.31c0.26,0.3,0.5,0.58,0.84,0.86c0.29-0.28,0.59-0.54,0.73-0.76c-0.28-0.34-0.53-0.65-0.8-0.98
			C85.07,3.72,84.77,3.96,84.55,4.31z"/>
	</g>
	<g>
		<path d="M4.5,4.33C4.75,4.62,5,4.93,5.26,5.12c0.32-0.29,0.59-0.54,0.85-0.78C5.81,4.02,5.56,3.74,5.3,3.46
			C5.04,3.74,4.78,4.03,4.5,4.33z"/>
	</g>
	<g>
		<path d="M66.76,4.27c0.25,0.35,0.53,0.61,0.8,0.88c0.38-0.22,0.6-0.56,0.79-0.77c-0.27-0.32-0.53-0.61-0.8-0.93
			C67.27,3.69,67.01,3.97,66.76,4.27z"/>
	</g>
	<g>
		<path d="M8.94,4.31c0.24,0.29,0.51,0.6,0.76,0.8c0.3-0.3,0.58-0.56,0.88-0.86c-0.28-0.28-0.5-0.6-0.8-0.81
			C9.48,3.75,9.22,4.03,8.94,4.31z"/>
	</g>
	<g>
		<path d="M17.83,4.29c0.25,0.34,0.5,0.63,0.74,0.8c0.3-0.29,0.58-0.56,0.88-0.85c-0.26-0.26-0.51-0.52-0.81-0.82
			C18.35,3.69,18.08,3.96,17.83,4.29z"/>
	</g>
	<g>
		<path d="M40.08,4.28c0.25,0.36,0.52,0.64,0.83,0.89c0.28-0.31,0.58-0.56,0.81-0.9c-0.27-0.28-0.52-0.55-0.82-0.86
			C40.59,3.69,40.33,3.96,40.08,4.28z"/>
	</g>
	<g>
		<path d="M71.2,4.27c0.27,0.33,0.53,0.62,0.83,0.88c0.33-0.26,0.58-0.55,0.84-0.88c-0.29-0.3-0.53-0.62-0.82-0.83
			C71.75,3.74,71.49,3.99,71.2,4.27z"/>
	</g>
	<g>
		<path d="M49.81,5.13c0.29-0.25,0.57-0.5,0.76-0.83c-0.27-0.29-0.53-0.57-0.78-0.83c-0.27,0.27-0.53,0.54-0.79,0.8
			C49.26,4.55,49.53,4.84,49.81,5.13z"/>
	</g>
	<g>
		<path d="M23.09,3.4c-0.26,0.33-0.5,0.63-0.77,0.96c0.21,0.25,0.48,0.55,0.8,0.82c0.27-0.3,0.58-0.54,0.81-0.9
			C23.67,3.96,23.41,3.68,23.09,3.4z"/>
	</g>
	<g>
		<path d="M45.34,5.17c0.29-0.29,0.6-0.53,0.81-0.9c-0.28-0.28-0.55-0.54-0.85-0.83c-0.25,0.26-0.54,0.52-0.77,0.85
			C44.78,4.63,45.06,4.9,45.34,5.17z"/>
	</g>
	<g>
		<path d="M26.72,4.31c0.27,0.29,0.53,0.59,0.85,0.85c0.29-0.3,0.58-0.54,0.81-0.89c-0.28-0.3-0.51-0.63-0.88-0.84
			C27.23,3.73,26.98,4,26.72,4.31z"/>
	</g>
	<g>
		<path d="M75.65,4.28c0.26,0.32,0.52,0.61,0.83,0.88c0.31-0.29,0.59-0.57,0.83-0.9c-0.29-0.27-0.52-0.6-0.82-0.82
			C76.2,3.74,75.94,4,75.65,4.28z"/>
	</g>
	<g>
		<path d="M13.42,4.33c0.22,0.28,0.48,0.57,0.74,0.78c0.3-0.3,0.56-0.58,0.86-0.88c-0.26-0.25-0.53-0.5-0.83-0.78
			C13.94,3.74,13.69,4.02,13.42,4.33z"/>
	</g>
	<g>
		<path d="M63.14,5.16c0.31-0.29,0.59-0.57,0.76-0.78c-0.27-0.32-0.53-0.62-0.74-0.87c-0.27,0.26-0.54,0.52-0.82,0.8
			C62.56,4.63,62.83,4.89,63.14,5.16z"/>
	</g>
	<g>
		<path d="M35.65,4.31c0.22,0.3,0.48,0.58,0.8,0.83c0.32-0.27,0.57-0.55,0.83-0.87c-0.28-0.29-0.52-0.6-0.81-0.82
			C36.2,3.74,35.94,4.01,35.65,4.31z"/>
	</g>
	<g>
		<path d="M31.2,4.32c0.22,0.24,0.48,0.52,0.79,0.85c0.33-0.29,0.61-0.56,0.83-0.9c-0.28-0.32-0.52-0.6-0.8-0.83
			C31.72,3.76,31.46,4.03,31.2,4.32z"/>
	</g>
	<g>
		<path d="M57.87,4.28c0.25,0.33,0.51,0.6,0.8,0.86c0.29-0.32,0.55-0.61,0.78-0.87c-0.22-0.25-0.47-0.54-0.76-0.88
			C58.38,3.7,58.11,3.96,57.87,4.28z"/>
	</g>
	<g>
		<path d="M53.41,4.29c0.28,0.31,0.52,0.61,0.83,0.85c0.32-0.26,0.57-0.53,0.82-0.86c-0.27-0.33-0.53-0.6-0.82-0.86
			C53.92,3.7,53.66,3.97,53.41,4.29z"/>
	</g>
	<g>
		<path d="M0.92,5.12C1.2,4.84,1.45,4.61,1.7,4.27C1.45,4,1.24,3.73,0.92,3.5C0.92,4.08,0.92,4.58,0.92,5.12z"/>
	</g>
	<g>
		<path d="M89.75,5.11c0-0.56,0-1.06,0-1.61c-0.32,0.25-0.54,0.49-0.74,0.77C89.21,4.6,89.48,4.81,89.75,5.11z"/>
	</g>
	<g>
		<path d="M89.77,10.78c-0.27,0.25-0.51,0.48-0.76,0.72c0.23,0.31,0.46,0.56,0.76,0.79C89.77,11.75,89.77,11.28,89.77,10.78z"/>
	</g>
	<g>
		<path d="M1.66,11.53c-0.25-0.26-0.47-0.5-0.73-0.77c0,0.53,0,1.02,0,1.56C1.21,12.03,1.47,11.81,1.66,11.53z"/>
	</g>
	<g>
		<path d="M119.72,15.83c9.7,0,19.37,0,29.07,0c0-0.25,0-0.45,0-0.71c-9.72,0-19.41,0-29.13,0
			C119.7,15.38,119.63,15.62,119.72,15.83z"/>
	</g>
	<g>
		<path d="M89.81,15.11c-0.02,0.12-0.03,0.2-0.03,0.27c0-0.09-0.01-0.18-0.01-0.27c-9.71,0-19.39,0-29.08,0
			c-0.03,0.25-0.04,0.48,0.01,0.72c9.71,0,19.39,0,29.07,0c0.02-0.1,0.02-0.19,0.02-0.29c0.01,0.08,0.03,0.15,0.06,0.29
			c9.67,0,19.35,0,29.03,0c0.04-0.25,0.04-0.47,0-0.73C109.17,15.11,99.49,15.11,89.81,15.11z"/>
	</g>
	<g>
		<path d="M149.56,15.12c-0.03,0.25-0.04,0.48,0.01,0.72c9.71,0,19.39,0,29.07,0c0.04-0.25,0.03-0.47,0.01-0.72
			C168.94,15.12,159.25,15.12,149.56,15.12z"/>
	</g>
	<g>
		<path d="M176.73,12.53c-0.19-0.1-0.35-0.09-0.53,0.01c-0.53,0.29-1.07,0.56-1.61,0.86c-0.23,0.13-0.44,0.13-0.68,0
			c-0.52-0.29-1.05-0.56-1.57-0.84c-0.21-0.11-0.39-0.12-0.61,0c-0.53,0.3-1.08,0.56-1.61,0.86c-0.23,0.13-0.42,0.12-0.64,0
			c-0.52-0.29-1.05-0.55-1.57-0.84c-0.22-0.13-0.42-0.13-0.64-0.01c-0.52,0.29-1.05,0.55-1.57,0.84c-0.24,0.13-0.44,0.13-0.68,0
			c-0.51-0.28-1.03-0.54-1.54-0.82c-0.25-0.14-0.46-0.13-0.71,0.01c-0.49,0.28-1.01,0.52-1.5,0.8c-0.25,0.14-0.46,0.15-0.71,0
			c-0.6-0.34-1.22-0.64-1.84-0.97c-0.63,0.28-1.24,0.61-1.85,0.96c0.01,0.18-0.1,0.36,0.08,0.53c0.58-0.31,1.17-0.61,1.75-0.92
			c0.66,0.35,1.32,0.69,1.98,1.04c0.18,0.1,0.36,0.09,0.54-0.01c0.65-0.35,1.3-0.7,1.93-1.04c0.68,0.36,1.32,0.69,1.97,1.04
			c0.17,0.09,0.35,0.12,0.5,0.03c0.64-0.4,1.34-0.69,1.98-1.07c0.65,0.34,1.28,0.67,1.91,1.01c0.19,0.1,0.38,0.14,0.58,0.03
			c0.65-0.35,1.31-0.7,1.95-1.05c0.66,0.34,1.31,0.67,1.95,1.02c0.21,0.11,0.39,0.11,0.6-0.01c0.63-0.35,1.26-0.68,1.89-1.01
			c0.72,0.37,1.43,0.74,2.16,1.13c0.05-0.22,0.05-0.37,0-0.57C178,13.2,177.36,12.87,176.73,12.53z"/>
	</g>
	<g>
		<path d="M114.2,12.99c0.66,0.34,1.31,0.67,1.95,1.02c0.2,0.11,0.37,0.1,0.57,0c0.64-0.35,1.29-0.68,1.93-1.01
			c0.68,0.36,1.35,0.71,2.02,1.06c0.15,0.08,0.31,0.06,0.46-0.03c0.65-0.35,1.31-0.69,1.97-1.03c0.67,0.35,1.34,0.71,2.01,1.06
			c0.15,0.08,0.31,0.06,0.46-0.02c0.65-0.35,1.31-0.69,1.98-1.03c0.63,0.33,1.27,0.66,1.9,1c0.23,0.12,0.42,0.12,0.65-0.01
			c0.63-0.34,1.27-0.67,1.89-0.99c0.57,0.29,1.12,0.57,1.68,0.86c0.11-0.18,0.12-0.32,0.04-0.53c-0.44-0.24-0.92-0.49-1.39-0.76
			c-0.24-0.14-0.45-0.11-0.68,0.02c-0.5,0.28-1.01,0.52-1.5,0.81c-0.26,0.15-0.47,0.15-0.74,0c-0.62-0.33-1.22-0.7-1.88-0.96
			c-0.62,0.32-1.23,0.63-1.83,0.97c-0.25,0.14-0.47,0.14-0.72,0c-0.6-0.33-1.22-0.64-1.87-0.98c-0.65,0.34-1.27,0.66-1.89,0.99
			c-0.23,0.13-0.44,0.14-0.68,0c-0.48-0.27-0.99-0.51-1.47-0.78c-0.28-0.16-0.52-0.19-0.82-0.01c-0.49,0.29-1,0.53-1.5,0.8
			c-0.23,0.13-0.44,0.12-0.68-0.01c-0.52-0.29-1.05-0.56-1.57-0.85c-0.19-0.11-0.37-0.12-0.57-0.01c-0.5,0.28-1,0.54-1.52,0.82
			c0.02,0.18-0.04,0.35,0.04,0.54C113.06,13.59,113.63,13.29,114.2,12.99z"/>
	</g>
	<g>
		<path d="M134.7,13.9c0.59-0.31,1.18-0.61,1.75-0.91c0.68,0.35,1.34,0.69,1.99,1.04c0.17,0.09,0.33,0.07,0.5-0.01
			c0.66-0.35,1.31-0.69,1.95-1.03c0.69,0.36,1.35,0.72,2.02,1.06c0.14,0.07,0.29,0.06,0.43-0.01c0.67-0.35,1.34-0.7,2-1.05
			c0.65,0.34,1.3,0.68,1.94,1.02c0.18,0.1,0.35,0.1,0.54,0.01c0.66-0.35,1.31-0.68,1.97-1.02c0.64,0.33,1.28,0.65,1.91,0.99
			c0.21,0.12,0.4,0.13,0.61,0.01c0.64-0.34,1.29-0.68,1.93-1.01c0.55,0.28,1.09,0.56,1.64,0.84c0.08-0.2,0.07-0.35,0.03-0.54
			c-0.43-0.23-0.88-0.46-1.33-0.72c-0.24-0.14-0.44-0.13-0.68,0c-0.51,0.29-1.03,0.54-1.54,0.83c-0.24,0.13-0.44,0.14-0.67,0.01
			c-0.51-0.28-1.03-0.54-1.54-0.82c-0.25-0.14-0.46-0.15-0.71,0c-0.49,0.28-1,0.53-1.5,0.81c-0.25,0.14-0.47,0.14-0.72,0
			c-0.51-0.28-1.03-0.53-1.53-0.82c-0.24-0.13-0.44-0.14-0.68-0.01c-0.51,0.29-1.03,0.54-1.54,0.82c-0.25,0.14-0.47,0.13-0.72,0
			c-0.6-0.33-1.22-0.64-1.86-0.98c-0.65,0.34-1.28,0.65-1.89,0.99c-0.24,0.13-0.43,0.14-0.67,0c-0.61-0.34-1.24-0.65-1.86-0.98
			c-0.65,0.27-1.24,0.62-1.84,0.95C134.65,13.56,134.58,13.73,134.7,13.9z"/>
	</g>
	<g>
		<path d="M130.58,11.54c-0.18-0.37-0.51-0.57-0.77-0.91c-0.34,0.26-0.59,0.53-0.85,0.85c0.18,0.41,0.51,0.66,0.84,0.95
			C130.08,12.11,130.37,11.87,130.58,11.54z"/>
	</g>
	<g>
		<path d="M135.02,11.53c-0.28-0.33-0.53-0.62-0.81-0.94c-0.26,0.38-0.67,0.56-0.8,1c0.27,0.29,0.51,0.54,0.8,0.85
			C134.53,12.12,134.85,11.88,135.02,11.53z"/>
	</g>
	<g>
		<path d="M112.8,11.55c-0.17-0.4-0.54-0.59-0.78-0.92c-0.35,0.26-0.6,0.57-0.84,0.86c0.28,0.33,0.53,0.61,0.78,0.91
			C112.28,12.15,112.53,11.86,112.8,11.55z"/>
	</g>
	<g>
		<path d="M139.44,11.54c-0.17-0.22-0.27-0.4-0.4-0.53c-0.13-0.13-0.23-0.32-0.46-0.34c-0.19,0.34-0.6,0.49-0.71,0.9
			c0.27,0.29,0.51,0.55,0.78,0.84C138.97,12.12,139.34,11.9,139.44,11.54z"/>
	</g>
	<g>
		<path d="M151.99,12.35c0.31-0.3,0.58-0.55,0.87-0.83c-0.28-0.33-0.52-0.63-0.85-0.88c-0.28,0.31-0.64,0.53-0.81,0.98
			C151.54,11.84,151.69,12.25,151.99,12.35z"/>
	</g>
	<g>
		<path d="M117.26,11.58c-0.24-0.39-0.55-0.66-0.87-0.95c-0.28,0.32-0.58,0.56-0.78,0.89c0.28,0.27,0.54,0.53,0.85,0.84
			C116.75,12.19,116.96,11.87,117.26,11.58z"/>
	</g>
	<g>
		<path d="M147.59,12.4c0.3-0.3,0.59-0.54,0.79-0.91c-0.27-0.29-0.49-0.6-0.82-0.83c-0.29,0.29-0.58,0.54-0.83,0.91
			C147.03,11.85,147.24,12.17,147.59,12.4z"/>
	</g>
	<g>
		<path d="M156.48,12.39c0.31-0.27,0.6-0.53,0.81-0.9c-0.3-0.32-0.52-0.63-0.87-0.84c-0.24,0.31-0.57,0.52-0.76,0.89
			C155.92,11.86,156.15,12.16,156.48,12.39z"/>
	</g>
	<g>
		<path d="M95.02,11.54c-0.29-0.32-0.55-0.6-0.83-0.9c-0.32,0.26-0.6,0.54-0.82,0.87c0.29,0.29,0.54,0.55,0.84,0.85
			C94.51,12.15,94.76,11.85,95.02,11.54z"/>
	</g>
	<g>
		<path d="M126.15,11.5c-0.29-0.29-0.52-0.59-0.84-0.84c-0.27,0.3-0.6,0.52-0.73,0.79c0.3,0.37,0.53,0.65,0.77,0.95
			C125.63,12.11,125.93,11.86,126.15,11.5z"/>
	</g>
	<g>
		<path d="M168.97,11.59c0.33,0.24,0.49,0.61,0.89,0.8c0.24-0.31,0.62-0.49,0.71-0.82c-0.27-0.35-0.49-0.63-0.73-0.95
			C169.52,10.95,169.2,11.19,168.97,11.59z"/>
	</g>
	<g>
		<path d="M121.7,11.49c-0.31-0.28-0.52-0.61-0.86-0.84c-0.26,0.29-0.51,0.57-0.76,0.85c0.22,0.37,0.52,0.6,0.77,0.91
			C121.17,12.14,121.48,11.88,121.7,11.49z"/>
	</g>
	<g>
		<path d="M143.93,11.5c-0.25-0.32-0.52-0.59-0.77-0.82c-0.29,0.29-0.55,0.56-0.82,0.84c0.27,0.28,0.54,0.55,0.84,0.86
			C143.38,12.1,143.71,11.91,143.93,11.5z"/>
	</g>
	<g>
		<path d="M98.58,12.39c0.37-0.19,0.56-0.54,0.88-0.81c-0.24-0.38-0.55-0.66-0.82-0.89c-0.26,0.26-0.49,0.49-0.79,0.79
			C97.96,11.87,98.35,12.06,98.58,12.39z"/>
	</g>
	<g>
		<path d="M160.96,10.7c-0.3,0.28-0.57,0.52-0.89,0.81c0.31,0.32,0.54,0.63,0.85,0.86c0.32-0.21,0.53-0.52,0.83-0.83
			C161.49,11.2,161.21,10.92,160.96,10.7z"/>
	</g>
	<g>
		<path d="M108.33,11.51c-0.2-0.36-0.53-0.54-0.75-0.88c-0.33,0.24-0.57,0.54-0.85,0.84c0.19,0.41,0.49,0.69,0.85,0.94
			C107.82,12.06,108.15,11.87,108.33,11.51z"/>
	</g>
	<g>
		<path d="M164.53,11.58c0.34,0.25,0.51,0.63,0.89,0.81c0.22-0.33,0.62-0.51,0.73-0.95c-0.26-0.27-0.5-0.51-0.77-0.79
			C165.06,10.93,164.77,11.21,164.53,11.58z"/>
	</g>
	<g>
		<path d="M174.22,10.66c-0.26,0.32-0.57,0.54-0.8,0.89c0.3,0.28,0.53,0.59,0.84,0.82c0.31-0.22,0.54-0.5,0.85-0.87
			C174.79,11.22,174.6,10.85,174.22,10.66z"/>
	</g>
	<g>
		<path d="M103.88,11.55c-0.28-0.31-0.52-0.59-0.82-0.92c-0.25,0.34-0.61,0.53-0.78,0.94c0.28,0.28,0.53,0.54,0.81,0.82
			C103.38,12.12,103.66,11.85,103.88,11.55z"/>
	</g>
	<g>
		<path d="M148.75,0.72c0.1-0.25,0.08-0.46,0.03-0.7c-9.73,0-19.42,0-29.15,0c0.07,0.27-0.02,0.5,0.1,0.7
			C129.41,0.72,139.08,0.72,148.75,0.72z"/>
	</g>
	<g>
		<path d="M118.86,0c-9.71,0-19.39,0-29.08,0c0,0.25,0,0.47,0,0.72c9.71,0,19.41,0,29.11,0C118.89,0.45,118.95,0.22,118.86,0z"/>
	</g>
	<g>
		<path d="M178.65,0.72c0-0.25,0-0.47,0-0.72c-9.73,0-19.4,0-29.1,0c-0.01,0.26-0.05,0.5,0.02,0.72
			C159.28,0.72,168.96,0.72,178.65,0.72z"/>
	</g>
	<g>
		<path d="M178.6,1.73c-0.72,0.37-1.42,0.73-2.12,1.09c-0.76-0.39-1.5-0.77-2.23-1.15c-0.6,0.32-1.19,0.62-1.76,0.94
			c-0.26,0.14-0.49,0.22-0.79,0.04c-0.52-0.31-1.07-0.56-1.6-0.85c-0.2-0.11-0.38-0.11-0.56-0.01c-0.14,0.08-0.27,0.17-0.42,0.24
			c-0.52,0.24-1,0.58-1.56,0.77c-0.63-0.32-1.26-0.63-1.86-0.97c-0.24-0.14-0.43-0.14-0.66-0.01c-0.61,0.34-1.23,0.65-1.9,1
			c-0.65-0.34-1.29-0.66-1.91-1c-0.23-0.13-0.4-0.13-0.63-0.01c-0.64,0.34-1.26,0.72-1.94,0.99c-0.59-0.3-1.16-0.6-1.76-0.9
			c-0.08,0.22-0.04,0.38,0.02,0.57c0.47,0.25,0.96,0.49,1.44,0.77c0.23,0.13,0.41,0.14,0.63,0.02c0.64-0.35,1.28-0.68,1.92-1.02
			c0.64,0.34,1.27,0.65,1.88,1c0.24,0.14,0.43,0.14,0.67,0c0.62-0.35,1.26-0.67,1.9-1c0.65,0.34,1.3,0.67,1.93,1.03
			c0.2,0.12,0.37,0.11,0.56,0.01c0.64-0.35,1.28-0.68,1.94-1.03c0.65,0.34,1.3,0.66,1.93,1.02c0.22,0.13,0.39,0.12,0.6,0.01
			c0.64-0.35,1.28-0.68,1.92-1.02c0.77,0.4,1.52,0.79,2.25,1.16c0.75-0.4,1.45-0.77,2.14-1.14C178.66,2.08,178.7,1.92,178.6,1.73z"
			/>
	</g>
	<g>
		<path d="M109.89,3.36c0.53-0.28,1.06-0.58,1.59-0.87c-0.02-0.18,0.05-0.33-0.07-0.48c-0.58,0.19-1.07,0.61-1.65,0.79
			c-0.66-0.27-1.26-0.64-1.88-0.96c-0.24-0.13-0.42-0.14-0.66-0.01c-0.63,0.35-1.26,0.72-1.94,0.98c-0.63-0.33-1.25-0.64-1.86-0.98
			c-0.24-0.13-0.42-0.13-0.66,0.01c-0.61,0.35-1.23,0.65-1.89,0.99c-0.65-0.34-1.28-0.67-1.91-1.01c-0.22-0.12-0.4-0.13-0.63,0
			c-0.51,0.3-1.05,0.54-1.57,0.83c-0.25,0.14-0.46,0.15-0.71,0C95.53,2.36,95,2.1,94.49,1.81c-0.19-0.11-0.37-0.13-0.56-0.02
			C93.57,2,93.18,2.17,92.84,2.41c-0.62,0.42-1.19,0.4-1.8-0.04c-0.37-0.26-0.78-0.46-1.21-0.61c-0.03,0.08-0.04,0.14-0.05,0.21
			c-0.01-0.08-0.02-0.15-0.07-0.23C89,2.1,88.3,2.46,87.6,2.82c-0.76-0.39-1.5-0.77-2.23-1.15C84.76,2,84.18,2.3,83.6,2.61
			c-0.26,0.14-0.49,0.22-0.79,0.04c-0.52-0.31-1.07-0.56-1.6-0.85c-0.2-0.11-0.38-0.11-0.56-0.01c-0.14,0.08-0.27,0.17-0.42,0.24
			c-0.52,0.24-1,0.58-1.56,0.77c-0.63-0.32-1.26-0.63-1.86-0.97c-0.24-0.14-0.43-0.14-0.66-0.01c-0.61,0.34-1.23,0.65-1.9,1
			c-0.65-0.34-1.29-0.66-1.91-1c-0.23-0.13-0.4-0.13-0.63-0.01c-0.64,0.34-1.26,0.72-1.94,0.99c-0.59-0.3-1.16-0.6-1.76-0.9
			c-0.08,0.22-0.04,0.38,0.02,0.57c0.47,0.25,0.96,0.49,1.44,0.77c0.23,0.13,0.41,0.14,0.63,0.02c0.64-0.35,1.28-0.68,1.93-1.02
			c0.64,0.34,1.27,0.65,1.88,1c0.24,0.14,0.43,0.14,0.67,0c0.62-0.35,1.26-0.67,1.9-1c0.65,0.34,1.3,0.67,1.93,1.03
			c0.21,0.12,0.37,0.11,0.56,0.01c0.64-0.35,1.28-0.68,1.94-1.03c0.65,0.34,1.3,0.66,1.93,1.02c0.22,0.13,0.39,0.12,0.6,0.01
			c0.64-0.35,1.28-0.68,1.92-1.02c0.77,0.4,1.52,0.79,2.25,1.16c0.75-0.4,1.45-0.77,2.14-1.14c0.01-0.07,0.02-0.13,0.02-0.19
			c0.01,0.07,0.02,0.14,0.05,0.22c0.59,0.31,1.21,0.61,1.8,0.96c0.25,0.14,0.44,0.13,0.67,0c0.62-0.35,1.26-0.67,1.88-1
			c0.65,0.35,1.29,0.67,1.91,1.02c0.23,0.13,0.4,0.12,0.63-0.01c0.63-0.36,1.28-0.68,1.91-1c0.67,0.35,1.3,0.68,1.93,1.03
			c0.21,0.12,0.38,0.11,0.6-0.01c0.63-0.36,1.28-0.68,1.91-1.01c0.65,0.34,1.28,0.65,1.89,1c0.28,0.16,0.48,0.12,0.74-0.03
			c0.6-0.35,1.23-0.65,1.83-0.97c0.67,0.36,1.3,0.69,1.93,1.03C109.6,3.35,109.74,3.44,109.89,3.36z"/>
	</g>
	<g>
		<path d="M132.24,3.31c0.41-0.23,0.83-0.45,1.25-0.66c0.29-0.14,0.35-0.34,0.23-0.66c-0.31,0.07-0.57,0.21-0.81,0.39
			c-0.6,0.45-1.18,0.46-1.8,0.02c-0.41-0.29-0.86-0.49-1.32-0.73c-0.76,0.36-1.47,0.82-2.27,1.16c-0.63-0.34-1.27-0.66-1.89-1
			c-0.22-0.13-0.4-0.12-0.63,0.01c-0.63,0.35-1.26,0.71-1.94,0.99c-0.62-0.32-1.25-0.63-1.86-0.98c-0.24-0.13-0.42-0.15-0.66-0.01
			c-0.62,0.35-1.25,0.67-1.9,1c-0.76-0.39-1.5-0.78-2.23-1.17c-0.57,0.3-1.11,0.56-1.63,0.88c-0.42,0.25-0.78,0.27-1.19-0.01
			c-0.36-0.24-0.76-0.41-1.15-0.62c-0.09,0.22-0.05,0.38-0.02,0.58c0.47,0.25,0.97,0.49,1.45,0.77c0.24,0.14,0.43,0.12,0.67-0.02
			c0.62-0.35,1.25-0.67,1.87-1c0.66,0.35,1.3,0.68,1.92,1.02c0.21,0.12,0.38,0.12,0.6,0c0.63-0.36,1.28-0.68,1.92-1.03
			c0.6,0.32,1.2,0.61,1.76,0.95c0.35,0.21,0.62,0.18,0.96-0.02c0.58-0.34,1.18-0.63,1.74-0.92c0.68,0.36,1.3,0.68,1.91,1.02
			c0.23,0.13,0.41,0.11,0.64-0.01c0.62-0.35,1.26-0.67,1.9-1.01c0.65,0.35,1.29,0.68,1.93,1.03C131.89,3.38,132.05,3.42,132.24,3.31
			z"/>
	</g>
	<g>
		<path d="M147.28,1.81c-0.12,0.1-0.26,0.14-0.39,0.2c-0.53,0.26-1.02,0.6-1.58,0.8c-0.63-0.33-1.25-0.64-1.86-0.98
			c-0.24-0.13-0.42-0.14-0.66,0c-0.62,0.35-1.25,0.66-1.89,1c-0.77-0.4-1.51-0.79-2.24-1.16c-0.76,0.39-1.46,0.82-2.21,1.14
			c-0.63-0.23-1.16-0.63-1.77-0.88c-0.15,0.22-0.07,0.4,0.01,0.57c0.47,0.25,0.95,0.47,1.4,0.74c0.25,0.15,0.45,0.15,0.7,0.01
			c0.62-0.35,1.26-0.67,1.88-0.99c0.65,0.34,1.27,0.65,1.88,1c0.24,0.14,0.43,0.15,0.67,0.01c0.62-0.35,1.26-0.67,1.9-1.01
			c0.63,0.33,1.26,0.64,1.86,0.99c0.25,0.14,0.45,0.16,0.7,0.01c0.62-0.35,1.26-0.67,1.9-1c0.64,0.35,1.27,0.68,1.9,1.03
			c0.21,0.12,0.39,0.12,0.6,0.01c0.64-0.35,1.28-0.68,1.94-1.03c0.64,0.34,1.27,0.67,1.89,1.01c0.15,0.08,0.29,0.18,0.45,0.1
			c0.52-0.27,1.04-0.56,1.54-0.83c0.03-0.2,0.05-0.35-0.03-0.56c-0.37,0.19-0.74,0.37-1.09,0.58c-0.39,0.24-0.73,0.24-1.12,0
			c-0.53-0.32-1.08-0.59-1.65-0.9c-0.56,0.3-1.13,0.59-1.69,0.91c-0.34,0.2-0.65,0.26-1.01,0.04c-0.47-0.29-0.97-0.52-1.44-0.79
			C147.67,1.7,147.47,1.66,147.28,1.81z"/>
	</g>
	<g>
		<path d="M168.98,4.28c0.26,0.33,0.52,0.6,0.82,0.89c0.33-0.26,0.61-0.54,0.8-0.81c-0.26-0.32-0.5-0.61-0.78-0.95
			C169.49,3.69,169.23,3.97,168.98,4.28z"/>
	</g>
	<g>
		<path d="M173.43,4.31c0.26,0.3,0.5,0.58,0.84,0.86c0.29-0.28,0.59-0.54,0.73-0.76c-0.28-0.34-0.53-0.65-0.8-0.98
			C173.95,3.72,173.65,3.96,173.43,4.31z"/>
	</g>
	<g>
		<path d="M93.38,4.33c0.25,0.29,0.5,0.61,0.76,0.8c0.32-0.29,0.59-0.54,0.85-0.78c-0.3-0.33-0.56-0.61-0.81-0.89
			C93.92,3.74,93.66,4.03,93.38,4.33z"/>
	</g>
	<g>
		<path d="M155.64,4.27c0.25,0.35,0.53,0.61,0.8,0.88c0.38-0.22,0.6-0.56,0.79-0.77c-0.27-0.32-0.53-0.61-0.8-0.93
			C156.15,3.69,155.89,3.97,155.64,4.27z"/>
	</g>
	<g>
		<path d="M97.82,4.31c0.24,0.29,0.51,0.6,0.76,0.8c0.3-0.3,0.58-0.56,0.88-0.86c-0.28-0.28-0.5-0.6-0.8-0.81
			C98.36,3.75,98.1,4.03,97.82,4.31z"/>
	</g>
	<g>
		<path d="M106.71,4.29c0.25,0.34,0.5,0.63,0.74,0.8c0.3-0.29,0.58-0.56,0.88-0.85c-0.26-0.26-0.51-0.52-0.81-0.82
			C107.23,3.69,106.96,3.96,106.71,4.29z"/>
	</g>
	<g>
		<path d="M128.96,4.28c0.25,0.36,0.52,0.64,0.83,0.89c0.28-0.31,0.58-0.56,0.81-0.9c-0.27-0.28-0.52-0.55-0.82-0.86
			C129.47,3.69,129.21,3.96,128.96,4.28z"/>
	</g>
	<g>
		<path d="M160.08,4.27c0.27,0.33,0.53,0.62,0.83,0.88c0.33-0.26,0.58-0.55,0.84-0.88c-0.29-0.3-0.53-0.62-0.82-0.83
			C160.63,3.74,160.37,3.99,160.08,4.27z"/>
	</g>
	<g>
		<path d="M138.69,5.13c0.29-0.25,0.57-0.5,0.76-0.83c-0.27-0.29-0.53-0.57-0.78-0.83c-0.27,0.27-0.53,0.54-0.79,0.8
			C138.14,4.55,138.41,4.84,138.69,5.13z"/>
	</g>
	<g>
		<path d="M112,5.17c0.27-0.3,0.58-0.54,0.81-0.9c-0.26-0.32-0.52-0.59-0.84-0.88c-0.26,0.33-0.5,0.63-0.77,0.96
			C111.41,4.61,111.67,4.91,112,5.17z"/>
	</g>
	<g>
		<path d="M134.22,5.17c0.29-0.29,0.6-0.53,0.81-0.9c-0.28-0.28-0.55-0.54-0.85-0.83c-0.25,0.26-0.54,0.52-0.77,0.85
			C133.66,4.63,133.94,4.9,134.22,5.17z"/>
	</g>
	<g>
		<path d="M115.6,4.31c0.27,0.29,0.53,0.59,0.85,0.85c0.29-0.3,0.58-0.54,0.81-0.89c-0.28-0.3-0.51-0.63-0.87-0.84
			C116.11,3.73,115.86,4,115.6,4.31z"/>
	</g>
	<g>
		<path d="M164.53,4.28c0.26,0.32,0.52,0.61,0.83,0.88c0.31-0.29,0.59-0.57,0.83-0.9c-0.29-0.27-0.52-0.6-0.82-0.82
			C165.08,3.74,164.82,4,164.53,4.28z"/>
	</g>
	<g>
		<path d="M102.3,4.33c0.22,0.28,0.48,0.57,0.74,0.78c0.3-0.3,0.56-0.58,0.86-0.88c-0.26-0.25-0.53-0.5-0.83-0.78
			C102.82,3.74,102.57,4.02,102.3,4.33z"/>
	</g>
	<g>
		<path d="M152.02,5.16c0.31-0.29,0.59-0.57,0.76-0.78c-0.27-0.32-0.52-0.62-0.74-0.87c-0.27,0.26-0.54,0.52-0.82,0.8
			C151.44,4.63,151.71,4.89,152.02,5.16z"/>
	</g>
	<g>
		<path d="M124.53,4.31c0.22,0.3,0.48,0.58,0.8,0.83c0.32-0.27,0.57-0.55,0.83-0.87c-0.28-0.29-0.52-0.6-0.81-0.82
			C125.08,3.74,124.82,4.01,124.53,4.31z"/>
	</g>
	<g>
		<path d="M120.08,4.32c0.23,0.24,0.48,0.52,0.79,0.85c0.32-0.29,0.61-0.56,0.83-0.9c-0.28-0.32-0.52-0.6-0.8-0.83
			C120.6,3.76,120.34,4.03,120.08,4.32z"/>
	</g>
	<g>
		<path d="M146.74,4.28c0.25,0.33,0.51,0.6,0.8,0.86c0.29-0.32,0.55-0.61,0.78-0.87c-0.22-0.25-0.47-0.54-0.76-0.88
			C147.26,3.7,146.99,3.96,146.74,4.28z"/>
	</g>
	<g>
		<path d="M142.29,4.29c0.28,0.31,0.52,0.61,0.83,0.85c0.32-0.26,0.57-0.53,0.82-0.86c-0.27-0.33-0.53-0.6-0.82-0.86
			C142.8,3.7,142.54,3.97,142.29,4.29z"/>
	</g>
	<g>
		<path d="M89.8,5.12c0.28-0.29,0.54-0.51,0.78-0.85C90.33,4,90.12,3.73,89.8,3.5C89.8,4.08,89.8,4.58,89.8,5.12z"/>
	</g>
	<g>
		<path d="M178.63,5.11c0-0.56,0-1.06,0-1.61c-0.32,0.25-0.54,0.49-0.74,0.77C178.09,4.6,178.36,4.81,178.63,5.11z"/>
	</g>
	<g>
		<path d="M178.65,12.29c0-0.54,0-1.01,0-1.51c-0.27,0.25-0.51,0.48-0.76,0.72C178.12,11.81,178.35,12.06,178.65,12.29z"/>
	</g>
	<g>
		<path d="M89.81,10.75c0,0.53,0,1.02,0,1.56c0.29-0.28,0.54-0.5,0.73-0.79C90.29,11.27,90.06,11.02,89.81,10.75z"/>
	</g>
</g>
</svg>
