<?xml version="1.0" encoding="utf-8"?>
<!-- Generator: Adobe Illustrator 24.3.0, SVG Export Plug-In . SVG Version: 6.00 Build 0)  -->
<svg version="1.1" id="Layer_1" xmlns="http://www.w3.org/2000/svg" xmlns:xlink="http://www.w3.org/1999/xlink" x="0px" y="0px"
	 viewBox="0 0 156.1 193" style="enable-background:new 0 0 156.1 193;" xml:space="preserve">
<style type="text/css">
	.st0{fill:#EDAD63;}
	.st1{fill:#FFFFFF;}
</style>
<g>
	<g>
		<path class="st0" d="M78.07,4.25c1.7,0,3.42,0.62,5.35,1.92C97.5,15.6,111.77,24.74,126,33.94c3.02,1.95,5.46,4.21,6.72,7.75
			c5.99,16.77,11.96,33.55,18.21,50.23c2.17,5.79,0.54,8.07-5.14,8.07c-0.16,0-0.32,0-0.48-0.01c-3.13-0.07-38.28-0.13-71.9-0.13
			c-29.22,0-57.29,0.05-62.18,0.18c-0.22,0.01-0.44,0.01-0.65,0.01c-5.47,0-7.63-2.01-5.55-7.72c6.3-17.28,12.67-34.54,18.94-51.83
			c1.2-3.31,3.88-4.99,6.57-6.75C44.5,24.64,58.53,15.67,72.34,6.37C74.4,4.99,76.22,4.25,78.07,4.25 M78.07,0
			c-2.65,0-5.23,0.9-8.11,2.85c-10,6.73-20.31,13.42-30.28,19.88c-3.82,2.48-7.64,4.96-11.46,7.45l-0.21,0.14
			c-2.84,1.85-6.38,4.16-8.03,8.72C16.11,49.7,12.15,60.53,8.31,71c-2.42,6.62-4.85,13.23-7.26,19.86
			c-0.55,1.51-2.22,6.09,0.34,9.75c2.57,3.68,7.56,3.68,9.2,3.68c0.25,0,0.5,0,0.76-0.01c4.18-0.11,26.8-0.18,62.07-0.18
			c33.83,0,68.73,0.06,71.81,0.13c0.19,0,0.38,0.01,0.57,0.01c1.6,0,6.45,0,8.97-3.63c2.58-3.72,0.76-8.59,0.16-10.19
			c-5.95-15.88-11.76-32.14-17.37-47.87l-0.82-2.3c-1.83-5.12-5.46-7.97-8.42-9.89c-2.54-1.64-5.08-3.28-7.63-4.93
			c-11.48-7.41-23.36-15.08-34.89-22.8C83.15,0.86,80.62,0,78.07,0L78.07,0z"/>
	</g>
	<g>
		<g>
			<g>
				<path class="st1" d="M64.8,67.7c-7.14,0.87-13.16-1.72-18.84-5.44c-0.05,3.08-1.25,5.63-3.2,7.84
					c-2.05,2.32-4.58,4.09-7.03,5.93c-1.86,1.4-3.16,3.06-3.76,5.34c-0.6,2.26-1.36,4.47-1.82,6.77c-0.3,1.5,0.01,2.61,1.32,3.45
					c0.74,0.47,1.27,1.11,1.04,2.14c-0.16,0.41-0.54,0.44-0.95,0.43c-1.37-0.01-2.74,0-4.11-0.01c-1.44,0-1.95-0.56-1.76-1.97
					c0.31-2.26,0.62-4.53,1.01-6.78c0.43-2.47,0.86-4.94,1.11-7.45c0.11-1.12,0.57-2.08,1.29-2.94c2.64-3.18,4.35-6.79,5.04-10.87
					c0.2-1.16,0.14-2.35,0.05-3.51c-0.08-1.13-0.17-2.26-0.14-3.63c-0.76,1.43-0.91,2.78-1.15,4.1c-0.3,1.71-0.68,3.39-1.52,4.93
					c-0.67,1.22-1.6,2.14-3,2.48c-0.37,0.09-0.71,0.11-1.04-0.15c-0.16-0.51-0.01-0.98,0.22-1.43c0.35-0.7,0.8-1.34,1.3-1.95
					c1.38-1.68,2.14-3.64,2.11-5.78c-0.07-4.26,1.99-7.45,4.87-10.27c1.34-1.31,2.79-2.48,4.41-3.56c1.05,1.11,2.42,1.27,3.84,1.27
					c6.76,0,13.53-0.01,20.29,0.01c1.61,0,3.06-0.29,4.05-1.76c1.63,0.25,2.94,1.07,4.19,2.01c1.27,0.94,2.23,2.18,3.28,3.34
					c1.26,1.39,2.73,2.51,4.58,2.93c2.67,0.62,5.27-0.73,6.55-3.33c0.79-1.6,1.32-3.31,1.87-5.01c0.71-2.23,1.2-4.52,2.18-6.64
					c-1.19-2.57-1.23-3.27-0.24-4.05c1.16,0.03,2.1,0.74,3.19,1.19c1.1-0.58,2.3-0.56,3.44-0.1c2.32,0.95,4.77,1.28,7.22,1.7
					c1.9,0.33,3.5,1.09,4.09,3.18c0.62,2.2-0.3,3.6-2.57,3.52c-2.41-0.09-4.62,0.6-6.86,1.29c-0.71,0.22-1.04,0.63-1.2,1.32
					c-0.55,2.45-1.11,4.89-2.05,7.23c-1.36,3.4-3.36,6.34-6.21,8.74c1.71,2.7,3.81,4.98,6.51,6.66c1.91,1.18,3.98,1.55,6.21,1.04
					c0.11-0.23-0.22-0.17-0.25-0.35c1.76-4.2,4.02-8.16,6.64-11.91c0.24-0.34,0.48-0.69,0.71-1.04c1.15-1.73,2.65-2.93,4.95-3.11
					c-0.47-0.24-0.83-0.28-1.19-0.32c-0.36-0.04-0.72-0.1-1.07-0.18c-0.92-0.21-1.23-0.91-0.6-1.49c1.29-1.19,2.14-2.63,2.57-4.42
					c2.47-0.23,4.86-0.84,7.42-1.47c-0.17,1.38-0.03,2.63,0.5,3.69c-0.07,0.57-0.47,0.57-0.79,0.71c-0.1,0.77-0.05,1.63-0.83,2.14
					c-0.7,0.13-1.34-0.03-2-0.34c-0.15,0.47-0.18,0.9,0.04,1.26c1.55,2.58,1.86,5.44,2.04,8.36c0.11,1.71,0.82,3.23,1.75,4.64
					c0.86,1.3,1.74,2.59,2.59,3.85c-0.11,0.33-0.46,0.24-0.59,0.47c0.4,0.42,0.87,0.79,1.13,1.33c0.52,1.06,0.1,2.12-0.98,2.4
					c-0.79,0.21-1.44-0.14-1.72-0.91c-0.15-0.42-0.28-0.84-0.41-1.21c-0.39-0.18-0.62,0.17-0.95,0.13c-0.24-0.1-0.22-0.41-0.51-0.67
					c0.99,6.21,2.19,12.27,3.28,18.26c-0.42,0.47-0.95,0.28-1.35,0.55c-0.05,0.57,0.39,0.75,0.79,0.9c0.83,0.33,1.68,0.6,2.5,0.94
					c0.97,0.4,1.12,0.98,0.51,1.96h-6.9c-0.75-0.91-0.83-2.1-1.17-3.33c-4.15,0.62-8.3,0.61-12.33-0.79
					c-0.26,0.93-0.03,1.56,0.7,2.06c0.57,0.38,1.26,0.61,1.58,1.28c-0.02,0.6-0.41,0.77-0.88,0.84c-0.93,0.14-1.83-0.02-2.71-0.33
					c-1.34-0.47-2.61-1.08-3.79-1.99c0.33-1.07,0.9-1.96,1.33-2.93c-0.05-0.33-0.49-0.23-0.62-0.57c1.46-2.45,2.85-4.99,3.79-7.74
					c1.71-4.98,3.35-9.98,5.03-14.97c0.1-0.31,0.21-0.62,0.25-0.97c-1.91,2.31-3.41,4.9-4.99,7.49c-0.14,0.16-0.33-0.08-0.59-0.01
					c-0.22,1.57-0.94,2.63-2.72,1.97c-0.87-0.32-0.73-1.29-0.85-2.12c-6.48,0.2-10.31-3.97-13.89-8.61
					c-3.07,1.79-6.37,2.51-9.96,2.39c0.26,0.92,0.49,1.77,0.74,2.62c0.96,3.31,1.79,6.67,3.44,9.74c0.8,1.48,0.81,3.23,1.41,4.8
					c0.68,1.77,1.3,3.56,1.93,5.34c0.49,1.39,1.32,2.42,2.8,2.86c1.14,0.35,2.19,1.44,1.95,2.58c-0.22,0.33-0.56,0.4-0.94,0.4
					c-1.54,0-3.07,0-4.61,0c-0.91,0-1.22-0.67-1.47-1.36c-1.17-3.22-2.39-6.43-3.88-9.51c-2.29-4.74-4.74-9.39-7.67-13.91
					c-1.74,2.66-3.51,5.2-4.69,8.05c-1.15,2.78-2.68,5.4-3.42,8.34c-0.23,0.92-0.53,1.82-0.75,2.74c-0.46,1.91-0.42,2.01,1.22,3.08
					c0.82,0.54,1.32,1.19,1.09,2.23c-0.01,0.05-0.05,0.1-0.08,0.15c-0.28,0.25-0.63,0.2-0.96,0.21c-1.23,0.01-2.46,0.01-3.69,0
					c-1.65-0.02-2.45-1.05-2.25-2.68c0.41-3.38,1.69-6.52,2.48-9.79c1.06-4.42,2.48-8.73,3.81-13.07
					C64.62,68.4,64.67,68.16,64.8,67.7"/>
			</g>
			<g>
				<path class="st1" d="M54.13,45.39c-3.61,0-7.21,0-10.82,0c-1.84,0-2.69-0.8-2.71-2.63c-0.04-2.96-0.03-5.93-0.01-8.89
					c0.01-1.36,1.01-2.24,2.69-2.43c0.28-0.03,0.56-0.03,0.84-0.03c6.76,0,13.53-0.01,20.3,0c2.31,0,3.3,0.99,3.31,3.31
					c0.01,2.68,0.01,5.37,0,8.05c0,1.77-0.84,2.6-2.62,2.6c-3.66,0.01-7.32,0-10.99,0V45.39z"/>
			</g>
			<g>
				<path class="st1" d="M47.08,64.51c1.42,0.78,2.8,1.53,4.24,2.33c-0.65,1.78-1.29,3.49-1.91,5.22c-0.87,2.41-1.81,4.79-2.49,7.27
					c-0.24,0.89-0.14,1.69,0.29,2.5c1.29,2.44,2.59,4.87,3.81,7.35c0.56,1.13,1.32,1.95,2.47,2.48c1.24,0.57,1.48,1.07,1.32,2.5
					c-1.78,0.13-3.59,0.03-5.35,0.03c-0.54-0.48-0.76-1.06-1.05-1.6c-1.66-3.12-3.07-6.38-5.04-9.34c-0.48-0.72-0.98-1.43-1.55-2.08
					c-0.77-0.86-0.72-1.84-0.54-2.84c0.3-1.62,0.44-3.26,0.63-4.9c0.05-0.37,0.12-0.69,0.42-0.97c2.22-2.09,3.82-4.57,4.59-7.55
					C46.94,64.8,47,64.7,47.08,64.51"/>
			</g>
			<g>
				<path class="st1" d="M121.78,44.39c-2.34,0.97-4.76,1.56-7.23,1.8c-0.76-1.38,0.28-3.41,1.84-3.86c0.69-0.2,1.37-0.18,2.07-0.02
					c0.93,0.22,1.83,0.48,2.62,1.05C121.4,43.59,121.66,43.88,121.78,44.39"/>
			</g>
		</g>
	</g>
	<g>
		<path class="st0" d="M37.66,188.81h0.26h5.42V193H25.23c-1.63,0-3.25-0.18-4.83-0.55c-1.51-0.36-2.97-0.87-4.33-1.55
			c-1.33-0.66-2.55-1.47-3.65-2.41c-1.09-0.93-2.03-1.97-2.82-3.12c-0.79-1.15-1.39-2.39-1.81-3.68c-0.43-1.33-0.64-2.7-0.64-4.09
			c0-1.39,0.21-2.75,0.64-4.08c0.42-1.29,1.02-2.53,1.81-3.68c0.78-1.14,1.73-2.18,2.82-3.11c1.1-0.94,2.33-1.74,3.66-2.4
			c1.36-0.68,2.81-1.2,4.32-1.55c1.58-0.37,3.2-0.54,4.83-0.54c1.62,0,3.23,0.17,4.81,0.54c1.51,0.36,2.97,0.87,4.33,1.55
			c1.33,0.67,2.57,1.47,3.68,2.4c1.09,0.92,2.05,1.96,2.83,3.11c0.79,1.15,1.39,2.39,1.81,3.68c0.43,1.33,0.64,2.7,0.64,4.08
			c0,1.39-0.21,2.76-0.64,4.09c-0.42,1.29-1.03,2.53-1.81,3.68c-0.41,0.61-0.88,1.18-1.39,1.73c-0.45,0.49-0.94,0.95-1.45,1.39
			C37.92,188.6,37.79,188.7,37.66,188.81z M33.94,185.59c1.12-1.03,1.99-2.22,2.6-3.54c0.66-1.41,0.96-2.9,0.96-4.43
			c0-1.53-0.3-3.02-0.96-4.43c-0.62-1.32-1.48-2.52-2.6-3.54c-1.12-1.02-2.43-1.8-3.9-2.36c-1.53-0.58-3.15-0.86-4.82-0.86
			c-1.65,0-3.25,0.28-4.77,0.86c-1.47,0.56-2.78,1.34-3.9,2.36c-1.13,1.03-2.01,2.22-2.63,3.55c-0.66,1.41-0.96,2.9-0.96,4.43
			c0,1.53,0.3,3.02,0.96,4.43c0.62,1.33,1.49,2.52,2.63,3.55c1.12,1.01,2.43,1.8,3.9,2.36c1.52,0.58,3.12,0.86,4.77,0.86
			c1.66,0,3.29-0.27,4.82-0.86C31.51,187.39,32.82,186.61,33.94,185.59z"/>
		<path class="st0" d="M47.97,176.63c0.66-1.41,1.6-2.64,2.82-3.71c1.25-1.1,2.72-1.92,4.35-2.51c1.79-0.65,3.69-0.93,5.62-0.93
			c1.93,0,3.84,0.28,5.63,0.93c0.86,0.31,1.69,0.69,2.46,1.14c0.68,0.4,1.32,0.85,1.91,1.37c1.22,1.07,2.16,2.31,2.83,3.71
			c0.69,1.44,1,2.97,1,4.53v10.92h-5.74v-1.3c-0.77,0.45-1.6,0.82-2.47,1.13c-1.81,0.65-3.73,0.92-5.68,0.92
			c-1.91,0-3.8-0.28-5.57-0.93c-1.62-0.59-3.09-1.41-4.34-2.5c-1.22-1.06-2.15-2.3-2.81-3.7c-0.69-1.45-1.01-2.97-1.01-4.54
			C46.97,179.6,47.28,178.07,47.97,176.63z M68.32,184.27c0.26-0.57,0.43-1.17,0.52-1.77c0.07-0.44,0.11-0.89,0.11-1.34
			c0-0.44-0.03-0.88-0.11-1.32c-0.1-0.6-0.27-1.19-0.53-1.76c-0.4-0.9-0.97-1.72-1.73-2.42c-0.74-0.69-1.62-1.21-2.61-1.58
			c-1.02-0.38-2.1-0.55-3.2-0.55c-1.1,0-2.16,0.18-3.18,0.55c-0.99,0.37-1.85,0.9-2.6,1.58c-0.76,0.7-1.34,1.51-1.74,2.42
			c-0.44,0.98-0.62,2.02-0.62,3.08c0,1.06,0.18,2.11,0.62,3.1c0.41,0.91,0.99,1.73,1.75,2.43c0.75,0.68,1.63,1.22,2.62,1.59
			c1.01,0.38,2.08,0.55,3.18,0.55c1.1,0,2.18-0.17,3.2-0.55c0.99-0.37,1.86-0.9,2.6-1.58C67.36,186,67.92,185.17,68.32,184.27z"/>
		<path class="st0" d="M81.09,192.08v-16.2h-2.84v-3.97h2.84v-1.42c0-3.68,2.99-6.87,7.05-7.54c0.52-0.09,1.05-0.13,1.57-0.13h2.79
			v3.97h-1.57c-2.26,0-4.1,1.64-4.1,3.65v1.47h5.67v3.97h-5.67v16.2H81.09z"/>
		<path class="st0" d="M102.59,163.8c0,1.58-1.44,2.87-3.22,2.87c-1.78,0-3.22-1.28-3.22-2.87c0-1.58,1.44-2.87,3.22-2.87
			C101.14,160.94,102.59,162.22,102.59,163.8z M102.23,192.08h-5.74v-21.81h5.74V192.08z"/>
		<path class="st0" d="M112.01,162.83v21.64c0,2.01,1.84,3.65,4.1,3.65h1.57v3.97h-2.79c-0.53,0-1.06-0.04-1.57-0.13
			c-4.06-0.67-7.05-3.86-7.05-7.54v-21.59H112.01z"/>
		<path class="st0" d="M122.34,176.63c0.66-1.41,1.6-2.64,2.82-3.71c1.25-1.1,2.72-1.92,4.35-2.51c1.79-0.65,3.69-0.93,5.62-0.93
			c1.93,0,3.84,0.28,5.63,0.93c0.86,0.31,1.69,0.69,2.46,1.14c0.68,0.4,1.32,0.85,1.91,1.37c1.22,1.07,2.16,2.31,2.83,3.71
			c0.69,1.44,1,2.97,1,4.53v10.92h-5.74v-1.3c-0.77,0.45-1.6,0.82-2.47,1.13c-1.81,0.65-3.73,0.92-5.68,0.92
			c-1.91,0-3.8-0.28-5.57-0.93c-1.62-0.59-3.09-1.41-4.34-2.5c-1.22-1.06-2.15-2.3-2.81-3.7c-0.69-1.45-1.01-2.97-1.01-4.54
			C121.34,179.6,121.66,178.07,122.34,176.63z M142.7,184.27c0.26-0.57,0.43-1.17,0.52-1.77c0.07-0.44,0.11-0.89,0.11-1.34
			c0-0.44-0.03-0.88-0.11-1.32c-0.1-0.6-0.27-1.19-0.53-1.76c-0.4-0.9-0.97-1.72-1.73-2.42c-0.74-0.69-1.62-1.21-2.61-1.58
			c-1.02-0.38-2.1-0.55-3.2-0.55c-1.1,0-2.16,0.18-3.18,0.55c-0.99,0.37-1.85,0.9-2.6,1.58c-0.76,0.7-1.34,1.51-1.74,2.42
			c-0.44,0.98-0.62,2.02-0.62,3.08c0,1.06,0.18,2.11,0.62,3.1c0.41,0.91,0.99,1.73,1.75,2.43c0.75,0.68,1.63,1.22,2.62,1.59
			c1.01,0.38,2.08,0.55,3.18,0.55c1.1,0,2.18-0.17,3.2-0.55c0.99-0.37,1.86-0.9,2.6-1.58C141.73,186,142.3,185.17,142.7,184.27z"/>
	</g>
	<g>
		<g>
			<path class="st1" d="M34.84,124.06l0.09,23.71h4.22l1.02,5.86H27.84v-23.68h-5.28c-0.96,0-1.93,0.18-2.92,0.53
				c-0.99,0.35-1.88,0.89-2.66,1.62c-0.79,0.73-1.43,1.65-1.92,2.76c-0.49,1.11-0.74,2.44-0.74,3.97c0,1.5,0.23,2.8,0.7,3.93
				c0.46,1.12,1.08,2.05,1.85,2.79c0.77,0.74,1.65,1.29,2.64,1.67c0.99,0.37,2.01,0.56,3.06,0.56h3.71l-0.05,5.86h-1.9
				c-1.27,0-2.57-0.09-3.92-0.26s-2.66-0.47-3.94-0.91c-1.28-0.44-2.49-1.01-3.61-1.73c-1.13-0.72-2.12-1.62-2.99-2.72
				c-0.87-1.1-1.54-2.4-2.04-3.91c-0.49-1.51-0.74-3.26-0.74-5.27c0-2.39,0.51-4.58,1.53-6.57c1.02-1.99,2.36-3.68,4.03-5.09
				c0.74-0.58,1.5-1.06,2.27-1.44c0.77-0.38,1.54-0.69,2.32-0.93c0.9-0.26,1.93-0.44,3.1-0.56c1.17-0.12,2.5-0.18,3.99-0.18H34.84z
				 M18.11,112.81c0.65,0,1.26,0.09,1.83,0.26c0.57,0.17,1.07,0.41,1.51,0.71c0.43,0.3,0.77,0.65,1.02,1.04
				c0.25,0.4,0.37,0.81,0.37,1.23c0,0.45-0.12,0.87-0.37,1.27c-0.25,0.4-0.59,0.74-1.02,1.04c-0.43,0.3-0.94,0.54-1.51,0.72
				c-0.57,0.18-1.18,0.27-1.83,0.27c-0.62,0-1.21-0.09-1.78-0.27c-0.57-0.18-1.07-0.42-1.48-0.72c-0.42-0.3-0.75-0.65-1-1.04
				c-0.25-0.39-0.37-0.82-0.37-1.27c0-0.43,0.12-0.84,0.37-1.23c0.25-0.39,0.58-0.74,1-1.04c0.42-0.3,0.91-0.53,1.48-0.71
				C16.9,112.9,17.49,112.81,18.11,112.81z M28.63,112.81c0.65,0,1.27,0.09,1.85,0.26c0.59,0.17,1.1,0.41,1.53,0.71
				c0.43,0.3,0.77,0.65,1.02,1.04c0.25,0.4,0.37,0.81,0.37,1.23c0,0.45-0.12,0.87-0.37,1.27c-0.25,0.4-0.59,0.74-1.02,1.04
				c-0.43,0.3-0.94,0.54-1.53,0.72c-0.59,0.18-1.2,0.27-1.85,0.27c-0.62,0-1.21-0.09-1.78-0.27c-0.57-0.18-1.07-0.42-1.48-0.72
				c-0.42-0.3-0.75-0.65-1-1.04c-0.25-0.39-0.37-0.82-0.37-1.27c0-0.43,0.12-0.84,0.37-1.23c0.25-0.39,0.58-0.74,1-1.04
				c0.42-0.3,0.91-0.53,1.48-0.71C27.42,112.9,28.01,112.81,28.63,112.81z"/>
			<path class="st1" d="M51.34,111.95h7.04l-0.09,27.24c0.09,1.45,0.39,2.72,0.88,3.8c0.49,1.08,1.14,1.97,1.92,2.68
				c0.79,0.7,1.68,1.23,2.66,1.59c0.99,0.35,2.01,0.53,3.06,0.53h1.76l1.02,5.86h-1.07c-1.17,0-2.39-0.07-3.64-0.22
				c-1.25-0.15-2.48-0.41-3.68-0.77c-1.2-0.36-2.36-0.85-3.45-1.47c-1.1-0.62-2.08-1.4-2.94-2.34c-0.9,0.94-1.89,1.72-2.99,2.34
				c-1.1,0.62-2.25,1.11-3.45,1.47c-1.2,0.36-2.43,0.62-3.68,0.77c-1.25,0.15-2.46,0.22-3.64,0.22h-0.88l-1.02-5.86h3.66
				c1.05,0,2.07-0.18,3.06-0.53c0.99-0.35,1.88-0.88,2.66-1.59c0.79-0.7,1.43-1.6,1.92-2.68c0.49-1.08,0.79-2.34,0.88-3.8V111.95z"
				/>
			<path class="st1" d="M89.29,124.41c0.71,0.24,1.42,0.53,2.13,0.9c0.71,0.36,1.42,0.82,2.13,1.38c0.83,0.71,1.6,1.52,2.29,2.44
				c0.7,0.92,1.28,1.91,1.76,2.98c0.48,1.07,0.86,2.19,1.14,3.36c0.28,1.17,0.42,2.37,0.42,3.59c0,2.88-0.54,5.27-1.62,7.15
				c-1.08,1.88-2.46,3.38-4.12,4.49c-1.67,1.11-3.52,1.89-5.56,2.32c-2.04,0.44-4.02,0.65-5.93,0.63H69.59l-1.02-5.86h4.4
				c-0.8-1.26-1.43-2.62-1.88-4.09c-0.45-1.46-0.67-3.01-0.67-4.63c0-2.24,0.29-4.2,0.88-5.88c0.59-1.68,1.37-3.11,2.36-4.31
				c0.99-1.2,2.13-2.16,3.43-2.9c1.3-0.74,2.66-1.29,4.08-1.65c1.48-0.32,2.88-0.46,4.19-0.42
				C86.69,123.94,87.99,124.12,89.29,124.41z M81.04,131.21c-0.83,0.64-1.53,1.46-2.09,2.45c-0.56,0.99-0.94,2.06-1.16,3.2
				c-0.22,1.14-0.26,2.31-0.14,3.51c0.12,1.2,0.43,2.31,0.93,3.33c0.49,1.03,1.14,1.86,1.92,2.52c0.79,0.65,1.63,1.11,2.53,1.36
				c0.9,0.26,1.81,0.3,2.76,0.13c0.94-0.17,1.83-0.57,2.66-1.19c0.86-0.64,1.57-1.46,2.11-2.45c0.54-0.99,0.92-2.06,1.14-3.2
				c0.22-1.14,0.25-2.31,0.12-3.51c-0.14-1.2-0.46-2.31-0.95-3.33c-0.53-1.03-1.17-1.86-1.92-2.52c-0.76-0.65-1.58-1.11-2.48-1.36
				c-0.9-0.26-1.82-0.3-2.76-0.14C82.76,130.17,81.87,130.57,81.04,131.21z M84.01,112.81c0.65,0,1.26,0.09,1.83,0.26
				c0.57,0.17,1.08,0.41,1.53,0.71c0.45,0.3,0.8,0.65,1.04,1.04c0.25,0.4,0.37,0.81,0.37,1.23c0,0.45-0.12,0.87-0.37,1.27
				c-0.25,0.4-0.59,0.74-1.04,1.04c-0.45,0.3-0.96,0.54-1.53,0.72c-0.57,0.18-1.18,0.27-1.83,0.27c-0.62,0-1.21-0.09-1.78-0.27
				c-0.57-0.18-1.07-0.42-1.48-0.72c-0.42-0.3-0.75-0.65-1-1.04c-0.25-0.39-0.37-0.82-0.37-1.27c0-0.43,0.12-0.84,0.37-1.23
				c0.25-0.39,0.58-0.74,1-1.04c0.42-0.3,0.91-0.53,1.48-0.71C82.79,112.9,83.39,112.81,84.01,112.81z"/>
			<path class="st1" d="M108.2,138.32c0,1.6,0.24,2.99,0.72,4.17c0.48,1.18,1.12,2.16,1.92,2.95c0.8,0.79,1.71,1.38,2.73,1.76
				c1.02,0.38,2.09,0.58,3.2,0.58h1.67l1.02,5.86h-0.93c-1.27,0-2.57-0.09-3.92-0.26c-1.34-0.17-2.65-0.47-3.92-0.91
				c-1.27-0.44-2.47-1.01-3.61-1.73c-1.14-0.72-2.15-1.62-3.01-2.72c-0.87-1.1-1.54-2.4-2.04-3.91c-0.49-1.51-0.74-3.26-0.74-5.27
				c0-4.51-0.01-8.99-0.02-13.44c-0.01-4.45-0.01-8.93,0.02-13.44h6.95L108.2,138.32z"/>
			<path class="st1" d="M139.15,124.41c0.71,0.24,1.42,0.53,2.13,0.9c0.71,0.36,1.42,0.82,2.13,1.38c0.83,0.71,1.6,1.52,2.29,2.44
				c0.7,0.92,1.28,1.91,1.76,2.98c0.48,1.07,0.86,2.19,1.14,3.36c0.28,1.17,0.42,2.37,0.42,3.59c0,2.88-0.54,5.27-1.62,7.15
				c-1.08,1.88-2.46,3.38-4.12,4.49c-1.67,1.11-3.52,1.89-5.56,2.32c-2.04,0.44-4.02,0.65-5.93,0.63h-12.33l-1.02-5.86h4.4
				c-0.8-1.26-1.43-2.62-1.88-4.09c-0.45-1.46-0.67-3.01-0.67-4.63c0-2.24,0.29-4.2,0.88-5.88c0.59-1.68,1.37-3.11,2.36-4.31
				c0.99-1.2,2.13-2.16,3.43-2.9c1.3-0.74,2.66-1.29,4.08-1.65c1.48-0.32,2.88-0.46,4.19-0.42
				C136.55,123.94,137.85,124.12,139.15,124.41z M129.93,112.81c0.65,0,1.26,0.09,1.83,0.26c0.57,0.17,1.08,0.41,1.53,0.71
				c0.45,0.3,0.8,0.65,1.04,1.04c0.25,0.4,0.37,0.81,0.37,1.23c0,0.45-0.12,0.87-0.37,1.27c-0.25,0.4-0.59,0.74-1.04,1.04
				c-0.45,0.3-0.96,0.54-1.53,0.72c-0.57,0.18-1.18,0.27-1.83,0.27c-0.62,0-1.21-0.09-1.78-0.27c-0.57-0.18-1.07-0.42-1.48-0.72
				c-0.42-0.3-0.75-0.65-1-1.04c-0.25-0.39-0.37-0.82-0.37-1.27c0-0.43,0.12-0.84,0.37-1.23c0.25-0.39,0.58-0.74,1-1.04
				c0.42-0.3,0.91-0.53,1.48-0.71C128.72,112.9,129.31,112.81,129.93,112.81z M130.9,131.21c-0.83,0.64-1.53,1.46-2.09,2.45
				c-0.56,0.99-0.94,2.06-1.16,3.2c-0.22,1.14-0.26,2.31-0.14,3.51c0.12,1.2,0.43,2.31,0.93,3.33c0.49,1.03,1.14,1.86,1.92,2.52
				c0.79,0.65,1.63,1.11,2.53,1.36c0.9,0.26,1.81,0.3,2.76,0.13c0.94-0.17,1.83-0.57,2.66-1.19c0.86-0.64,1.57-1.46,2.11-2.45
				c0.54-0.99,0.92-2.06,1.14-3.2c0.22-1.14,0.25-2.31,0.12-3.51c-0.14-1.2-0.46-2.31-0.95-3.33c-0.53-1.03-1.17-1.86-1.92-2.52
				c-0.76-0.65-1.58-1.11-2.48-1.36c-0.9-0.26-1.82-0.3-2.76-0.14C132.63,130.17,131.74,130.57,130.9,131.21z M140.5,112.81
				c0.65,0,1.26,0.09,1.83,0.26c0.57,0.17,1.07,0.41,1.51,0.71c0.43,0.3,0.77,0.65,1.02,1.04c0.25,0.4,0.37,0.81,0.37,1.23
				c0,0.45-0.12,0.87-0.37,1.27c-0.25,0.4-0.59,0.74-1.02,1.04c-0.43,0.3-0.93,0.54-1.51,0.72c-0.57,0.18-1.18,0.27-1.83,0.27
				c-0.65,0-1.25-0.09-1.81-0.27c-0.56-0.18-1.04-0.42-1.46-0.72c-0.42-0.3-0.75-0.65-1-1.04c-0.25-0.39-0.37-0.82-0.37-1.27
				c0-0.43,0.12-0.84,0.37-1.23c0.25-0.39,0.58-0.74,1-1.04c0.42-0.3,0.9-0.53,1.46-0.71C139.24,112.9,139.85,112.81,140.5,112.81z"
				/>
		</g>
	</g>
</g>
</svg>
